%TF.GenerationSoftware,KiCad,Pcbnew,(6.0.10)*%
%TF.CreationDate,2023-01-13T17:08:23+01:00*%
%TF.ProjectId,z80-test-board,7a38302d-7465-4737-942d-626f6172642e,rev?*%
%TF.SameCoordinates,Original*%
%TF.FileFunction,Copper,L1,Top*%
%TF.FilePolarity,Positive*%
%FSLAX46Y46*%
G04 Gerber Fmt 4.6, Leading zero omitted, Abs format (unit mm)*
G04 Created by KiCad (PCBNEW (6.0.10)) date 2023-01-13 17:08:23*
%MOMM*%
%LPD*%
G01*
G04 APERTURE LIST*
G04 Aperture macros list*
%AMRoundRect*
0 Rectangle with rounded corners*
0 $1 Rounding radius*
0 $2 $3 $4 $5 $6 $7 $8 $9 X,Y pos of 4 corners*
0 Add a 4 corners polygon primitive as box body*
4,1,4,$2,$3,$4,$5,$6,$7,$8,$9,$2,$3,0*
0 Add four circle primitives for the rounded corners*
1,1,$1+$1,$2,$3*
1,1,$1+$1,$4,$5*
1,1,$1+$1,$6,$7*
1,1,$1+$1,$8,$9*
0 Add four rect primitives between the rounded corners*
20,1,$1+$1,$2,$3,$4,$5,0*
20,1,$1+$1,$4,$5,$6,$7,0*
20,1,$1+$1,$6,$7,$8,$9,0*
20,1,$1+$1,$8,$9,$2,$3,0*%
G04 Aperture macros list end*
%TA.AperFunction,ComponentPad*%
%ADD10R,1.700000X1.700000*%
%TD*%
%TA.AperFunction,ComponentPad*%
%ADD11R,1.600000X1.600000*%
%TD*%
%TA.AperFunction,ComponentPad*%
%ADD12O,1.600000X1.600000*%
%TD*%
%TA.AperFunction,ComponentPad*%
%ADD13O,1.700000X1.700000*%
%TD*%
%TA.AperFunction,ComponentPad*%
%ADD14C,2.340000*%
%TD*%
%TA.AperFunction,SMDPad,CuDef*%
%ADD15R,1.000000X0.800000*%
%TD*%
%TA.AperFunction,SMDPad,CuDef*%
%ADD16R,0.700000X1.500000*%
%TD*%
%TA.AperFunction,ComponentPad*%
%ADD17C,2.000000*%
%TD*%
%TA.AperFunction,SMDPad,CuDef*%
%ADD18RoundRect,0.237500X0.237500X-0.250000X0.237500X0.250000X-0.237500X0.250000X-0.237500X-0.250000X0*%
%TD*%
%TA.AperFunction,SMDPad,CuDef*%
%ADD19RoundRect,0.250000X0.337500X0.475000X-0.337500X0.475000X-0.337500X-0.475000X0.337500X-0.475000X0*%
%TD*%
%TA.AperFunction,SMDPad,CuDef*%
%ADD20RoundRect,0.237500X0.287500X0.237500X-0.287500X0.237500X-0.287500X-0.237500X0.287500X-0.237500X0*%
%TD*%
%TA.AperFunction,SMDPad,CuDef*%
%ADD21RoundRect,0.237500X0.250000X0.237500X-0.250000X0.237500X-0.250000X-0.237500X0.250000X-0.237500X0*%
%TD*%
%TA.AperFunction,SMDPad,CuDef*%
%ADD22RoundRect,0.237500X-0.250000X-0.237500X0.250000X-0.237500X0.250000X0.237500X-0.250000X0.237500X0*%
%TD*%
%TA.AperFunction,SMDPad,CuDef*%
%ADD23RoundRect,0.237500X-0.237500X0.250000X-0.237500X-0.250000X0.237500X-0.250000X0.237500X0.250000X0*%
%TD*%
%TA.AperFunction,SMDPad,CuDef*%
%ADD24RoundRect,0.250000X-0.337500X-0.475000X0.337500X-0.475000X0.337500X0.475000X-0.337500X0.475000X0*%
%TD*%
%TA.AperFunction,SMDPad,CuDef*%
%ADD25RoundRect,0.200000X0.200000X0.275000X-0.200000X0.275000X-0.200000X-0.275000X0.200000X-0.275000X0*%
%TD*%
%TA.AperFunction,SMDPad,CuDef*%
%ADD26RoundRect,0.237500X-0.287500X-0.237500X0.287500X-0.237500X0.287500X0.237500X-0.287500X0.237500X0*%
%TD*%
%TA.AperFunction,SMDPad,CuDef*%
%ADD27RoundRect,0.150000X-0.725000X-0.150000X0.725000X-0.150000X0.725000X0.150000X-0.725000X0.150000X0*%
%TD*%
%TA.AperFunction,ComponentPad*%
%ADD28C,1.600000*%
%TD*%
%TA.AperFunction,SMDPad,CuDef*%
%ADD29RoundRect,0.250000X-0.475000X0.337500X-0.475000X-0.337500X0.475000X-0.337500X0.475000X0.337500X0*%
%TD*%
%TA.AperFunction,SMDPad,CuDef*%
%ADD30RoundRect,0.150000X-0.825000X-0.150000X0.825000X-0.150000X0.825000X0.150000X-0.825000X0.150000X0*%
%TD*%
%TA.AperFunction,ViaPad*%
%ADD31C,0.800000*%
%TD*%
%TA.AperFunction,Conductor*%
%ADD32C,0.250000*%
%TD*%
G04 APERTURE END LIST*
D10*
%TO.P,J4,1,Pin_1*%
%TO.N,/ROM1-CS*%
X124460000Y-73660000D03*
%TD*%
%TO.P,J3,1,Pin_1*%
%TO.N,/RAM1-CS*%
X182880000Y-78740000D03*
%TD*%
D11*
%TO.P,A1,1,NC*%
%TO.N,unconnected-(A1-Pad1)*%
X106685000Y-121930000D03*
D12*
%TO.P,A1,2,D0/RX*%
%TO.N,unconnected-(A1-Pad2)*%
X106685000Y-119390000D03*
%TO.P,A1,3,GND*%
%TO.N,unconnected-(A1-Pad3)*%
X106685000Y-116850000D03*
%TO.P,A1,4,GND*%
%TO.N,Net-(A1-Pad4)*%
X106685000Y-114310000D03*
%TO.P,A1,5,D2/SDA*%
%TO.N,/D7*%
X106685000Y-111770000D03*
%TO.P,A1,6,D3/SCL*%
%TO.N,/D6*%
X106685000Y-109230000D03*
%TO.P,A1,7,D4*%
%TO.N,/D5*%
X106685000Y-106690000D03*
%TO.P,A1,8,D5*%
%TO.N,/D4*%
X106685000Y-104150000D03*
%TO.P,A1,9,D6*%
%TO.N,/D3*%
X106685000Y-101610000D03*
%TO.P,A1,10,D7*%
%TO.N,/D2*%
X106685000Y-99070000D03*
%TO.P,A1,11,D8*%
%TO.N,/D1*%
X106685000Y-96530000D03*
%TO.P,A1,12,D9*%
%TO.N,/D0*%
X106685000Y-93990000D03*
%TO.P,A1,13,D10*%
%TO.N,Net-(A1-Pad13)*%
X91445000Y-93990000D03*
%TO.P,A1,14,D16*%
%TO.N,Net-(A1-Pad14)*%
X91445000Y-96530000D03*
%TO.P,A1,15,D14*%
%TO.N,Net-(A1-Pad15)*%
X91445000Y-99070000D03*
%TO.P,A1,16,D15*%
%TO.N,Net-(A1-Pad16)*%
X91445000Y-101610000D03*
%TO.P,A1,17,A0*%
%TO.N,Net-(A1-Pad17)*%
X91445000Y-104150000D03*
%TO.P,A1,18,A1*%
%TO.N,unconnected-(A1-Pad18)*%
X91445000Y-106690000D03*
%TO.P,A1,19,A2*%
%TO.N,unconnected-(A1-Pad19)*%
X91445000Y-109230000D03*
%TO.P,A1,20,A3*%
%TO.N,unconnected-(A1-Pad20)*%
X91445000Y-111770000D03*
%TO.P,A1,21,+5V*%
%TO.N,Net-(A1-Pad21)*%
X91445000Y-114310000D03*
%TO.P,A1,22,~{RESET}*%
%TO.N,unconnected-(A1-Pad22)*%
X91445000Y-116850000D03*
%TO.P,A1,23,GND*%
%TO.N,unconnected-(A1-Pad23)*%
X91445000Y-119390000D03*
%TO.P,A1,24,VIN*%
%TO.N,unconnected-(A1-Pad24)*%
X91445000Y-121930000D03*
%TD*%
D10*
%TO.P,SW13,1,A*%
%TO.N,+5V*%
X179355000Y-96520000D03*
D13*
%TO.P,SW13,2,B*%
%TO.N,/RST*%
X179355000Y-93980000D03*
%TO.P,SW13,3,C*%
%TO.N,GND*%
X179355000Y-91440000D03*
%TD*%
D14*
%TO.P,RV1,1,1*%
%TO.N,Net-(C1-Pad1)*%
X114380000Y-111585000D03*
%TO.P,RV1,2,2*%
%TO.N,Net-(R7-Pad1)*%
X124380000Y-109085000D03*
%TO.P,RV1,3,3*%
%TO.N,unconnected-(RV1-Pad3)*%
X114380000Y-106585000D03*
%TD*%
D10*
%TO.P,SW11,1,A*%
%TO.N,Net-(A1-Pad13)*%
X114730000Y-91440000D03*
D13*
%TO.P,SW11,2,B*%
%TO.N,PWR*%
X117270000Y-91440000D03*
%TO.P,SW11,3,C*%
%TO.N,+5V*%
X119810000Y-91440000D03*
%TD*%
D10*
%TO.P,SW7,1,A*%
%TO.N,Net-(A1-Pad4)*%
X127000000Y-45720000D03*
D13*
%TO.P,SW7,2,B*%
%TO.N,GND*%
X129540000Y-45720000D03*
%TO.P,SW7,3*%
%TO.N,N/C*%
X132080000Y-45720000D03*
%TD*%
D10*
%TO.P,SW3,1,A*%
%TO.N,Net-(A1-Pad17)*%
X101600000Y-45720000D03*
D13*
%TO.P,SW3,2,B*%
%TO.N,PRD*%
X104140000Y-45720000D03*
%TO.P,SW3,3,C*%
%TO.N,/RD*%
X106680000Y-45720000D03*
%TD*%
D10*
%TO.P,SW2,1,A*%
%TO.N,+5V*%
X93980000Y-45720000D03*
D13*
%TO.P,SW2,2,B*%
%TO.N,Net-(SW2-Pad2)*%
X91440000Y-45720000D03*
%TO.P,SW2,3,C*%
%TO.N,GND*%
X88900000Y-45720000D03*
%TD*%
D10*
%TO.P,SW1,1,A*%
%TO.N,Net-(A1-Pad21)*%
X114300000Y-45720000D03*
D13*
%TO.P,SW1,2,B*%
%TO.N,+5V*%
X116840000Y-45720000D03*
%TO.P,SW1,3*%
%TO.N,N/C*%
X119380000Y-45720000D03*
%TD*%
D15*
%TO.P,SW8,*%
%TO.N,*%
X157410000Y-130035000D03*
X157410000Y-127825000D03*
X167710000Y-127825000D03*
X167710000Y-130035000D03*
D16*
%TO.P,SW8,1,1*%
%TO.N,Net-(R3-Pad2)*%
X159560000Y-127175000D03*
%TO.P,SW8,2,2*%
%TO.N,Net-(R4-Pad2)*%
X161060000Y-127175000D03*
%TO.P,SW8,3,3*%
%TO.N,Net-(R2-Pad2)*%
X164060000Y-127175000D03*
%TO.P,SW8,4,4*%
%TO.N,Net-(R5-Pad2)*%
X165560000Y-127175000D03*
%TD*%
D17*
%TO.P,SW4,1,1*%
%TO.N,GND*%
X120090000Y-122210000D03*
X113590000Y-122210000D03*
%TO.P,SW4,2,2*%
%TO.N,Net-(CLK1-Pad8)*%
X120090000Y-126710000D03*
X113590000Y-126710000D03*
%TD*%
D18*
%TO.P,R7,1*%
%TO.N,Net-(R7-Pad1)*%
X133985000Y-110767500D03*
%TO.P,R7,2*%
%TO.N,Net-(CLK1-Pad1)*%
X133985000Y-108942500D03*
%TD*%
D19*
%TO.P,C7,1*%
%TO.N,GND*%
X152167500Y-107315000D03*
%TO.P,C7,2*%
%TO.N,Net-(C7-Pad2)*%
X150092500Y-107315000D03*
%TD*%
D20*
%TO.P,D15,1,K*%
%TO.N,Net-(D15-Pad1)*%
X169785000Y-36195000D03*
%TO.P,D15,2,A*%
%TO.N,/A12*%
X168035000Y-36195000D03*
%TD*%
%TO.P,D23,1,K*%
%TO.N,Net-(D23-Pad1)*%
X166610000Y-99060000D03*
%TO.P,D23,2,A*%
%TO.N,/D4*%
X164860000Y-99060000D03*
%TD*%
%TO.P,D21,1,K*%
%TO.N,Net-(D21-Pad1)*%
X166610000Y-93980000D03*
%TO.P,D21,2,A*%
%TO.N,/D2*%
X164860000Y-93980000D03*
%TD*%
%TO.P,D5,1,K*%
%TO.N,Net-(D5-Pad1)*%
X152005000Y-71120000D03*
%TO.P,D5,2,A*%
%TO.N,/A2*%
X150255000Y-71120000D03*
%TD*%
D21*
%TO.P,R32,1*%
%TO.N,GND*%
X170457500Y-99060000D03*
%TO.P,R32,2*%
%TO.N,Net-(D23-Pad1)*%
X168632500Y-99060000D03*
%TD*%
%TO.P,R14,1*%
%TO.N,GND*%
X155852500Y-71120000D03*
%TO.P,R14,2*%
%TO.N,Net-(D5-Pad1)*%
X154027500Y-71120000D03*
%TD*%
D22*
%TO.P,R9,1*%
%TO.N,Net-(D1-Pad2)*%
X132437500Y-121920000D03*
%TO.P,R9,2*%
%TO.N,+5V*%
X134262500Y-121920000D03*
%TD*%
D20*
%TO.P,D20,1,K*%
%TO.N,Net-(D20-Pad1)*%
X166610000Y-91440000D03*
%TO.P,D20,2,A*%
%TO.N,/D1*%
X164860000Y-91440000D03*
%TD*%
D23*
%TO.P,R5,1*%
%TO.N,GND*%
X161290000Y-97512500D03*
%TO.P,R5,2*%
%TO.N,Net-(R5-Pad2)*%
X161290000Y-99337500D03*
%TD*%
D11*
%TO.P,CPU1,1,A11*%
%TO.N,/A11*%
X132075000Y-52075000D03*
D12*
%TO.P,CPU1,2,A12*%
%TO.N,/A12*%
X132075000Y-54615000D03*
%TO.P,CPU1,3,A13*%
%TO.N,/A13*%
X132075000Y-57155000D03*
%TO.P,CPU1,4,A14*%
%TO.N,/A14*%
X132075000Y-59695000D03*
%TO.P,CPU1,5,A15*%
%TO.N,/A15*%
X132075000Y-62235000D03*
%TO.P,CPU1,6,~{CLK}*%
%TO.N,Clock*%
X132075000Y-64775000D03*
%TO.P,CPU1,7,D4*%
%TO.N,/D4*%
X132075000Y-67315000D03*
%TO.P,CPU1,8,D3*%
%TO.N,/D3*%
X132075000Y-69855000D03*
%TO.P,CPU1,9,D5*%
%TO.N,/D5*%
X132075000Y-72395000D03*
%TO.P,CPU1,10,D6*%
%TO.N,/D6*%
X132075000Y-74935000D03*
%TO.P,CPU1,11,VCC*%
%TO.N,+5V*%
X132075000Y-77475000D03*
%TO.P,CPU1,12,D2*%
%TO.N,/D2*%
X132075000Y-80015000D03*
%TO.P,CPU1,13,D7*%
%TO.N,/D7*%
X132075000Y-82555000D03*
%TO.P,CPU1,14,D0*%
%TO.N,/D0*%
X132075000Y-85095000D03*
%TO.P,CPU1,15,D1*%
%TO.N,/D1*%
X132075000Y-87635000D03*
%TO.P,CPU1,16,~{INT}*%
%TO.N,/INT*%
X132075000Y-90175000D03*
%TO.P,CPU1,17,~{NMI}*%
%TO.N,/NMI*%
X132075000Y-92715000D03*
%TO.P,CPU1,18,~{HALT}*%
%TO.N,/HALT*%
X132075000Y-95255000D03*
%TO.P,CPU1,19,~{MREQ}*%
%TO.N,/MREQ*%
X132075000Y-97795000D03*
%TO.P,CPU1,20,~{IORQ}*%
%TO.N,/IORQ*%
X132075000Y-100335000D03*
%TO.P,CPU1,21,~{RD}*%
%TO.N,/RD*%
X147315000Y-100335000D03*
%TO.P,CPU1,22,~{WR}*%
%TO.N,/WR*%
X147315000Y-97795000D03*
%TO.P,CPU1,23,~{BUSACK}*%
%TO.N,unconnected-(CPU1-Pad23)*%
X147315000Y-95255000D03*
%TO.P,CPU1,24,~{WAIT}*%
%TO.N,/WAIT*%
X147315000Y-92715000D03*
%TO.P,CPU1,25,~{BUSRQ}*%
%TO.N,unconnected-(CPU1-Pad25)*%
X147315000Y-90175000D03*
%TO.P,CPU1,26,~{RESET}*%
%TO.N,Net-(CPU1-Pad26)*%
X147315000Y-87635000D03*
%TO.P,CPU1,27,~{M1}*%
%TO.N,/M1*%
X147315000Y-85095000D03*
%TO.P,CPU1,28,~{RFSH}*%
%TO.N,/RFSH*%
X147315000Y-82555000D03*
%TO.P,CPU1,29,GND*%
%TO.N,GND*%
X147315000Y-80015000D03*
%TO.P,CPU1,30,A0*%
%TO.N,/A0*%
X147315000Y-77475000D03*
%TO.P,CPU1,31,A1*%
%TO.N,/A1*%
X147315000Y-74935000D03*
%TO.P,CPU1,32,A2*%
%TO.N,/A2*%
X147315000Y-72395000D03*
%TO.P,CPU1,33,A3*%
%TO.N,/A3*%
X147315000Y-69855000D03*
%TO.P,CPU1,34,A4*%
%TO.N,/A4*%
X147315000Y-67315000D03*
%TO.P,CPU1,35,A5*%
%TO.N,/A5*%
X147315000Y-64775000D03*
%TO.P,CPU1,36,A6*%
%TO.N,/A6*%
X147315000Y-62235000D03*
%TO.P,CPU1,37,A7*%
%TO.N,/A7*%
X147315000Y-59695000D03*
%TO.P,CPU1,38,A8*%
%TO.N,/A8*%
X147315000Y-57155000D03*
%TO.P,CPU1,39,A9*%
%TO.N,/A9*%
X147315000Y-54615000D03*
%TO.P,CPU1,40,A10*%
%TO.N,/A10*%
X147315000Y-52075000D03*
%TD*%
D21*
%TO.P,R23,1*%
%TO.N,GND*%
X173632500Y-38735000D03*
%TO.P,R23,2*%
%TO.N,Net-(D14-Pad1)*%
X171807500Y-38735000D03*
%TD*%
D20*
%TO.P,D19,1,K*%
%TO.N,Net-(D19-Pad1)*%
X166610000Y-88900000D03*
%TO.P,D19,2,A*%
%TO.N,/D0*%
X164860000Y-88900000D03*
%TD*%
D21*
%TO.P,R19,1*%
%TO.N,GND*%
X155852500Y-58420000D03*
%TO.P,R19,2*%
%TO.N,Net-(D10-Pad1)*%
X154027500Y-58420000D03*
%TD*%
D20*
%TO.P,D16,1,K*%
%TO.N,Net-(D16-Pad1)*%
X169785000Y-33655000D03*
%TO.P,D16,2,A*%
%TO.N,/A13*%
X168035000Y-33655000D03*
%TD*%
%TO.P,D6,1,K*%
%TO.N,Net-(D6-Pad1)*%
X152005000Y-68580000D03*
%TO.P,D6,2,A*%
%TO.N,/A3*%
X150255000Y-68580000D03*
%TD*%
%TO.P,D8,1,K*%
%TO.N,Net-(D8-Pad1)*%
X152005000Y-63500000D03*
%TO.P,D8,2,A*%
%TO.N,/A5*%
X150255000Y-63500000D03*
%TD*%
%TO.P,D22,1,K*%
%TO.N,Net-(D22-Pad1)*%
X166610000Y-96520000D03*
%TO.P,D22,2,A*%
%TO.N,/D3*%
X164860000Y-96520000D03*
%TD*%
D22*
%TO.P,R11,1*%
%TO.N,/RST*%
X151487500Y-88900000D03*
%TO.P,R11,2*%
%TO.N,Net-(CPU1-Pad26)*%
X153312500Y-88900000D03*
%TD*%
D19*
%TO.P,C5,1*%
%TO.N,Net-(C5-Pad1)*%
X134387500Y-116840000D03*
%TO.P,C5,2*%
%TO.N,GND*%
X132312500Y-116840000D03*
%TD*%
D21*
%TO.P,R26,1*%
%TO.N,GND*%
X173632500Y-31115000D03*
%TO.P,R26,2*%
%TO.N,Net-(D17-Pad1)*%
X171807500Y-31115000D03*
%TD*%
D11*
%TO.P,RAM1,1,A14*%
%TO.N,GND*%
X162555000Y-52055000D03*
D12*
%TO.P,RAM1,2,A12*%
%TO.N,/A12*%
X162555000Y-54595000D03*
%TO.P,RAM1,3,A7*%
%TO.N,/A7*%
X162555000Y-57135000D03*
%TO.P,RAM1,4,A6*%
%TO.N,/A6*%
X162555000Y-59675000D03*
%TO.P,RAM1,5,A5*%
%TO.N,/A5*%
X162555000Y-62215000D03*
%TO.P,RAM1,6,A4*%
%TO.N,/A4*%
X162555000Y-64755000D03*
%TO.P,RAM1,7,A3*%
%TO.N,/A3*%
X162555000Y-67295000D03*
%TO.P,RAM1,8,A2*%
%TO.N,/A2*%
X162555000Y-69835000D03*
%TO.P,RAM1,9,A1*%
%TO.N,/A1*%
X162555000Y-72375000D03*
%TO.P,RAM1,10,A0*%
%TO.N,/A0*%
X162555000Y-74915000D03*
%TO.P,RAM1,11,Q0*%
%TO.N,/D0*%
X162555000Y-77455000D03*
%TO.P,RAM1,12,Q1*%
%TO.N,/D1*%
X162555000Y-79995000D03*
%TO.P,RAM1,13,Q2*%
%TO.N,/D2*%
X162555000Y-82535000D03*
%TO.P,RAM1,14,GND*%
%TO.N,GND*%
X162555000Y-85075000D03*
%TO.P,RAM1,15,Q3*%
%TO.N,/D3*%
X177795000Y-85075000D03*
%TO.P,RAM1,16,Q4*%
%TO.N,/D4*%
X177795000Y-82535000D03*
%TO.P,RAM1,17,Q5*%
%TO.N,/D5*%
X177795000Y-79995000D03*
%TO.P,RAM1,18,Q6*%
%TO.N,/D6*%
X177795000Y-77455000D03*
%TO.P,RAM1,19,Q7*%
%TO.N,/D7*%
X177795000Y-74915000D03*
%TO.P,RAM1,20,~{CS}*%
%TO.N,/RAM1-CS*%
X177795000Y-72375000D03*
%TO.P,RAM1,21,A10*%
%TO.N,/A10*%
X177795000Y-69835000D03*
%TO.P,RAM1,22,~{OE}*%
%TO.N,/RD*%
X177795000Y-67295000D03*
%TO.P,RAM1,23,A11*%
%TO.N,/A11*%
X177795000Y-64755000D03*
%TO.P,RAM1,24,A9*%
%TO.N,/A9*%
X177795000Y-62215000D03*
%TO.P,RAM1,25,A8*%
%TO.N,/A8*%
X177795000Y-59675000D03*
%TO.P,RAM1,26,A13*%
%TO.N,GND*%
X177795000Y-57135000D03*
%TO.P,RAM1,27,~{WE}*%
%TO.N,/WR*%
X177795000Y-54595000D03*
%TO.P,RAM1,28,VCC*%
%TO.N,+5V*%
X177795000Y-52055000D03*
%TD*%
D20*
%TO.P,D9,1,K*%
%TO.N,Net-(D9-Pad1)*%
X152005000Y-60960000D03*
%TO.P,D9,2,A*%
%TO.N,/A6*%
X150255000Y-60960000D03*
%TD*%
D21*
%TO.P,R33,1*%
%TO.N,GND*%
X170457500Y-101600000D03*
%TO.P,R33,2*%
%TO.N,Net-(D24-Pad1)*%
X168632500Y-101600000D03*
%TD*%
%TO.P,R10,1*%
%TO.N,/ManClk*%
X134262500Y-124460000D03*
%TO.P,R10,2*%
%TO.N,Net-(D2-Pad2)*%
X132437500Y-124460000D03*
%TD*%
D20*
%TO.P,D18,1,K*%
%TO.N,Net-(D18-Pad1)*%
X169785000Y-28575000D03*
%TO.P,D18,2,A*%
%TO.N,/A15*%
X168035000Y-28575000D03*
%TD*%
D21*
%TO.P,R15,1*%
%TO.N,GND*%
X155852500Y-68580000D03*
%TO.P,R15,2*%
%TO.N,Net-(D6-Pad1)*%
X154027500Y-68580000D03*
%TD*%
D11*
%TO.P,ROM1,1*%
%TO.N,N/C*%
X101595000Y-52055000D03*
D12*
%TO.P,ROM1,2,A12*%
%TO.N,/A12*%
X101595000Y-54595000D03*
%TO.P,ROM1,3,A7*%
%TO.N,/A7*%
X101595000Y-57135000D03*
%TO.P,ROM1,4,A6*%
%TO.N,/A6*%
X101595000Y-59675000D03*
%TO.P,ROM1,5,A5*%
%TO.N,/A5*%
X101595000Y-62215000D03*
%TO.P,ROM1,6,A4*%
%TO.N,/A4*%
X101595000Y-64755000D03*
%TO.P,ROM1,7,A3*%
%TO.N,/A3*%
X101595000Y-67295000D03*
%TO.P,ROM1,8,A2*%
%TO.N,/A2*%
X101595000Y-69835000D03*
%TO.P,ROM1,9,A1*%
%TO.N,/A1*%
X101595000Y-72375000D03*
%TO.P,ROM1,10,A0*%
%TO.N,/A0*%
X101595000Y-74915000D03*
%TO.P,ROM1,11,I/O0*%
%TO.N,/D0*%
X101595000Y-77455000D03*
%TO.P,ROM1,12,I/O1*%
%TO.N,/D1*%
X101595000Y-79995000D03*
%TO.P,ROM1,13,I/O2*%
%TO.N,/D2*%
X101595000Y-82535000D03*
%TO.P,ROM1,14,GND*%
%TO.N,GND*%
X101595000Y-85075000D03*
%TO.P,ROM1,15,I/O3*%
%TO.N,/D3*%
X116835000Y-85075000D03*
%TO.P,ROM1,16,I/O4*%
%TO.N,/D4*%
X116835000Y-82535000D03*
%TO.P,ROM1,17,I/O5*%
%TO.N,/D5*%
X116835000Y-79995000D03*
%TO.P,ROM1,18,I/O6*%
%TO.N,/D6*%
X116835000Y-77455000D03*
%TO.P,ROM1,19,I/O7*%
%TO.N,/D7*%
X116835000Y-74915000D03*
%TO.P,ROM1,20,~{CE}*%
%TO.N,/ROM1-CS*%
X116835000Y-72375000D03*
%TO.P,ROM1,21,A10*%
%TO.N,/A10*%
X116835000Y-69835000D03*
%TO.P,ROM1,22,~{OE}*%
%TO.N,PRD*%
X116835000Y-67295000D03*
%TO.P,ROM1,23,A11*%
%TO.N,/A11*%
X116835000Y-64755000D03*
%TO.P,ROM1,24,A9*%
%TO.N,/A9*%
X116835000Y-62215000D03*
%TO.P,ROM1,25,A8*%
%TO.N,/A8*%
X116835000Y-59675000D03*
%TO.P,ROM1,26*%
%TO.N,N/C*%
X116835000Y-57135000D03*
%TO.P,ROM1,27,~{WE}*%
%TO.N,PWR*%
X116835000Y-54595000D03*
%TO.P,ROM1,28,VCC*%
%TO.N,+5V*%
X116835000Y-52055000D03*
%TD*%
D20*
%TO.P,D26,1,K*%
%TO.N,Net-(D26-Pad1)*%
X166610000Y-106680000D03*
%TO.P,D26,2,A*%
%TO.N,/D7*%
X164860000Y-106680000D03*
%TD*%
D21*
%TO.P,R31,1*%
%TO.N,GND*%
X170457500Y-96520000D03*
%TO.P,R31,2*%
%TO.N,Net-(D22-Pad1)*%
X168632500Y-96520000D03*
%TD*%
D24*
%TO.P,C4,1*%
%TO.N,GND*%
X132312500Y-119380000D03*
%TO.P,C4,2*%
%TO.N,+5V*%
X134387500Y-119380000D03*
%TD*%
D25*
%TO.P,R6,1*%
%TO.N,+5V*%
X139890000Y-108585000D03*
%TO.P,R6,2*%
%TO.N,Net-(CLK1-Pad1)*%
X138240000Y-108585000D03*
%TD*%
D18*
%TO.P,R4,1*%
%TO.N,GND*%
X151130000Y-101877500D03*
%TO.P,R4,2*%
%TO.N,Net-(R4-Pad2)*%
X151130000Y-100052500D03*
%TD*%
D26*
%TO.P,D1,1,K*%
%TO.N,GND*%
X128665000Y-121920000D03*
%TO.P,D1,2,A*%
%TO.N,Net-(D1-Pad2)*%
X130415000Y-121920000D03*
%TD*%
D21*
%TO.P,R12,1*%
%TO.N,GND*%
X155852500Y-76200000D03*
%TO.P,R12,2*%
%TO.N,Net-(D3-Pad1)*%
X154027500Y-76200000D03*
%TD*%
D10*
%TO.P,J2,1,Pin_1*%
%TO.N,/D7*%
X185420000Y-73660000D03*
D13*
%TO.P,J2,2,Pin_2*%
%TO.N,/D6*%
X187960000Y-73660000D03*
%TO.P,J2,3,Pin_3*%
%TO.N,/D5*%
X190500000Y-73660000D03*
%TO.P,J2,4,Pin_4*%
%TO.N,/D4*%
X193040000Y-73660000D03*
%TO.P,J2,5,Pin_5*%
%TO.N,/D3*%
X195580000Y-73660000D03*
%TO.P,J2,6,Pin_6*%
%TO.N,/D2*%
X198120000Y-73660000D03*
%TO.P,J2,7,Pin_7*%
%TO.N,/D1*%
X200660000Y-73660000D03*
%TO.P,J2,8,Pin_8*%
%TO.N,/D0*%
X203200000Y-73660000D03*
%TO.P,J2,9,Pin_9*%
%TO.N,/A15*%
X205740000Y-73660000D03*
%TO.P,J2,10,Pin_10*%
%TO.N,+5V*%
X208280000Y-73660000D03*
%TO.P,J2,11,Pin_11*%
%TO.N,/RST*%
X210820000Y-73660000D03*
%TO.P,J2,12,Pin_12*%
%TO.N,/IORQ*%
X213360000Y-73660000D03*
%TO.P,J2,13,Pin_13*%
%TO.N,/MREQ*%
X215900000Y-73660000D03*
%TO.P,J2,14,Pin_14*%
%TO.N,/RD*%
X218440000Y-73660000D03*
%TO.P,J2,15,Pin_15*%
%TO.N,/WR*%
X220980000Y-73660000D03*
%TO.P,J2,16,Pin_16*%
%TO.N,GND*%
X223520000Y-73660000D03*
%TD*%
D10*
%TO.P,J1,1,Pin_1*%
%TO.N,GND*%
X185420000Y-66040000D03*
D13*
%TO.P,J1,2,Pin_2*%
%TO.N,/A0*%
X187960000Y-66040000D03*
%TO.P,J1,3,Pin_3*%
%TO.N,/A1*%
X190500000Y-66040000D03*
%TO.P,J1,4,Pin_4*%
%TO.N,/A2*%
X193040000Y-66040000D03*
%TO.P,J1,5,Pin_5*%
%TO.N,/A3*%
X195580000Y-66040000D03*
%TO.P,J1,6,Pin_6*%
%TO.N,/A4*%
X198120000Y-66040000D03*
%TO.P,J1,7,Pin_7*%
%TO.N,/A5*%
X200660000Y-66040000D03*
%TO.P,J1,8,Pin_8*%
%TO.N,/A6*%
X203200000Y-66040000D03*
%TO.P,J1,9,Pin_9*%
%TO.N,/A7*%
X205740000Y-66040000D03*
%TO.P,J1,10,Pin_10*%
%TO.N,/A8*%
X208280000Y-66040000D03*
%TO.P,J1,11,Pin_11*%
%TO.N,/A9*%
X210820000Y-66040000D03*
%TO.P,J1,12,Pin_12*%
%TO.N,/A10*%
X213360000Y-66040000D03*
%TO.P,J1,13,Pin_13*%
%TO.N,/A11*%
X215900000Y-66040000D03*
%TO.P,J1,14,Pin_14*%
%TO.N,/A12*%
X218440000Y-66040000D03*
%TO.P,J1,15,Pin_15*%
%TO.N,/A13*%
X220980000Y-66040000D03*
%TO.P,J1,16,Pin_16*%
%TO.N,/A14*%
X223520000Y-66040000D03*
%TD*%
D21*
%TO.P,R18,1*%
%TO.N,GND*%
X155852500Y-60960000D03*
%TO.P,R18,2*%
%TO.N,Net-(D9-Pad1)*%
X154027500Y-60960000D03*
%TD*%
%TO.P,R16,1*%
%TO.N,GND*%
X155852500Y-66040000D03*
%TO.P,R16,2*%
%TO.N,Net-(D7-Pad1)*%
X154027500Y-66040000D03*
%TD*%
D20*
%TO.P,D11,1,K*%
%TO.N,Net-(D11-Pad1)*%
X169785000Y-46355000D03*
%TO.P,D11,2,A*%
%TO.N,/A8*%
X168035000Y-46355000D03*
%TD*%
D21*
%TO.P,R21,1*%
%TO.N,GND*%
X173632500Y-43815000D03*
%TO.P,R21,2*%
%TO.N,Net-(D12-Pad1)*%
X171807500Y-43815000D03*
%TD*%
D23*
%TO.P,R1,1*%
%TO.N,+5V*%
X148590000Y-124817500D03*
%TO.P,R1,2*%
%TO.N,Net-(CLK1-Pad8)*%
X148590000Y-126642500D03*
%TD*%
D11*
%TO.P,CLK1,1,DIS*%
%TO.N,Net-(CLK1-Pad1)*%
X137805000Y-111755000D03*
D12*
%TO.P,CLK1,2,THR*%
%TO.N,Net-(C1-Pad1)*%
X137805000Y-114295000D03*
%TO.P,CLK1,3,CV*%
%TO.N,Net-(C5-Pad1)*%
X137805000Y-116835000D03*
%TO.P,CLK1,4,R*%
%TO.N,+5V*%
X137805000Y-119375000D03*
%TO.P,CLK1,5,Q*%
X137805000Y-121915000D03*
%TO.P,CLK1,6,TR*%
%TO.N,Net-(C1-Pad1)*%
X137805000Y-124455000D03*
%TO.P,CLK1,7,GND*%
%TO.N,GND*%
X137805000Y-126995000D03*
%TO.P,CLK1,8,TR*%
%TO.N,Net-(CLK1-Pad8)*%
X145425000Y-126995000D03*
%TO.P,CLK1,9,Q*%
%TO.N,/ManClk*%
X145425000Y-124455000D03*
%TO.P,CLK1,10,R*%
%TO.N,+5V*%
X145425000Y-121915000D03*
%TO.P,CLK1,11,CV*%
%TO.N,Net-(C6-Pad1)*%
X145425000Y-119375000D03*
%TO.P,CLK1,12,THR*%
%TO.N,Net-(C7-Pad2)*%
X145425000Y-116835000D03*
%TO.P,CLK1,13,DIS*%
X145425000Y-114295000D03*
%TO.P,CLK1,14,VCC*%
%TO.N,+5V*%
X145425000Y-111755000D03*
%TD*%
D21*
%TO.P,R28,1*%
%TO.N,GND*%
X170457500Y-88900000D03*
%TO.P,R28,2*%
%TO.N,Net-(D19-Pad1)*%
X168632500Y-88900000D03*
%TD*%
%TO.P,R34,1*%
%TO.N,GND*%
X170457500Y-104140000D03*
%TO.P,R34,2*%
%TO.N,Net-(D25-Pad1)*%
X168632500Y-104140000D03*
%TD*%
D20*
%TO.P,D10,1,K*%
%TO.N,Net-(D10-Pad1)*%
X152005000Y-58420000D03*
%TO.P,D10,2,A*%
%TO.N,/A7*%
X150255000Y-58420000D03*
%TD*%
D21*
%TO.P,R20,1*%
%TO.N,GND*%
X173632500Y-46355000D03*
%TO.P,R20,2*%
%TO.N,Net-(D11-Pad1)*%
X171807500Y-46355000D03*
%TD*%
D20*
%TO.P,D25,1,K*%
%TO.N,Net-(D25-Pad1)*%
X166610000Y-104140000D03*
%TO.P,D25,2,A*%
%TO.N,/D6*%
X164860000Y-104140000D03*
%TD*%
D21*
%TO.P,R24,1*%
%TO.N,GND*%
X173632500Y-36195000D03*
%TO.P,R24,2*%
%TO.N,Net-(D15-Pad1)*%
X171807500Y-36195000D03*
%TD*%
D20*
%TO.P,D14,1,K*%
%TO.N,Net-(D14-Pad1)*%
X169785000Y-38735000D03*
%TO.P,D14,2,A*%
%TO.N,/A11*%
X168035000Y-38735000D03*
%TD*%
%TO.P,D13,1,K*%
%TO.N,Net-(D13-Pad1)*%
X169785000Y-41275000D03*
%TO.P,D13,2,A*%
%TO.N,/A10*%
X168035000Y-41275000D03*
%TD*%
D26*
%TO.P,D2,1,K*%
%TO.N,GND*%
X128665000Y-124460000D03*
%TO.P,D2,2,A*%
%TO.N,Net-(D2-Pad2)*%
X130415000Y-124460000D03*
%TD*%
D19*
%TO.P,C2,1*%
%TO.N,GND*%
X172487500Y-120650000D03*
%TO.P,C2,2*%
%TO.N,+5V*%
X170412500Y-120650000D03*
%TD*%
D21*
%TO.P,R13,1*%
%TO.N,GND*%
X155852500Y-73660000D03*
%TO.P,R13,2*%
%TO.N,Net-(D4-Pad1)*%
X154027500Y-73660000D03*
%TD*%
D22*
%TO.P,R2,1*%
%TO.N,+5V*%
X154027500Y-104775000D03*
%TO.P,R2,2*%
%TO.N,Net-(R2-Pad2)*%
X155852500Y-104775000D03*
%TD*%
D27*
%TO.P,U2,1,QB*%
%TO.N,/A1*%
X88865000Y-51435000D03*
%TO.P,U2,2,QC*%
%TO.N,/A2*%
X88865000Y-52705000D03*
%TO.P,U2,3,QD*%
%TO.N,/A3*%
X88865000Y-53975000D03*
%TO.P,U2,4,QE*%
%TO.N,/A4*%
X88865000Y-55245000D03*
%TO.P,U2,5,QF*%
%TO.N,/A5*%
X88865000Y-56515000D03*
%TO.P,U2,6,QG*%
%TO.N,/A6*%
X88865000Y-57785000D03*
%TO.P,U2,7,QH*%
%TO.N,/A7*%
X88865000Y-59055000D03*
%TO.P,U2,8,GND*%
%TO.N,GND*%
X88865000Y-60325000D03*
%TO.P,U2,9,QH'*%
%TO.N,Net-(U2-Pad9)*%
X94015000Y-60325000D03*
%TO.P,U2,10,~{SRCLR}*%
%TO.N,+5V*%
X94015000Y-59055000D03*
%TO.P,U2,11,SRCLK*%
%TO.N,Net-(A1-Pad15)*%
X94015000Y-57785000D03*
%TO.P,U2,12,RCLK*%
%TO.N,Net-(A1-Pad14)*%
X94015000Y-56515000D03*
%TO.P,U2,13,~{OE}*%
%TO.N,Net-(SW2-Pad2)*%
X94015000Y-55245000D03*
%TO.P,U2,14,SER*%
%TO.N,Net-(A1-Pad16)*%
X94015000Y-53975000D03*
%TO.P,U2,15,QA*%
%TO.N,/A0*%
X94015000Y-52705000D03*
%TO.P,U2,16,VCC*%
%TO.N,+5V*%
X94015000Y-51435000D03*
%TD*%
D22*
%TO.P,R8,1*%
%TO.N,+5V*%
X147042500Y-105410000D03*
%TO.P,R8,2*%
%TO.N,Net-(C7-Pad2)*%
X148867500Y-105410000D03*
%TD*%
D20*
%TO.P,D4,1,K*%
%TO.N,Net-(D4-Pad1)*%
X152005000Y-73660000D03*
%TO.P,D4,2,A*%
%TO.N,/A1*%
X150255000Y-73660000D03*
%TD*%
D21*
%TO.P,R22,1*%
%TO.N,GND*%
X173632500Y-41275000D03*
%TO.P,R22,2*%
%TO.N,Net-(D13-Pad1)*%
X171807500Y-41275000D03*
%TD*%
%TO.P,R27,1*%
%TO.N,GND*%
X173632500Y-28575000D03*
%TO.P,R27,2*%
%TO.N,Net-(D18-Pad1)*%
X171807500Y-28575000D03*
%TD*%
%TO.P,R17,1*%
%TO.N,GND*%
X155852500Y-63500000D03*
%TO.P,R17,2*%
%TO.N,Net-(D8-Pad1)*%
X154027500Y-63500000D03*
%TD*%
%TO.P,R35,1*%
%TO.N,GND*%
X170457500Y-106680000D03*
%TO.P,R35,2*%
%TO.N,Net-(D26-Pad1)*%
X168632500Y-106680000D03*
%TD*%
D19*
%TO.P,C3,1*%
%TO.N,GND*%
X145817500Y-107315000D03*
%TO.P,C3,2*%
%TO.N,+5V*%
X143742500Y-107315000D03*
%TD*%
D27*
%TO.P,U3,1,QB*%
%TO.N,/A9*%
X88865000Y-66675000D03*
%TO.P,U3,2,QC*%
%TO.N,/A10*%
X88865000Y-67945000D03*
%TO.P,U3,3,QD*%
%TO.N,/A11*%
X88865000Y-69215000D03*
%TO.P,U3,4,QE*%
%TO.N,/A12*%
X88865000Y-70485000D03*
%TO.P,U3,5,QF*%
%TO.N,unconnected-(U3-Pad5)*%
X88865000Y-71755000D03*
%TO.P,U3,6,QG*%
%TO.N,unconnected-(U3-Pad6)*%
X88865000Y-73025000D03*
%TO.P,U3,7,QH*%
%TO.N,unconnected-(U3-Pad7)*%
X88865000Y-74295000D03*
%TO.P,U3,8,GND*%
%TO.N,GND*%
X88865000Y-75565000D03*
%TO.P,U3,9,QH'*%
%TO.N,unconnected-(U3-Pad9)*%
X94015000Y-75565000D03*
%TO.P,U3,10,~{SRCLR}*%
%TO.N,+5V*%
X94015000Y-74295000D03*
%TO.P,U3,11,SRCLK*%
%TO.N,Net-(A1-Pad15)*%
X94015000Y-73025000D03*
%TO.P,U3,12,RCLK*%
%TO.N,Net-(A1-Pad14)*%
X94015000Y-71755000D03*
%TO.P,U3,13,~{OE}*%
%TO.N,Net-(SW2-Pad2)*%
X94015000Y-70485000D03*
%TO.P,U3,14,SER*%
%TO.N,Net-(U2-Pad9)*%
X94015000Y-69215000D03*
%TO.P,U3,15,QA*%
%TO.N,/A8*%
X94015000Y-67945000D03*
%TO.P,U3,16,VCC*%
%TO.N,+5V*%
X94015000Y-66675000D03*
%TD*%
D21*
%TO.P,R29,1*%
%TO.N,GND*%
X170457500Y-91440000D03*
%TO.P,R29,2*%
%TO.N,Net-(D20-Pad1)*%
X168632500Y-91440000D03*
%TD*%
D11*
%TO.P,X8.000Mhz1,1,EN*%
%TO.N,GND*%
X166370000Y-113030000D03*
D28*
%TO.P,X8.000Mhz1,7,GND*%
X151130000Y-113030000D03*
%TO.P,X8.000Mhz1,8,OUT*%
%TO.N,/FstClk*%
X151130000Y-120650000D03*
%TO.P,X8.000Mhz1,14,Vcc*%
%TO.N,+5V*%
X166370000Y-120650000D03*
%TD*%
D19*
%TO.P,C1,1*%
%TO.N,Net-(C1-Pad1)*%
X134387500Y-114300000D03*
%TO.P,C1,2*%
%TO.N,GND*%
X132312500Y-114300000D03*
%TD*%
D20*
%TO.P,D17,1,K*%
%TO.N,Net-(D17-Pad1)*%
X169785000Y-31115000D03*
%TO.P,D17,2,A*%
%TO.N,/A14*%
X168035000Y-31115000D03*
%TD*%
%TO.P,D7,1,K*%
%TO.N,Net-(D7-Pad1)*%
X152005000Y-66040000D03*
%TO.P,D7,2,A*%
%TO.N,/A4*%
X150255000Y-66040000D03*
%TD*%
D29*
%TO.P,C6,1*%
%TO.N,Net-(C6-Pad1)*%
X151765000Y-124692500D03*
%TO.P,C6,2*%
%TO.N,GND*%
X151765000Y-126767500D03*
%TD*%
D21*
%TO.P,R25,1*%
%TO.N,GND*%
X173632500Y-33655000D03*
%TO.P,R25,2*%
%TO.N,Net-(D16-Pad1)*%
X171807500Y-33655000D03*
%TD*%
D20*
%TO.P,D12,1,K*%
%TO.N,Net-(D12-Pad1)*%
X169785000Y-43815000D03*
%TO.P,D12,2,A*%
%TO.N,/A9*%
X168035000Y-43815000D03*
%TD*%
D30*
%TO.P,U1,1*%
%TO.N,/FstClk*%
X153735000Y-93345000D03*
%TO.P,U1,2*%
%TO.N,Net-(R3-Pad2)*%
X153735000Y-94615000D03*
%TO.P,U1,3*%
%TO.N,Clock*%
X153735000Y-95885000D03*
%TO.P,U1,4*%
X153735000Y-97155000D03*
%TO.P,U1,5*%
%TO.N,+5V*%
X153735000Y-98425000D03*
%TO.P,U1,6*%
%TO.N,Net-(R4-Pad2)*%
X153735000Y-99695000D03*
%TO.P,U1,7,VSS*%
%TO.N,GND*%
X153735000Y-100965000D03*
%TO.P,U1,8*%
%TO.N,/ManClk*%
X158685000Y-100965000D03*
%TO.P,U1,9*%
%TO.N,Net-(R5-Pad2)*%
X158685000Y-99695000D03*
%TO.P,U1,10*%
%TO.N,Clock*%
X158685000Y-98425000D03*
%TO.P,U1,11*%
%TO.N,N/C*%
X158685000Y-97155000D03*
%TO.P,U1,12*%
X158685000Y-95885000D03*
%TO.P,U1,13*%
X158685000Y-94615000D03*
%TO.P,U1,14,VDD*%
%TO.N,+5V*%
X158685000Y-93345000D03*
%TD*%
D21*
%TO.P,R30,1*%
%TO.N,GND*%
X170457500Y-93980000D03*
%TO.P,R30,2*%
%TO.N,Net-(D21-Pad1)*%
X168632500Y-93980000D03*
%TD*%
D20*
%TO.P,D3,1,K*%
%TO.N,Net-(D3-Pad1)*%
X152005000Y-76200000D03*
%TO.P,D3,2,A*%
%TO.N,/A0*%
X150255000Y-76200000D03*
%TD*%
%TO.P,D24,1,K*%
%TO.N,Net-(D24-Pad1)*%
X166610000Y-101600000D03*
%TO.P,D24,2,A*%
%TO.N,/D5*%
X164860000Y-101600000D03*
%TD*%
D18*
%TO.P,R3,1*%
%TO.N,GND*%
X151130000Y-96797500D03*
%TO.P,R3,2*%
%TO.N,Net-(R3-Pad2)*%
X151130000Y-94972500D03*
%TD*%
D31*
%TO.N,Net-(U2-Pad9)*%
X95504000Y-69215000D03*
X95504000Y-66929000D03*
%TO.N,/A1*%
X118999000Y-69215000D03*
X115443000Y-69215000D03*
X133604000Y-70358000D03*
X130175000Y-71247000D03*
%TO.N,Net-(A1-Pad14)*%
X92507200Y-71755000D03*
X92367100Y-56791300D03*
%TO.N,Net-(A1-Pad15)*%
X92211300Y-73025000D03*
%TO.N,Net-(A1-Pad16)*%
X92529900Y-53975000D03*
%TO.N,PWR*%
X114407000Y-85808800D03*
%TO.N,PRD*%
X110118000Y-67110600D03*
%TO.N,Net-(SW2-Pad2)*%
X91872300Y-67119000D03*
X91185900Y-55307400D03*
%TO.N,/A3*%
X95518700Y-53859300D03*
%TO.N,/A2*%
X175109000Y-66868900D03*
X98690900Y-52070000D03*
%TO.N,/A1*%
X92668000Y-49209100D03*
%TO.N,/A0*%
X95494900Y-52810100D03*
%TO.N,/D1*%
X157536000Y-90438300D03*
%TO.N,/D0*%
X158166000Y-84984800D03*
%TO.N,/D7*%
X164173000Y-105613000D03*
%TO.N,/D2*%
X162304000Y-92008900D03*
X189193000Y-81779000D03*
%TO.N,/D6*%
X165358000Y-102993000D03*
X164851000Y-86434300D03*
%TO.N,/D5*%
X165866000Y-100594000D03*
%TO.N,/D3*%
X168276000Y-95250000D03*
%TO.N,/D4*%
X125284000Y-82470700D03*
X167512000Y-98117600D03*
%TO.N,/A10*%
X168136000Y-69255200D03*
%TO.N,/A9*%
X156945000Y-61031100D03*
X136418000Y-53586500D03*
%TO.N,/A8*%
X136233000Y-58587900D03*
%TO.N,/RST*%
X178937000Y-86877200D03*
%TO.N,/A7*%
X169695000Y-56469300D03*
%TO.N,/A5*%
X96839100Y-50336900D03*
%TO.N,/A4*%
X174018000Y-65550600D03*
X96249600Y-54610100D03*
%TO.N,/RD*%
X143997000Y-55307200D03*
%TO.N,/A15*%
X165965000Y-31221400D03*
%TO.N,Clock*%
X155606000Y-97780700D03*
%TO.N,/A14*%
X159693000Y-32076900D03*
%TO.N,/A13*%
X168436000Y-35100800D03*
%TO.N,/A12*%
X102856000Y-68709900D03*
%TO.N,/A11*%
X170443000Y-64517100D03*
X166887000Y-40605900D03*
%TO.N,+5V*%
X113773000Y-84605300D03*
X92607000Y-59741900D03*
X152037000Y-103429000D03*
%TO.N,GND*%
X155227000Y-75061800D03*
X162808000Y-97421400D03*
%TD*%
D32*
%TO.N,Net-(C6-Pad1)*%
X145425000Y-119375000D02*
X146553000Y-119375000D01*
X146553000Y-119375000D02*
X151765000Y-124587000D01*
X151765000Y-124587000D02*
X151765000Y-124692500D01*
%TO.N,Net-(U2-Pad9)*%
X95504000Y-69215000D02*
X94015000Y-69215000D01*
%TO.N,Net-(C7-Pad2)*%
X149480000Y-106022000D02*
X149479500Y-106022000D01*
X149479500Y-106022000D02*
X148867500Y-105410000D01*
%TO.N,GND*%
X150486000Y-115570000D02*
X149987000Y-116069000D01*
X149987000Y-116069000D02*
X149987000Y-121098000D01*
X149987000Y-121098000D02*
X152854000Y-123965000D01*
X152854000Y-123965000D02*
X152854000Y-125679000D01*
X152854000Y-125679000D02*
X151765300Y-126767700D01*
%TO.N,+5V*%
X157480000Y-93345000D02*
X158685000Y-93345000D01*
X157480000Y-93345000D02*
X155575500Y-95249500D01*
X155575500Y-95249500D02*
X152707000Y-95249500D01*
X152707000Y-95249500D02*
X152071000Y-95885000D01*
X152071000Y-95885000D02*
X152071000Y-95938800D01*
%TO.N,/A15*%
X214481000Y-66580600D02*
X208577000Y-72484900D01*
X214630000Y-66431600D02*
X214481000Y-66580600D01*
X206815000Y-57717000D02*
X214630000Y-65532000D01*
X214630000Y-65532000D02*
X214630000Y-66431600D01*
X182717000Y-57717000D02*
X206815000Y-57717000D01*
X208577000Y-72484900D02*
X207723000Y-72484900D01*
X177397000Y-53325000D02*
X178325000Y-53325000D01*
X178325000Y-53325000D02*
X182717000Y-57717000D01*
X174085000Y-27732500D02*
X175792000Y-29440300D01*
X175792000Y-51720500D02*
X177397000Y-53325000D01*
X175792000Y-29440300D02*
X175792000Y-51720500D01*
X168878000Y-27732500D02*
X174085000Y-27732500D01*
X168035000Y-28575000D02*
X168878000Y-27732500D01*
X207723000Y-72484900D02*
X206915000Y-73292700D01*
X206915000Y-73292700D02*
X206915000Y-73660000D01*
X206915000Y-73660000D02*
X205740000Y-73660000D01*
%TO.N,+5V*%
X177795000Y-52055000D02*
X178920000Y-52055000D01*
X178920000Y-52055000D02*
X178920000Y-53097800D01*
X216575200Y-67269800D02*
X214670000Y-67269800D01*
X178920000Y-53097800D02*
X182948000Y-57125300D01*
X182948000Y-57125300D02*
X209271300Y-57125300D01*
X209271300Y-57125300D02*
X217170000Y-65024000D01*
X217170000Y-65024000D02*
X217170000Y-66675000D01*
X217170000Y-66675000D02*
X216575200Y-67269800D01*
X214670000Y-67269800D02*
X208280000Y-73660000D01*
%TO.N,/IORQ*%
X166199000Y-90508300D02*
X168317700Y-90508300D01*
X168317700Y-90508300D02*
X169545000Y-89281000D01*
X165735000Y-90972600D02*
X166199000Y-90508300D01*
X165735000Y-91944603D02*
X165735000Y-90972600D01*
X163298000Y-91233400D02*
X164310000Y-92246000D01*
X165433603Y-92246000D02*
X165735000Y-91944603D01*
X169545000Y-88399911D02*
X170055911Y-87889000D01*
X178950000Y-87889000D02*
X180867000Y-85972500D01*
X169545000Y-89281000D02*
X169545000Y-88399911D01*
X151565000Y-91233400D02*
X163298000Y-91233400D01*
X139550000Y-93985000D02*
X148813000Y-93985000D01*
X183269000Y-82954200D02*
X203258000Y-82954200D01*
X164310000Y-92246000D02*
X165433603Y-92246000D01*
X133200000Y-100335000D02*
X139550000Y-93985000D01*
X148813000Y-93985000D02*
X151565000Y-91233400D01*
X132075000Y-100335000D02*
X133200000Y-100335000D01*
X170055911Y-87889000D02*
X178950000Y-87889000D01*
X180867000Y-85972500D02*
X180867000Y-85356100D01*
X180867000Y-85356100D02*
X183269000Y-82954200D01*
X203258000Y-82954200D02*
X212185000Y-74027200D01*
X212185000Y-74027200D02*
X212185000Y-73660000D01*
X212185000Y-73660000D02*
X213360000Y-73660000D01*
%TO.N,/A3*%
X195580000Y-66040000D02*
X194405000Y-66040000D01*
X194405000Y-66040000D02*
X194405000Y-65674800D01*
X194405000Y-65674800D02*
X192177300Y-63447100D01*
X192177300Y-63447100D02*
X183857900Y-63447100D01*
X183857900Y-63447100D02*
X181198000Y-66107000D01*
X181198000Y-66107000D02*
X174800000Y-66107000D01*
X174800000Y-66107000D02*
X174601000Y-66306300D01*
X174601000Y-66306300D02*
X164669000Y-66306300D01*
X164669000Y-66306300D02*
X163680000Y-67295000D01*
X163680000Y-67295000D02*
X162555000Y-67295000D01*
%TO.N,/A5*%
X200660000Y-66040000D02*
X199485000Y-66040000D01*
X199485000Y-66040000D02*
X199485000Y-65632344D01*
X199485000Y-65632344D02*
X196849656Y-62997000D01*
X196849656Y-62997000D02*
X183672000Y-62997000D01*
X183672000Y-62997000D02*
X183293000Y-63376000D01*
X183293000Y-63376000D02*
X164841000Y-63376000D01*
X164841000Y-63376000D02*
X163680000Y-62215000D01*
X163680000Y-62215000D02*
X162555000Y-62215000D01*
%TO.N,/RST*%
X178937000Y-86877200D02*
X166971800Y-86877200D01*
X152301000Y-89713200D02*
X151995800Y-89408200D01*
X166971800Y-86877200D02*
X165711000Y-88138000D01*
X165711000Y-88138000D02*
X165711000Y-89422200D01*
X165711000Y-89422200D02*
X165420000Y-89713200D01*
X165420000Y-89713200D02*
X152301000Y-89713200D01*
%TO.N,/A11*%
X91015200Y-71147400D02*
X91015200Y-74124200D01*
X116835000Y-64755000D02*
X115710000Y-64755000D01*
X99630600Y-72073400D02*
X95377000Y-76327000D01*
X115710000Y-64755000D02*
X114552000Y-65912500D01*
X95377000Y-76327000D02*
X93218000Y-76327000D01*
X93218000Y-76327000D02*
X91015200Y-74124200D01*
X114552000Y-65912500D02*
X101331000Y-65912500D01*
X101331000Y-65912500D02*
X99630600Y-67612800D01*
X99630600Y-67612800D02*
X99630600Y-72073400D01*
X90065800Y-70198000D02*
X91015200Y-71147400D01*
X90065800Y-70074900D02*
X90065800Y-70198000D01*
X89205900Y-69215000D02*
X90065800Y-70074900D01*
X88865000Y-69215000D02*
X89205900Y-69215000D01*
%TO.N,/A12*%
X88865000Y-70485000D02*
X89184300Y-70485000D01*
X95528200Y-76835000D02*
X100445000Y-71918200D01*
X89184300Y-70485000D02*
X90565100Y-71865800D01*
X90565100Y-71865800D02*
X90565100Y-74563100D01*
X90565100Y-74563100D02*
X92837000Y-76835000D01*
X92837000Y-76835000D02*
X95528200Y-76835000D01*
X100445000Y-71918200D02*
X100445000Y-69393300D01*
X100445000Y-69393300D02*
X101129000Y-68709900D01*
X101129000Y-68709900D02*
X102856000Y-68709900D01*
%TO.N,/A10*%
X96150100Y-77343000D02*
X99703300Y-73789800D01*
X92583000Y-77343000D02*
X96150100Y-77343000D01*
X90065800Y-74825800D02*
X92583000Y-77343000D01*
X88865000Y-67945000D02*
X88564700Y-67945000D01*
X116566000Y-70104000D02*
X116835000Y-69835000D01*
X90065800Y-72539800D02*
X90065800Y-74825800D01*
X89916000Y-72390000D02*
X90065800Y-72539800D01*
X87901400Y-72390000D02*
X89916000Y-72390000D01*
X106263800Y-70104000D02*
X116566000Y-70104000D01*
X102578000Y-73789800D02*
X106263800Y-70104000D01*
X87653700Y-72142300D02*
X87901400Y-72390000D01*
X87653700Y-68856000D02*
X87653700Y-72142300D01*
X99703300Y-73789800D02*
X102578000Y-73789800D01*
X88564700Y-67945000D02*
X87653700Y-68856000D01*
%TO.N,/A9*%
X88865000Y-66675000D02*
X89207500Y-66675000D01*
X89207500Y-66675000D02*
X90644500Y-68112000D01*
X101241000Y-63485000D02*
X108244000Y-63485000D01*
X90644500Y-68112000D02*
X90644500Y-70140000D01*
X98040200Y-72251250D02*
X98040200Y-66685900D01*
X90644500Y-70140000D02*
X91486200Y-70981700D01*
X91486200Y-70981700D02*
X91486200Y-73359700D01*
X91486200Y-73359700D02*
X93056500Y-74930000D01*
X93056500Y-74930000D02*
X95361450Y-74930000D01*
X95361450Y-74930000D02*
X98040200Y-72251250D01*
X98040200Y-66685900D02*
X101241000Y-63485000D01*
X108244000Y-63485000D02*
X109514000Y-62215000D01*
X109514000Y-62215000D02*
X116835000Y-62215000D01*
%TO.N,/ManClk*%
X145425000Y-124455000D02*
X146550000Y-124455000D01*
X147885000Y-125790000D02*
X149098000Y-125790000D01*
X146550000Y-124455000D02*
X147885000Y-125790000D01*
X149098000Y-125790000D02*
X151964000Y-128656000D01*
X151964000Y-128656000D02*
X158153000Y-128656000D01*
X158153000Y-128656000D02*
X159291000Y-129794000D01*
X159291000Y-129794000D02*
X160368000Y-129794000D01*
X160368000Y-129794000D02*
X161756000Y-128406000D01*
X161756000Y-125117000D02*
X158685000Y-122046000D01*
X161756000Y-128406000D02*
X161756000Y-125117000D01*
X158685000Y-122046000D02*
X158685000Y-100965000D01*
%TO.N,/D7*%
X106685000Y-111770000D02*
X106685000Y-112895000D01*
X106918000Y-112895000D02*
X108100000Y-114077000D01*
X106685000Y-112895000D02*
X106918000Y-112895000D01*
X157967000Y-129106000D02*
X159163000Y-130302000D01*
X108100000Y-114077000D02*
X108100000Y-123143000D01*
X108100000Y-123143000D02*
X114063000Y-129106000D01*
X114063000Y-129106000D02*
X157967000Y-129106000D01*
X159163000Y-130302000D02*
X164973000Y-130302000D01*
X164973000Y-130302000D02*
X166241000Y-129034000D01*
X166241000Y-129034000D02*
X166241000Y-122120000D01*
X166241000Y-122120000D02*
X164860000Y-120739000D01*
X164860000Y-120739000D02*
X164860000Y-106680000D01*
%TO.N,Net-(U2-Pad9)*%
X95272400Y-66973500D02*
X95459500Y-66973500D01*
X95459500Y-66973500D02*
X95504000Y-66929000D01*
%TO.N,/A8*%
X94015000Y-67945000D02*
X96052800Y-67945000D01*
X98615800Y-63602900D02*
X101261000Y-60957900D01*
X96052800Y-67945000D02*
X98615800Y-65382000D01*
X98615800Y-65382000D02*
X98615800Y-63602900D01*
X101261000Y-60957900D02*
X102074000Y-60957900D01*
X102074000Y-60957900D02*
X103357000Y-59675000D01*
X103357000Y-59675000D02*
X116835000Y-59675000D01*
%TO.N,+5V*%
X94015000Y-74295000D02*
X94299000Y-74295000D01*
X94299000Y-74295000D02*
X95721900Y-72872100D01*
X95031500Y-69850000D02*
X93078000Y-69850000D01*
X95721900Y-72872100D02*
X95721900Y-70540400D01*
X95721900Y-70540400D02*
X95031500Y-69850000D01*
X93078000Y-69850000D02*
X92322400Y-69094400D01*
X92322400Y-69094400D02*
X92322400Y-67697600D01*
X92322400Y-67697600D02*
X93345000Y-66675000D01*
X93345000Y-66675000D02*
X94015000Y-66675000D01*
%TO.N,/A1*%
X128749800Y-68989200D02*
X130175000Y-70414400D01*
X130175000Y-70414400D02*
X130175000Y-71247000D01*
X118999000Y-69215000D02*
X119224800Y-68989200D01*
X119224800Y-68989200D02*
X128749800Y-68989200D01*
X115414800Y-68989200D02*
X115443000Y-69017400D01*
X115443000Y-69017400D02*
X115443000Y-69215000D01*
%TO.N,/A2*%
X147315000Y-72395000D02*
X146190000Y-72395000D01*
X146190000Y-72395000D02*
X142248000Y-68453000D01*
X142248000Y-68453000D02*
X106324000Y-68453000D01*
X106324000Y-68453000D02*
X104942000Y-69835000D01*
X104942000Y-69835000D02*
X101595000Y-69835000D01*
%TO.N,/A1*%
X106742000Y-68989200D02*
X115414800Y-68989200D01*
X141608923Y-70354077D02*
X146190000Y-74935000D01*
X133604000Y-70358000D02*
X141605000Y-70358000D01*
X141605000Y-70358000D02*
X141608923Y-70354077D01*
%TO.N,/A0*%
X127930800Y-72390000D02*
X130175000Y-72390000D01*
X126766900Y-71226100D02*
X127930800Y-72390000D01*
X130175000Y-72390000D02*
X131338900Y-71226100D01*
X131338900Y-71226100D02*
X139941100Y-71226100D01*
X106409000Y-71226100D02*
X126766900Y-71226100D01*
X101595000Y-74915000D02*
X102720000Y-74915000D01*
X102720000Y-74915000D02*
X106409000Y-71226100D01*
X139941100Y-71226100D02*
X146190000Y-77475000D01*
X146190000Y-77475000D02*
X147315000Y-77475000D01*
%TO.N,Net-(A1-Pad13)*%
X92570100Y-93990000D02*
X91445000Y-93990000D01*
X95120100Y-91440000D02*
X92570100Y-93990000D01*
X114730000Y-91440000D02*
X95120100Y-91440000D01*
%TO.N,Net-(A1-Pad14)*%
X94015000Y-71755000D02*
X92507200Y-71755000D01*
X92643400Y-56515000D02*
X94015000Y-56515000D01*
X92367100Y-56791300D02*
X92643400Y-56515000D01*
%TO.N,Net-(A1-Pad15)*%
X94346400Y-73025000D02*
X94015000Y-73025000D01*
X95234600Y-72136800D02*
X94346400Y-73025000D01*
X95234600Y-71374200D02*
X95234600Y-72136800D01*
X94980400Y-71120000D02*
X95234600Y-71374200D01*
X93016500Y-71120000D02*
X94980400Y-71120000D01*
X91120300Y-69223800D02*
X93016500Y-71120000D01*
X91120300Y-60197300D02*
X91120300Y-69223800D01*
X93532600Y-57785000D02*
X91120300Y-60197300D01*
X94015000Y-57785000D02*
X93532600Y-57785000D01*
X94015000Y-73025000D02*
X92211300Y-73025000D01*
%TO.N,Net-(A1-Pad16)*%
X94015000Y-53975000D02*
X92529900Y-53975000D01*
%TO.N,PWR*%
X114407000Y-87401500D02*
X114407000Y-85808800D01*
X117270000Y-90264900D02*
X114407000Y-87401500D01*
X117270000Y-91440000D02*
X117270000Y-90264900D01*
%TO.N,PRD*%
X110302000Y-67295000D02*
X110118000Y-67110600D01*
X116835000Y-67295000D02*
X110302000Y-67295000D01*
%TO.N,Net-(SW2-Pad2)*%
X93952600Y-55307400D02*
X94015000Y-55245000D01*
X91185900Y-55307400D02*
X93952600Y-55307400D01*
X91872300Y-69336100D02*
X91872300Y-67119000D01*
X93021200Y-70485000D02*
X91872300Y-69336100D01*
X94015000Y-70485000D02*
X93021200Y-70485000D01*
%TO.N,Net-(R7-Pad1)*%
X126062000Y-110768000D02*
X133984000Y-110768000D01*
X124380000Y-109085000D02*
X126062000Y-110768000D01*
X133984500Y-110768000D02*
X133985000Y-110767500D01*
X133984000Y-110768000D02*
X133984500Y-110768000D01*
%TO.N,Net-(R4-Pad2)*%
X161060000Y-125753000D02*
X161060000Y-127175000D01*
X155039000Y-119732000D02*
X161060000Y-125753000D01*
X155039000Y-100524000D02*
X155039000Y-119732000D01*
X154209000Y-99695000D02*
X155039000Y-100524000D01*
X153735000Y-99695000D02*
X154209000Y-99695000D01*
X151309000Y-99873500D02*
X151130000Y-100052500D01*
X151488000Y-99695000D02*
X151309000Y-99873500D01*
X153735000Y-99695000D02*
X151488000Y-99695000D01*
%TO.N,Net-(R3-Pad2)*%
X150888000Y-94972500D02*
X151130000Y-94972500D01*
X149377000Y-96483200D02*
X150888000Y-94972500D01*
X149377000Y-102257000D02*
X149377000Y-96483200D01*
X153548000Y-106428000D02*
X149377000Y-102257000D01*
X153548000Y-120088000D02*
X153548000Y-106428000D01*
X159560000Y-126100000D02*
X153548000Y-120088000D01*
X159560000Y-127175000D02*
X159560000Y-126100000D01*
X151488000Y-94615000D02*
X153735000Y-94615000D01*
X151130000Y-94972500D02*
X151488000Y-94615000D01*
%TO.N,/A3*%
X148980000Y-69855000D02*
X147315000Y-69855000D01*
X150255000Y-68580000D02*
X148980000Y-69855000D01*
X94999400Y-53340000D02*
X95518700Y-53859300D01*
X93039400Y-53340000D02*
X94999400Y-53340000D01*
X92859900Y-53160500D02*
X93039400Y-53340000D01*
X90155100Y-53160500D02*
X92859900Y-53160500D01*
X89340600Y-53975000D02*
X90155100Y-53160500D01*
X88865000Y-53975000D02*
X89340600Y-53975000D01*
X102720000Y-67295000D02*
X101595000Y-67295000D01*
X103630000Y-66385400D02*
X102720000Y-67295000D01*
X115210000Y-66385400D02*
X103630000Y-66385400D01*
X115432000Y-66162500D02*
X115210000Y-66385400D01*
X142497000Y-66162500D02*
X115432000Y-66162500D01*
X146190000Y-69855000D02*
X142497000Y-66162500D01*
X147315000Y-69855000D02*
X146190000Y-69855000D01*
%TO.N,/A2*%
X163680000Y-69835000D02*
X162555000Y-69835000D01*
X166646000Y-66868900D02*
X163680000Y-69835000D01*
X175109000Y-66868900D02*
X166646000Y-66868900D01*
X148980000Y-72395000D02*
X150255000Y-71120000D01*
X147315000Y-72395000D02*
X148980000Y-72395000D01*
X89500000Y-52070000D02*
X98690900Y-52070000D01*
X88865000Y-52705000D02*
X89500000Y-52070000D01*
%TO.N,/A1*%
X91090900Y-49209100D02*
X88865000Y-51435000D01*
X92668000Y-49209100D02*
X91090900Y-49209100D01*
X149715000Y-73660000D02*
X150255000Y-73660000D01*
X148440000Y-74935000D02*
X149715000Y-73660000D01*
X147315000Y-74935000D02*
X148440000Y-74935000D01*
X163680000Y-72375000D02*
X162555000Y-72375000D01*
X167525000Y-68530100D02*
X163680000Y-72375000D01*
X179452000Y-68530100D02*
X167525000Y-68530100D01*
X184042000Y-63940200D02*
X179452000Y-68530100D01*
X188400000Y-63940200D02*
X184042000Y-63940200D01*
X190500000Y-66040000D02*
X188400000Y-63940200D01*
X146190000Y-74935000D02*
X147315000Y-74935000D01*
X103357000Y-72375000D02*
X106742000Y-68989200D01*
X101595000Y-72375000D02*
X103357000Y-72375000D01*
%TO.N,/A0*%
X95389800Y-52705000D02*
X95494900Y-52810100D01*
X94015000Y-52705000D02*
X95389800Y-52705000D01*
X186785000Y-66040000D02*
X187960000Y-66040000D01*
X186785000Y-65210000D02*
X186785000Y-66040000D01*
X186429000Y-64853700D02*
X186785000Y-65210000D01*
X184401000Y-64853700D02*
X186429000Y-64853700D01*
X178005000Y-71249800D02*
X184401000Y-64853700D01*
X167345000Y-71249800D02*
X178005000Y-71249800D01*
X163680000Y-74915000D02*
X167345000Y-71249800D01*
X162555000Y-74915000D02*
X163680000Y-74915000D01*
X148440000Y-77475000D02*
X147315000Y-77475000D01*
X149715000Y-76200000D02*
X148440000Y-77475000D01*
X150255000Y-76200000D02*
X149715000Y-76200000D01*
X161430000Y-74915000D02*
X162555000Y-74915000D01*
X159294000Y-77050800D02*
X161430000Y-74915000D01*
X151106000Y-77050800D02*
X159294000Y-77050800D01*
X150255000Y-76200000D02*
X151106000Y-77050800D01*
%TO.N,/ROM1-CS*%
X122000000Y-72375000D02*
X116835000Y-72375000D01*
X123285000Y-73660000D02*
X122000000Y-72375000D01*
X124460000Y-73660000D02*
X123285000Y-73660000D01*
%TO.N,/D1*%
X163858000Y-90438300D02*
X164860000Y-91440000D01*
X157536000Y-90438300D02*
X163858000Y-90438300D01*
X163680000Y-79995000D02*
X162555000Y-79995000D01*
X164830000Y-81144500D02*
X163680000Y-79995000D01*
X186447000Y-81144500D02*
X164830000Y-81144500D01*
X186538000Y-81053900D02*
X186447000Y-81144500D01*
X192458000Y-81053900D02*
X186538000Y-81053900D01*
X199485000Y-74027200D02*
X192458000Y-81053900D01*
X199485000Y-73660000D02*
X199485000Y-74027200D01*
X200660000Y-73660000D02*
X199485000Y-73660000D01*
X130950000Y-87635000D02*
X132075000Y-87635000D01*
X122055000Y-96530000D02*
X130950000Y-87635000D01*
X106685000Y-96530000D02*
X122055000Y-96530000D01*
X150352000Y-90438300D02*
X157536000Y-90438300D01*
X148674000Y-88760100D02*
X150352000Y-90438300D01*
X134325000Y-88760100D02*
X148674000Y-88760100D01*
X133200000Y-87635000D02*
X134325000Y-88760100D01*
X132075000Y-87635000D02*
X133200000Y-87635000D01*
%TO.N,/D0*%
X202025000Y-73660000D02*
X203200000Y-73660000D01*
X202025000Y-73292800D02*
X202025000Y-73660000D01*
X201217000Y-72484800D02*
X202025000Y-73292800D01*
X179615000Y-72484800D02*
X201217000Y-72484800D01*
X178455000Y-73645000D02*
X179615000Y-72484800D01*
X167490000Y-73645000D02*
X178455000Y-73645000D01*
X163680000Y-77455000D02*
X167490000Y-73645000D01*
X162555000Y-77455000D02*
X163680000Y-77455000D01*
X162082000Y-88900000D02*
X164860000Y-88900000D01*
X158166000Y-84984800D02*
X162082000Y-88900000D01*
X133200000Y-85095000D02*
X132075000Y-85095000D01*
X134339000Y-86234200D02*
X133200000Y-85095000D01*
X156917000Y-86234200D02*
X134339000Y-86234200D01*
X158166000Y-84984800D02*
X156917000Y-86234200D01*
X122055000Y-93990000D02*
X106685000Y-93990000D01*
X130950000Y-85095000D02*
X122055000Y-93990000D01*
X132075000Y-85095000D02*
X130950000Y-85095000D01*
%TO.N,Net-(U2-Pad9)*%
X95272400Y-61582400D02*
X94015000Y-60325000D01*
X95272400Y-66973500D02*
X95272400Y-61582400D01*
X94015000Y-69215000D02*
X93697900Y-69215000D01*
%TO.N,/D7*%
X116835000Y-76040100D02*
X116835000Y-74915000D01*
X116554000Y-76040100D02*
X116835000Y-76040100D01*
X115683000Y-76910600D02*
X116554000Y-76040100D01*
X115683000Y-80509100D02*
X115683000Y-76910600D01*
X116338000Y-81164000D02*
X115683000Y-80509100D01*
X129559000Y-81164000D02*
X116338000Y-81164000D01*
X130950000Y-82555000D02*
X129559000Y-81164000D01*
X132075000Y-82555000D02*
X130950000Y-82555000D01*
X164860000Y-106300000D02*
X164860000Y-106680000D01*
X164173000Y-105613000D02*
X164860000Y-106300000D01*
X180175000Y-73660000D02*
X185420000Y-73660000D01*
X178920000Y-74915000D02*
X180175000Y-73660000D01*
X177795000Y-74915000D02*
X178920000Y-74915000D01*
%TO.N,Net-(R5-Pad2)*%
X165560000Y-124341000D02*
X165560000Y-127175000D01*
X160932000Y-119713000D02*
X165560000Y-124341000D01*
X160932000Y-99695000D02*
X160932000Y-119713000D01*
X158685000Y-99695000D02*
X160932000Y-99695000D01*
X160932000Y-99695000D02*
X161290000Y-99337500D01*
%TO.N,Net-(R2-Pad2)*%
X155852000Y-102093000D02*
X155852000Y-102763500D01*
X157615000Y-100330000D02*
X155852000Y-102093000D01*
X159712000Y-100330000D02*
X157615000Y-100330000D01*
X160075000Y-100692000D02*
X159712000Y-100330000D01*
X160075000Y-119686000D02*
X160075000Y-100692000D01*
X164060000Y-123672000D02*
X160075000Y-119686000D01*
X164060000Y-127175000D02*
X164060000Y-123672000D01*
X155852000Y-102763500D02*
X155852000Y-103434000D01*
X155852500Y-102764000D02*
X155852500Y-104775000D01*
X155852000Y-102763500D02*
X155852500Y-102764000D01*
%TO.N,Net-(D26-Pad1)*%
X168632000Y-106680000D02*
X166610000Y-106680000D01*
X168632000Y-106680000D02*
X168632500Y-106680000D01*
%TO.N,Net-(D25-Pad1)*%
X166610000Y-104140000D02*
X168632000Y-104140000D01*
X168632000Y-104140000D02*
X168632500Y-104140000D01*
%TO.N,Net-(D24-Pad1)*%
X166610000Y-101600000D02*
X168632000Y-101600000D01*
X168632000Y-101600000D02*
X168632500Y-101600000D01*
%TO.N,Net-(D23-Pad1)*%
X168632000Y-99060000D02*
X166610000Y-99060000D01*
X168632000Y-99060000D02*
X168632500Y-99060000D01*
%TO.N,Net-(D22-Pad1)*%
X168632000Y-96520000D02*
X166610000Y-96520000D01*
X168632000Y-96520000D02*
X168632500Y-96520000D01*
%TO.N,Net-(D21-Pad1)*%
X168632000Y-93980000D02*
X166610000Y-93980000D01*
X168632000Y-93980000D02*
X168632500Y-93980000D01*
%TO.N,Net-(D20-Pad1)*%
X168632000Y-91440000D02*
X166610000Y-91440000D01*
X168632000Y-91440000D02*
X168632500Y-91440000D01*
%TO.N,Net-(D19-Pad1)*%
X168632000Y-88900000D02*
X166610000Y-88900000D01*
X168632000Y-88900000D02*
X168632500Y-88900000D01*
%TO.N,Net-(D18-Pad1)*%
X171808000Y-28575000D02*
X171807500Y-28575000D01*
X171807500Y-28575000D02*
X169785000Y-28575000D01*
%TO.N,Net-(D17-Pad1)*%
X169785000Y-31115000D02*
X171807500Y-31115000D01*
X171807500Y-31115000D02*
X171808000Y-31115000D01*
%TO.N,Net-(D16-Pad1)*%
X171808000Y-33655000D02*
X171807500Y-33655000D01*
X171807500Y-33655000D02*
X169785000Y-33655000D01*
%TO.N,Net-(D15-Pad1)*%
X171808000Y-36195000D02*
X171807500Y-36195000D01*
X171807500Y-36195000D02*
X169785000Y-36195000D01*
%TO.N,Net-(D14-Pad1)*%
X169785000Y-38735000D02*
X171807500Y-38735000D01*
X171807500Y-38735000D02*
X171808000Y-38735000D01*
%TO.N,Net-(D13-Pad1)*%
X171808000Y-41275000D02*
X171807500Y-41275000D01*
X171807500Y-41275000D02*
X169785000Y-41275000D01*
%TO.N,Net-(D12-Pad1)*%
X169785000Y-43815000D02*
X171807500Y-43815000D01*
X171807500Y-43815000D02*
X171808000Y-43815000D01*
%TO.N,Net-(D11-Pad1)*%
X171808000Y-46355000D02*
X171807500Y-46355000D01*
X171807500Y-46355000D02*
X169785000Y-46355000D01*
%TO.N,Net-(D10-Pad1)*%
X152005000Y-58420000D02*
X154027500Y-58420000D01*
X154027500Y-58420000D02*
X154028000Y-58420000D01*
%TO.N,Net-(D9-Pad1)*%
X154028000Y-60960000D02*
X154027500Y-60960000D01*
X154027500Y-60960000D02*
X152005000Y-60960000D01*
%TO.N,Net-(D8-Pad1)*%
X154028000Y-63500000D02*
X154027500Y-63500000D01*
X154027500Y-63500000D02*
X152005000Y-63500000D01*
%TO.N,Net-(D7-Pad1)*%
X152005000Y-66040000D02*
X154027500Y-66040000D01*
X154027500Y-66040000D02*
X154028000Y-66040000D01*
%TO.N,Net-(D6-Pad1)*%
X154028000Y-68580000D02*
X154027500Y-68580000D01*
X154027500Y-68580000D02*
X152005000Y-68580000D01*
%TO.N,Net-(D5-Pad1)*%
X154028000Y-71120000D02*
X154027500Y-71120000D01*
X154027500Y-71120000D02*
X152005000Y-71120000D01*
%TO.N,Net-(D4-Pad1)*%
X152005000Y-73660000D02*
X154027500Y-73660000D01*
X154027500Y-73660000D02*
X154028000Y-73660000D01*
%TO.N,Net-(D3-Pad1)*%
X152005000Y-76200000D02*
X154027500Y-76200000D01*
X154027500Y-76200000D02*
X154028000Y-76200000D01*
%TO.N,Net-(D2-Pad2)*%
X130415000Y-124460000D02*
X132437500Y-124460000D01*
X132437500Y-124460000D02*
X132438000Y-124460000D01*
%TO.N,Net-(D1-Pad2)*%
X130415000Y-121920000D02*
X132437500Y-121920000D01*
X132437500Y-121920000D02*
X132438000Y-121920000D01*
%TO.N,/D2*%
X133214000Y-81998200D02*
X133214000Y-83013200D01*
X132356000Y-81140100D02*
X133214000Y-81998200D01*
X132075000Y-81140100D02*
X132356000Y-81140100D01*
X132075000Y-80015000D02*
X132075000Y-81140100D01*
X102720000Y-82535000D02*
X101595000Y-82535000D01*
X103891000Y-83706000D02*
X102720000Y-82535000D01*
X132522000Y-83706000D02*
X103891000Y-83706000D01*
X133214000Y-83013200D02*
X132522000Y-83706000D01*
X162889000Y-92008900D02*
X164860000Y-93980000D01*
X162304000Y-92008900D02*
X162889000Y-92008900D01*
X182200000Y-81779000D02*
X189193000Y-81779000D01*
X180304000Y-83675500D02*
X182200000Y-81779000D01*
X166445000Y-83675500D02*
X180304000Y-83675500D01*
X165576000Y-84544700D02*
X166445000Y-83675500D01*
X165576000Y-86734700D02*
X165576000Y-84544700D01*
X165151000Y-87159400D02*
X165576000Y-86734700D01*
X162017000Y-87159400D02*
X165151000Y-87159400D01*
X158543000Y-83685300D02*
X162017000Y-87159400D01*
X133886000Y-83685300D02*
X158543000Y-83685300D01*
X133214000Y-83013200D02*
X133886000Y-83685300D01*
X162555000Y-83660100D02*
X162555000Y-82535000D01*
X164691000Y-83660100D02*
X162555000Y-83660100D01*
X165576000Y-84544700D02*
X164691000Y-83660100D01*
%TO.N,/FstClk*%
X153090000Y-118690000D02*
X151130000Y-120650000D01*
X153090000Y-106606000D02*
X153090000Y-118690000D01*
X148924000Y-102441000D02*
X153090000Y-106606000D01*
X148924000Y-95873300D02*
X148924000Y-102441000D01*
X151453000Y-93345000D02*
X148924000Y-95873300D01*
X153735000Y-93345000D02*
X151453000Y-93345000D01*
%TO.N,/ManClk*%
X134262500Y-124459500D02*
X134262000Y-124460000D01*
X135458000Y-123264000D02*
X134262500Y-124459500D01*
X143109000Y-123264000D02*
X135458000Y-123264000D01*
X144300000Y-124455000D02*
X143109000Y-123264000D01*
X145425000Y-124455000D02*
X144300000Y-124455000D01*
X134262500Y-124459500D02*
X134262500Y-124460000D01*
%TO.N,Net-(CLK1-Pad8)*%
X113590000Y-126710000D02*
X120090000Y-126710000D01*
X121510000Y-128130000D02*
X120090000Y-126710000D01*
X143164000Y-128130000D02*
X121510000Y-128130000D01*
X144300000Y-126995000D02*
X143164000Y-128130000D01*
X145425000Y-126995000D02*
X144300000Y-126995000D01*
X148326000Y-126906500D02*
X148590000Y-126642500D01*
X148238000Y-126995000D02*
X148326000Y-126906500D01*
X145425000Y-126995000D02*
X148238000Y-126995000D01*
X148326000Y-126906500D02*
X148414000Y-126818000D01*
%TO.N,Net-(CLK1-Pad1)*%
X137805000Y-111755000D02*
X137805000Y-108942000D01*
X137882000Y-108942000D02*
X137805000Y-108942000D01*
X138240000Y-108585000D02*
X137882000Y-108942000D01*
X137805000Y-108942000D02*
X133986000Y-108942000D01*
X133985500Y-108942000D02*
X133985000Y-108942500D01*
X133986000Y-108942000D02*
X133985500Y-108942000D01*
%TO.N,/D6*%
X186785000Y-73660000D02*
X187960000Y-73660000D01*
X186785000Y-74467900D02*
X186785000Y-73660000D01*
X186418000Y-74835100D02*
X186785000Y-74467900D01*
X181540000Y-74835100D02*
X186418000Y-74835100D01*
X178920000Y-77455000D02*
X181540000Y-74835100D01*
X177795000Y-77455000D02*
X178920000Y-77455000D01*
X164860000Y-103492000D02*
X165358000Y-102993000D01*
X164860000Y-104140000D02*
X164860000Y-103492000D01*
X162152000Y-86434300D02*
X164851000Y-86434300D01*
X157002000Y-81285000D02*
X162152000Y-86434300D01*
X139550000Y-81285000D02*
X157002000Y-81285000D01*
X133200000Y-74935000D02*
X139550000Y-81285000D01*
X132075000Y-74935000D02*
X133200000Y-74935000D01*
%TO.N,/D5*%
X164860000Y-101600000D02*
X165866000Y-100594000D01*
X130950000Y-72395000D02*
X132075000Y-72395000D01*
X123350000Y-79995000D02*
X130950000Y-72395000D01*
X116835000Y-79995000D02*
X123350000Y-79995000D01*
X178920000Y-79995000D02*
X177795000Y-79995000D01*
X183630000Y-75285200D02*
X178920000Y-79995000D01*
X188067000Y-75285200D02*
X183630000Y-75285200D01*
X189325000Y-74027300D02*
X188067000Y-75285200D01*
X189325000Y-73660000D02*
X189325000Y-74027300D01*
X190500000Y-73660000D02*
X189325000Y-73660000D01*
X133200000Y-72395000D02*
X132075000Y-72395000D01*
X139480000Y-78674400D02*
X133200000Y-72395000D01*
X175349000Y-78674400D02*
X139480000Y-78674400D01*
X176670000Y-79995000D02*
X175349000Y-78674400D01*
X177795000Y-79995000D02*
X176670000Y-79995000D01*
%TO.N,/D3*%
X166130000Y-95250000D02*
X164860000Y-96520000D01*
X168276000Y-95250000D02*
X166130000Y-95250000D01*
X140301000Y-101610000D02*
X106685000Y-101610000D01*
X145531000Y-96380100D02*
X140301000Y-101610000D01*
X147781000Y-96380100D02*
X145531000Y-96380100D01*
X151467000Y-92694200D02*
X147781000Y-96380100D01*
X161034000Y-92694200D02*
X151467000Y-92694200D01*
X164860000Y-96520000D02*
X161034000Y-92694200D01*
%TO.N,/D4*%
X118024000Y-82470700D02*
X125284000Y-82470700D01*
X117960000Y-82535000D02*
X118024000Y-82470700D01*
X116835000Y-82535000D02*
X117960000Y-82535000D01*
X165802000Y-98117600D02*
X164860000Y-99060000D01*
X167512000Y-98117600D02*
X165802000Y-98117600D01*
%TO.N,/A10*%
X157235000Y-52075000D02*
X168035000Y-41275000D01*
X147315000Y-52075000D02*
X157235000Y-52075000D01*
X212185000Y-66040000D02*
X213360000Y-66040000D01*
X212185000Y-66405200D02*
X212185000Y-66040000D01*
X210858000Y-67732200D02*
X212185000Y-66405200D01*
X190530000Y-67732200D02*
X210858000Y-67732200D01*
X189325000Y-66526700D02*
X190530000Y-67732200D01*
X189325000Y-65732300D02*
X189325000Y-66526700D01*
X187996000Y-64403600D02*
X189325000Y-65732300D01*
X184215000Y-64403600D02*
X187996000Y-64403600D01*
X178783000Y-69835000D02*
X184215000Y-64403600D01*
X177795000Y-69835000D02*
X178783000Y-69835000D01*
X176090000Y-69255200D02*
X168136000Y-69255200D01*
X176670000Y-69835000D02*
X176090000Y-69255200D01*
X177795000Y-69835000D02*
X176670000Y-69835000D01*
%TO.N,/A9*%
X163133000Y-61031100D02*
X156945000Y-61031100D01*
X164317000Y-62215000D02*
X163133000Y-61031100D01*
X177795000Y-62215000D02*
X164317000Y-62215000D01*
X198501000Y-62215000D02*
X177795000Y-62215000D01*
X201930000Y-65644300D02*
X198501000Y-62215000D01*
X201930000Y-66528000D02*
X201930000Y-65644300D01*
X202656000Y-67254100D02*
X201930000Y-66528000D01*
X208796000Y-67254100D02*
X202656000Y-67254100D01*
X209645000Y-66405200D02*
X208796000Y-67254100D01*
X209645000Y-66040000D02*
X209645000Y-66405200D01*
X210820000Y-66040000D02*
X209645000Y-66040000D01*
X156308000Y-54615000D02*
X147315000Y-54615000D01*
X167108000Y-43815000D02*
X156308000Y-54615000D01*
X168035000Y-43815000D02*
X167108000Y-43815000D01*
X145161000Y-53586500D02*
X136418000Y-53586500D01*
X146190000Y-54615000D02*
X145161000Y-53586500D01*
X147315000Y-54615000D02*
X146190000Y-54615000D01*
%TO.N,/A8*%
X171749000Y-59675000D02*
X177795000Y-59675000D01*
X167780000Y-55705400D02*
X171749000Y-59675000D01*
X168035000Y-55449900D02*
X167780000Y-55705400D01*
X168035000Y-46355000D02*
X168035000Y-55449900D01*
X149077000Y-57155000D02*
X147315000Y-57155000D01*
X150271000Y-55960900D02*
X149077000Y-57155000D01*
X167524000Y-55960900D02*
X150271000Y-55960900D01*
X167780000Y-55705400D02*
X167524000Y-55960900D01*
X137666000Y-57155000D02*
X147315000Y-57155000D01*
X136233000Y-58587900D02*
X137666000Y-57155000D01*
%TO.N,/RST*%
X178937000Y-86615700D02*
X178937000Y-86877200D01*
X183048000Y-82504100D02*
X178937000Y-86615700D01*
X201976000Y-82504100D02*
X183048000Y-82504100D01*
X210820000Y-73660000D02*
X201976000Y-82504100D01*
X151995800Y-89408200D02*
X151894000Y-89306600D01*
X151995800Y-89408200D02*
X151487500Y-88900000D01*
%TO.N,/A7*%
X148440000Y-59695000D02*
X147315000Y-59695000D01*
X149715000Y-58420000D02*
X148440000Y-59695000D01*
X150255000Y-58420000D02*
X149715000Y-58420000D01*
X151540000Y-57135000D02*
X162555000Y-57135000D01*
X150255000Y-58420000D02*
X151540000Y-57135000D01*
X204565000Y-66040000D02*
X205740000Y-66040000D01*
X204565000Y-65674800D02*
X204565000Y-66040000D01*
X197150000Y-58260200D02*
X204565000Y-65674800D01*
X171486000Y-58260200D02*
X197150000Y-58260200D01*
X169695000Y-56469300D02*
X171486000Y-58260200D01*
X102720000Y-57135000D02*
X101595000Y-57135000D01*
X103911000Y-55944400D02*
X102720000Y-57135000D01*
X132564000Y-55944400D02*
X103911000Y-55944400D01*
X136314000Y-59695000D02*
X132564000Y-55944400D01*
X147315000Y-59695000D02*
X136314000Y-59695000D01*
X88685500Y-58875500D02*
X88865000Y-59055000D01*
X88685500Y-58875400D02*
X88685500Y-58875500D01*
X88354000Y-58875400D02*
X88685500Y-58875400D01*
X87638800Y-58160200D02*
X88354000Y-58875400D01*
X87638800Y-57409400D02*
X87638800Y-58160200D01*
X87889000Y-57159200D02*
X87638800Y-57409400D01*
X90973900Y-57159200D02*
X87889000Y-57159200D01*
X92262300Y-55870800D02*
X90973900Y-57159200D01*
X99205700Y-55870800D02*
X92262300Y-55870800D01*
X100470000Y-57135000D02*
X99205700Y-55870800D01*
X101595000Y-57135000D02*
X100470000Y-57135000D01*
%TO.N,/A6*%
X197960000Y-60800100D02*
X203200000Y-66040000D01*
X164805000Y-60800100D02*
X197960000Y-60800100D01*
X163680000Y-59675000D02*
X164805000Y-60800100D01*
X162555000Y-59675000D02*
X163680000Y-59675000D01*
X148980000Y-62235000D02*
X150255000Y-60960000D01*
X147315000Y-62235000D02*
X148980000Y-62235000D01*
X151056000Y-60158900D02*
X150255000Y-60960000D01*
X153581000Y-60158900D02*
X151056000Y-60158900D01*
X154940000Y-58800300D02*
X153581000Y-60158900D01*
X154940000Y-58010300D02*
X154940000Y-58800300D01*
X155365000Y-57585200D02*
X154940000Y-58010300D01*
X159340000Y-57585200D02*
X155365000Y-57585200D01*
X161430000Y-59675000D02*
X159340000Y-57585200D01*
X162555000Y-59675000D02*
X161430000Y-59675000D01*
X146190000Y-62235000D02*
X147315000Y-62235000D01*
X145724000Y-61768800D02*
X146190000Y-62235000D01*
X137625000Y-61768800D02*
X145724000Y-61768800D01*
X134349000Y-58493200D02*
X137625000Y-61768800D01*
X103902000Y-58493200D02*
X134349000Y-58493200D01*
X102720000Y-59675000D02*
X103902000Y-58493200D01*
X101595000Y-59675000D02*
X102720000Y-59675000D01*
X92398900Y-57785000D02*
X88865000Y-57785000D01*
X93043100Y-57140800D02*
X92398900Y-57785000D01*
X97935700Y-57140800D02*
X93043100Y-57140800D01*
X100470000Y-59675000D02*
X97935700Y-57140800D01*
X101595000Y-59675000D02*
X100470000Y-59675000D01*
%TO.N,/A5*%
X96839100Y-46361500D02*
X96839100Y-50336900D01*
X95022400Y-44544800D02*
X96839100Y-46361500D01*
X92989100Y-44544800D02*
X95022400Y-44544800D01*
X92804800Y-44729100D02*
X92989100Y-44544800D01*
X92804800Y-46019700D02*
X92804800Y-44729100D01*
X88015300Y-50809200D02*
X92804800Y-46019700D01*
X87936800Y-50809200D02*
X88015300Y-50809200D01*
X87613300Y-51132700D02*
X87936800Y-50809200D01*
X87613300Y-55594700D02*
X87613300Y-51132700D01*
X88533600Y-56515000D02*
X87613300Y-55594700D01*
X88865000Y-56515000D02*
X88533600Y-56515000D01*
X146190000Y-64775000D02*
X147315000Y-64775000D01*
X143868000Y-62452700D02*
X146190000Y-64775000D01*
X135401000Y-62452700D02*
X143868000Y-62452700D01*
X133985000Y-61036600D02*
X135401000Y-62452700D01*
X103898000Y-61036600D02*
X133985000Y-61036600D01*
X102720000Y-62215000D02*
X103898000Y-61036600D01*
X101595000Y-62215000D02*
X102720000Y-62215000D01*
X149715000Y-63500000D02*
X150255000Y-63500000D01*
X148440000Y-64775000D02*
X149715000Y-63500000D01*
X147315000Y-64775000D02*
X148440000Y-64775000D01*
%TO.N,/A4*%
X164476000Y-65550600D02*
X174018000Y-65550600D01*
X163680000Y-64755000D02*
X164476000Y-65550600D01*
X162555000Y-64755000D02*
X163680000Y-64755000D01*
X149715000Y-66040000D02*
X150255000Y-66040000D01*
X148440000Y-67315000D02*
X149715000Y-66040000D01*
X147315000Y-67315000D02*
X148440000Y-67315000D01*
X111202000Y-64755000D02*
X101595000Y-64755000D01*
X112340000Y-63616600D02*
X111202000Y-64755000D01*
X142492000Y-63616600D02*
X112340000Y-63616600D01*
X146190000Y-67315000D02*
X142492000Y-63616600D01*
X147315000Y-67315000D02*
X146190000Y-67315000D01*
X93011200Y-54610100D02*
X96249600Y-54610100D01*
X92887700Y-54733600D02*
X93011200Y-54610100D01*
X91856700Y-54733600D02*
X92887700Y-54733600D01*
X91697800Y-54574700D02*
X91856700Y-54733600D01*
X90486800Y-54574700D02*
X91697800Y-54574700D01*
X89816500Y-55245000D02*
X90486800Y-54574700D01*
X88865000Y-55245000D02*
X89816500Y-55245000D01*
%TO.N,/RD*%
X107855000Y-45720000D02*
X106680000Y-45720000D01*
X110822000Y-48687400D02*
X107855000Y-45720000D01*
X126341000Y-48687400D02*
X110822000Y-48687400D01*
X131143000Y-53489800D02*
X126341000Y-48687400D01*
X134183000Y-53489800D02*
X131143000Y-53489800D01*
X136000000Y-55307200D02*
X134183000Y-53489800D01*
X143997000Y-55307200D02*
X136000000Y-55307200D01*
%TO.N,Net-(CPU1-Pad26)*%
X152766400Y-88354000D02*
X153312000Y-88900000D01*
X152766500Y-88354000D02*
X153312500Y-88900000D01*
X152766400Y-88354000D02*
X152766500Y-88354000D01*
X152048000Y-87635000D02*
X152766400Y-88354000D01*
X147315000Y-87635000D02*
X152048000Y-87635000D01*
%TO.N,/A15*%
X165965000Y-30644800D02*
X165965000Y-31221400D01*
X168035000Y-28575000D02*
X165965000Y-30644800D01*
%TO.N,Clock*%
X153735000Y-97155000D02*
X153735000Y-95885000D01*
X154361000Y-97780700D02*
X155606000Y-97780700D01*
X153735000Y-97155000D02*
X154361000Y-97780700D01*
X158041000Y-97780800D02*
X158685000Y-98425000D01*
X158041000Y-97780700D02*
X158041000Y-97780800D01*
X155606000Y-97780700D02*
X158041000Y-97780700D01*
%TO.N,/A14*%
X167190000Y-31960400D02*
X168035000Y-31115000D01*
X165232000Y-31960400D02*
X167190000Y-31960400D01*
X165116000Y-32076900D02*
X165232000Y-31960400D01*
X159693000Y-32076900D02*
X165116000Y-32076900D01*
X222345000Y-66040000D02*
X223520000Y-66040000D01*
X222345000Y-65674800D02*
X222345000Y-66040000D01*
X212885000Y-56215200D02*
X222345000Y-65674800D01*
X182710000Y-56215200D02*
X212885000Y-56215200D01*
X182044000Y-55548900D02*
X182710000Y-56215200D01*
X182044000Y-35055100D02*
X182044000Y-55548900D01*
X174237000Y-27248200D02*
X182044000Y-35055100D01*
X167971000Y-27248200D02*
X174237000Y-27248200D01*
X165232000Y-29986900D02*
X167971000Y-27248200D01*
X165232000Y-31960400D02*
X165232000Y-29986900D01*
%TO.N,/A13*%
X168035000Y-34699900D02*
X168035000Y-33655000D01*
X168436000Y-35100800D02*
X168035000Y-34699900D01*
%TO.N,/A12*%
X162555000Y-54595000D02*
X161430000Y-54595000D01*
X168910000Y-37070000D02*
X168035000Y-36195000D01*
X168910000Y-44313300D02*
X168910000Y-37070000D01*
X168241000Y-44982000D02*
X168910000Y-44313300D01*
X167381000Y-44982000D02*
X168241000Y-44982000D01*
X161430000Y-50933500D02*
X167381000Y-44982000D01*
X161430000Y-54595000D02*
X161430000Y-50933500D01*
X160594000Y-55431200D02*
X161430000Y-54595000D01*
X149846000Y-55431200D02*
X160594000Y-55431200D01*
X149504000Y-55772500D02*
X149846000Y-55431200D01*
X144558000Y-55772500D02*
X149504000Y-55772500D01*
X144298000Y-56032300D02*
X144558000Y-55772500D01*
X134617000Y-56032300D02*
X144298000Y-56032300D01*
X133200000Y-54615000D02*
X134617000Y-56032300D01*
X132075000Y-54615000D02*
X133200000Y-54615000D01*
X102720000Y-54595000D02*
X101595000Y-54595000D01*
X103911000Y-53404400D02*
X102720000Y-54595000D01*
X129739000Y-53404400D02*
X103911000Y-53404400D01*
X130950000Y-54615000D02*
X129739000Y-53404400D01*
X132075000Y-54615000D02*
X130950000Y-54615000D01*
%TO.N,/A11*%
X176432000Y-64517100D02*
X170443000Y-64517100D01*
X176670000Y-64755000D02*
X176432000Y-64517100D01*
X177795000Y-64755000D02*
X176670000Y-64755000D01*
X166887000Y-39883100D02*
X168035000Y-38735000D01*
X166887000Y-40605900D02*
X166887000Y-39883100D01*
X144669000Y-40605900D02*
X166887000Y-40605900D01*
X133200000Y-52075000D02*
X144669000Y-40605900D01*
X132075000Y-52075000D02*
X133200000Y-52075000D01*
%TO.N,Net-(C7-Pad2)*%
X150092000Y-108736000D02*
X150092000Y-107686000D01*
X145658000Y-113170000D02*
X150092000Y-108736000D01*
X145425000Y-113170000D02*
X145658000Y-113170000D01*
X145425000Y-114295000D02*
X145425000Y-113170000D01*
X150092000Y-107685000D02*
X150092000Y-107315000D01*
X150092000Y-107686000D02*
X150092000Y-107685000D01*
X150092000Y-107686000D02*
X150092000Y-107685000D01*
X150092000Y-107685000D02*
X150092000Y-107315000D01*
X150092000Y-107315000D02*
X150092000Y-106975000D01*
X150092000Y-106635000D02*
X149480000Y-106022000D01*
X150092000Y-106975000D02*
X150092000Y-106635000D01*
X150092500Y-106975500D02*
X150092500Y-107315000D01*
X150092000Y-106975000D02*
X150092500Y-106975500D01*
%TO.N,Net-(C5-Pad1)*%
X134391000Y-116836500D02*
X134387500Y-116840000D01*
X134392000Y-116835000D02*
X134391000Y-116836500D01*
X137805000Y-116835000D02*
X134392000Y-116835000D01*
X134391000Y-116836500D02*
X134390000Y-116838000D01*
%TO.N,+5V*%
X94520200Y-50929800D02*
X94015000Y-51435000D01*
X94520200Y-47435300D02*
X94520200Y-50929800D01*
X93980000Y-46895100D02*
X94520200Y-47435300D01*
X93980000Y-45720000D02*
X93980000Y-46895100D01*
X92806200Y-65466200D02*
X92806200Y-59941100D01*
X94015000Y-66675000D02*
X92806200Y-65466200D01*
X93692300Y-59055000D02*
X94015000Y-59055000D01*
X92806200Y-59941100D02*
X93692300Y-59055000D01*
X114229000Y-84605300D02*
X113773000Y-84605300D01*
X119810000Y-90186700D02*
X114229000Y-84605300D01*
X119810000Y-91440000D02*
X119810000Y-90186700D01*
X143742000Y-108585000D02*
X139890000Y-108585000D01*
X145425000Y-110630000D02*
X145425000Y-111755000D01*
X143742000Y-108947000D02*
X145425000Y-110630000D01*
X143742000Y-108585000D02*
X143742000Y-108947000D01*
X153357000Y-98425000D02*
X153735000Y-98425000D01*
X152071000Y-97139000D02*
X153357000Y-98425000D01*
X152071000Y-95938800D02*
X152071000Y-97139000D01*
X151373000Y-103429000D02*
X152037000Y-103429000D01*
X149827000Y-101884000D02*
X151373000Y-103429000D01*
X149827000Y-96745800D02*
X149827000Y-101884000D01*
X150634000Y-95938800D02*
X149827000Y-96745800D01*
X152071000Y-95938800D02*
X150634000Y-95938800D01*
X92607000Y-59741900D02*
X92806200Y-59941100D01*
X137805000Y-121915000D02*
X145425000Y-121915000D01*
X137805000Y-121915000D02*
X137805000Y-119375000D01*
X115710000Y-52055000D02*
X116835000Y-52055000D01*
X114585000Y-50929800D02*
X115710000Y-52055000D01*
X97394200Y-50929800D02*
X114585000Y-50929800D01*
X97223700Y-51100300D02*
X97394200Y-50929800D01*
X94690700Y-51100300D02*
X97223700Y-51100300D01*
X94520200Y-50929800D02*
X94690700Y-51100300D01*
X134392000Y-119375000D02*
X134390000Y-119378000D01*
X137805000Y-119375000D02*
X134392000Y-119375000D01*
X153382000Y-104775000D02*
X154027500Y-104775000D01*
X152037000Y-103429000D02*
X153382000Y-104775000D01*
X154027500Y-104775000D02*
X154028000Y-104775000D01*
X143742000Y-107950000D02*
X143742000Y-108585000D01*
X143742500Y-107949500D02*
X143742500Y-107315000D01*
X143742000Y-107950000D02*
X143742500Y-107949500D01*
X143742000Y-107315000D02*
X143742000Y-107950000D01*
X145648000Y-105410000D02*
X143742000Y-107315000D01*
X147042000Y-105410000D02*
X145648000Y-105410000D01*
X147042000Y-105410000D02*
X147042500Y-105410000D01*
X166370000Y-120650000D02*
X170412000Y-120650000D01*
X170412000Y-120650000D02*
X170412500Y-120650000D01*
X134390000Y-119378000D02*
X134389000Y-119379000D01*
X134389000Y-119379000D02*
X134388000Y-119380000D01*
X134390000Y-119378000D02*
X134389000Y-119379000D01*
X134389000Y-119379000D02*
X134388000Y-119380000D01*
X134388500Y-119379000D02*
X134387500Y-119380000D01*
X134389000Y-119379000D02*
X134388500Y-119379000D01*
X148590000Y-124817500D02*
X148589800Y-124817700D01*
X146550000Y-122778000D02*
X148589800Y-124817700D01*
X146550000Y-121915000D02*
X146550000Y-122778000D01*
X145425000Y-121915000D02*
X146550000Y-121915000D01*
X148589800Y-124817700D02*
X148590000Y-124818000D01*
X134262000Y-119505000D02*
X134262000Y-120108500D01*
X134388000Y-119380000D02*
X134262000Y-119505000D01*
X134262000Y-120108500D02*
X134262000Y-120712000D01*
X134262500Y-120109000D02*
X134262500Y-121920000D01*
X134262000Y-120108500D02*
X134262500Y-120109000D01*
%TO.N,Net-(C1-Pad1)*%
X135531500Y-114300000D02*
X134387500Y-114300000D01*
X136675000Y-114300000D02*
X135531500Y-114300000D01*
X136680000Y-114295000D02*
X136675000Y-114300000D01*
X137805000Y-114295000D02*
X136680000Y-114295000D01*
X131672000Y-111585000D02*
X114380000Y-111585000D01*
X134388000Y-114300000D02*
X131672000Y-111585000D01*
X135531500Y-114300000D02*
X134388000Y-114300000D01*
%TO.N,GND*%
X131200000Y-126995000D02*
X128665000Y-124460000D01*
X137805000Y-126995000D02*
X131200000Y-126995000D01*
X98375000Y-85075000D02*
X88865000Y-75565000D01*
X101595000Y-85075000D02*
X98375000Y-85075000D01*
X128665000Y-122210000D02*
X120090000Y-122210000D01*
X113590000Y-122210000D02*
X120090000Y-122210000D01*
X128365000Y-45720000D02*
X128365000Y-44912100D01*
X129540000Y-45720000D02*
X128365000Y-45720000D01*
X90075100Y-45720000D02*
X88900000Y-45720000D01*
X90075100Y-45354700D02*
X90075100Y-45720000D01*
X91339700Y-44090100D02*
X90075100Y-45354700D01*
X127543000Y-44090100D02*
X91339700Y-44090100D01*
X128365000Y-44912100D02*
X127543000Y-44090100D01*
X140440000Y-32836500D02*
X128365000Y-44912100D01*
X173632000Y-32836500D02*
X140440000Y-32836500D01*
X151130000Y-96797500D02*
X151130000Y-99060000D01*
X155227000Y-75061800D02*
X155852000Y-75061800D01*
X170458000Y-91440000D02*
X179355000Y-91440000D01*
X189993000Y-70613200D02*
X185420000Y-66040000D01*
X201894000Y-70613200D02*
X189993000Y-70613200D01*
X204470000Y-73189600D02*
X201894000Y-70613200D01*
X204470000Y-74068300D02*
X204470000Y-73189600D01*
X205268000Y-74866100D02*
X204470000Y-74068300D01*
X208736000Y-74866100D02*
X205268000Y-74866100D01*
X209583000Y-74019000D02*
X208736000Y-74866100D01*
X209583000Y-73156000D02*
X209583000Y-74019000D01*
X210311000Y-72428000D02*
X209583000Y-73156000D01*
X221478000Y-72428000D02*
X210311000Y-72428000D01*
X222345000Y-73294800D02*
X221478000Y-72428000D01*
X222345000Y-73660000D02*
X222345000Y-73294800D01*
X223520000Y-73660000D02*
X222345000Y-73660000D01*
X162555000Y-50482700D02*
X162555000Y-52055000D01*
X167510000Y-45527500D02*
X162555000Y-50482700D01*
X172805000Y-45527500D02*
X167510000Y-45527500D01*
X156370000Y-80015000D02*
X147315000Y-80015000D01*
X161430000Y-85075000D02*
X156370000Y-80015000D01*
X162555000Y-85075000D02*
X161430000Y-85075000D01*
X150486000Y-115570000D02*
X132312000Y-115570000D01*
X150486000Y-113674000D02*
X150486000Y-115570000D01*
X151130000Y-113030000D02*
X150486000Y-113674000D01*
X159742000Y-99060000D02*
X161290000Y-97512500D01*
X151130000Y-99060000D02*
X159742000Y-99060000D01*
X161381000Y-97421400D02*
X162808000Y-97421400D01*
X161290000Y-97512500D02*
X161381000Y-97421400D01*
X88570800Y-75565000D02*
X88865000Y-75565000D01*
X87182300Y-74176500D02*
X88570800Y-75565000D01*
X87182300Y-61643900D02*
X87182300Y-74176500D01*
X88501200Y-60325000D02*
X87182300Y-61643900D01*
X88501200Y-60325000D02*
X88865000Y-60325000D01*
X162836000Y-97392500D02*
X162808000Y-97421400D01*
X169527000Y-97392500D02*
X162836000Y-97392500D01*
X169556000Y-97421400D02*
X169527000Y-97392500D01*
X87161300Y-58985100D02*
X88501200Y-60325000D01*
X87161300Y-48633800D02*
X87161300Y-58985100D01*
X88900000Y-46895100D02*
X87161300Y-48633800D01*
X88900000Y-45720000D02*
X88900000Y-46895100D01*
X173219000Y-44228700D02*
X173632000Y-43815000D01*
X173218000Y-44228700D02*
X173219000Y-44228700D01*
X172805000Y-44642500D02*
X173218000Y-44228700D01*
X172805000Y-45527500D02*
X172805000Y-44642500D01*
X131205000Y-119380000D02*
X131758000Y-119380000D01*
X128665000Y-121920000D02*
X131205000Y-119380000D01*
X132312000Y-119380000D02*
X132312000Y-117475000D01*
X132312000Y-117474000D02*
X132312000Y-116840000D01*
X132312000Y-117475000D02*
X132312000Y-117474000D01*
X151130000Y-108352000D02*
X151649000Y-107834000D01*
X151130000Y-113030000D02*
X151130000Y-108352000D01*
X173632000Y-36266700D02*
X173632000Y-36195000D01*
X173632000Y-36267200D02*
X173632000Y-36266700D01*
X173632000Y-34551300D02*
X173632000Y-33655000D01*
X173632000Y-34551800D02*
X173632000Y-34551300D01*
X169556000Y-97421400D02*
X170007000Y-96970700D01*
X170007000Y-96970700D02*
X170458000Y-96520000D01*
X170458000Y-96520200D02*
X170458000Y-96520000D01*
X170007000Y-96970700D02*
X170458000Y-96520200D01*
X170458000Y-90805500D02*
X170458000Y-91440000D01*
X170458000Y-90805000D02*
X170458000Y-90805500D01*
X169556000Y-98158600D02*
X169556000Y-97421400D01*
X170007000Y-98609300D02*
X169556000Y-98158600D01*
X170458000Y-99059800D02*
X170458000Y-99060000D01*
X170007000Y-98609300D02*
X170458000Y-99059800D01*
X155852000Y-70763200D02*
X155852000Y-70763700D01*
X173632000Y-52093500D02*
X173632000Y-49224200D01*
X177549000Y-56009900D02*
X173632000Y-52093500D01*
X177795000Y-56009900D02*
X177549000Y-56009900D01*
X177795000Y-57135000D02*
X177795000Y-56009900D01*
X173632000Y-46355000D02*
X172805000Y-45527500D01*
X173632000Y-49223700D02*
X173632000Y-46355000D01*
X173632000Y-49224200D02*
X173632000Y-49223700D01*
X170458000Y-103727000D02*
X170458000Y-104140000D01*
X170458000Y-103726000D02*
X170458000Y-103727000D01*
X170458000Y-107817000D02*
X170458000Y-106680000D01*
X166370000Y-111905000D02*
X170458000Y-107817000D01*
X166370000Y-113030000D02*
X166370000Y-111905000D01*
X170458000Y-105772000D02*
X170458000Y-106680000D01*
X155852000Y-70763200D02*
X155852000Y-68594100D01*
X155852000Y-68593600D02*
X155852000Y-68580000D01*
X155852000Y-68594100D02*
X155852000Y-68593600D01*
X173632000Y-38754000D02*
X173632000Y-38735000D01*
X173632000Y-38754500D02*
X173632000Y-38754000D01*
X173632000Y-43815000D02*
X173632000Y-41284700D01*
X173218000Y-44228700D02*
X173632000Y-43815000D01*
X173632000Y-41284200D02*
X173632000Y-41275000D01*
X173632000Y-41284700D02*
X173632000Y-41284200D01*
X155852000Y-72913000D02*
X155852000Y-73660000D01*
X155852000Y-72912500D02*
X155852000Y-72913000D01*
X170458000Y-99060000D02*
X170007000Y-98609300D01*
X173632000Y-32836500D02*
X173632000Y-31416300D01*
X173632000Y-31416300D02*
X173632000Y-31415800D01*
X155852000Y-61755300D02*
X155852000Y-60960000D01*
X155852000Y-61755800D02*
X155852000Y-61755300D01*
X155852000Y-64034900D02*
X155852000Y-63500000D01*
X155852000Y-64035400D02*
X155852000Y-64034900D01*
X155852000Y-66314200D02*
X155852000Y-66040000D01*
X155852000Y-66314700D02*
X155852000Y-66314200D01*
X155852000Y-66314700D02*
X155852000Y-66314200D01*
X155852000Y-66314200D02*
X155852000Y-66040000D01*
X155852000Y-66040000D02*
X155852000Y-64035400D01*
X173632000Y-31115000D02*
X173632000Y-29995600D01*
X155852000Y-64035400D02*
X155852000Y-64034900D01*
X155852000Y-64034900D02*
X155852000Y-63500000D01*
X155852000Y-63500000D02*
X155852000Y-61755800D01*
X155852000Y-61755800D02*
X155852000Y-61755300D01*
X155852000Y-61755300D02*
X155852000Y-60960000D01*
X173632000Y-31416300D02*
X173632000Y-31415800D01*
X170458000Y-103726000D02*
X170458000Y-101600000D01*
X155852000Y-72913000D02*
X155852000Y-72912500D01*
X155852000Y-75061800D02*
X155852000Y-73660000D01*
X155852000Y-73660000D02*
X155852000Y-72913000D01*
X173632000Y-41284700D02*
X173632000Y-41284200D01*
X173632000Y-41284200D02*
X173632000Y-41275000D01*
X173632000Y-41275000D02*
X173632000Y-38754500D01*
X173632000Y-38754500D02*
X173632000Y-38754000D01*
X173632000Y-38754000D02*
X173632000Y-38735000D01*
X155852000Y-68594100D02*
X155852000Y-68593600D01*
X155852000Y-68593600D02*
X155852000Y-68580000D01*
X170458000Y-106680000D02*
X170458000Y-105772000D01*
X170458000Y-103727000D02*
X170458000Y-103726000D01*
X170458000Y-105772000D02*
X170458000Y-104140000D01*
X170458000Y-104140000D02*
X170458000Y-103727000D01*
X173632000Y-49224200D02*
X173632000Y-49223700D01*
X173632000Y-49223700D02*
X173632000Y-46355000D01*
X155852000Y-70763700D02*
X155852000Y-70763200D01*
X155852000Y-72912500D02*
X155852000Y-71120000D01*
X170458000Y-90805000D02*
X170458000Y-89852500D01*
X170458000Y-91440000D02*
X170458000Y-90805500D01*
X170458000Y-90805500D02*
X170458000Y-90805000D01*
X173632000Y-34551800D02*
X173632000Y-34551300D01*
X173632000Y-34551300D02*
X173632000Y-33655000D01*
X173632000Y-36267200D02*
X173632000Y-36266700D01*
X173632000Y-36266700D02*
X173632000Y-36195000D01*
X173632000Y-36195000D02*
X173632000Y-34551800D01*
X155852000Y-60960000D02*
X155852000Y-59475500D01*
X132312000Y-117475000D02*
X132312000Y-117474000D01*
X132312000Y-117474000D02*
X132312000Y-116840000D01*
X155852000Y-75061800D02*
X155852000Y-75630900D01*
X132312000Y-115570000D02*
X132312000Y-114935000D01*
X128665000Y-124460000D02*
X128665000Y-122210000D01*
X128665000Y-122210000D02*
X128665000Y-121920000D01*
X170458000Y-93980000D02*
X170457500Y-93980000D01*
X170458000Y-93980000D02*
X170458000Y-91440000D01*
X173632000Y-33655000D02*
X173632000Y-33245700D01*
X173632000Y-33245700D02*
X173632000Y-32836500D01*
X173632500Y-33246200D02*
X173632500Y-33655000D01*
X173632000Y-33245700D02*
X173632500Y-33246200D01*
X131758000Y-119380000D02*
X132035000Y-119380000D01*
X132035000Y-119380000D02*
X132312000Y-119380000D01*
X132312000Y-119380000D02*
X132312500Y-119380000D01*
X131758000Y-119380000D02*
X132035000Y-119380000D01*
X132035000Y-119380000D02*
X132312000Y-119380000D01*
X151765100Y-126767500D02*
X151765300Y-126767700D01*
X151765000Y-126767500D02*
X151765100Y-126767500D01*
X151765300Y-126767700D02*
X151765000Y-126768000D01*
X132312000Y-114300500D02*
X132312000Y-114935000D01*
X132312500Y-114300000D02*
X132312000Y-114300500D01*
X170457500Y-91440000D02*
X170458000Y-91440000D01*
X145817500Y-107315000D02*
X145818000Y-107315000D01*
X170457500Y-106680000D02*
X170458000Y-106680000D01*
X155852500Y-63500000D02*
X155852000Y-63500000D01*
X173632000Y-28575500D02*
X173632000Y-29995600D01*
X173632500Y-28575000D02*
X173632000Y-28575500D01*
X173632500Y-41275000D02*
X173632000Y-41275000D01*
X155852500Y-73660000D02*
X155852000Y-73660000D01*
X173632500Y-36195000D02*
X173632000Y-36195000D01*
X173632500Y-46355000D02*
X173632000Y-46355000D01*
X170457500Y-104140000D02*
X170458000Y-104140000D01*
X170458000Y-88900500D02*
X170458000Y-89852500D01*
X170457500Y-88900000D02*
X170458000Y-88900500D01*
X173632500Y-43815000D02*
X173632000Y-43815000D01*
X155852500Y-66040000D02*
X155852000Y-66040000D01*
X155852500Y-60960000D02*
X155852000Y-60960000D01*
X155852000Y-76199500D02*
X155852000Y-75630900D01*
X155852500Y-76200000D02*
X155852000Y-76199500D01*
X151130000Y-101877500D02*
X151129800Y-101877700D01*
X150320000Y-101067000D02*
X151129800Y-101877700D01*
X150320000Y-99566300D02*
X150320000Y-101067000D01*
X150826000Y-99060000D02*
X150320000Y-99566300D01*
X151130000Y-99060000D02*
X150826000Y-99060000D01*
X152822000Y-101878000D02*
X153735000Y-100965000D01*
X151130000Y-101878000D02*
X152822000Y-101878000D01*
X151129800Y-101877700D02*
X151130000Y-101878000D01*
X170458000Y-96520000D02*
X170458000Y-95250000D01*
X170458000Y-95250000D02*
X170458000Y-93980000D01*
X170457500Y-95250500D02*
X170457500Y-96520000D01*
X170458000Y-95250000D02*
X170457500Y-95250500D01*
X155852000Y-68580000D02*
X155852000Y-67447300D01*
X155852000Y-67447300D02*
X155852000Y-66314700D01*
X155852500Y-67447800D02*
X155852500Y-68580000D01*
X155852000Y-67447300D02*
X155852500Y-67447800D01*
X170458000Y-101600000D02*
X170458000Y-101553000D01*
X170458000Y-101553000D02*
X170458000Y-101506000D01*
X170458000Y-101506000D02*
X170458000Y-101553000D01*
X170458000Y-101553000D02*
X170458000Y-101600000D01*
X170457500Y-101553500D02*
X170457500Y-101600000D01*
X170458000Y-101553000D02*
X170457500Y-101553500D01*
X173632000Y-31415800D02*
X173632000Y-31265400D01*
X173632000Y-31265400D02*
X173632000Y-31115000D01*
X173632000Y-31415800D02*
X173632000Y-31265400D01*
X173632000Y-31265400D02*
X173632000Y-31115000D01*
X173632500Y-31264900D02*
X173632500Y-31115000D01*
X173632000Y-31265400D02*
X173632500Y-31264900D01*
X132312000Y-116840000D02*
X132312000Y-116205000D01*
X132312000Y-116205000D02*
X132312000Y-115570000D01*
X132312500Y-116205500D02*
X132312500Y-116840000D01*
X132312000Y-116205000D02*
X132312500Y-116205500D01*
X173632000Y-38735000D02*
X173632000Y-37501100D01*
X173632000Y-37501100D02*
X173632000Y-36267200D01*
X173632500Y-37501600D02*
X173632500Y-38735000D01*
X173632000Y-37501100D02*
X173632500Y-37501600D01*
X155852500Y-59475000D02*
X155852000Y-59475500D01*
X155852500Y-58420000D02*
X155852500Y-59475000D01*
X155852000Y-71120000D02*
X155852000Y-70941800D01*
X155852000Y-70941800D02*
X155852000Y-70763700D01*
X155852000Y-70763700D02*
X155852000Y-70941800D01*
X155852000Y-70941800D02*
X155852000Y-71120000D01*
X155852500Y-70942300D02*
X155852500Y-71120000D01*
X155852000Y-70941800D02*
X155852500Y-70942300D01*
X170458000Y-101506000D02*
X170458000Y-100283000D01*
X170458000Y-100283000D02*
X170458000Y-99060000D01*
X170457500Y-100282500D02*
X170457500Y-99060000D01*
X170458000Y-100283000D02*
X170457500Y-100282500D01*
X146464000Y-107315000D02*
X145818000Y-107315000D01*
X147955000Y-105824000D02*
X146464000Y-107315000D01*
X147955000Y-105002000D02*
X147955000Y-105824000D01*
X148366000Y-104591000D02*
X147955000Y-105002000D01*
X149443000Y-104591000D02*
X148366000Y-104591000D01*
X152168000Y-107315000D02*
X149443000Y-104591000D01*
X152167600Y-107315000D02*
X152167800Y-107315200D01*
X152167500Y-107315000D02*
X152167600Y-107315000D01*
X151649000Y-107834000D02*
X152167800Y-107315200D01*
X152167800Y-107315200D02*
X152168000Y-107315000D01*
X151649000Y-107834000D02*
X152167800Y-107315200D01*
X152167800Y-107315200D02*
X152168000Y-107315000D01*
X166370000Y-114532000D02*
X172487500Y-120649500D01*
X166370000Y-113030000D02*
X166370000Y-114532000D01*
X172487500Y-120649500D02*
X172488000Y-120650000D01*
X172487500Y-120649500D02*
X172487500Y-120650000D01*
%TD*%
M02*
