%TF.GenerationSoftware,KiCad,Pcbnew,(6.0.10)*%
%TF.CreationDate,2023-01-13T17:08:23+01:00*%
%TF.ProjectId,z80-test-board,7a38302d-7465-4737-942d-626f6172642e,rev?*%
%TF.SameCoordinates,Original*%
%TF.FileFunction,Copper,L2,Bot*%
%TF.FilePolarity,Positive*%
%FSLAX46Y46*%
G04 Gerber Fmt 4.6, Leading zero omitted, Abs format (unit mm)*
G04 Created by KiCad (PCBNEW (6.0.10)) date 2023-01-13 17:08:23*
%MOMM*%
%LPD*%
G01*
G04 APERTURE LIST*
%TA.AperFunction,ComponentPad*%
%ADD10R,1.700000X1.700000*%
%TD*%
%TA.AperFunction,ComponentPad*%
%ADD11R,1.600000X1.600000*%
%TD*%
%TA.AperFunction,ComponentPad*%
%ADD12O,1.600000X1.600000*%
%TD*%
%TA.AperFunction,ComponentPad*%
%ADD13O,1.700000X1.700000*%
%TD*%
%TA.AperFunction,ComponentPad*%
%ADD14C,2.340000*%
%TD*%
%TA.AperFunction,ComponentPad*%
%ADD15C,2.000000*%
%TD*%
%TA.AperFunction,ComponentPad*%
%ADD16C,1.600000*%
%TD*%
%TA.AperFunction,ViaPad*%
%ADD17C,0.800000*%
%TD*%
%TA.AperFunction,Conductor*%
%ADD18C,0.250000*%
%TD*%
G04 APERTURE END LIST*
D10*
%TO.P,J4,1,Pin_1*%
%TO.N,/ROM1-CS*%
X124460000Y-73660000D03*
%TD*%
%TO.P,J3,1,Pin_1*%
%TO.N,/RAM1-CS*%
X182880000Y-78740000D03*
%TD*%
D11*
%TO.P,A1,1,NC*%
%TO.N,unconnected-(A1-Pad1)*%
X106685000Y-121930000D03*
D12*
%TO.P,A1,2,D0/RX*%
%TO.N,unconnected-(A1-Pad2)*%
X106685000Y-119390000D03*
%TO.P,A1,3,GND*%
%TO.N,unconnected-(A1-Pad3)*%
X106685000Y-116850000D03*
%TO.P,A1,4,GND*%
%TO.N,Net-(A1-Pad4)*%
X106685000Y-114310000D03*
%TO.P,A1,5,D2/SDA*%
%TO.N,/D7*%
X106685000Y-111770000D03*
%TO.P,A1,6,D3/SCL*%
%TO.N,/D6*%
X106685000Y-109230000D03*
%TO.P,A1,7,D4*%
%TO.N,/D5*%
X106685000Y-106690000D03*
%TO.P,A1,8,D5*%
%TO.N,/D4*%
X106685000Y-104150000D03*
%TO.P,A1,9,D6*%
%TO.N,/D3*%
X106685000Y-101610000D03*
%TO.P,A1,10,D7*%
%TO.N,/D2*%
X106685000Y-99070000D03*
%TO.P,A1,11,D8*%
%TO.N,/D1*%
X106685000Y-96530000D03*
%TO.P,A1,12,D9*%
%TO.N,/D0*%
X106685000Y-93990000D03*
%TO.P,A1,13,D10*%
%TO.N,Net-(A1-Pad13)*%
X91445000Y-93990000D03*
%TO.P,A1,14,D16*%
%TO.N,Net-(A1-Pad14)*%
X91445000Y-96530000D03*
%TO.P,A1,15,D14*%
%TO.N,Net-(A1-Pad15)*%
X91445000Y-99070000D03*
%TO.P,A1,16,D15*%
%TO.N,Net-(A1-Pad16)*%
X91445000Y-101610000D03*
%TO.P,A1,17,A0*%
%TO.N,Net-(A1-Pad17)*%
X91445000Y-104150000D03*
%TO.P,A1,18,A1*%
%TO.N,unconnected-(A1-Pad18)*%
X91445000Y-106690000D03*
%TO.P,A1,19,A2*%
%TO.N,unconnected-(A1-Pad19)*%
X91445000Y-109230000D03*
%TO.P,A1,20,A3*%
%TO.N,unconnected-(A1-Pad20)*%
X91445000Y-111770000D03*
%TO.P,A1,21,+5V*%
%TO.N,Net-(A1-Pad21)*%
X91445000Y-114310000D03*
%TO.P,A1,22,~{RESET}*%
%TO.N,unconnected-(A1-Pad22)*%
X91445000Y-116850000D03*
%TO.P,A1,23,GND*%
%TO.N,unconnected-(A1-Pad23)*%
X91445000Y-119390000D03*
%TO.P,A1,24,VIN*%
%TO.N,unconnected-(A1-Pad24)*%
X91445000Y-121930000D03*
%TD*%
D10*
%TO.P,SW13,1,A*%
%TO.N,+5V*%
X179355000Y-96520000D03*
D13*
%TO.P,SW13,2,B*%
%TO.N,/RST*%
X179355000Y-93980000D03*
%TO.P,SW13,3,C*%
%TO.N,GND*%
X179355000Y-91440000D03*
%TD*%
D14*
%TO.P,RV1,1,1*%
%TO.N,Net-(C1-Pad1)*%
X114380000Y-111585000D03*
%TO.P,RV1,2,2*%
%TO.N,Net-(R7-Pad1)*%
X124380000Y-109085000D03*
%TO.P,RV1,3,3*%
%TO.N,unconnected-(RV1-Pad3)*%
X114380000Y-106585000D03*
%TD*%
D10*
%TO.P,SW11,1,A*%
%TO.N,Net-(A1-Pad13)*%
X114730000Y-91440000D03*
D13*
%TO.P,SW11,2,B*%
%TO.N,PWR*%
X117270000Y-91440000D03*
%TO.P,SW11,3,C*%
%TO.N,+5V*%
X119810000Y-91440000D03*
%TD*%
D10*
%TO.P,SW7,1,A*%
%TO.N,Net-(A1-Pad4)*%
X127000000Y-45720000D03*
D13*
%TO.P,SW7,2,B*%
%TO.N,GND*%
X129540000Y-45720000D03*
%TO.P,SW7,3*%
%TO.N,N/C*%
X132080000Y-45720000D03*
%TD*%
D10*
%TO.P,SW3,1,A*%
%TO.N,Net-(A1-Pad17)*%
X101600000Y-45720000D03*
D13*
%TO.P,SW3,2,B*%
%TO.N,PRD*%
X104140000Y-45720000D03*
%TO.P,SW3,3,C*%
%TO.N,/RD*%
X106680000Y-45720000D03*
%TD*%
D10*
%TO.P,SW2,1,A*%
%TO.N,+5V*%
X93980000Y-45720000D03*
D13*
%TO.P,SW2,2,B*%
%TO.N,Net-(SW2-Pad2)*%
X91440000Y-45720000D03*
%TO.P,SW2,3,C*%
%TO.N,GND*%
X88900000Y-45720000D03*
%TD*%
D10*
%TO.P,SW1,1,A*%
%TO.N,Net-(A1-Pad21)*%
X114300000Y-45720000D03*
D13*
%TO.P,SW1,2,B*%
%TO.N,+5V*%
X116840000Y-45720000D03*
%TO.P,SW1,3*%
%TO.N,N/C*%
X119380000Y-45720000D03*
%TD*%
D15*
%TO.P,SW4,1,1*%
%TO.N,GND*%
X120090000Y-122210000D03*
X113590000Y-122210000D03*
%TO.P,SW4,2,2*%
%TO.N,Net-(CLK1-Pad8)*%
X120090000Y-126710000D03*
X113590000Y-126710000D03*
%TD*%
D11*
%TO.P,CPU1,1,A11*%
%TO.N,/A11*%
X132075000Y-52075000D03*
D12*
%TO.P,CPU1,2,A12*%
%TO.N,/A12*%
X132075000Y-54615000D03*
%TO.P,CPU1,3,A13*%
%TO.N,/A13*%
X132075000Y-57155000D03*
%TO.P,CPU1,4,A14*%
%TO.N,/A14*%
X132075000Y-59695000D03*
%TO.P,CPU1,5,A15*%
%TO.N,/A15*%
X132075000Y-62235000D03*
%TO.P,CPU1,6,~{CLK}*%
%TO.N,Clock*%
X132075000Y-64775000D03*
%TO.P,CPU1,7,D4*%
%TO.N,/D4*%
X132075000Y-67315000D03*
%TO.P,CPU1,8,D3*%
%TO.N,/D3*%
X132075000Y-69855000D03*
%TO.P,CPU1,9,D5*%
%TO.N,/D5*%
X132075000Y-72395000D03*
%TO.P,CPU1,10,D6*%
%TO.N,/D6*%
X132075000Y-74935000D03*
%TO.P,CPU1,11,VCC*%
%TO.N,+5V*%
X132075000Y-77475000D03*
%TO.P,CPU1,12,D2*%
%TO.N,/D2*%
X132075000Y-80015000D03*
%TO.P,CPU1,13,D7*%
%TO.N,/D7*%
X132075000Y-82555000D03*
%TO.P,CPU1,14,D0*%
%TO.N,/D0*%
X132075000Y-85095000D03*
%TO.P,CPU1,15,D1*%
%TO.N,/D1*%
X132075000Y-87635000D03*
%TO.P,CPU1,16,~{INT}*%
%TO.N,/INT*%
X132075000Y-90175000D03*
%TO.P,CPU1,17,~{NMI}*%
%TO.N,/NMI*%
X132075000Y-92715000D03*
%TO.P,CPU1,18,~{HALT}*%
%TO.N,/HALT*%
X132075000Y-95255000D03*
%TO.P,CPU1,19,~{MREQ}*%
%TO.N,/MREQ*%
X132075000Y-97795000D03*
%TO.P,CPU1,20,~{IORQ}*%
%TO.N,/IORQ*%
X132075000Y-100335000D03*
%TO.P,CPU1,21,~{RD}*%
%TO.N,/RD*%
X147315000Y-100335000D03*
%TO.P,CPU1,22,~{WR}*%
%TO.N,/WR*%
X147315000Y-97795000D03*
%TO.P,CPU1,23,~{BUSACK}*%
%TO.N,unconnected-(CPU1-Pad23)*%
X147315000Y-95255000D03*
%TO.P,CPU1,24,~{WAIT}*%
%TO.N,/WAIT*%
X147315000Y-92715000D03*
%TO.P,CPU1,25,~{BUSRQ}*%
%TO.N,unconnected-(CPU1-Pad25)*%
X147315000Y-90175000D03*
%TO.P,CPU1,26,~{RESET}*%
%TO.N,Net-(CPU1-Pad26)*%
X147315000Y-87635000D03*
%TO.P,CPU1,27,~{M1}*%
%TO.N,/M1*%
X147315000Y-85095000D03*
%TO.P,CPU1,28,~{RFSH}*%
%TO.N,/RFSH*%
X147315000Y-82555000D03*
%TO.P,CPU1,29,GND*%
%TO.N,GND*%
X147315000Y-80015000D03*
%TO.P,CPU1,30,A0*%
%TO.N,/A0*%
X147315000Y-77475000D03*
%TO.P,CPU1,31,A1*%
%TO.N,/A1*%
X147315000Y-74935000D03*
%TO.P,CPU1,32,A2*%
%TO.N,/A2*%
X147315000Y-72395000D03*
%TO.P,CPU1,33,A3*%
%TO.N,/A3*%
X147315000Y-69855000D03*
%TO.P,CPU1,34,A4*%
%TO.N,/A4*%
X147315000Y-67315000D03*
%TO.P,CPU1,35,A5*%
%TO.N,/A5*%
X147315000Y-64775000D03*
%TO.P,CPU1,36,A6*%
%TO.N,/A6*%
X147315000Y-62235000D03*
%TO.P,CPU1,37,A7*%
%TO.N,/A7*%
X147315000Y-59695000D03*
%TO.P,CPU1,38,A8*%
%TO.N,/A8*%
X147315000Y-57155000D03*
%TO.P,CPU1,39,A9*%
%TO.N,/A9*%
X147315000Y-54615000D03*
%TO.P,CPU1,40,A10*%
%TO.N,/A10*%
X147315000Y-52075000D03*
%TD*%
D11*
%TO.P,RAM1,1,A14*%
%TO.N,GND*%
X162555000Y-52055000D03*
D12*
%TO.P,RAM1,2,A12*%
%TO.N,/A12*%
X162555000Y-54595000D03*
%TO.P,RAM1,3,A7*%
%TO.N,/A7*%
X162555000Y-57135000D03*
%TO.P,RAM1,4,A6*%
%TO.N,/A6*%
X162555000Y-59675000D03*
%TO.P,RAM1,5,A5*%
%TO.N,/A5*%
X162555000Y-62215000D03*
%TO.P,RAM1,6,A4*%
%TO.N,/A4*%
X162555000Y-64755000D03*
%TO.P,RAM1,7,A3*%
%TO.N,/A3*%
X162555000Y-67295000D03*
%TO.P,RAM1,8,A2*%
%TO.N,/A2*%
X162555000Y-69835000D03*
%TO.P,RAM1,9,A1*%
%TO.N,/A1*%
X162555000Y-72375000D03*
%TO.P,RAM1,10,A0*%
%TO.N,/A0*%
X162555000Y-74915000D03*
%TO.P,RAM1,11,Q0*%
%TO.N,/D0*%
X162555000Y-77455000D03*
%TO.P,RAM1,12,Q1*%
%TO.N,/D1*%
X162555000Y-79995000D03*
%TO.P,RAM1,13,Q2*%
%TO.N,/D2*%
X162555000Y-82535000D03*
%TO.P,RAM1,14,GND*%
%TO.N,GND*%
X162555000Y-85075000D03*
%TO.P,RAM1,15,Q3*%
%TO.N,/D3*%
X177795000Y-85075000D03*
%TO.P,RAM1,16,Q4*%
%TO.N,/D4*%
X177795000Y-82535000D03*
%TO.P,RAM1,17,Q5*%
%TO.N,/D5*%
X177795000Y-79995000D03*
%TO.P,RAM1,18,Q6*%
%TO.N,/D6*%
X177795000Y-77455000D03*
%TO.P,RAM1,19,Q7*%
%TO.N,/D7*%
X177795000Y-74915000D03*
%TO.P,RAM1,20,~{CS}*%
%TO.N,/RAM1-CS*%
X177795000Y-72375000D03*
%TO.P,RAM1,21,A10*%
%TO.N,/A10*%
X177795000Y-69835000D03*
%TO.P,RAM1,22,~{OE}*%
%TO.N,/RD*%
X177795000Y-67295000D03*
%TO.P,RAM1,23,A11*%
%TO.N,/A11*%
X177795000Y-64755000D03*
%TO.P,RAM1,24,A9*%
%TO.N,/A9*%
X177795000Y-62215000D03*
%TO.P,RAM1,25,A8*%
%TO.N,/A8*%
X177795000Y-59675000D03*
%TO.P,RAM1,26,A13*%
%TO.N,GND*%
X177795000Y-57135000D03*
%TO.P,RAM1,27,~{WE}*%
%TO.N,/WR*%
X177795000Y-54595000D03*
%TO.P,RAM1,28,VCC*%
%TO.N,+5V*%
X177795000Y-52055000D03*
%TD*%
D11*
%TO.P,ROM1,1*%
%TO.N,N/C*%
X101595000Y-52055000D03*
D12*
%TO.P,ROM1,2,A12*%
%TO.N,/A12*%
X101595000Y-54595000D03*
%TO.P,ROM1,3,A7*%
%TO.N,/A7*%
X101595000Y-57135000D03*
%TO.P,ROM1,4,A6*%
%TO.N,/A6*%
X101595000Y-59675000D03*
%TO.P,ROM1,5,A5*%
%TO.N,/A5*%
X101595000Y-62215000D03*
%TO.P,ROM1,6,A4*%
%TO.N,/A4*%
X101595000Y-64755000D03*
%TO.P,ROM1,7,A3*%
%TO.N,/A3*%
X101595000Y-67295000D03*
%TO.P,ROM1,8,A2*%
%TO.N,/A2*%
X101595000Y-69835000D03*
%TO.P,ROM1,9,A1*%
%TO.N,/A1*%
X101595000Y-72375000D03*
%TO.P,ROM1,10,A0*%
%TO.N,/A0*%
X101595000Y-74915000D03*
%TO.P,ROM1,11,I/O0*%
%TO.N,/D0*%
X101595000Y-77455000D03*
%TO.P,ROM1,12,I/O1*%
%TO.N,/D1*%
X101595000Y-79995000D03*
%TO.P,ROM1,13,I/O2*%
%TO.N,/D2*%
X101595000Y-82535000D03*
%TO.P,ROM1,14,GND*%
%TO.N,GND*%
X101595000Y-85075000D03*
%TO.P,ROM1,15,I/O3*%
%TO.N,/D3*%
X116835000Y-85075000D03*
%TO.P,ROM1,16,I/O4*%
%TO.N,/D4*%
X116835000Y-82535000D03*
%TO.P,ROM1,17,I/O5*%
%TO.N,/D5*%
X116835000Y-79995000D03*
%TO.P,ROM1,18,I/O6*%
%TO.N,/D6*%
X116835000Y-77455000D03*
%TO.P,ROM1,19,I/O7*%
%TO.N,/D7*%
X116835000Y-74915000D03*
%TO.P,ROM1,20,~{CE}*%
%TO.N,/ROM1-CS*%
X116835000Y-72375000D03*
%TO.P,ROM1,21,A10*%
%TO.N,/A10*%
X116835000Y-69835000D03*
%TO.P,ROM1,22,~{OE}*%
%TO.N,PRD*%
X116835000Y-67295000D03*
%TO.P,ROM1,23,A11*%
%TO.N,/A11*%
X116835000Y-64755000D03*
%TO.P,ROM1,24,A9*%
%TO.N,/A9*%
X116835000Y-62215000D03*
%TO.P,ROM1,25,A8*%
%TO.N,/A8*%
X116835000Y-59675000D03*
%TO.P,ROM1,26*%
%TO.N,N/C*%
X116835000Y-57135000D03*
%TO.P,ROM1,27,~{WE}*%
%TO.N,PWR*%
X116835000Y-54595000D03*
%TO.P,ROM1,28,VCC*%
%TO.N,+5V*%
X116835000Y-52055000D03*
%TD*%
D10*
%TO.P,J2,1,Pin_1*%
%TO.N,/D7*%
X185420000Y-73660000D03*
D13*
%TO.P,J2,2,Pin_2*%
%TO.N,/D6*%
X187960000Y-73660000D03*
%TO.P,J2,3,Pin_3*%
%TO.N,/D5*%
X190500000Y-73660000D03*
%TO.P,J2,4,Pin_4*%
%TO.N,/D4*%
X193040000Y-73660000D03*
%TO.P,J2,5,Pin_5*%
%TO.N,/D3*%
X195580000Y-73660000D03*
%TO.P,J2,6,Pin_6*%
%TO.N,/D2*%
X198120000Y-73660000D03*
%TO.P,J2,7,Pin_7*%
%TO.N,/D1*%
X200660000Y-73660000D03*
%TO.P,J2,8,Pin_8*%
%TO.N,/D0*%
X203200000Y-73660000D03*
%TO.P,J2,9,Pin_9*%
%TO.N,/A15*%
X205740000Y-73660000D03*
%TO.P,J2,10,Pin_10*%
%TO.N,+5V*%
X208280000Y-73660000D03*
%TO.P,J2,11,Pin_11*%
%TO.N,/RST*%
X210820000Y-73660000D03*
%TO.P,J2,12,Pin_12*%
%TO.N,/IORQ*%
X213360000Y-73660000D03*
%TO.P,J2,13,Pin_13*%
%TO.N,/MREQ*%
X215900000Y-73660000D03*
%TO.P,J2,14,Pin_14*%
%TO.N,/RD*%
X218440000Y-73660000D03*
%TO.P,J2,15,Pin_15*%
%TO.N,/WR*%
X220980000Y-73660000D03*
%TO.P,J2,16,Pin_16*%
%TO.N,GND*%
X223520000Y-73660000D03*
%TD*%
D10*
%TO.P,J1,1,Pin_1*%
%TO.N,GND*%
X185420000Y-66040000D03*
D13*
%TO.P,J1,2,Pin_2*%
%TO.N,/A0*%
X187960000Y-66040000D03*
%TO.P,J1,3,Pin_3*%
%TO.N,/A1*%
X190500000Y-66040000D03*
%TO.P,J1,4,Pin_4*%
%TO.N,/A2*%
X193040000Y-66040000D03*
%TO.P,J1,5,Pin_5*%
%TO.N,/A3*%
X195580000Y-66040000D03*
%TO.P,J1,6,Pin_6*%
%TO.N,/A4*%
X198120000Y-66040000D03*
%TO.P,J1,7,Pin_7*%
%TO.N,/A5*%
X200660000Y-66040000D03*
%TO.P,J1,8,Pin_8*%
%TO.N,/A6*%
X203200000Y-66040000D03*
%TO.P,J1,9,Pin_9*%
%TO.N,/A7*%
X205740000Y-66040000D03*
%TO.P,J1,10,Pin_10*%
%TO.N,/A8*%
X208280000Y-66040000D03*
%TO.P,J1,11,Pin_11*%
%TO.N,/A9*%
X210820000Y-66040000D03*
%TO.P,J1,12,Pin_12*%
%TO.N,/A10*%
X213360000Y-66040000D03*
%TO.P,J1,13,Pin_13*%
%TO.N,/A11*%
X215900000Y-66040000D03*
%TO.P,J1,14,Pin_14*%
%TO.N,/A12*%
X218440000Y-66040000D03*
%TO.P,J1,15,Pin_15*%
%TO.N,/A13*%
X220980000Y-66040000D03*
%TO.P,J1,16,Pin_16*%
%TO.N,/A14*%
X223520000Y-66040000D03*
%TD*%
D11*
%TO.P,CLK1,1,DIS*%
%TO.N,Net-(CLK1-Pad1)*%
X137805000Y-111755000D03*
D12*
%TO.P,CLK1,2,THR*%
%TO.N,Net-(C1-Pad1)*%
X137805000Y-114295000D03*
%TO.P,CLK1,3,CV*%
%TO.N,Net-(C5-Pad1)*%
X137805000Y-116835000D03*
%TO.P,CLK1,4,R*%
%TO.N,+5V*%
X137805000Y-119375000D03*
%TO.P,CLK1,5,Q*%
X137805000Y-121915000D03*
%TO.P,CLK1,6,TR*%
%TO.N,Net-(C1-Pad1)*%
X137805000Y-124455000D03*
%TO.P,CLK1,7,GND*%
%TO.N,GND*%
X137805000Y-126995000D03*
%TO.P,CLK1,8,TR*%
%TO.N,Net-(CLK1-Pad8)*%
X145425000Y-126995000D03*
%TO.P,CLK1,9,Q*%
%TO.N,/ManClk*%
X145425000Y-124455000D03*
%TO.P,CLK1,10,R*%
%TO.N,+5V*%
X145425000Y-121915000D03*
%TO.P,CLK1,11,CV*%
%TO.N,Net-(C6-Pad1)*%
X145425000Y-119375000D03*
%TO.P,CLK1,12,THR*%
%TO.N,Net-(C7-Pad2)*%
X145425000Y-116835000D03*
%TO.P,CLK1,13,DIS*%
X145425000Y-114295000D03*
%TO.P,CLK1,14,VCC*%
%TO.N,+5V*%
X145425000Y-111755000D03*
%TD*%
D11*
%TO.P,X8.000Mhz1,1,EN*%
%TO.N,GND*%
X166370000Y-113030000D03*
D16*
%TO.P,X8.000Mhz1,7,GND*%
X151130000Y-113030000D03*
%TO.P,X8.000Mhz1,8,OUT*%
%TO.N,/FstClk*%
X151130000Y-120650000D03*
%TO.P,X8.000Mhz1,14,Vcc*%
%TO.N,+5V*%
X166370000Y-120650000D03*
%TD*%
D17*
%TO.N,Net-(U2-Pad9)*%
X95504000Y-69215000D03*
X95504000Y-66929000D03*
%TO.N,/A1*%
X118999000Y-69215000D03*
X115443000Y-69215000D03*
X133604000Y-70358000D03*
X130175000Y-71247000D03*
%TO.N,Net-(A1-Pad14)*%
X92507200Y-71755000D03*
X92367100Y-56791300D03*
%TO.N,Net-(A1-Pad15)*%
X92211300Y-73025000D03*
%TO.N,Net-(A1-Pad16)*%
X92529900Y-53975000D03*
%TO.N,PWR*%
X114407000Y-85808800D03*
%TO.N,PRD*%
X110118000Y-67110600D03*
%TO.N,Net-(SW2-Pad2)*%
X91872300Y-67119000D03*
X91185900Y-55307400D03*
%TO.N,/A3*%
X95518700Y-53859300D03*
%TO.N,/A2*%
X175109000Y-66868900D03*
X98690900Y-52070000D03*
%TO.N,/A1*%
X92668000Y-49209100D03*
%TO.N,/A0*%
X95494900Y-52810100D03*
%TO.N,/D1*%
X157536000Y-90438300D03*
%TO.N,/D0*%
X158166000Y-84984800D03*
%TO.N,/D7*%
X164173000Y-105613000D03*
%TO.N,/D2*%
X162304000Y-92008900D03*
X189193000Y-81779000D03*
%TO.N,/D6*%
X165358000Y-102993000D03*
X164851000Y-86434300D03*
%TO.N,/D5*%
X165866000Y-100594000D03*
%TO.N,/D3*%
X168276000Y-95250000D03*
%TO.N,/D4*%
X125284000Y-82470700D03*
X167512000Y-98117600D03*
%TO.N,/A10*%
X168136000Y-69255200D03*
%TO.N,/A9*%
X156945000Y-61031100D03*
X136418000Y-53586500D03*
%TO.N,/A8*%
X136233000Y-58587900D03*
%TO.N,/RST*%
X178937000Y-86877200D03*
%TO.N,/A7*%
X169695000Y-56469300D03*
%TO.N,/A5*%
X96839100Y-50336900D03*
%TO.N,/A4*%
X174018000Y-65550600D03*
X96249600Y-54610100D03*
%TO.N,/RD*%
X143997000Y-55307200D03*
%TO.N,/A15*%
X165965000Y-31221400D03*
%TO.N,Clock*%
X155606000Y-97780700D03*
%TO.N,/A14*%
X159693000Y-32076900D03*
%TO.N,/A13*%
X168436000Y-35100800D03*
%TO.N,/A12*%
X102856000Y-68709900D03*
%TO.N,/A11*%
X170443000Y-64517100D03*
X166887000Y-40605900D03*
%TO.N,+5V*%
X113773000Y-84605300D03*
X92607000Y-59741900D03*
X152037000Y-103429000D03*
%TO.N,GND*%
X155227000Y-75061800D03*
X162808000Y-97421400D03*
%TD*%
D18*
%TO.N,/A4*%
X198120000Y-66040000D02*
X196945000Y-66040000D01*
X186464000Y-67238700D02*
X184414000Y-67238700D01*
X196945000Y-66040000D02*
X196945000Y-65672800D01*
X196945000Y-65672800D02*
X196137000Y-64864800D01*
X196137000Y-64864800D02*
X187357200Y-64864800D01*
X187357200Y-64864800D02*
X186785000Y-65437000D01*
X186785000Y-66917900D02*
X186464000Y-67238700D01*
X184414000Y-67238700D02*
X180772000Y-63597000D01*
X186785000Y-65437000D02*
X186785000Y-66917900D01*
X180772000Y-63597000D02*
X175972000Y-63597000D01*
X175972000Y-63597000D02*
X174018000Y-65550600D01*
%TO.N,/D4*%
X106685000Y-104150000D02*
X106685000Y-103025000D01*
X106685000Y-103025000D02*
X106918000Y-103025000D01*
X114744500Y-87185500D02*
X116395500Y-87185500D01*
X106918000Y-103025000D02*
X109383000Y-100560000D01*
X109383000Y-100560000D02*
X109383000Y-92547000D01*
X109383000Y-92547000D02*
X114744500Y-87185500D01*
X116395500Y-87185500D02*
X117980000Y-85601000D01*
X117980000Y-84524000D02*
X117116000Y-83660100D01*
X117980000Y-85601000D02*
X117980000Y-84524000D01*
X117116000Y-83660100D02*
X116835000Y-83660100D01*
X116835000Y-83660100D02*
X116835000Y-82535000D01*
%TO.N,/D5*%
X106685000Y-106690000D02*
X106685000Y-105565000D01*
X106685000Y-105565000D02*
X106918000Y-105565000D01*
X106918000Y-105565000D02*
X110284000Y-102200000D01*
X110284000Y-102200000D02*
X110284000Y-92421657D01*
X116599601Y-87643601D02*
X118430000Y-85813000D01*
X110284000Y-92421657D02*
X115062056Y-87643601D01*
X115062056Y-87643601D02*
X116599601Y-87643601D01*
X118430000Y-85813000D02*
X118430000Y-82462900D01*
X118430000Y-82462900D02*
X117088000Y-81120100D01*
X117088000Y-81120100D02*
X116835000Y-81120100D01*
X116835000Y-81120100D02*
X116835000Y-79995000D01*
%TO.N,/MREQ*%
X144887000Y-128128000D02*
X156225000Y-128128000D01*
X163314500Y-125341500D02*
X182393000Y-106263000D01*
X159011500Y-125341500D02*
X163314500Y-125341500D01*
X156225000Y-128128000D02*
X159011500Y-125341500D01*
%TO.N,Net-(U2-Pad9)*%
X95504000Y-66929000D02*
X95504000Y-69215000D01*
%TO.N,/A0*%
X94781600Y-53523400D02*
X94781600Y-64476400D01*
X96654165Y-69080835D02*
X96654165Y-66348965D01*
X96654165Y-66348965D02*
X94781600Y-64476400D01*
X96654165Y-69080835D02*
X101363230Y-73789900D01*
X95494900Y-52810100D02*
X94781600Y-53523400D01*
X101363230Y-73789900D02*
X101595000Y-73789900D01*
X101595000Y-73789900D02*
X101595000Y-74915000D01*
%TO.N,/A1*%
X118237000Y-68453000D02*
X118999000Y-69215000D01*
%TO.N,/A10*%
X116835000Y-69835000D02*
X117104000Y-70104000D01*
X146190000Y-52075000D02*
X147315000Y-52075000D01*
X117104000Y-70104000D02*
X119507000Y-70104000D01*
X119507000Y-70104000D02*
X126242600Y-63368400D01*
X126242600Y-63368400D02*
X134896000Y-63368400D01*
X134896000Y-63368400D02*
X146190000Y-52075000D01*
%TO.N,/A1*%
X115443000Y-69215000D02*
X116205000Y-68453000D01*
X116205000Y-68453000D02*
X118237000Y-68453000D01*
%TO.N,/A8*%
X116835000Y-59675000D02*
X116835000Y-60800100D01*
X116835000Y-60800100D02*
X116554000Y-60800100D01*
X116554000Y-60800100D02*
X115684000Y-61670200D01*
X119031000Y-65913000D02*
X123979000Y-60965000D01*
X123979000Y-60965000D02*
X133856000Y-60965000D01*
X115684000Y-61670200D02*
X115684000Y-65392000D01*
X115684000Y-65392000D02*
X116205000Y-65913000D01*
X116205000Y-65913000D02*
X119031000Y-65913000D01*
X133856000Y-60965000D02*
X136233000Y-58587900D01*
%TO.N,/A1*%
X132715000Y-71247000D02*
X133604000Y-70358000D01*
%TO.N,/D4*%
X132075000Y-67315000D02*
X132075000Y-68440100D01*
X132075000Y-68440100D02*
X132829100Y-68440100D01*
X132829100Y-68440100D02*
X135001000Y-70612000D01*
X135001000Y-73699200D02*
X132457000Y-76243200D01*
X135001000Y-70612000D02*
X135001000Y-73699200D01*
%TO.N,/A1*%
X130175000Y-71247000D02*
X132715000Y-71247000D01*
%TO.N,/D3*%
X115710000Y-85075000D02*
X115710000Y-76967100D01*
X115710000Y-76967100D02*
X116492000Y-76185000D01*
X116492000Y-76185000D02*
X124094000Y-76185000D01*
X124094000Y-76185000D02*
X130424000Y-69855000D01*
X130424000Y-69855000D02*
X132075000Y-69855000D01*
%TO.N,PWR*%
X114407000Y-85808800D02*
X114540000Y-85675500D01*
X114540000Y-85675500D02*
X114540000Y-56890000D01*
X114540000Y-56890000D02*
X116835000Y-54595000D01*
%TO.N,Net-(A1-Pad21)*%
X91445000Y-114310000D02*
X91445000Y-113185000D01*
X91445000Y-113185000D02*
X91211800Y-113185000D01*
X91211800Y-113185000D02*
X87920100Y-109893000D01*
X87920100Y-109893000D02*
X87884000Y-47879000D01*
X87884000Y-47879000D02*
X86868000Y-46863000D01*
X113125000Y-45720000D02*
X114300000Y-45720000D01*
X86868000Y-46863000D02*
X86868000Y-44450000D01*
X86868000Y-44450000D02*
X87224500Y-44093500D01*
X87224500Y-44093500D02*
X111498000Y-44093500D01*
X111498000Y-44093500D02*
X113125000Y-45720000D01*
%TO.N,Net-(A1-Pad4)*%
X100422000Y-76743000D02*
X100422000Y-107156000D01*
X100838000Y-76327000D02*
X100422000Y-76743000D01*
X101981000Y-76327000D02*
X100838000Y-76327000D01*
X127000000Y-45720000D02*
X125825000Y-45720000D01*
X101981120Y-76327120D02*
X101981000Y-76327000D01*
X111936000Y-66372500D02*
X101981120Y-76327120D01*
X111936000Y-55729700D02*
X111936000Y-66372500D01*
X115475000Y-52190600D02*
X111936000Y-55729700D01*
X115475000Y-45366600D02*
X115475000Y-52190600D01*
X116300000Y-44541400D02*
X115475000Y-45366600D01*
X100422000Y-107156000D02*
X106452000Y-113185000D01*
X124646000Y-44541400D02*
X116300000Y-44541400D01*
X125825000Y-45720000D02*
X124646000Y-44541400D01*
X106452000Y-113185000D02*
X106685000Y-113185000D01*
X106685000Y-113185000D02*
X106685000Y-114310000D01*
%TO.N,Net-(A1-Pad14)*%
X92936400Y-72184200D02*
X92507200Y-71755000D01*
X92936400Y-94146600D02*
X92936400Y-72184200D01*
X91678100Y-95404900D02*
X92936400Y-94146600D01*
X91445000Y-95404900D02*
X91678100Y-95404900D01*
X91445000Y-96530000D02*
X91445000Y-95404900D01*
X92598700Y-71663500D02*
X92507200Y-71755000D01*
X92598700Y-64325800D02*
X92598700Y-71663500D01*
X91818800Y-63545900D02*
X92598700Y-64325800D01*
X91818800Y-57339600D02*
X91818800Y-63545900D01*
X92367100Y-56791300D02*
X91818800Y-57339600D01*
%TO.N,Net-(A1-Pad15)*%
X90295500Y-74940800D02*
X92211300Y-73025000D01*
X90295500Y-97028600D02*
X90295500Y-74940800D01*
X91211800Y-97944900D02*
X90295500Y-97028600D01*
X91445000Y-97944900D02*
X91211800Y-97944900D01*
X91445000Y-99070000D02*
X91445000Y-97944900D01*
%TO.N,Net-(A1-Pad16)*%
X93542300Y-54987400D02*
X92529900Y-53975000D01*
X93542300Y-98668900D02*
X93542300Y-54987400D01*
X91726300Y-100485000D02*
X93542300Y-98668900D01*
X91445000Y-100485000D02*
X91726300Y-100485000D01*
X91445000Y-101610000D02*
X91445000Y-100485000D01*
%TO.N,Net-(A1-Pad17)*%
X91445000Y-103025000D02*
X91445000Y-104150000D01*
X91678100Y-103025000D02*
X91445000Y-103025000D01*
X94286500Y-100416000D02*
X91678100Y-103025000D01*
X94286500Y-51858400D02*
X94286500Y-100416000D01*
X100425000Y-45720000D02*
X94286500Y-51858400D01*
X101600000Y-45720000D02*
X100425000Y-45720000D01*
%TO.N,PRD*%
X110118000Y-52872600D02*
X110118000Y-67110600D01*
X104140000Y-46895100D02*
X110118000Y-52872600D01*
X104140000Y-45720000D02*
X104140000Y-46895100D01*
%TO.N,Net-(SW2-Pad2)*%
X91440000Y-46895100D02*
X91440000Y-45720000D01*
X91185900Y-47149200D02*
X91440000Y-46895100D01*
X91185900Y-55307400D02*
X91185900Y-47149200D01*
X91185900Y-66432600D02*
X91872300Y-67119000D01*
X91185900Y-55307400D02*
X91185900Y-66432600D01*
%TO.N,/A3*%
X95518700Y-60326800D02*
X95518700Y-53859300D01*
X101362000Y-66169900D02*
X95518700Y-60326800D01*
X101595000Y-66169900D02*
X101362000Y-66169900D01*
X101595000Y-67295000D02*
X101595000Y-66169900D01*
X158870000Y-69855000D02*
X147315000Y-69855000D01*
X161430000Y-67295000D02*
X158870000Y-69855000D01*
X162555000Y-67295000D02*
X161430000Y-67295000D01*
%TO.N,/A2*%
X175808000Y-66169800D02*
X175109000Y-66868900D01*
X182708000Y-66169800D02*
X175808000Y-66169800D01*
X184227000Y-67688800D02*
X182708000Y-66169800D01*
X190580000Y-67688800D02*
X184227000Y-67688800D01*
X191865000Y-66404300D02*
X190580000Y-67688800D01*
X191865000Y-66040000D02*
X191865000Y-66404300D01*
X193040000Y-66040000D02*
X191865000Y-66040000D01*
X148440000Y-72395000D02*
X147315000Y-72395000D01*
X150204000Y-70630600D02*
X148440000Y-72395000D01*
X160634000Y-70630600D02*
X150204000Y-70630600D01*
X161430000Y-69835000D02*
X160634000Y-70630600D01*
X162555000Y-69835000D02*
X161430000Y-69835000D01*
X98690900Y-53286800D02*
X98690900Y-52070000D01*
X101269000Y-55865000D02*
X98690900Y-53286800D01*
X101995000Y-55865000D02*
X101269000Y-55865000D01*
X102720000Y-56590500D02*
X101995000Y-55865000D01*
X102720000Y-67817800D02*
X102720000Y-56590500D01*
X101828000Y-68709900D02*
X102720000Y-67817800D01*
X101595000Y-68709900D02*
X101828000Y-68709900D01*
X101595000Y-69835000D02*
X101595000Y-68709900D01*
%TO.N,/A1*%
X97332300Y-44544800D02*
X92668000Y-49209100D01*
X102668000Y-44544800D02*
X97332300Y-44544800D01*
X102775000Y-44651700D02*
X102668000Y-44544800D01*
X102775000Y-46255200D02*
X102775000Y-44651700D01*
X103653000Y-47133200D02*
X102775000Y-46255200D01*
X103653000Y-69443400D02*
X103653000Y-47133200D01*
X101847000Y-71249900D02*
X103653000Y-69443400D01*
X101595000Y-71249900D02*
X101847000Y-71249900D01*
X101595000Y-72375000D02*
X101595000Y-71249900D01*
X151000000Y-72375000D02*
X162555000Y-72375000D01*
X148440000Y-74935000D02*
X151000000Y-72375000D01*
X147315000Y-74935000D02*
X148440000Y-74935000D01*
%TO.N,/RAM1-CS*%
X177795000Y-73500100D02*
X177795000Y-72375000D01*
X178815000Y-73500100D02*
X177795000Y-73500100D01*
X182880000Y-77564900D02*
X178815000Y-73500100D01*
X182880000Y-78740000D02*
X182880000Y-77564900D01*
%TO.N,/D1*%
X106685000Y-95404900D02*
X106685000Y-96530000D01*
X106452000Y-95404900D02*
X106685000Y-95404900D01*
X105216000Y-94168900D02*
X106452000Y-95404900D01*
X105216000Y-84536300D02*
X105216000Y-94168900D01*
X101800000Y-81120100D02*
X105216000Y-84536300D01*
X101595000Y-81120100D02*
X101800000Y-81120100D01*
X101595000Y-79995000D02*
X101595000Y-81120100D01*
X158894000Y-89080700D02*
X157536000Y-90438300D01*
X158894000Y-84547900D02*
X158894000Y-89080700D01*
X162322000Y-81120100D02*
X158894000Y-84547900D01*
X162555000Y-81120100D02*
X162322000Y-81120100D01*
X162555000Y-79995000D02*
X162555000Y-81120100D01*
%TO.N,/D0*%
X106685000Y-83437000D02*
X106685000Y-93990000D01*
X101828000Y-78580100D02*
X106685000Y-83437000D01*
X101595000Y-78580100D02*
X101828000Y-78580100D01*
X101595000Y-77455000D02*
X101595000Y-78580100D01*
X158166000Y-82687400D02*
X158166000Y-84984800D01*
X162274000Y-78580100D02*
X158166000Y-82687400D01*
X162555000Y-78580100D02*
X162274000Y-78580100D01*
X162555000Y-77455000D02*
X162555000Y-78580100D01*
%TO.N,/D7*%
X132075000Y-83680100D02*
X132075000Y-82555000D01*
X131794000Y-83680100D02*
X132075000Y-83680100D01*
X130926000Y-84547200D02*
X131794000Y-83680100D01*
X130926000Y-86636500D02*
X130926000Y-84547200D01*
X106918000Y-110645000D02*
X130926000Y-86636500D01*
X106685000Y-110645000D02*
X106918000Y-110645000D01*
X106685000Y-111770000D02*
X106685000Y-110645000D01*
X175295000Y-74915000D02*
X177795000Y-74915000D01*
X164126000Y-86084700D02*
X175295000Y-74915000D01*
X164126000Y-105566000D02*
X164126000Y-86084700D01*
X164173000Y-105613000D02*
X164126000Y-105566000D01*
%TO.N,/D2*%
X161430000Y-91134700D02*
X162304000Y-92008900D01*
X161430000Y-84504100D02*
X161430000Y-91134700D01*
X162274000Y-83660100D02*
X161430000Y-84504100D01*
X162555000Y-83660100D02*
X162274000Y-83660100D01*
X162555000Y-82535000D02*
X162555000Y-83660100D01*
X101595000Y-83660100D02*
X101595000Y-82535000D01*
X101876000Y-83660100D02*
X101595000Y-83660100D01*
X102720000Y-84503800D02*
X101876000Y-83660100D01*
X102720000Y-94213200D02*
X102720000Y-84503800D01*
X106452000Y-97944900D02*
X102720000Y-94213200D01*
X106685000Y-97944900D02*
X106452000Y-97944900D01*
X106685000Y-99070000D02*
X106685000Y-97944900D01*
X196945000Y-74027200D02*
X189193000Y-81779000D01*
X196945000Y-73660000D02*
X196945000Y-74027200D01*
X198120000Y-73660000D02*
X196945000Y-73660000D01*
%TO.N,/D6*%
X118925000Y-87171400D02*
X118925000Y-77455000D01*
X118487000Y-87609400D02*
X118925000Y-87171400D01*
X118487000Y-96536300D02*
X118487000Y-87609400D01*
X106918000Y-108105000D02*
X118487000Y-96536300D01*
X106685000Y-108105000D02*
X106918000Y-108105000D01*
X106685000Y-109230000D02*
X106685000Y-108105000D01*
X116835000Y-77455000D02*
X118925000Y-77455000D01*
X130950000Y-74935000D02*
X132075000Y-74935000D01*
X128430000Y-77455000D02*
X130950000Y-74935000D01*
X118925000Y-77455000D02*
X128430000Y-77455000D01*
X165141000Y-86434300D02*
X164851000Y-86434300D01*
X165141000Y-102775000D02*
X165141000Y-86434300D01*
X165358000Y-102993000D02*
X165141000Y-102775000D01*
X177795000Y-78580100D02*
X177795000Y-77455000D01*
X172995000Y-78580100D02*
X177795000Y-78580100D01*
X165141000Y-86434300D02*
X172995000Y-78580100D01*
%TO.N,/D5*%
X165866000Y-92834600D02*
X165866000Y-100594000D01*
X177580000Y-81120100D02*
X165866000Y-92834600D01*
X177795000Y-81120100D02*
X177580000Y-81120100D01*
X177795000Y-79995000D02*
X177795000Y-81120100D01*
%TO.N,/D3*%
X177326000Y-86200100D02*
X168276000Y-95250000D01*
X177795000Y-86200100D02*
X177326000Y-86200100D01*
X177795000Y-85075000D02*
X177795000Y-86200100D01*
X116835000Y-85075000D02*
X115710000Y-85075000D01*
X115710000Y-85531000D02*
X115710000Y-85075000D01*
X107865000Y-93375900D02*
X115710000Y-85531000D01*
X107865000Y-99538000D02*
X107865000Y-93375900D01*
X106918000Y-100485000D02*
X107865000Y-99538000D01*
X106685000Y-100485000D02*
X106918000Y-100485000D01*
X106685000Y-101610000D02*
X106685000Y-100485000D01*
X194405000Y-73660000D02*
X195580000Y-73660000D01*
X194405000Y-74027200D02*
X194405000Y-73660000D01*
X187617000Y-80815400D02*
X194405000Y-74027200D01*
X183180000Y-80815400D02*
X187617000Y-80815400D01*
X178920000Y-85075000D02*
X183180000Y-80815400D01*
X177795000Y-85075000D02*
X178920000Y-85075000D01*
%TO.N,/D4*%
X167512000Y-93661700D02*
X167512000Y-98117600D01*
X177514000Y-83660100D02*
X167512000Y-93661700D01*
X177795000Y-83660100D02*
X177514000Y-83660100D01*
X177795000Y-82535000D02*
X177795000Y-83660100D01*
X167512000Y-103369000D02*
X167512000Y-98117600D01*
X164530000Y-106351000D02*
X167512000Y-103369000D01*
X163704000Y-106351000D02*
X164530000Y-106351000D01*
X159302000Y-101949000D02*
X163704000Y-106351000D01*
X146639000Y-101949000D02*
X159302000Y-101949000D01*
X145065000Y-100375000D02*
X146639000Y-101949000D01*
X145065000Y-88851100D02*
X145065000Y-100375000D01*
X132457000Y-76243200D02*
X145065000Y-88851100D01*
X131459000Y-76294900D02*
X125284000Y-82470700D01*
X132405000Y-76294900D02*
X131459000Y-76294900D01*
X132457000Y-76243200D02*
X132405000Y-76294900D01*
X191865000Y-73660000D02*
X193040000Y-73660000D01*
X191865000Y-74048000D02*
X191865000Y-73660000D01*
X185548000Y-80365300D02*
X191865000Y-74048000D01*
X181090000Y-80365300D02*
X185548000Y-80365300D01*
X178920000Y-82535000D02*
X181090000Y-80365300D01*
X177795000Y-82535000D02*
X178920000Y-82535000D01*
%TO.N,/A10*%
X168136000Y-66124700D02*
X168136000Y-69255200D01*
X162956000Y-60945000D02*
X168136000Y-66124700D01*
X162025000Y-60945000D02*
X162956000Y-60945000D01*
X153155000Y-52075000D02*
X162025000Y-60945000D01*
X147315000Y-52075000D02*
X153155000Y-52075000D01*
%TO.N,/A9*%
X154856000Y-61031100D02*
X156945000Y-61031100D01*
X148440000Y-54615000D02*
X154856000Y-61031100D01*
X147315000Y-54615000D02*
X148440000Y-54615000D01*
X133757000Y-50925900D02*
X136418000Y-53586500D01*
X129249000Y-50925900D02*
X133757000Y-50925900D01*
X117960000Y-62215000D02*
X129249000Y-50925900D01*
X116835000Y-62215000D02*
X117960000Y-62215000D01*
%TO.N,/A8*%
X201105000Y-59675000D02*
X177795000Y-59675000D01*
X207105000Y-65674800D02*
X201105000Y-59675000D01*
X207105000Y-66040000D02*
X207105000Y-65674800D01*
X208280000Y-66040000D02*
X207105000Y-66040000D01*
%TO.N,/RST*%
X180544000Y-88484900D02*
X178937000Y-86877200D01*
X180544000Y-91980700D02*
X180544000Y-88484900D01*
X179720000Y-92804900D02*
X180544000Y-91980700D01*
X179355000Y-92804900D02*
X179720000Y-92804900D01*
X179355000Y-93980000D02*
X179355000Y-92804900D01*
%TO.N,/A7*%
X164346000Y-56469300D02*
X169695000Y-56469300D01*
X163680000Y-57135000D02*
X164346000Y-56469300D01*
X162555000Y-57135000D02*
X163680000Y-57135000D01*
%TO.N,/A5*%
X158870000Y-64775000D02*
X147315000Y-64775000D01*
X161430000Y-62215000D02*
X158870000Y-64775000D01*
X162555000Y-62215000D02*
X161430000Y-62215000D01*
X96839100Y-53295000D02*
X96839100Y-50336900D01*
X100470000Y-56925800D02*
X96839100Y-53295000D01*
X100470000Y-60246200D02*
X100470000Y-56925800D01*
X101314000Y-61089900D02*
X100470000Y-60246200D01*
X101595000Y-61089900D02*
X101314000Y-61089900D01*
X101595000Y-62215000D02*
X101595000Y-61089900D01*
%TO.N,/A4*%
X158870000Y-67315000D02*
X147315000Y-67315000D01*
X161430000Y-64755000D02*
X158870000Y-67315000D01*
X162555000Y-64755000D02*
X161430000Y-64755000D01*
X96249600Y-58565800D02*
X96249600Y-54610100D01*
X101314000Y-63629900D02*
X96249600Y-58565800D01*
X101595000Y-63629900D02*
X101314000Y-63629900D01*
X101595000Y-64755000D02*
X101595000Y-63629900D01*
%TO.N,/WR*%
X178920000Y-54595000D02*
X177795000Y-54595000D01*
X183136000Y-58811200D02*
X178920000Y-54595000D01*
X205326000Y-58811200D02*
X183136000Y-58811200D01*
X212090000Y-65575100D02*
X205326000Y-58811200D01*
X212090000Y-66488500D02*
X212090000Y-65575100D01*
X218086000Y-72484900D02*
X212090000Y-66488500D01*
X218997000Y-72484900D02*
X218086000Y-72484900D01*
X219805000Y-73292700D02*
X218997000Y-72484900D01*
X219805000Y-73660000D02*
X219805000Y-73292700D01*
X220980000Y-73660000D02*
X219805000Y-73660000D01*
X177795000Y-55720100D02*
X177795000Y-54595000D01*
X177514000Y-55720100D02*
X177795000Y-55720100D01*
X172258000Y-60976300D02*
X177514000Y-55720100D01*
X172258000Y-66869100D02*
X172258000Y-60976300D01*
X162942000Y-76185000D02*
X172258000Y-66869100D01*
X162186000Y-76185000D02*
X162942000Y-76185000D01*
X148730000Y-89640900D02*
X162186000Y-76185000D01*
X148730000Y-95488200D02*
X148730000Y-89640900D01*
X147548000Y-96669900D02*
X148730000Y-95488200D01*
X147315000Y-96669900D02*
X147548000Y-96669900D01*
X147315000Y-97795000D02*
X147315000Y-96669900D01*
%TO.N,/RD*%
X217265000Y-73660000D02*
X218440000Y-73660000D01*
X217265000Y-73292800D02*
X217265000Y-73660000D01*
X212682000Y-68709600D02*
X217265000Y-73292800D01*
X180335000Y-68709600D02*
X212682000Y-68709600D01*
X178920000Y-67295000D02*
X180335000Y-68709600D01*
X178358000Y-67295000D02*
X178920000Y-67295000D01*
X146190000Y-57499800D02*
X143997000Y-55307200D01*
X146190000Y-98366200D02*
X146190000Y-57499800D01*
X147034000Y-99209900D02*
X146190000Y-98366200D01*
X147315000Y-99209900D02*
X147034000Y-99209900D01*
X147315000Y-100335000D02*
X147315000Y-99209900D01*
X175470000Y-70182300D02*
X178358000Y-67295000D01*
X175470000Y-74103400D02*
X175470000Y-70182300D01*
X163676000Y-85898200D02*
X175470000Y-74103400D01*
X163676000Y-97598400D02*
X163676000Y-85898200D01*
X163083000Y-98190800D02*
X163676000Y-97598400D01*
X157178000Y-98190800D02*
X163083000Y-98190800D01*
X156000000Y-97013500D02*
X157178000Y-98190800D01*
X151762000Y-97013500D02*
X156000000Y-97013500D01*
X148440000Y-100335000D02*
X151762000Y-97013500D01*
X147315000Y-100335000D02*
X148440000Y-100335000D01*
X177795000Y-67295000D02*
X178358000Y-67295000D01*
%TO.N,/MREQ*%
X214725000Y-73660000D02*
X215900000Y-73660000D01*
X214725000Y-74027200D02*
X214725000Y-73660000D01*
X205348000Y-83404300D02*
X214725000Y-74027200D01*
X182809000Y-83404300D02*
X205348000Y-83404300D01*
X182393000Y-83820100D02*
X182809000Y-83404300D01*
X182393000Y-106263000D02*
X182393000Y-83820100D01*
X140896000Y-124138000D02*
X144887000Y-128128000D01*
X140896000Y-107508000D02*
X140896000Y-124138000D01*
X132308000Y-98920100D02*
X140896000Y-107508000D01*
X132075000Y-98920100D02*
X132308000Y-98920100D01*
X132075000Y-97795000D02*
X132075000Y-98920100D01*
%TO.N,/A15*%
X134952000Y-62235000D02*
X132075000Y-62235000D01*
X165965000Y-31221400D02*
X134952000Y-62235000D01*
%TO.N,Clock*%
X132075000Y-65900100D02*
X132075000Y-64775000D01*
X132356000Y-65900100D02*
X132075000Y-65900100D01*
X145660000Y-79204000D02*
X132356000Y-65900100D01*
X145660000Y-100284000D02*
X145660000Y-79204000D01*
X146837000Y-101460000D02*
X145660000Y-100284000D01*
X151926000Y-101460000D02*
X146837000Y-101460000D01*
X155606000Y-97780700D02*
X151926000Y-101460000D01*
%TO.N,/A14*%
X159693000Y-33202000D02*
X159693000Y-32076900D01*
X133200000Y-59695000D02*
X159693000Y-33202000D01*
X132075000Y-59695000D02*
X133200000Y-59695000D01*
%TO.N,/A13*%
X181364000Y-48029400D02*
X168436000Y-35100800D01*
X181364000Y-54877800D02*
X181364000Y-48029400D01*
X183056000Y-56569700D02*
X181364000Y-54877800D01*
X210702000Y-56569700D02*
X183056000Y-56569700D01*
X219805000Y-65672800D02*
X210702000Y-56569700D01*
X219805000Y-66040000D02*
X219805000Y-65672800D01*
X220980000Y-66040000D02*
X219805000Y-66040000D01*
X168436000Y-32605500D02*
X168436000Y-35100800D01*
X166322000Y-30491900D02*
X168436000Y-32605500D01*
X160200000Y-30491900D02*
X166322000Y-30491900D01*
X137143000Y-53549700D02*
X160200000Y-30491900D01*
X137143000Y-53886900D02*
X137143000Y-53549700D01*
X133875000Y-57155000D02*
X137143000Y-53886900D01*
X132075000Y-57155000D02*
X133875000Y-57155000D01*
%TO.N,/A12*%
X217265000Y-66040000D02*
X218440000Y-66040000D01*
X217265000Y-65674800D02*
X217265000Y-66040000D01*
X208769000Y-57178800D02*
X217265000Y-65674800D01*
X183029000Y-57178800D02*
X208769000Y-57178800D01*
X179416000Y-53565600D02*
X183029000Y-57178800D01*
X179416000Y-51407400D02*
X179416000Y-53565600D01*
X167853000Y-39844900D02*
X179416000Y-51407400D01*
X166622000Y-39844900D02*
X167853000Y-39844900D01*
X163680000Y-42787300D02*
X166622000Y-39844900D01*
X163680000Y-53048000D02*
X163680000Y-42787300D01*
X163258000Y-53469900D02*
X163680000Y-53048000D01*
X162555000Y-53469900D02*
X163258000Y-53469900D01*
X162555000Y-54595000D02*
X162555000Y-53469900D01*
X103170000Y-68395100D02*
X102856000Y-68709900D01*
X103170000Y-56170300D02*
X103170000Y-68395100D01*
X101595000Y-54595000D02*
X103170000Y-56170300D01*
%TO.N,/A11*%
X130640000Y-52075000D02*
X132075000Y-52075000D01*
X117960000Y-64755000D02*
X130640000Y-52075000D01*
X116835000Y-64755000D02*
X117960000Y-64755000D01*
X170443000Y-44162300D02*
X170443000Y-50887000D01*
X166887000Y-40605900D02*
X170443000Y-44162300D01*
X170443000Y-50887000D02*
X170443000Y-64517100D01*
X214725000Y-66040000D02*
X215900000Y-66040000D01*
X214725000Y-65672800D02*
X214725000Y-66040000D01*
X206681000Y-57628900D02*
X214725000Y-65672800D01*
X182816000Y-57628900D02*
X206681000Y-57628900D01*
X178965000Y-53778600D02*
X182816000Y-57628900D01*
X178965000Y-51600000D02*
X178965000Y-53778600D01*
X178252000Y-50887000D02*
X178965000Y-51600000D01*
X170443000Y-50887000D02*
X178252000Y-50887000D01*
%TO.N,Net-(C7-Pad2)*%
X145425000Y-114295000D02*
X145425000Y-116835000D01*
%TO.N,+5V*%
X116840000Y-50924900D02*
X116840000Y-45720000D01*
X116835000Y-50929900D02*
X116840000Y-50924900D01*
X116835000Y-52055000D02*
X116835000Y-50929900D01*
X113773000Y-55961100D02*
X113773000Y-84605300D01*
X116554000Y-53180100D02*
X113773000Y-55961100D01*
X116835000Y-53180100D02*
X116554000Y-53180100D01*
X116835000Y-52055000D02*
X116835000Y-53180100D01*
X145425000Y-103429000D02*
X145425000Y-111192000D01*
X152037000Y-103429000D02*
X145425000Y-103429000D01*
X179355000Y-95344900D02*
X179355000Y-96520000D01*
X179722000Y-95344900D02*
X179355000Y-95344900D01*
X181524000Y-93543500D02*
X179722000Y-95344900D01*
X181524000Y-84036500D02*
X181524000Y-93543500D01*
X182831000Y-82729200D02*
X181524000Y-84036500D01*
X198401000Y-82729200D02*
X182831000Y-82729200D01*
X207105000Y-74025200D02*
X198401000Y-82729200D01*
X207105000Y-73660000D02*
X207105000Y-74025200D01*
X208280000Y-73660000D02*
X207105000Y-73660000D01*
X144276000Y-112342000D02*
X145425000Y-111192000D01*
X144276000Y-119874000D02*
X144276000Y-112342000D01*
X145192000Y-120790000D02*
X144276000Y-119874000D01*
X145425000Y-120790000D02*
X145192000Y-120790000D01*
X145425000Y-121915000D02*
X145425000Y-120790000D01*
X167508000Y-112081000D02*
X165651000Y-110224000D01*
X167508000Y-119512000D02*
X167508000Y-112081000D01*
X166370000Y-120650000D02*
X167508000Y-119512000D01*
X158857000Y-103429000D02*
X152037000Y-103429000D01*
X165651000Y-110224000D02*
X158857000Y-103429000D01*
X178180000Y-97695100D02*
X165651000Y-110224000D01*
X178180000Y-96520000D02*
X178180000Y-97695100D01*
X179355000Y-96520000D02*
X178180000Y-96520000D01*
X144560000Y-102564000D02*
X145425000Y-103429000D01*
X144560000Y-90898800D02*
X144560000Y-102564000D01*
X132063000Y-78401800D02*
X144560000Y-90898800D01*
X132075000Y-78389900D02*
X132063000Y-78401800D01*
X132075000Y-77475000D02*
X132075000Y-78389900D01*
X119810000Y-90264900D02*
X119810000Y-91440000D01*
X120200000Y-90264900D02*
X119810000Y-90264900D01*
X132063000Y-78401800D02*
X120200000Y-90264900D01*
X93980000Y-46895100D02*
X93980000Y-45720000D01*
X93896100Y-46895100D02*
X93980000Y-46895100D01*
X91792400Y-48998800D02*
X93896100Y-46895100D01*
X91792400Y-54831700D02*
X91792400Y-48998800D01*
X93092200Y-56131500D02*
X91792400Y-54831700D01*
X93092200Y-59256700D02*
X93092200Y-56131500D01*
X92607000Y-59741900D02*
X93092200Y-59256700D01*
X145425000Y-111755000D02*
X145425000Y-111192000D01*
%TO.N,Net-(C1-Pad1)*%
X137805000Y-123330000D02*
X137805000Y-124455000D01*
X138086000Y-123330000D02*
X137805000Y-123330000D01*
X138954000Y-122462000D02*
X138086000Y-123330000D01*
X138954000Y-116336000D02*
X138954000Y-122462000D01*
X138038000Y-115420000D02*
X138954000Y-116336000D01*
X137805000Y-115420000D02*
X138038000Y-115420000D01*
X137805000Y-114295000D02*
X137805000Y-115420000D01*
%TO.N,GND*%
X162555000Y-85075000D02*
X162555000Y-85357900D01*
X179150000Y-60945000D02*
X177433000Y-60945000D01*
X184245000Y-66040000D02*
X179150000Y-60945000D01*
X185420000Y-66040000D02*
X184245000Y-66040000D01*
X177795000Y-58260100D02*
X177795000Y-57135000D01*
X177562000Y-58260100D02*
X177795000Y-58260100D01*
X176644000Y-59178400D02*
X177562000Y-58260100D01*
X176644000Y-60155100D02*
X176644000Y-59178400D01*
X177433000Y-60945000D02*
X176644000Y-60155100D01*
X150274000Y-80015000D02*
X155227000Y-75061800D01*
X147315000Y-80015000D02*
X150274000Y-80015000D01*
X152255000Y-111905000D02*
X151130000Y-113030000D01*
X166370000Y-111905000D02*
X152255000Y-111905000D01*
X166370000Y-113030000D02*
X166370000Y-111905000D01*
X163030000Y-97198700D02*
X162808000Y-97421400D01*
X163030000Y-85833200D02*
X163030000Y-97198700D01*
X162555000Y-85357900D02*
X163030000Y-85833200D01*
X172708000Y-75205200D02*
X162555000Y-85357900D01*
X172708000Y-65670700D02*
X172708000Y-75205200D01*
X177433000Y-60945000D02*
X172708000Y-65670700D01*
%TD*%
M02*
