M48
; DRILL file {KiCad 7.0.10} date di 05 mrt 2024 20:32:07 CET
; FORMAT={-:-/ absolute / inch / decimal}
; #@! TF.CreationDate,2024-03-05T20:32:07+01:00
; #@! TF.GenerationSoftware,Kicad,Pcbnew,7.0.10
; #@! TF.FileFunction,Plated,1,4,PTH
FMAT,2
INCH
; #@! TA.AperFunction,Plated,PTH,ViaDrill
T1C0.0157
; #@! TA.AperFunction,Plated,PTH,ComponentDrill
T2C0.0157
; #@! TA.AperFunction,Plated,PTH,ComponentDrill
T3C0.0236
; #@! TA.AperFunction,Plated,PTH,ComponentDrill
T4C0.0315
; #@! TA.AperFunction,Plated,PTH,ComponentDrill
T5C0.0354
; #@! TA.AperFunction,Plated,PTH,ComponentDrill
T6C0.0394
; #@! TA.AperFunction,Plated,PTH,ComponentDrill
T7C0.0551
%
G90
G05
T1
X3.545Y-4.69
X3.705Y-4.54
X3.735Y-3.01
X3.745Y-4.73
X3.7843Y-4.7292
X3.82Y-1.94
X3.83Y-2.2
X3.835Y-1.57
X3.835Y-1.63
X3.845Y-4.66
X3.8473Y-4.6203
X3.86Y-2.065
X3.92Y-1.86
X3.995Y-1.795
X4.02Y-1.69
X4.02Y-1.95
X4.055Y-4.57
X4.06Y-4.69
X4.09Y-1.695
X4.13Y-1.86
X4.13Y-1.92
X4.145Y-1.555
X4.155Y-4.59
X4.16Y-4.69
X4.165Y-1.725
X4.175Y-4.46
X4.185Y-2.055
X4.225Y-2.055
X4.26Y-4.69
X4.29Y-1.74
X4.31Y-1.43
X4.325Y-2.22
X4.3298Y-1.9148
X4.345Y-2.18
X4.36Y-1.595
X4.37Y-4.72
X4.38Y-3.76
X4.385Y-1.755
X4.3941Y-3.2801
X4.395Y-3.3982
X4.395Y-3.5163
X4.405Y-4.54
X4.415Y-1.725
X4.44Y-1.7611
X4.445Y-4.765
X4.45Y-4.725
X4.455Y-1.83
X4.455Y-2.01
X4.455Y-2.05
X4.48Y-4.56
X4.49Y-1.685
X4.51Y-3.84
X4.555Y-4.6485
X4.555Y-4.695
X4.57Y-4.59
X4.5746Y-3.875
X4.575Y-1.795
X4.575Y-1.86
X4.575Y-1.925
X4.575Y-1.985
X4.59Y-2.865
X4.59Y-3.6
X4.59Y-4.02
X4.6002Y-1.8948
X4.62Y-4.27
X4.625Y-3.27
X4.63Y-3.47
X4.655Y-4.63
X4.66Y-3.31
X4.7Y-3.88
X4.7Y-4.0
X4.715Y-2.74
X4.74Y-3.64
X4.76Y-4.555
X4.785Y-4.63
X4.8Y-3.395
X4.815Y-1.67
X4.84Y-2.71
X4.84Y-2.77
X4.93Y-3.62
X4.93Y-4.27
X4.96Y-1.77
X4.96Y-4.03
X4.97Y-3.55
X4.97Y-3.82
X4.98Y-2.04
X4.98Y-3.75
X5.01Y-1.87
X5.0115Y-1.8115
X5.02Y-2.9
X5.03Y-4.56
X5.04Y-3.84
X5.08Y-1.81
X5.0919Y-2.4
X5.0919Y-2.45
X5.12Y-3.29
X5.1202Y-3.4948
X5.1205Y-2.35
X5.13Y-3.24
X5.13Y-4.56
X5.14Y-2.0
X5.16Y-2.75
X5.16Y-2.8
X5.16Y-2.85
X5.16Y-3.44
X5.1602Y-3.2898
X5.1698Y-2.8898
X5.17Y-2.03
X5.17Y-2.3
X5.18Y-4.63
X5.19Y-3.35
X5.2Y-2.0
X5.2Y-4.16
X5.22Y-2.88
X5.22Y-3.32
X5.23Y-2.03
X5.2356Y-2.2208
X5.2598Y-2.8902
X5.27Y-4.655
X5.27Y-2.24
X5.275Y-3.48
X5.28Y-3.26
X5.2808Y-4.6928
X5.3Y-4.73
X5.305Y-3.98
X5.3056Y-2.2208
X5.31Y-3.41
X5.325Y-3.6
X5.335Y-4.585
X5.34Y-2.24
X5.34Y-3.5
X5.35Y-1.52
X5.35Y-1.67
X5.35Y-1.72
X5.35Y-1.77
X5.35Y-1.82
X5.35Y-1.87
X5.37Y-2.3285
X5.37Y-3.47
X5.37Y-4.545
X5.39Y-2.25
X5.39Y-2.85
X5.3985Y-3.25
X5.4Y-2.9
X5.4Y-4.015
X5.4003Y-4.0953
X5.4005Y-4.0548
X5.405Y-4.385
X5.4096Y-4.5887
X5.43Y-3.145
X5.4565Y-3.8
X5.4565Y-4.01
X5.4581Y-2.55
X5.48Y-2.02
X5.4867Y-4.6473
X5.49Y-4.765
X5.5015Y-3.0581
X5.5076Y-3.4173
X5.5093Y-3.315
X5.5136Y-3.4803
X5.52Y-3.38
X5.5318Y-3.2827
X5.5326Y-3.5148
X5.5352Y-3.4453
X5.5359Y-3.344
X5.54Y-1.87
X5.54Y-2.5
X5.5422Y-3.0878
X5.5612Y-3.7715
X5.5612Y-3.8785
X5.57Y-3.06
X5.575Y-3.6685
X5.575Y-4.56
X5.5776Y-4.5208
X5.58Y-4.69
X5.595Y-4.1
X5.605Y-3.31
X5.61Y-3.75
X5.6108Y-2.8343
X5.6227Y-2.7968
X5.6299Y-2.0299
X5.63Y-2.68
X5.637Y-3.7106
X5.64Y-3.495
X5.6411Y-3.8285
X5.6502Y-2.5498
X5.6515Y-2.77
X5.6553Y-3.06
X5.6661Y-3.1044
X5.67Y-4.1
X5.68Y-2.02
X5.68Y-2.45
X5.68Y-3.77
X5.68Y-4.56
X5.685Y-4.72
X5.69Y-2.63
X5.6935Y-3.67
X5.695Y-3.445
X5.7Y-3.395
X5.7029Y-3.5215
X5.704Y-3.2096
X5.71Y-2.4
X5.7218Y-2.0371
X5.73Y-3.725
X5.73Y-4.355
X5.7341Y-3.235
X5.735Y-3.68
X5.75Y-1.62
X5.75Y-1.67
X5.75Y-1.72
X5.75Y-1.77
X5.7641Y-3.2095
X5.765Y-3.345
X5.765Y-3.49
X5.765Y-3.535
X5.7931Y-3.2361
X5.8Y-3.8925
X5.8Y-3.97
X5.8226Y-3.21
X5.83Y-3.55
X5.8311Y-3.7411
X5.835Y-3.345
X5.835Y-3.505
X5.8443Y-3.2428
X5.85Y-2.16
X5.88Y-1.52
X5.88Y-1.82
X5.8885Y-3.03
X5.89Y-4.165
X5.89Y-4.32
X5.9Y-3.9
X5.905Y-4.615
X5.9085Y-2.96
X5.9285Y-2.9
X5.94Y-3.2855
X5.94Y-3.35
X5.94Y-3.41
X5.94Y-4.0315
X5.9456Y-3.2255
X5.9485Y-2.53
X5.95Y-3.54
X5.9596Y-3.482
X5.96Y-3.6
X5.9618Y-3.4427
X5.9682Y-2.6573
X5.9689Y-2.44
X5.97Y-3.317
X5.97Y-3.38
X5.9849Y-3.2255
X5.987Y-2.347
X5.99Y-2.69
X6.005Y-3.57
X6.01Y-3.455
X6.0198Y-2.7198
X6.02Y-2.76
X6.0497Y-2.7897
X6.0498Y-2.8298
X6.05Y-2.87
X6.05Y-3.47
X6.095Y-3.84
X6.11Y-4.695
X6.1502Y-3.4102
X6.1802Y-3.3802
X6.19Y-3.6
X6.2Y-3.85
X6.21Y-3.9
X6.21Y-4.695
X6.2102Y-3.3502
X6.2398Y-3.1998
X6.24Y-3.32
X6.28Y-1.65
X6.28Y-1.69
X6.28Y-1.82
X6.28Y-2.34
X6.28Y-2.67
X6.285Y-1.58
X6.2912Y-4.6651
X6.2971Y-3.135
X6.305Y-3.335
X6.31Y-1.88
X6.31Y-2.37
X6.31Y-4.605
X6.325Y-4.06
X6.3339Y-3.1864
X6.3389Y-1.9339
X6.34Y-2.4
X6.36Y-2.89
X6.37Y-2.43
X6.3884Y-3.2437
X6.4Y-4.528
X6.4Y-4.761
X6.42Y-1.5585
X6.4326Y-4.585
X6.445Y-3.11
X6.4478Y-2.4021
X6.455Y-1.665
X6.4558Y-2.8397
X6.458Y-2.606
X6.4582Y-2.6673
X6.46Y-2.7345
X6.46Y-2.8
X6.4605Y-3.1575
X6.4648Y-2.8898
X6.4657Y-2.955
X6.4657Y-2.365
X6.4663Y-3.0151
X6.47Y-1.7039
X6.48Y-1.5
X6.48Y-2.7
X6.4818Y-2.7673
X6.4828Y-2.6365
X6.4834Y-2.576
X6.49Y-1.9315
X6.49Y-2.92
X6.4907Y-3.075
X6.4914Y-2.9848
X6.4928Y-2.8565
X6.495Y-3.1385
X6.51Y-4.629
X6.5228Y-2.3915
X6.535Y-1.92
X6.57Y-1.825
X6.57Y-2.22
X6.57Y-3.22
X6.57Y-3.59
X6.5777Y-3.1814
X6.59Y-3.395
X6.59Y-4.005
X6.59Y-4.06
X6.59Y-4.155
X6.595Y-3.665
X6.6Y-1.795
X6.6Y-2.1915
X6.6031Y-2.4169
X6.61Y-4.654
X6.63Y-1.64
X6.63Y-1.685
X6.63Y-1.7674
X6.63Y-2.163
X6.6317Y-2.86
X6.635Y-3.17
X6.64Y-2.54
X6.645Y-3.0573
X6.645Y-4.065
X6.655Y-4.465
X6.6613Y-2.1344
X6.675Y-4.01
X6.6806Y-2.54
X6.69Y-3.3235
X6.6912Y-2.1059
X6.7Y-5.19
X6.7Y-5.2294
X6.71Y-3.805
X6.71Y-4.695
X6.715Y-5.485
X6.72Y-2.0774
X6.72Y-2.54
X6.73Y-3.3235
X6.75Y-1.7674
X6.75Y-2.0489
X6.75Y-3.805
X6.75Y-3.855
X6.75Y-3.905
X6.7505Y-1.8072
X6.755Y-4.465
X6.76Y-2.54
X6.77Y-1.645
X6.77Y-1.685
X6.775Y-4.845
X6.78Y-1.56
X6.78Y-2.02
X6.7827Y-1.8673
X6.7848Y-4.2352
X6.785Y-3.175
X6.7851Y-1.828
X6.795Y-3.23
X6.7998Y-2.5398
X6.81Y-1.99
X6.825Y-4.235
X6.825Y-4.8465
X6.83Y-3.3235
X6.835Y-5.135
X6.84Y-1.96
X6.84Y-2.9
X6.84Y-3.075
X6.84Y-3.395
X6.85Y-5.335
X6.855Y-4.465
X6.8607Y-2.511
X6.8685Y-2.125
X6.87Y-3.765
X6.8717Y-3.24
X6.875Y-4.845
X6.88Y-2.895
X6.88Y-5.14
X6.897Y-2.055
X6.9Y-2.5775
X6.9Y-2.6387
X6.9Y-2.7
X6.9005Y-4.6906
X6.9082Y-2.7673
X6.9095Y-1.78
X6.92Y-3.635
X6.925Y-3.1671
X6.925Y-4.235
X6.9256Y-1.99
X6.927Y-1.6495
X6.9298Y-1.6102
X6.93Y-2.61
X6.93Y-2.67
X6.93Y-2.73
X6.93Y-2.8
X6.93Y-2.905
X6.93Y-4.845
X6.935Y-3.245
X6.955Y-4.465
X6.965Y-3.385
X6.995Y-1.635
X7.0028Y-4.5449
X7.005Y-3.9339
X7.01Y-4.13
X7.0195Y-2.8253
X7.03Y-3.17
X7.0354Y-3.7004
X7.0362Y-3.3235
X7.0465Y-3.0465
X7.0472Y-2.8565
X7.0479Y-2.9837
X7.0499Y-2.9199
X7.0538Y-2.8062
X7.06Y-3.98
X7.0655Y-3.0809
X7.0688Y-3.18
X7.07Y-3.83
X7.0719Y-2.9525
X7.0719Y-2.8872
X7.0719Y-3.015
X7.075Y-3.62
X7.0811Y-3.3235
X7.1Y-3.54
X7.1Y-3.7
X7.115Y-3.17
X7.148Y-2.205
X7.155Y-4.4602
X7.17Y-2.73
X7.17Y-2.78
X7.179Y-2.819
X7.2Y-2.7
X7.2Y-4.535
X7.2Y-4.775
X7.2018Y-2.5482
X7.2019Y-3.0581
X7.2067Y-2.5933
X7.2115Y-2.6385
X7.235Y-3.175
X7.2381Y-4.7369
X7.245Y-2.295
X7.25Y-3.905
X7.26Y-1.815
X7.28Y-2.205
X7.285Y-3.185
X7.285Y-3.245
X7.302Y-4.6512
X7.302Y-4.6906
X7.315Y-2.295
X7.345Y-4.0
X7.35Y-2.99
X7.355Y-4.31
X7.37Y-4.095
X7.37Y-4.16
X7.38Y-1.585
X7.38Y-2.245
X7.4005Y-4.6906
X7.41Y-2.015
X7.41Y-3.245
X7.41Y-3.395
X7.415Y-3.045
X7.42Y-3.33
X7.435Y-2.9579
X7.45Y-3.265
X7.47Y-1.715
X7.4736Y-4.0967
X7.4808Y-2.0388
X7.495Y-3.26
X7.5028Y-4.6906
X7.5193Y-2.0561
X7.5541Y-2.0746
X7.555Y-4.46
X7.57Y-3.045
X7.57Y-3.195
X7.57Y-3.245
X7.57Y-3.295
X7.5933Y-2.0772
X7.6013Y-4.6906
X7.6323Y-2.0823
X7.6325Y-2.1225
X7.65Y-4.84
X7.685Y-2.1943
X7.7017Y-2.1587
X7.715Y-3.1
X7.845Y-4.07
X7.9102Y-2.3502
X7.965Y-2.45
X7.965Y-2.55
X7.965Y-2.65
X7.99Y-3.555
X8.01Y-1.97
X8.03Y-3.555
X8.07Y-3.555
X8.11Y-3.555
X8.15Y-2.05
X8.15Y-3.555
X8.19Y-3.555
X8.215Y-2.05
X8.23Y-3.555
X8.27Y-3.555
X8.575Y-1.85
T2
X3.58Y-1.6381
X3.58Y-1.6715
X3.58Y-1.705
X3.58Y-1.7385
X3.58Y-1.7719
X3.58Y-1.8054
X3.58Y-1.8389
X3.58Y-1.8723
X3.6331Y-1.6381
X3.6331Y-1.6715
X3.6331Y-1.705
X3.6331Y-1.7385
X3.6331Y-1.7719
X3.6331Y-1.8054
X3.6331Y-1.8389
X3.6331Y-1.8723
T4
X4.11Y-2.59
X4.11Y-2.89
X4.1935Y-2.335
X4.3857Y-2.335
X4.71Y-2.59
X4.71Y-2.89
X7.77Y-1.35
X7.77Y-1.45
X7.77Y-1.55
X7.77Y-1.65
X7.77Y-1.75
X7.77Y-1.85
X7.77Y-1.95
X7.77Y-2.05
X7.77Y-2.15
X7.77Y-2.25
X7.77Y-2.35
X7.77Y-2.45
X7.77Y-2.55
X7.77Y-2.65
X7.77Y-2.75
X7.77Y-2.85
X7.77Y-2.95
X7.77Y-3.05
X7.77Y-3.15
X7.77Y-3.25
X7.77Y-3.5527
X7.77Y-3.6527
X7.77Y-3.7527
X7.77Y-3.8527
X7.77Y-3.9527
X7.77Y-4.0527
X7.77Y-4.1527
X7.77Y-4.2527
X7.77Y-4.3527
X7.77Y-4.4527
X7.77Y-4.5527
X7.77Y-4.6527
X7.77Y-4.7527
X7.77Y-4.8527
X7.77Y-4.9527
X7.77Y-5.0527
X7.77Y-5.1527
X7.77Y-5.2527
X7.77Y-5.3527
X7.77Y-5.4527
X8.37Y-1.35
X8.37Y-1.45
X8.37Y-1.55
X8.37Y-1.65
X8.37Y-1.75
X8.37Y-1.85
X8.37Y-1.95
X8.37Y-2.05
X8.37Y-2.15
X8.37Y-2.25
X8.37Y-2.35
X8.37Y-2.45
X8.37Y-2.55
X8.37Y-2.65
X8.37Y-2.75
X8.37Y-2.85
X8.37Y-2.95
X8.37Y-3.05
X8.37Y-3.15
X8.37Y-3.25
X8.37Y-3.5527
X8.37Y-3.6527
X8.37Y-3.7527
X8.37Y-3.8527
X8.37Y-3.9527
X8.37Y-4.0527
X8.37Y-4.1527
X8.37Y-4.2527
X8.37Y-4.3527
X8.37Y-4.4527
X8.37Y-4.5527
X8.37Y-4.6527
X8.37Y-4.7527
X8.37Y-4.8527
X8.37Y-4.9527
X8.37Y-5.0527
X8.37Y-5.1527
X8.37Y-5.2527
X8.37Y-5.3527
X8.37Y-5.4527
T5
X3.8833Y-3.2925
X3.8833Y-3.45
X3.8833Y-3.5287
X3.8833Y-3.6075
T6
X3.565Y-2.115
X3.565Y-2.215
X3.565Y-2.315
X3.665Y-2.115
X3.665Y-2.215
X3.665Y-2.315
X8.795Y-1.375
X8.795Y-1.475
X8.795Y-1.575
X8.795Y-1.675
X8.795Y-3.5777
X8.795Y-3.6777
X8.795Y-3.7777
X8.795Y-3.8777
X8.7958Y-1.9004
X8.7958Y-2.0004
X8.7958Y-2.1004
X8.7958Y-2.2004
X8.7958Y-2.4254
X8.7958Y-2.5254
X8.7958Y-2.6254
X8.7958Y-2.7254
X8.7958Y-4.1031
X8.7958Y-4.2031
X8.7958Y-4.3031
X8.7958Y-4.4031
X8.7958Y-4.6281
X8.7958Y-4.7281
X8.7958Y-4.8281
X8.7958Y-4.9281
X8.845Y-3.1
X8.845Y-3.2
X8.895Y-1.375
X8.895Y-1.475
X8.895Y-1.575
X8.895Y-1.675
X8.895Y-3.5777
X8.895Y-3.6777
X8.895Y-3.7777
X8.895Y-3.8777
X8.8958Y-1.9004
X8.8958Y-2.0004
X8.8958Y-2.1004
X8.8958Y-2.2004
X8.8958Y-2.4254
X8.8958Y-2.5254
X8.8958Y-2.6254
X8.8958Y-2.7254
X8.8958Y-4.1031
X8.8958Y-4.2031
X8.8958Y-4.3031
X8.8958Y-4.4031
X8.8958Y-4.6281
X8.8958Y-4.7281
X8.8958Y-4.8281
X8.8958Y-4.9281
T7
X3.718Y-3.7453
X3.962Y-3.1547
T3
G00X3.4772Y-1.5849
M15
G01X3.4457Y-1.5849
M16
G05
G00X3.4772Y-1.9255
M15
G01X3.4457Y-1.9255
M16
G05
G00X3.6241Y-1.5849
M15
G01X3.565Y-1.5849
M16
G05
G00X3.6241Y-1.9255
M15
G01X3.565Y-1.9255
M16
G05
M30
