%TF.GenerationSoftware,KiCad,Pcbnew,7.0.10*%
%TF.CreationDate,2024-03-05T20:32:04+01:00*%
%TF.ProjectId,z80,7a38302e-6b69-4636-9164-5f7063625858,1.0*%
%TF.SameCoordinates,Original*%
%TF.FileFunction,Paste,Top*%
%TF.FilePolarity,Positive*%
%FSLAX46Y46*%
G04 Gerber Fmt 4.6, Leading zero omitted, Abs format (unit mm)*
G04 Created by KiCad (PCBNEW 7.0.10) date 2024-03-05 20:32:04*
%MOMM*%
%LPD*%
G01*
G04 APERTURE LIST*
G04 Aperture macros list*
%AMRoundRect*
0 Rectangle with rounded corners*
0 $1 Rounding radius*
0 $2 $3 $4 $5 $6 $7 $8 $9 X,Y pos of 4 corners*
0 Add a 4 corners polygon primitive as box body*
4,1,4,$2,$3,$4,$5,$6,$7,$8,$9,$2,$3,0*
0 Add four circle primitives for the rounded corners*
1,1,$1+$1,$2,$3*
1,1,$1+$1,$4,$5*
1,1,$1+$1,$6,$7*
1,1,$1+$1,$8,$9*
0 Add four rect primitives between the rounded corners*
20,1,$1+$1,$2,$3,$4,$5,0*
20,1,$1+$1,$4,$5,$6,$7,0*
20,1,$1+$1,$6,$7,$8,$9,0*
20,1,$1+$1,$8,$9,$2,$3,0*%
G04 Aperture macros list end*
%ADD10RoundRect,0.200000X-0.200000X-0.275000X0.200000X-0.275000X0.200000X0.275000X-0.200000X0.275000X0*%
%ADD11R,1.550000X1.300000*%
%ADD12RoundRect,0.225000X0.225000X0.250000X-0.225000X0.250000X-0.225000X-0.250000X0.225000X-0.250000X0*%
%ADD13RoundRect,0.218750X0.256250X-0.218750X0.256250X0.218750X-0.256250X0.218750X-0.256250X-0.218750X0*%
%ADD14RoundRect,0.218750X-0.218750X-0.256250X0.218750X-0.256250X0.218750X0.256250X-0.218750X0.256250X0*%
%ADD15RoundRect,0.225000X-0.250000X0.225000X-0.250000X-0.225000X0.250000X-0.225000X0.250000X0.225000X0*%
%ADD16RoundRect,0.200000X0.275000X-0.200000X0.275000X0.200000X-0.275000X0.200000X-0.275000X-0.200000X0*%
%ADD17RoundRect,0.137500X-0.600000X-0.137500X0.600000X-0.137500X0.600000X0.137500X-0.600000X0.137500X0*%
%ADD18RoundRect,0.137500X-0.137500X-0.600000X0.137500X-0.600000X0.137500X0.600000X-0.137500X0.600000X0*%
%ADD19R,1.500000X0.600000*%
%ADD20RoundRect,0.200000X-0.275000X0.200000X-0.275000X-0.200000X0.275000X-0.200000X0.275000X0.200000X0*%
%ADD21RoundRect,0.150000X-0.825000X-0.150000X0.825000X-0.150000X0.825000X0.150000X-0.825000X0.150000X0*%
%ADD22R,1.200000X0.500000*%
%ADD23R,3.200000X2.450000*%
%ADD24R,1.870000X0.380000*%
%ADD25RoundRect,0.150000X-0.875000X-0.150000X0.875000X-0.150000X0.875000X0.150000X-0.875000X0.150000X0*%
%ADD26RoundRect,0.225000X-0.225000X-0.250000X0.225000X-0.250000X0.225000X0.250000X-0.225000X0.250000X0*%
%ADD27RoundRect,0.200000X0.200000X0.275000X-0.200000X0.275000X-0.200000X-0.275000X0.200000X-0.275000X0*%
%ADD28RoundRect,0.225000X0.250000X-0.225000X0.250000X0.225000X-0.250000X0.225000X-0.250000X-0.225000X0*%
%ADD29RoundRect,0.218750X0.218750X0.256250X-0.218750X0.256250X-0.218750X-0.256250X0.218750X-0.256250X0*%
%ADD30R,1.300000X2.000000*%
%ADD31R,2.000000X2.000000*%
%ADD32R,0.735600X0.458800*%
%ADD33R,0.306400X0.888000*%
%ADD34RoundRect,0.218750X-0.256250X0.218750X-0.256250X-0.218750X0.256250X-0.218750X0.256250X0.218750X0*%
%ADD35RoundRect,0.150000X-0.725000X-0.150000X0.725000X-0.150000X0.725000X0.150000X-0.725000X0.150000X0*%
%ADD36R,1.500000X0.550000*%
%ADD37R,0.550000X1.500000*%
G04 APERTURE END LIST*
D10*
%TO.C,R6*%
X112065000Y-92710000D03*
X113715000Y-92710000D03*
%TD*%
D11*
%TO.C,SW1*%
X125133000Y-110200000D03*
X117183000Y-110200000D03*
X125133000Y-105700000D03*
X117183000Y-105700000D03*
%TD*%
D12*
%TO.C,C7*%
X125095000Y-93345000D03*
X123545000Y-93345000D03*
%TD*%
D13*
%TO.C,D46*%
X184277000Y-119126000D03*
X184277000Y-117551000D03*
%TD*%
D14*
%TO.C,D2*%
X110946000Y-82041000D03*
X112521000Y-82041000D03*
%TD*%
D12*
%TO.C,C11*%
X99975000Y-49276000D03*
X98425000Y-49276000D03*
%TD*%
D13*
%TO.C,D17*%
X137922000Y-119126000D03*
X137922000Y-117551000D03*
%TD*%
%TO.C,D33*%
X119507000Y-119126000D03*
X119507000Y-117551000D03*
%TD*%
%TO.C,D15*%
X132842000Y-119126000D03*
X132842000Y-117551000D03*
%TD*%
%TO.C,D36*%
X158877000Y-119088500D03*
X158877000Y-117513500D03*
%TD*%
D10*
%TO.C,R11*%
X112065000Y-98425000D03*
X113715000Y-98425000D03*
%TD*%
D13*
%TO.C,D27*%
X104267000Y-119126000D03*
X104267000Y-117551000D03*
%TD*%
%TO.C,D14*%
X130302000Y-119126000D03*
X130302000Y-117551000D03*
%TD*%
D15*
%TO.C,C12*%
X94869000Y-39865000D03*
X94869000Y-41415000D03*
%TD*%
D16*
%TO.C,R13*%
X125095000Y-90170000D03*
X125095000Y-88520000D03*
%TD*%
D17*
%TO.C,CPU1*%
X138355500Y-81852000D03*
X138355500Y-82652000D03*
X138355500Y-83452000D03*
X138355500Y-84252000D03*
X138355500Y-85052000D03*
X138355500Y-85852000D03*
X138355500Y-86652000D03*
X138355500Y-87452000D03*
X138355500Y-88252000D03*
X138355500Y-89052000D03*
X138355500Y-89852000D03*
D18*
X140018000Y-91514500D03*
X140818000Y-91514500D03*
X141618000Y-91514500D03*
X142418000Y-91514500D03*
X143218000Y-91514500D03*
X144018000Y-91514500D03*
X144818000Y-91514500D03*
X145618000Y-91514500D03*
X146418000Y-91514500D03*
X147218000Y-91514500D03*
X148018000Y-91514500D03*
D17*
X149680500Y-89852000D03*
X149680500Y-89052000D03*
X149680500Y-88252000D03*
X149680500Y-87452000D03*
X149680500Y-86652000D03*
X149680500Y-85852000D03*
X149680500Y-85052000D03*
X149680500Y-84252000D03*
X149680500Y-83452000D03*
X149680500Y-82652000D03*
X149680500Y-81852000D03*
D18*
X148018000Y-80189500D03*
X147218000Y-80189500D03*
X146418000Y-80189500D03*
X145618000Y-80189500D03*
X144818000Y-80189500D03*
X144018000Y-80189500D03*
X143218000Y-80189500D03*
X142418000Y-80189500D03*
X141618000Y-80189500D03*
X140818000Y-80189500D03*
X140018000Y-80189500D03*
%TD*%
D13*
%TO.C,D28*%
X106807000Y-119126000D03*
X106807000Y-117551000D03*
%TD*%
%TO.C,D13*%
X127762000Y-119126000D03*
X127762000Y-117551000D03*
%TD*%
%TO.C,D30*%
X111887000Y-119126000D03*
X111887000Y-117551000D03*
%TD*%
D19*
%TO.C,U5*%
X186696000Y-77343000D03*
X186696000Y-78613000D03*
X186696000Y-79883000D03*
X186696000Y-81153000D03*
X186696000Y-82423000D03*
X186696000Y-83693000D03*
X186696000Y-84963000D03*
X186696000Y-86233000D03*
X193796000Y-86233000D03*
X193796000Y-84963000D03*
X193796000Y-83693000D03*
X193796000Y-82423000D03*
X193796000Y-81153000D03*
X193796000Y-79883000D03*
X193796000Y-78613000D03*
X193796000Y-77343000D03*
%TD*%
D13*
%TO.C,D25*%
X99187000Y-119126000D03*
X99187000Y-117551000D03*
%TD*%
%TO.C,D47*%
X186817000Y-119126000D03*
X186817000Y-117551000D03*
%TD*%
D11*
%TO.C,SW3*%
X157734000Y-100512000D03*
X149784000Y-100512000D03*
X157734000Y-96012000D03*
X149784000Y-96012000D03*
%TD*%
D13*
%TO.C,D37*%
X161417000Y-119088500D03*
X161417000Y-117513500D03*
%TD*%
%TO.C,D39*%
X166497000Y-119088500D03*
X166497000Y-117513500D03*
%TD*%
%TO.C,D16*%
X135382000Y-119126000D03*
X135382000Y-117551000D03*
%TD*%
D20*
%TO.C,R15*%
X147320000Y-96012000D03*
X147320000Y-97662000D03*
%TD*%
D12*
%TO.C,C5*%
X113665000Y-96520000D03*
X112115000Y-96520000D03*
%TD*%
D21*
%TO.C,U6*%
X186501000Y-43561000D03*
X186501000Y-44831000D03*
X186501000Y-46101000D03*
X186501000Y-47371000D03*
X186501000Y-48641000D03*
X186501000Y-49911000D03*
X186501000Y-51181000D03*
X191451000Y-51181000D03*
X191451000Y-49911000D03*
X191451000Y-48641000D03*
X191451000Y-47371000D03*
X191451000Y-46101000D03*
X191451000Y-44831000D03*
X191451000Y-43561000D03*
%TD*%
D22*
%TO.C,J3*%
X177346000Y-65380000D03*
X177346000Y-66180000D03*
X177346000Y-66980000D03*
X177346000Y-67780000D03*
X177346000Y-68580000D03*
X177346000Y-69380000D03*
X177346000Y-70180000D03*
X177346000Y-70980000D03*
X177346000Y-71780000D03*
X177346000Y-72580000D03*
X177346000Y-73380000D03*
X177346000Y-74180000D03*
X177346000Y-74980000D03*
X177346000Y-75780000D03*
X177346000Y-76580000D03*
X177346000Y-77380000D03*
X177346000Y-78180000D03*
X177346000Y-78980000D03*
X177346000Y-79780000D03*
X177346000Y-80580000D03*
X180746000Y-65380000D03*
X180746000Y-66180000D03*
X180746000Y-66980000D03*
X180746000Y-67780000D03*
X180746000Y-68580000D03*
X180746000Y-69380000D03*
X180746000Y-70180000D03*
X180746000Y-70980000D03*
X180746000Y-71780000D03*
X180746000Y-72580000D03*
X180746000Y-73380000D03*
X180746000Y-74180000D03*
X180746000Y-74980000D03*
X180746000Y-75780000D03*
X180746000Y-76580000D03*
X180746000Y-77380000D03*
X180746000Y-78180000D03*
X180746000Y-78980000D03*
X180746000Y-79780000D03*
X180746000Y-80580000D03*
D23*
X179046000Y-58205000D03*
X179046000Y-87755000D03*
%TD*%
D20*
%TO.C,R16*%
X141478000Y-57087000D03*
X141478000Y-58737000D03*
%TD*%
D24*
%TO.C,RAM1*%
X161370000Y-43455000D03*
X161370000Y-44005000D03*
X161370000Y-44555000D03*
X161370000Y-45105000D03*
X161370000Y-45655000D03*
X161370000Y-46205000D03*
X161370000Y-46755000D03*
X173910000Y-46755000D03*
X173910000Y-46205000D03*
X173910000Y-45655000D03*
X173910000Y-45105000D03*
X173910000Y-44555000D03*
X173910000Y-44005000D03*
X173910000Y-43455000D03*
X173910000Y-42905000D03*
X173910000Y-42355000D03*
X173910000Y-41805000D03*
X173910000Y-41255000D03*
X173910000Y-40705000D03*
X173910000Y-40155000D03*
X173910000Y-39605000D03*
X161370000Y-39605000D03*
X161370000Y-40155000D03*
X161370000Y-40705000D03*
X161370000Y-41255000D03*
X161370000Y-41805000D03*
X161370000Y-42355000D03*
X161370000Y-42905000D03*
%TD*%
D13*
%TO.C,D40*%
X169037000Y-119088500D03*
X169037000Y-117513500D03*
%TD*%
D14*
%TO.C,D11*%
X171780000Y-134243000D03*
X173355000Y-134243000D03*
%TD*%
D10*
%TO.C,R12*%
X123495000Y-99060000D03*
X125145000Y-99060000D03*
%TD*%
D13*
%TO.C,D49*%
X191897000Y-119126000D03*
X191897000Y-117551000D03*
%TD*%
D25*
%TO.C,ROM1*%
X129335000Y-57150000D03*
X129335000Y-58420000D03*
X129335000Y-59690000D03*
X129335000Y-60960000D03*
X129335000Y-62230000D03*
X129335000Y-63500000D03*
X129335000Y-64770000D03*
X129335000Y-66040000D03*
X129335000Y-67310000D03*
X129335000Y-68580000D03*
X129335000Y-69850000D03*
X129335000Y-71120000D03*
X129335000Y-72390000D03*
X129335000Y-73660000D03*
X138635000Y-73660000D03*
X138635000Y-72390000D03*
X138635000Y-71120000D03*
X138635000Y-69850000D03*
X138635000Y-68580000D03*
X138635000Y-67310000D03*
X138635000Y-66040000D03*
X138635000Y-64770000D03*
X138635000Y-63500000D03*
X138635000Y-62230000D03*
X138635000Y-60960000D03*
X138635000Y-59690000D03*
X138635000Y-58420000D03*
X138635000Y-57150000D03*
%TD*%
D13*
%TO.C,D20*%
X145542000Y-119126000D03*
X145542000Y-117551000D03*
%TD*%
D14*
%TO.C,D12*%
X171780000Y-136783000D03*
X173355000Y-136783000D03*
%TD*%
D26*
%TO.C,C4*%
X117830000Y-102870000D03*
X119380000Y-102870000D03*
%TD*%
D27*
%TO.C,R5*%
X119430000Y-89535000D03*
X117780000Y-89535000D03*
%TD*%
D16*
%TO.C,R7*%
X117475000Y-86930000D03*
X117475000Y-85280000D03*
%TD*%
D28*
%TO.C,C8*%
X160274000Y-98946000D03*
X160274000Y-97396000D03*
%TD*%
D10*
%TO.C,R17*%
X96647000Y-44323000D03*
X98297000Y-44323000D03*
%TD*%
D29*
%TO.C,D5*%
X113677500Y-100330000D03*
X112102500Y-100330000D03*
%TD*%
D21*
%TO.C,U8*%
X176341000Y-97282000D03*
X176341000Y-98552000D03*
X176341000Y-99822000D03*
X176341000Y-101092000D03*
X176341000Y-102362000D03*
X176341000Y-103632000D03*
X176341000Y-104902000D03*
X181291000Y-104902000D03*
X181291000Y-103632000D03*
X181291000Y-102362000D03*
X181291000Y-101092000D03*
X181291000Y-99822000D03*
X181291000Y-98552000D03*
X181291000Y-97282000D03*
%TD*%
D30*
%TO.C,RV1*%
X107322000Y-101822000D03*
D31*
X106172000Y-97822000D03*
D30*
X105022000Y-101822000D03*
%TD*%
D22*
%TO.C,J2*%
X162814000Y-65380000D03*
X162814000Y-66180000D03*
X162814000Y-66980000D03*
X162814000Y-67780000D03*
X162814000Y-68580000D03*
X162814000Y-69380000D03*
X162814000Y-70180000D03*
X162814000Y-70980000D03*
X162814000Y-71780000D03*
X162814000Y-72580000D03*
X162814000Y-73380000D03*
X162814000Y-74180000D03*
X162814000Y-74980000D03*
X162814000Y-75780000D03*
X162814000Y-76580000D03*
X162814000Y-77380000D03*
X162814000Y-78180000D03*
X162814000Y-78980000D03*
X162814000Y-79780000D03*
X162814000Y-80580000D03*
X166214000Y-65380000D03*
X166214000Y-66180000D03*
X166214000Y-66980000D03*
X166214000Y-67780000D03*
X166214000Y-68580000D03*
X166214000Y-69380000D03*
X166214000Y-70180000D03*
X166214000Y-70980000D03*
X166214000Y-71780000D03*
X166214000Y-72580000D03*
X166214000Y-73380000D03*
X166214000Y-74180000D03*
X166214000Y-74980000D03*
X166214000Y-75780000D03*
X166214000Y-76580000D03*
X166214000Y-77380000D03*
X166214000Y-78180000D03*
X166214000Y-78980000D03*
X166214000Y-79780000D03*
X166214000Y-80580000D03*
D23*
X164514000Y-58205000D03*
X164514000Y-87755000D03*
%TD*%
D13*
%TO.C,D42*%
X174117000Y-119126000D03*
X174117000Y-117551000D03*
%TD*%
D14*
%TO.C,D3*%
X106807000Y-37719000D03*
X108382000Y-37719000D03*
%TD*%
D27*
%TO.C,R1*%
X125145000Y-100965000D03*
X123495000Y-100965000D03*
%TD*%
D21*
%TO.C,CLK1*%
X116195000Y-93345000D03*
X116195000Y-94615000D03*
X116195000Y-95885000D03*
X116195000Y-97155000D03*
X116195000Y-98425000D03*
X116195000Y-99695000D03*
X116195000Y-100965000D03*
X121145000Y-100965000D03*
X121145000Y-99695000D03*
X121145000Y-98425000D03*
X121145000Y-97155000D03*
X121145000Y-95885000D03*
X121145000Y-94615000D03*
X121145000Y-93345000D03*
%TD*%
D13*
%TO.C,D24*%
X96647000Y-119126000D03*
X96647000Y-117551000D03*
%TD*%
D19*
%TO.C,U4*%
X165868000Y-96647000D03*
X165868000Y-97917000D03*
X165868000Y-99187000D03*
X165868000Y-100457000D03*
X165868000Y-101727000D03*
X165868000Y-102997000D03*
X165868000Y-104267000D03*
X165868000Y-105537000D03*
X172968000Y-105537000D03*
X172968000Y-104267000D03*
X172968000Y-102997000D03*
X172968000Y-101727000D03*
X172968000Y-100457000D03*
X172968000Y-99187000D03*
X172968000Y-97917000D03*
X172968000Y-96647000D03*
%TD*%
D27*
%TO.C,R22*%
X104774000Y-37719000D03*
X103124000Y-37719000D03*
%TD*%
D32*
%TO.C,RN1*%
X145395599Y-99441000D03*
X141878401Y-99441000D03*
D33*
X144589500Y-98558701D03*
X143954500Y-98558701D03*
X143319500Y-98558701D03*
X142684500Y-98558701D03*
X142684500Y-100323299D03*
X143319500Y-100323299D03*
X143954500Y-100323299D03*
X144589500Y-100323299D03*
%TD*%
D13*
%TO.C,D26*%
X101727000Y-119126000D03*
X101727000Y-117551000D03*
%TD*%
%TO.C,D31*%
X114427000Y-119126000D03*
X114427000Y-117551000D03*
%TD*%
%TO.C,D41*%
X171577000Y-119088500D03*
X171577000Y-117513500D03*
%TD*%
%TO.C,D19*%
X143002000Y-119126000D03*
X143002000Y-117551000D03*
%TD*%
D10*
%TO.C,R19*%
X96647000Y-47244000D03*
X98297000Y-47244000D03*
%TD*%
D13*
%TO.C,D29*%
X109347000Y-119126000D03*
X109347000Y-117551000D03*
%TD*%
D14*
%TO.C,D7*%
X171780000Y-126623000D03*
X173355000Y-126623000D03*
%TD*%
D13*
%TO.C,D45*%
X181737000Y-119126000D03*
X181737000Y-117551000D03*
%TD*%
%TO.C,D44*%
X179197000Y-119126000D03*
X179197000Y-117551000D03*
%TD*%
D34*
%TO.C,D6*%
X129540000Y-97498000D03*
X129540000Y-99073000D03*
%TD*%
D15*
%TO.C,C2*%
X124079000Y-68821000D03*
X124079000Y-70371000D03*
%TD*%
D10*
%TO.C,R8*%
X96266000Y-76454000D03*
X97916000Y-76454000D03*
%TD*%
D14*
%TO.C,D50*%
X171780000Y-139323000D03*
X173355000Y-139323000D03*
%TD*%
D27*
%TO.C,R9*%
X125145000Y-95250000D03*
X123495000Y-95250000D03*
%TD*%
D13*
%TO.C,D35*%
X156337000Y-119088500D03*
X156337000Y-117513500D03*
%TD*%
D27*
%TO.C,R21*%
X104774000Y-34798000D03*
X103124000Y-34798000D03*
%TD*%
D14*
%TO.C,D10*%
X171780000Y-131703000D03*
X173355000Y-131703000D03*
%TD*%
D10*
%TO.C,R18*%
X214758000Y-46990000D03*
X216408000Y-46990000D03*
%TD*%
D14*
%TO.C,D8*%
X110972500Y-88043327D03*
X112547500Y-88043327D03*
%TD*%
D10*
%TO.C,R4*%
X98680000Y-55880000D03*
X100330000Y-55880000D03*
%TD*%
D26*
%TO.C,C3*%
X117830000Y-91440000D03*
X119380000Y-91440000D03*
%TD*%
D35*
%TO.C,U3*%
X142459000Y-38481000D03*
X142459000Y-39751000D03*
X142459000Y-41021000D03*
X142459000Y-42291000D03*
X142459000Y-43561000D03*
X142459000Y-44831000D03*
X142459000Y-46101000D03*
X142459000Y-47371000D03*
X147609000Y-47371000D03*
X147609000Y-46101000D03*
X147609000Y-44831000D03*
X147609000Y-43561000D03*
X147609000Y-42291000D03*
X147609000Y-41021000D03*
X147609000Y-39751000D03*
X147609000Y-38481000D03*
%TD*%
D12*
%TO.C,C1*%
X113665000Y-94615000D03*
X112115000Y-94615000D03*
%TD*%
D14*
%TO.C,D1*%
X106807000Y-34798000D03*
X108382000Y-34798000D03*
%TD*%
D13*
%TO.C,D48*%
X189357000Y-119126000D03*
X189357000Y-117551000D03*
%TD*%
D14*
%TO.C,D4*%
X110972500Y-85043327D03*
X112547500Y-85043327D03*
%TD*%
D13*
%TO.C,D38*%
X163957000Y-119088500D03*
X163957000Y-117513500D03*
%TD*%
D21*
%TO.C,U9*%
X132145000Y-91440000D03*
X132145000Y-92710000D03*
X132145000Y-93980000D03*
X132145000Y-95250000D03*
X132145000Y-96520000D03*
X132145000Y-97790000D03*
X132145000Y-99060000D03*
X137095000Y-99060000D03*
X137095000Y-97790000D03*
X137095000Y-96520000D03*
X137095000Y-95250000D03*
X137095000Y-93980000D03*
X137095000Y-92710000D03*
X137095000Y-91440000D03*
%TD*%
D13*
%TO.C,D22*%
X91567000Y-119126000D03*
X91567000Y-117551000D03*
%TD*%
D26*
%TO.C,C6*%
X123545000Y-97155000D03*
X125095000Y-97155000D03*
%TD*%
D35*
%TO.C,U2*%
X128997000Y-38481000D03*
X128997000Y-39751000D03*
X128997000Y-41021000D03*
X128997000Y-42291000D03*
X128997000Y-43561000D03*
X128997000Y-44831000D03*
X128997000Y-46101000D03*
X128997000Y-47371000D03*
X134147000Y-47371000D03*
X134147000Y-46101000D03*
X134147000Y-44831000D03*
X134147000Y-43561000D03*
X134147000Y-42291000D03*
X134147000Y-41021000D03*
X134147000Y-39751000D03*
X134147000Y-38481000D03*
%TD*%
D13*
%TO.C,D43*%
X176657000Y-119126000D03*
X176657000Y-117551000D03*
%TD*%
%TO.C,D23*%
X94107000Y-119126000D03*
X94107000Y-117551000D03*
%TD*%
D21*
%TO.C,U1*%
X120080000Y-78930000D03*
X120080000Y-80200000D03*
X120080000Y-81470000D03*
X120080000Y-82740000D03*
X120080000Y-84010000D03*
X120080000Y-85280000D03*
X120080000Y-86550000D03*
X125030000Y-86550000D03*
X125030000Y-85280000D03*
X125030000Y-84010000D03*
X125030000Y-82740000D03*
X125030000Y-81470000D03*
X125030000Y-80200000D03*
X125030000Y-78930000D03*
%TD*%
D14*
%TO.C,D9*%
X171780000Y-129163000D03*
X173355000Y-129163000D03*
%TD*%
D36*
%TO.C,U11*%
X103266000Y-44006000D03*
X103266000Y-44806000D03*
X103266000Y-45606000D03*
X103266000Y-46406000D03*
X103266000Y-47206000D03*
X103266000Y-48006000D03*
X103266000Y-48806000D03*
X103266000Y-49606000D03*
X103266000Y-50406000D03*
X103266000Y-51206000D03*
X103266000Y-52006000D03*
D37*
X104966000Y-53706000D03*
X105766000Y-53706000D03*
X106566000Y-53706000D03*
X107366000Y-53706000D03*
X108166000Y-53706000D03*
X108966000Y-53706000D03*
X109766000Y-53706000D03*
X110566000Y-53706000D03*
X111366000Y-53706000D03*
X112166000Y-53706000D03*
X112966000Y-53706000D03*
D36*
X114666000Y-52006000D03*
X114666000Y-51206000D03*
X114666000Y-50406000D03*
X114666000Y-49606000D03*
X114666000Y-48806000D03*
X114666000Y-48006000D03*
X114666000Y-47206000D03*
X114666000Y-46406000D03*
X114666000Y-45606000D03*
X114666000Y-44806000D03*
X114666000Y-44006000D03*
D37*
X112966000Y-42306000D03*
X112166000Y-42306000D03*
X111366000Y-42306000D03*
X110566000Y-42306000D03*
X109766000Y-42306000D03*
X108966000Y-42306000D03*
X108166000Y-42306000D03*
X107366000Y-42306000D03*
X106566000Y-42306000D03*
X105766000Y-42306000D03*
X104966000Y-42306000D03*
%TD*%
D13*
%TO.C,D34*%
X153797000Y-119088500D03*
X153797000Y-117513500D03*
%TD*%
%TO.C,D18*%
X140462000Y-119126000D03*
X140462000Y-117551000D03*
%TD*%
%TO.C,D21*%
X89027000Y-119126000D03*
X89027000Y-117551000D03*
%TD*%
%TO.C,D32*%
X116967000Y-119126000D03*
X116967000Y-117551000D03*
%TD*%
D16*
%TO.C,R2*%
X117475000Y-81915000D03*
X117475000Y-80265000D03*
%TD*%
M02*
