%TF.GenerationSoftware,KiCad,Pcbnew,7.0.9*%
%TF.CreationDate,2023-11-28T19:04:43+01:00*%
%TF.ProjectId,z80,7a38302e-6b69-4636-9164-5f7063625858,1.0*%
%TF.SameCoordinates,Original*%
%TF.FileFunction,Soldermask,Bot*%
%TF.FilePolarity,Negative*%
%FSLAX46Y46*%
G04 Gerber Fmt 4.6, Leading zero omitted, Abs format (unit mm)*
G04 Created by KiCad (PCBNEW 7.0.9) date 2023-11-28 19:04:43*
%MOMM*%
%LPD*%
G01*
G04 APERTURE LIST*
G04 Aperture macros list*
%AMRoundRect*
0 Rectangle with rounded corners*
0 $1 Rounding radius*
0 $2 $3 $4 $5 $6 $7 $8 $9 X,Y pos of 4 corners*
0 Add a 4 corners polygon primitive as box body*
4,1,4,$2,$3,$4,$5,$6,$7,$8,$9,$2,$3,0*
0 Add four circle primitives for the rounded corners*
1,1,$1+$1,$2,$3*
1,1,$1+$1,$4,$5*
1,1,$1+$1,$6,$7*
1,1,$1+$1,$8,$9*
0 Add four rect primitives between the rounded corners*
20,1,$1+$1,$2,$3,$4,$5,0*
20,1,$1+$1,$4,$5,$6,$7,0*
20,1,$1+$1,$6,$7,$8,$9,0*
20,1,$1+$1,$8,$9,$2,$3,0*%
G04 Aperture macros list end*
%ADD10R,1.600000X1.600000*%
%ADD11O,1.600000X1.600000*%
%ADD12R,1.700000X1.700000*%
%ADD13O,1.700000X1.700000*%
%ADD14C,3.200000*%
%ADD15C,1.320000*%
%ADD16C,1.400000*%
%ADD17C,2.100000*%
%ADD18C,1.600000*%
%ADD19R,0.458800X0.735600*%
%ADD20R,0.888000X0.306400*%
%ADD21R,0.735600X0.458800*%
%ADD22R,0.306400X0.888000*%
%ADD23RoundRect,0.200000X-0.275000X0.200000X-0.275000X-0.200000X0.275000X-0.200000X0.275000X0.200000X0*%
G04 APERTURE END LIST*
D10*
%TO.C,U7*%
X197358000Y-34290000D03*
D11*
X197358000Y-36830000D03*
X197358000Y-39370000D03*
X197358000Y-41910000D03*
X197358000Y-44450000D03*
X197358000Y-46990000D03*
X197358000Y-49530000D03*
X197358000Y-52070000D03*
X197358000Y-54610000D03*
X197358000Y-57150000D03*
X197358000Y-59690000D03*
X197358000Y-62230000D03*
X197358000Y-64770000D03*
X197358000Y-67310000D03*
X197358000Y-69850000D03*
X197358000Y-72390000D03*
X197358000Y-74930000D03*
X197358000Y-77470000D03*
X197358000Y-80010000D03*
X197358000Y-82550000D03*
X212598000Y-82550000D03*
X212598000Y-80010000D03*
X212598000Y-77470000D03*
X212598000Y-74930000D03*
X212598000Y-72390000D03*
X212598000Y-69850000D03*
X212598000Y-67310000D03*
X212598000Y-64770000D03*
X212598000Y-62230000D03*
X212598000Y-59690000D03*
X212598000Y-57150000D03*
X212598000Y-54610000D03*
X212598000Y-52070000D03*
X212598000Y-49530000D03*
X212598000Y-46990000D03*
X212598000Y-44450000D03*
X212598000Y-41910000D03*
X212598000Y-39370000D03*
X212598000Y-36830000D03*
X212598000Y-34290000D03*
%TD*%
D12*
%TO.C,J4*%
X225933000Y-34925000D03*
D13*
X223393000Y-34925000D03*
X225933000Y-37465000D03*
X223393000Y-37465000D03*
X225933000Y-40005000D03*
X223393000Y-40005000D03*
X225933000Y-42545000D03*
X223393000Y-42545000D03*
%TD*%
D14*
%TO.C,REF\u002A\u002A*%
X92360000Y-33940000D03*
%TD*%
D15*
%TO.C,J3*%
X177546000Y-63880000D03*
X179046000Y-82080000D03*
%TD*%
D12*
%TO.C,J5*%
X225953000Y-48270000D03*
D13*
X223413000Y-48270000D03*
X225953000Y-50810000D03*
X223413000Y-50810000D03*
X225953000Y-53350000D03*
X223413000Y-53350000D03*
X225953000Y-55890000D03*
X223413000Y-55890000D03*
%TD*%
D12*
%TO.C,J8*%
X225953000Y-104219000D03*
D13*
X223413000Y-104219000D03*
X225953000Y-106759000D03*
X223413000Y-106759000D03*
X225953000Y-109299000D03*
X223413000Y-109299000D03*
X225953000Y-111839000D03*
X223413000Y-111839000D03*
%TD*%
D12*
%TO.C,J1*%
X224663000Y-78740000D03*
D13*
X224663000Y-81280000D03*
%TD*%
D14*
%TO.C,REF\u002A\u002A*%
X229585000Y-135859000D03*
%TD*%
%TO.C,REF\u002A\u002A*%
X119253000Y-135763000D03*
%TD*%
D15*
%TO.C,J2*%
X163014000Y-63880000D03*
X164514000Y-82080000D03*
%TD*%
D10*
%TO.C,U10*%
X197358000Y-90239000D03*
D11*
X197358000Y-92779000D03*
X197358000Y-95319000D03*
X197358000Y-97859000D03*
X197358000Y-100399000D03*
X197358000Y-102939000D03*
X197358000Y-105479000D03*
X197358000Y-108019000D03*
X197358000Y-110559000D03*
X197358000Y-113099000D03*
X197358000Y-115639000D03*
X197358000Y-118179000D03*
X197358000Y-120719000D03*
X197358000Y-123259000D03*
X197358000Y-125799000D03*
X197358000Y-128339000D03*
X197358000Y-130879000D03*
X197358000Y-133419000D03*
X197358000Y-135959000D03*
X197358000Y-138499000D03*
X212598000Y-138499000D03*
X212598000Y-135959000D03*
X212598000Y-133419000D03*
X212598000Y-130879000D03*
X212598000Y-128339000D03*
X212598000Y-125799000D03*
X212598000Y-123259000D03*
X212598000Y-120719000D03*
X212598000Y-118179000D03*
X212598000Y-115639000D03*
X212598000Y-113099000D03*
X212598000Y-110559000D03*
X212598000Y-108019000D03*
X212598000Y-105479000D03*
X212598000Y-102939000D03*
X212598000Y-100399000D03*
X212598000Y-97859000D03*
X212598000Y-95319000D03*
X212598000Y-92779000D03*
X212598000Y-90239000D03*
%TD*%
D16*
%TO.C,SW2*%
X98636000Y-83630000D03*
X98636000Y-87630000D03*
X98636000Y-89630000D03*
X98636000Y-91630000D03*
D17*
X100636000Y-80130000D03*
X94436000Y-95130000D03*
%TD*%
D11*
%TO.C,A1*%
X118364000Y-31242000D03*
X118364000Y-33782000D03*
X118364000Y-36322000D03*
X118364000Y-38862000D03*
X118364000Y-41402000D03*
X118364000Y-43942000D03*
X118364000Y-46482000D03*
X118364000Y-49022000D03*
X118364000Y-51562000D03*
X118364000Y-54102000D03*
X118364000Y-56642000D03*
X118364000Y-59182000D03*
X103124000Y-59182000D03*
X103124000Y-56642000D03*
X103124000Y-54102000D03*
X103124000Y-51562000D03*
X103124000Y-49022000D03*
X103124000Y-46482000D03*
X103124000Y-43942000D03*
X103124000Y-41402000D03*
X103124000Y-38862000D03*
X103124000Y-36322000D03*
X103124000Y-33782000D03*
D10*
X103124000Y-31242000D03*
%TD*%
D14*
%TO.C,REF\u002A\u002A*%
X188087000Y-33909000D03*
%TD*%
D10*
%TO.C,CLK2*%
X119634000Y-65786000D03*
D18*
X104394000Y-65786000D03*
X104394000Y-73406000D03*
X119634000Y-73406000D03*
%TD*%
D12*
%TO.C,J9*%
X225953000Y-117554000D03*
D13*
X223413000Y-117554000D03*
X225953000Y-120094000D03*
X223413000Y-120094000D03*
X225953000Y-122634000D03*
X223413000Y-122634000D03*
X225953000Y-125174000D03*
X223413000Y-125174000D03*
%TD*%
D12*
%TO.C,J6*%
X225953000Y-61605000D03*
D13*
X223413000Y-61605000D03*
X225953000Y-64145000D03*
X223413000Y-64145000D03*
X225953000Y-66685000D03*
X223413000Y-66685000D03*
X225953000Y-69225000D03*
X223413000Y-69225000D03*
%TD*%
D12*
%TO.C,J7*%
X225933000Y-90874000D03*
D13*
X223393000Y-90874000D03*
X225933000Y-93414000D03*
X223393000Y-93414000D03*
X225933000Y-95954000D03*
X223393000Y-95954000D03*
X225933000Y-98494000D03*
X223393000Y-98494000D03*
%TD*%
D19*
%TO.C,RN6*%
X182880000Y-116478401D03*
X182880000Y-119995599D03*
D20*
X183762299Y-117284500D03*
X183762299Y-117919500D03*
X183762299Y-118554500D03*
X183762299Y-119189500D03*
X181997701Y-119189500D03*
X181997701Y-118554500D03*
X181997701Y-117919500D03*
X181997701Y-117284500D03*
%TD*%
D19*
%TO.C,RN2*%
X136398000Y-120097099D03*
X136398000Y-116579901D03*
D20*
X135515701Y-119291000D03*
X135515701Y-118656000D03*
X135515701Y-118021000D03*
X135515701Y-117386000D03*
X137280299Y-117386000D03*
X137280299Y-118021000D03*
X137280299Y-118656000D03*
X137280299Y-119291000D03*
%TD*%
D19*
%TO.C,RN4*%
X111893701Y-116541901D03*
X111893701Y-120059099D03*
D20*
X112776000Y-117348000D03*
X112776000Y-117983000D03*
X112776000Y-118618000D03*
X112776000Y-119253000D03*
X111011402Y-119253000D03*
X111011402Y-118618000D03*
X111011402Y-117983000D03*
X111011402Y-117348000D03*
%TD*%
D21*
%TO.C,RN7*%
X139020901Y-75304299D03*
X142538099Y-75304299D03*
D22*
X139827000Y-74422000D03*
X140462000Y-74422000D03*
X141097000Y-74422000D03*
X141732000Y-74422000D03*
X141732000Y-76186598D03*
X141097000Y-76186598D03*
X140462000Y-76186598D03*
X139827000Y-76186598D03*
%TD*%
D23*
%TO.C,R4*%
X134620000Y-97600000D03*
X134620000Y-99250000D03*
%TD*%
D19*
%TO.C,RN5*%
X162560000Y-119741599D03*
X162560000Y-116224401D03*
D20*
X161677701Y-118935500D03*
X161677701Y-118300500D03*
X161677701Y-117665500D03*
X161677701Y-117030500D03*
X163442299Y-117030500D03*
X163442299Y-117665500D03*
X163442299Y-118300500D03*
X163442299Y-118935500D03*
%TD*%
D19*
%TO.C,RN3*%
X94107000Y-116579901D03*
X94107000Y-120097099D03*
D20*
X94989299Y-117386000D03*
X94989299Y-118021000D03*
X94989299Y-118656000D03*
X94989299Y-119291000D03*
X93224701Y-119291000D03*
X93224701Y-118656000D03*
X93224701Y-118021000D03*
X93224701Y-117386000D03*
%TD*%
M02*
