%TF.GenerationSoftware,KiCad,Pcbnew,(6.0.4)*%
%TF.CreationDate,2022-04-27T21:45:15+02:00*%
%TF.ProjectId,z80,7a38302e-6b69-4636-9164-5f7063625858,rev?*%
%TF.SameCoordinates,Original*%
%TF.FileFunction,Paste,Top*%
%TF.FilePolarity,Positive*%
%FSLAX46Y46*%
G04 Gerber Fmt 4.6, Leading zero omitted, Abs format (unit mm)*
G04 Created by KiCad (PCBNEW (6.0.4)) date 2022-04-27 21:45:15*
%MOMM*%
%LPD*%
G01*
G04 APERTURE LIST*
G04 Aperture macros list*
%AMRoundRect*
0 Rectangle with rounded corners*
0 $1 Rounding radius*
0 $2 $3 $4 $5 $6 $7 $8 $9 X,Y pos of 4 corners*
0 Add a 4 corners polygon primitive as box body*
4,1,4,$2,$3,$4,$5,$6,$7,$8,$9,$2,$3,0*
0 Add four circle primitives for the rounded corners*
1,1,$1+$1,$2,$3*
1,1,$1+$1,$4,$5*
1,1,$1+$1,$6,$7*
1,1,$1+$1,$8,$9*
0 Add four rect primitives between the rounded corners*
20,1,$1+$1,$2,$3,$4,$5,0*
20,1,$1+$1,$4,$5,$6,$7,0*
20,1,$1+$1,$6,$7,$8,$9,0*
20,1,$1+$1,$8,$9,$2,$3,0*%
G04 Aperture macros list end*
%ADD10RoundRect,0.237500X0.237500X-0.250000X0.237500X0.250000X-0.237500X0.250000X-0.237500X-0.250000X0*%
%ADD11RoundRect,0.237500X-0.250000X-0.237500X0.250000X-0.237500X0.250000X0.237500X-0.250000X0.237500X0*%
%ADD12RoundRect,0.250000X0.337500X0.475000X-0.337500X0.475000X-0.337500X-0.475000X0.337500X-0.475000X0*%
%ADD13RoundRect,0.237500X0.287500X0.237500X-0.287500X0.237500X-0.287500X-0.237500X0.287500X-0.237500X0*%
%ADD14RoundRect,0.150000X-0.837500X-0.150000X0.837500X-0.150000X0.837500X0.150000X-0.837500X0.150000X0*%
%ADD15RoundRect,0.237500X0.250000X0.237500X-0.250000X0.237500X-0.250000X-0.237500X0.250000X-0.237500X0*%
%ADD16RoundRect,0.237500X-0.237500X0.250000X-0.237500X-0.250000X0.237500X-0.250000X0.237500X0.250000X0*%
%ADD17RoundRect,0.250000X-0.337500X-0.475000X0.337500X-0.475000X0.337500X0.475000X-0.337500X0.475000X0*%
%ADD18RoundRect,0.200000X0.200000X0.275000X-0.200000X0.275000X-0.200000X-0.275000X0.200000X-0.275000X0*%
%ADD19RoundRect,0.237500X-0.287500X-0.237500X0.287500X-0.237500X0.287500X0.237500X-0.287500X0.237500X0*%
%ADD20RoundRect,0.150000X-0.725000X-0.150000X0.725000X-0.150000X0.725000X0.150000X-0.725000X0.150000X0*%
%ADD21RoundRect,0.250000X-0.475000X0.337500X-0.475000X-0.337500X0.475000X-0.337500X0.475000X0.337500X0*%
%ADD22RoundRect,0.150000X-0.825000X-0.150000X0.825000X-0.150000X0.825000X0.150000X-0.825000X0.150000X0*%
G04 APERTURE END LIST*
D10*
%TO.C,R7*%
X133985000Y-110767500D03*
X133985000Y-108942500D03*
%TD*%
D11*
%TO.C,R42*%
X242382500Y-116690000D03*
X244207500Y-116690000D03*
%TD*%
D12*
%TO.C,C7*%
X152167500Y-107315000D03*
X150092500Y-107315000D03*
%TD*%
D13*
%TO.C,D15*%
X169785000Y-36195000D03*
X168035000Y-36195000D03*
%TD*%
%TO.C,D23*%
X166610000Y-99060000D03*
X164860000Y-99060000D03*
%TD*%
D14*
%TO.C,U24*%
X123537500Y-150495000D03*
X123537500Y-151765000D03*
X123537500Y-153035000D03*
X123537500Y-154305000D03*
X123537500Y-155575000D03*
X123537500Y-156845000D03*
X123537500Y-158115000D03*
X123537500Y-159385000D03*
X130462500Y-159385000D03*
X130462500Y-158115000D03*
X130462500Y-156845000D03*
X130462500Y-155575000D03*
X130462500Y-154305000D03*
X130462500Y-153035000D03*
X130462500Y-151765000D03*
X130462500Y-150495000D03*
%TD*%
D13*
%TO.C,D21*%
X166610000Y-93980000D03*
X164860000Y-93980000D03*
%TD*%
%TO.C,D5*%
X152005000Y-71120000D03*
X150255000Y-71120000D03*
%TD*%
D15*
%TO.C,R32*%
X170457500Y-99060000D03*
X168632500Y-99060000D03*
%TD*%
%TO.C,R14*%
X155852500Y-71120000D03*
X154027500Y-71120000D03*
%TD*%
D11*
%TO.C,R9*%
X132437500Y-121920000D03*
X134262500Y-121920000D03*
%TD*%
%TO.C,R49*%
X246732500Y-121630000D03*
X248557500Y-121630000D03*
%TD*%
D13*
%TO.C,D20*%
X166610000Y-91440000D03*
X164860000Y-91440000D03*
%TD*%
D16*
%TO.C,R5*%
X161290000Y-97512500D03*
X161290000Y-99337500D03*
%TD*%
D15*
%TO.C,R23*%
X173632500Y-38735000D03*
X171807500Y-38735000D03*
%TD*%
D13*
%TO.C,D19*%
X166610000Y-88900000D03*
X164860000Y-88900000D03*
%TD*%
D15*
%TO.C,R19*%
X155852500Y-58420000D03*
X154027500Y-58420000D03*
%TD*%
D13*
%TO.C,D16*%
X169785000Y-33655000D03*
X168035000Y-33655000D03*
%TD*%
%TO.C,D6*%
X152005000Y-68580000D03*
X150255000Y-68580000D03*
%TD*%
D14*
%TO.C,U14*%
X126077500Y-135255000D03*
X126077500Y-136525000D03*
X126077500Y-137795000D03*
X126077500Y-139065000D03*
X126077500Y-140335000D03*
X126077500Y-141605000D03*
X126077500Y-142875000D03*
X126077500Y-144145000D03*
X133002500Y-144145000D03*
X133002500Y-142875000D03*
X133002500Y-141605000D03*
X133002500Y-140335000D03*
X133002500Y-139065000D03*
X133002500Y-137795000D03*
X133002500Y-136525000D03*
X133002500Y-135255000D03*
%TD*%
%TO.C,U15*%
X138777500Y-135255000D03*
X138777500Y-136525000D03*
X138777500Y-137795000D03*
X138777500Y-139065000D03*
X138777500Y-140335000D03*
X138777500Y-141605000D03*
X138777500Y-142875000D03*
X138777500Y-144145000D03*
X145702500Y-144145000D03*
X145702500Y-142875000D03*
X145702500Y-141605000D03*
X145702500Y-140335000D03*
X145702500Y-139065000D03*
X145702500Y-137795000D03*
X145702500Y-136525000D03*
X145702500Y-135255000D03*
%TD*%
D13*
%TO.C,D8*%
X152005000Y-63500000D03*
X150255000Y-63500000D03*
%TD*%
D11*
%TO.C,R44*%
X251082500Y-116530000D03*
X252907500Y-116530000D03*
%TD*%
D13*
%TO.C,D22*%
X166610000Y-96520000D03*
X164860000Y-96520000D03*
%TD*%
D11*
%TO.C,R11*%
X255892500Y-114020000D03*
X257717500Y-114020000D03*
%TD*%
%TO.C,R38*%
X224402500Y-135420000D03*
X226227500Y-135420000D03*
%TD*%
D12*
%TO.C,C5*%
X134387500Y-116840000D03*
X132312500Y-116840000D03*
%TD*%
D15*
%TO.C,R26*%
X173632500Y-31115000D03*
X171807500Y-31115000D03*
%TD*%
D13*
%TO.C,D9*%
X152005000Y-60960000D03*
X150255000Y-60960000D03*
%TD*%
D11*
%TO.C,R40*%
X237532500Y-131750000D03*
X239357500Y-131750000D03*
%TD*%
D15*
%TO.C,R33*%
X170457500Y-101600000D03*
X168632500Y-101600000D03*
%TD*%
%TO.C,R10*%
X134262500Y-124460000D03*
X132437500Y-124460000D03*
%TD*%
D14*
%TO.C,U25*%
X138777500Y-153035000D03*
X138777500Y-154305000D03*
X138777500Y-155575000D03*
X138777500Y-156845000D03*
X138777500Y-158115000D03*
X138777500Y-159385000D03*
X138777500Y-160655000D03*
X138777500Y-161925000D03*
X145702500Y-161925000D03*
X145702500Y-160655000D03*
X145702500Y-159385000D03*
X145702500Y-158115000D03*
X145702500Y-156845000D03*
X145702500Y-155575000D03*
X145702500Y-154305000D03*
X145702500Y-153035000D03*
%TD*%
D13*
%TO.C,D18*%
X169785000Y-28575000D03*
X168035000Y-28575000D03*
%TD*%
D15*
%TO.C,R15*%
X155852500Y-68580000D03*
X154027500Y-68580000D03*
%TD*%
D13*
%TO.C,D26*%
X166610000Y-106680000D03*
X164860000Y-106680000D03*
%TD*%
D15*
%TO.C,R31*%
X170457500Y-96520000D03*
X168632500Y-96520000D03*
%TD*%
D17*
%TO.C,C4*%
X132312500Y-119380000D03*
X134387500Y-119380000D03*
%TD*%
D18*
%TO.C,R6*%
X139890000Y-108585000D03*
X138240000Y-108585000D03*
%TD*%
D11*
%TO.C,R37*%
X256312500Y-111510000D03*
X258137500Y-111510000D03*
%TD*%
D10*
%TO.C,R4*%
X151130000Y-101877500D03*
X151130000Y-100052500D03*
%TD*%
D19*
%TO.C,D1*%
X128665000Y-121920000D03*
X130415000Y-121920000D03*
%TD*%
D15*
%TO.C,R12*%
X155852500Y-76200000D03*
X154027500Y-76200000D03*
%TD*%
D11*
%TO.C,R46*%
X233642500Y-119700000D03*
X235467500Y-119700000D03*
%TD*%
D15*
%TO.C,R18*%
X155852500Y-60960000D03*
X154027500Y-60960000D03*
%TD*%
D11*
%TO.C,R51*%
X246692500Y-124140000D03*
X248517500Y-124140000D03*
%TD*%
D15*
%TO.C,R16*%
X155852500Y-66040000D03*
X154027500Y-66040000D03*
%TD*%
D13*
%TO.C,D11*%
X169785000Y-46355000D03*
X168035000Y-46355000D03*
%TD*%
D15*
%TO.C,R21*%
X173632500Y-43815000D03*
X171807500Y-43815000D03*
%TD*%
D16*
%TO.C,R1*%
X148590000Y-124817500D03*
X148590000Y-126642500D03*
%TD*%
D14*
%TO.C,U20*%
X67657500Y-165735000D03*
X67657500Y-167005000D03*
X67657500Y-168275000D03*
X67657500Y-169545000D03*
X67657500Y-170815000D03*
X67657500Y-172085000D03*
X67657500Y-173355000D03*
X67657500Y-174625000D03*
X74582500Y-174625000D03*
X74582500Y-173355000D03*
X74582500Y-172085000D03*
X74582500Y-170815000D03*
X74582500Y-169545000D03*
X74582500Y-168275000D03*
X74582500Y-167005000D03*
X74582500Y-165735000D03*
%TD*%
D15*
%TO.C,R28*%
X170457500Y-88900000D03*
X168632500Y-88900000D03*
%TD*%
%TO.C,R34*%
X170457500Y-104140000D03*
X168632500Y-104140000D03*
%TD*%
D13*
%TO.C,D10*%
X152005000Y-58420000D03*
X150255000Y-58420000D03*
%TD*%
D15*
%TO.C,R20*%
X173632500Y-46355000D03*
X171807500Y-46355000D03*
%TD*%
D13*
%TO.C,D25*%
X166610000Y-104140000D03*
X164860000Y-104140000D03*
%TD*%
D15*
%TO.C,R24*%
X173632500Y-36195000D03*
X171807500Y-36195000D03*
%TD*%
D13*
%TO.C,D14*%
X169785000Y-38735000D03*
X168035000Y-38735000D03*
%TD*%
%TO.C,D13*%
X169785000Y-41275000D03*
X168035000Y-41275000D03*
%TD*%
D19*
%TO.C,D2*%
X128665000Y-124460000D03*
X130415000Y-124460000D03*
%TD*%
D12*
%TO.C,C2*%
X172487500Y-120650000D03*
X170412500Y-120650000D03*
%TD*%
D11*
%TO.C,R41*%
X220052500Y-135580000D03*
X221877500Y-135580000D03*
%TD*%
D15*
%TO.C,R13*%
X155852500Y-73660000D03*
X154027500Y-73660000D03*
%TD*%
D11*
%TO.C,R2*%
X154027500Y-104775000D03*
X155852500Y-104775000D03*
%TD*%
%TO.C,R8*%
X147042500Y-105410000D03*
X148867500Y-105410000D03*
%TD*%
D13*
%TO.C,D4*%
X152005000Y-73660000D03*
X150255000Y-73660000D03*
%TD*%
D11*
%TO.C,R50*%
X242342500Y-124220000D03*
X244167500Y-124220000D03*
%TD*%
D15*
%TO.C,R22*%
X173632500Y-41275000D03*
X171807500Y-41275000D03*
%TD*%
%TO.C,R27*%
X173632500Y-28575000D03*
X171807500Y-28575000D03*
%TD*%
%TO.C,R17*%
X155852500Y-63500000D03*
X154027500Y-63500000D03*
%TD*%
%TO.C,R35*%
X170457500Y-106680000D03*
X168632500Y-106680000D03*
%TD*%
D12*
%TO.C,C3*%
X145817500Y-107315000D03*
X143742500Y-107315000D03*
%TD*%
D20*
%TO.C,U3*%
X48225000Y-26035000D03*
X48225000Y-27305000D03*
X48225000Y-28575000D03*
X48225000Y-29845000D03*
X48225000Y-31115000D03*
X48225000Y-32385000D03*
X48225000Y-33655000D03*
X48225000Y-34925000D03*
X53375000Y-34925000D03*
X53375000Y-33655000D03*
X53375000Y-32385000D03*
X53375000Y-31115000D03*
X53375000Y-29845000D03*
X53375000Y-28575000D03*
X53375000Y-27305000D03*
X53375000Y-26035000D03*
%TD*%
D15*
%TO.C,R29*%
X170457500Y-91440000D03*
X168632500Y-91440000D03*
%TD*%
D11*
%TO.C,R39*%
X241882500Y-131750000D03*
X243707500Y-131750000D03*
%TD*%
D12*
%TO.C,C1*%
X134387500Y-114300000D03*
X132312500Y-114300000D03*
%TD*%
D11*
%TO.C,R43*%
X228832500Y-127390000D03*
X230657500Y-127390000D03*
%TD*%
D13*
%TO.C,D17*%
X169785000Y-31115000D03*
X168035000Y-31115000D03*
%TD*%
D11*
%TO.C,R45*%
X233182500Y-129740000D03*
X235007500Y-129740000D03*
%TD*%
D13*
%TO.C,D7*%
X152005000Y-66040000D03*
X150255000Y-66040000D03*
%TD*%
D11*
%TO.C,R48*%
X243262500Y-111510000D03*
X245087500Y-111510000D03*
%TD*%
D21*
%TO.C,C6*%
X151765000Y-124692500D03*
X151765000Y-126767500D03*
%TD*%
D15*
%TO.C,R25*%
X173632500Y-33655000D03*
X171807500Y-33655000D03*
%TD*%
D20*
%TO.C,U2*%
X38065000Y-26035000D03*
X38065000Y-27305000D03*
X38065000Y-28575000D03*
X38065000Y-29845000D03*
X38065000Y-31115000D03*
X38065000Y-32385000D03*
X38065000Y-33655000D03*
X38065000Y-34925000D03*
X43215000Y-34925000D03*
X43215000Y-33655000D03*
X43215000Y-32385000D03*
X43215000Y-31115000D03*
X43215000Y-29845000D03*
X43215000Y-28575000D03*
X43215000Y-27305000D03*
X43215000Y-26035000D03*
%TD*%
D13*
%TO.C,D12*%
X169785000Y-43815000D03*
X168035000Y-43815000D03*
%TD*%
D11*
%TO.C,R47*%
X237992500Y-121710000D03*
X239817500Y-121710000D03*
%TD*%
D22*
%TO.C,U1*%
X153735000Y-93345000D03*
X153735000Y-94615000D03*
X153735000Y-95885000D03*
X153735000Y-97155000D03*
X153735000Y-98425000D03*
X153735000Y-99695000D03*
X153735000Y-100965000D03*
X158685000Y-100965000D03*
X158685000Y-99695000D03*
X158685000Y-98425000D03*
X158685000Y-97155000D03*
X158685000Y-95885000D03*
X158685000Y-94615000D03*
X158685000Y-93345000D03*
%TD*%
D15*
%TO.C,R30*%
X170457500Y-93980000D03*
X168632500Y-93980000D03*
%TD*%
D13*
%TO.C,D3*%
X152005000Y-76200000D03*
X150255000Y-76200000D03*
%TD*%
%TO.C,D24*%
X166610000Y-101600000D03*
X164860000Y-101600000D03*
%TD*%
D10*
%TO.C,R3*%
X151130000Y-96797500D03*
X151130000Y-94972500D03*
%TD*%
D11*
%TO.C,R36*%
X197842500Y-177800000D03*
X199667500Y-177800000D03*
%TD*%
M02*
