%TF.GenerationSoftware,KiCad,Pcbnew,(6.0.4)*%
%TF.CreationDate,2022-04-27T21:45:16+02:00*%
%TF.ProjectId,z80,7a38302e-6b69-4636-9164-5f7063625858,rev?*%
%TF.SameCoordinates,Original*%
%TF.FileFunction,Soldermask,Bot*%
%TF.FilePolarity,Negative*%
%FSLAX46Y46*%
G04 Gerber Fmt 4.6, Leading zero omitted, Abs format (unit mm)*
G04 Created by KiCad (PCBNEW (6.0.4)) date 2022-04-27 21:45:16*
%MOMM*%
%LPD*%
G01*
G04 APERTURE LIST*
%ADD10R,1.600000X1.600000*%
%ADD11O,1.600000X1.600000*%
%ADD12R,1.700000X1.700000*%
%ADD13O,1.700000X1.700000*%
%ADD14C,1.600000*%
G04 APERTURE END LIST*
D10*
%TO.C,CPU1*%
X132075000Y-52075000D03*
D11*
X132075000Y-54615000D03*
X132075000Y-57155000D03*
X132075000Y-59695000D03*
X132075000Y-62235000D03*
X132075000Y-64775000D03*
X132075000Y-67315000D03*
X132075000Y-69855000D03*
X132075000Y-72395000D03*
X132075000Y-74935000D03*
X132075000Y-77475000D03*
X132075000Y-80015000D03*
X132075000Y-82555000D03*
X132075000Y-85095000D03*
X132075000Y-87635000D03*
X132075000Y-90175000D03*
X132075000Y-92715000D03*
X132075000Y-95255000D03*
X132075000Y-97795000D03*
X132075000Y-100335000D03*
X147315000Y-100335000D03*
X147315000Y-97795000D03*
X147315000Y-95255000D03*
X147315000Y-92715000D03*
X147315000Y-90175000D03*
X147315000Y-87635000D03*
X147315000Y-85095000D03*
X147315000Y-82555000D03*
X147315000Y-80015000D03*
X147315000Y-77475000D03*
X147315000Y-74935000D03*
X147315000Y-72395000D03*
X147315000Y-69855000D03*
X147315000Y-67315000D03*
X147315000Y-64775000D03*
X147315000Y-62235000D03*
X147315000Y-59695000D03*
X147315000Y-57155000D03*
X147315000Y-54615000D03*
X147315000Y-52075000D03*
%TD*%
D10*
%TO.C,SW9*%
X27305000Y-79375000D03*
D11*
X27305000Y-81915000D03*
X27305000Y-84455000D03*
X27305000Y-86995000D03*
X27305000Y-89535000D03*
X27305000Y-92075000D03*
X27305000Y-94615000D03*
X27305000Y-97155000D03*
X34925000Y-97155000D03*
X34925000Y-94615000D03*
X34925000Y-92075000D03*
X34925000Y-89535000D03*
X34925000Y-86995000D03*
X34925000Y-84455000D03*
X34925000Y-81915000D03*
X34925000Y-79375000D03*
%TD*%
D10*
%TO.C,RAM1*%
X162555000Y-52055000D03*
D11*
X162555000Y-54595000D03*
X162555000Y-57135000D03*
X162555000Y-59675000D03*
X162555000Y-62215000D03*
X162555000Y-64755000D03*
X162555000Y-67295000D03*
X162555000Y-69835000D03*
X162555000Y-72375000D03*
X162555000Y-74915000D03*
X162555000Y-77455000D03*
X162555000Y-79995000D03*
X162555000Y-82535000D03*
X162555000Y-85075000D03*
X177795000Y-85075000D03*
X177795000Y-82535000D03*
X177795000Y-79995000D03*
X177795000Y-77455000D03*
X177795000Y-74915000D03*
X177795000Y-72375000D03*
X177795000Y-69835000D03*
X177795000Y-67295000D03*
X177795000Y-64755000D03*
X177795000Y-62215000D03*
X177795000Y-59675000D03*
X177795000Y-57135000D03*
X177795000Y-54595000D03*
X177795000Y-52055000D03*
%TD*%
D10*
%TO.C,SW10*%
X55475000Y-79375000D03*
D11*
X55475000Y-81915000D03*
X55475000Y-84455000D03*
X55475000Y-86995000D03*
X55475000Y-89535000D03*
X55475000Y-92075000D03*
X55475000Y-94615000D03*
X55475000Y-97155000D03*
X63095000Y-97155000D03*
X63095000Y-94615000D03*
X63095000Y-92075000D03*
X63095000Y-89535000D03*
X63095000Y-86995000D03*
X63095000Y-84455000D03*
X63095000Y-81915000D03*
X63095000Y-79375000D03*
%TD*%
D10*
%TO.C,ROM1*%
X101595000Y-52055000D03*
D11*
X101595000Y-54595000D03*
X101595000Y-57135000D03*
X101595000Y-59675000D03*
X101595000Y-62215000D03*
X101595000Y-64755000D03*
X101595000Y-67295000D03*
X101595000Y-69835000D03*
X101595000Y-72375000D03*
X101595000Y-74915000D03*
X101595000Y-77455000D03*
X101595000Y-79995000D03*
X101595000Y-82535000D03*
X101595000Y-85075000D03*
X116835000Y-85075000D03*
X116835000Y-82535000D03*
X116835000Y-79995000D03*
X116835000Y-77455000D03*
X116835000Y-74915000D03*
X116835000Y-72375000D03*
X116835000Y-69835000D03*
X116835000Y-67295000D03*
X116835000Y-64755000D03*
X116835000Y-62215000D03*
X116835000Y-59675000D03*
X116835000Y-57135000D03*
X116835000Y-54595000D03*
X116835000Y-52055000D03*
%TD*%
D12*
%TO.C,J1*%
X125725000Y-35560000D03*
D13*
X125725000Y-38100000D03*
X128265000Y-35560000D03*
X128265000Y-38100000D03*
X130805000Y-35560000D03*
X130805000Y-38100000D03*
X133345000Y-35560000D03*
X133345000Y-38100000D03*
X135885000Y-35560000D03*
X135885000Y-38100000D03*
X138425000Y-35560000D03*
X138425000Y-38100000D03*
X140965000Y-35560000D03*
X140965000Y-38100000D03*
X143505000Y-35560000D03*
X143505000Y-38100000D03*
X146045000Y-35560000D03*
X146045000Y-38100000D03*
X148585000Y-35560000D03*
X148585000Y-38100000D03*
X151125000Y-35560000D03*
X151125000Y-38100000D03*
X153665000Y-35560000D03*
X153665000Y-38100000D03*
X156205000Y-35560000D03*
X156205000Y-38100000D03*
X158745000Y-35560000D03*
X158745000Y-38100000D03*
X161285000Y-35560000D03*
X161285000Y-38100000D03*
X163825000Y-35560000D03*
X163825000Y-38100000D03*
%TD*%
D10*
%TO.C,SW14*%
X32000000Y-49545000D03*
D11*
X32000000Y-52085000D03*
X32000000Y-54625000D03*
X32000000Y-57165000D03*
X32000000Y-59705000D03*
X32000000Y-62245000D03*
X32000000Y-64785000D03*
X32000000Y-67325000D03*
X39620000Y-67325000D03*
X39620000Y-64785000D03*
X39620000Y-62245000D03*
X39620000Y-59705000D03*
X39620000Y-57165000D03*
X39620000Y-54625000D03*
X39620000Y-52085000D03*
X39620000Y-49545000D03*
%TD*%
D10*
%TO.C,CLK1*%
X137805000Y-111755000D03*
D11*
X137805000Y-114295000D03*
X137805000Y-116835000D03*
X137805000Y-119375000D03*
X137805000Y-121915000D03*
X137805000Y-124455000D03*
X137805000Y-126995000D03*
X145425000Y-126995000D03*
X145425000Y-124455000D03*
X145425000Y-121915000D03*
X145425000Y-119375000D03*
X145425000Y-116835000D03*
X145425000Y-114295000D03*
X145425000Y-111755000D03*
%TD*%
D10*
%TO.C,SW13*%
X17800000Y-49545000D03*
D11*
X17800000Y-52085000D03*
X17800000Y-54625000D03*
X17800000Y-57165000D03*
X17800000Y-59705000D03*
X17800000Y-62245000D03*
X17800000Y-64785000D03*
X17800000Y-67325000D03*
X25420000Y-67325000D03*
X25420000Y-64785000D03*
X25420000Y-62245000D03*
X25420000Y-59705000D03*
X25420000Y-57165000D03*
X25420000Y-54625000D03*
X25420000Y-52085000D03*
X25420000Y-49545000D03*
%TD*%
D10*
%TO.C,A1*%
X45715000Y-41905000D03*
D11*
X45715000Y-44445000D03*
X45715000Y-46985000D03*
X45715000Y-49525000D03*
X45715000Y-52065000D03*
X45715000Y-54605000D03*
X45715000Y-57145000D03*
X45715000Y-59685000D03*
X45715000Y-62225000D03*
X45715000Y-64765000D03*
X45715000Y-67305000D03*
X45715000Y-69845000D03*
X60955000Y-69845000D03*
X60955000Y-67305000D03*
X60955000Y-64765000D03*
X60955000Y-62225000D03*
X60955000Y-59685000D03*
X60955000Y-57145000D03*
X60955000Y-54605000D03*
X60955000Y-52065000D03*
X60955000Y-49525000D03*
X60955000Y-46985000D03*
X60955000Y-44445000D03*
X60955000Y-41905000D03*
%TD*%
D10*
%TO.C,SW5*%
X104155000Y-98810000D03*
D11*
X106695000Y-98810000D03*
X109235000Y-98810000D03*
X111775000Y-98810000D03*
X114315000Y-98810000D03*
X116855000Y-98810000D03*
X119395000Y-98810000D03*
X121935000Y-98810000D03*
X121935000Y-91190000D03*
X119395000Y-91190000D03*
X116855000Y-91190000D03*
X114315000Y-91190000D03*
X111775000Y-91190000D03*
X109235000Y-91190000D03*
X106695000Y-91190000D03*
X104155000Y-91190000D03*
%TD*%
D10*
%TO.C,SW12*%
X41275000Y-79375000D03*
D11*
X41275000Y-81915000D03*
X41275000Y-84455000D03*
X41275000Y-86995000D03*
X41275000Y-89535000D03*
X41275000Y-92075000D03*
X41275000Y-94615000D03*
X41275000Y-97155000D03*
X48895000Y-97155000D03*
X48895000Y-94615000D03*
X48895000Y-92075000D03*
X48895000Y-89535000D03*
X48895000Y-86995000D03*
X48895000Y-84455000D03*
X48895000Y-81915000D03*
X48895000Y-79375000D03*
%TD*%
D10*
%TO.C,X8.000Mhz1*%
X166370000Y-113030000D03*
D14*
X151130000Y-113030000D03*
X151130000Y-120650000D03*
X166370000Y-120650000D03*
%TD*%
D12*
%TO.C,J2*%
X23565000Y-115565000D03*
D13*
X26105000Y-115565000D03*
X23565000Y-118105000D03*
X26105000Y-118105000D03*
X23565000Y-120645000D03*
X26105000Y-120645000D03*
X23565000Y-123185000D03*
X26105000Y-123185000D03*
X23565000Y-125725000D03*
X26105000Y-125725000D03*
X23565000Y-128265000D03*
X26105000Y-128265000D03*
X23565000Y-130805000D03*
X26105000Y-130805000D03*
X23565000Y-133345000D03*
X26105000Y-133345000D03*
X23565000Y-135885000D03*
X26105000Y-135885000D03*
X23565000Y-138425000D03*
X26105000Y-138425000D03*
X23565000Y-140965000D03*
X26105000Y-140965000D03*
X23565000Y-143505000D03*
X26105000Y-143505000D03*
X23565000Y-146045000D03*
X26105000Y-146045000D03*
X23565000Y-148585000D03*
X26105000Y-148585000D03*
X23565000Y-151125000D03*
X26105000Y-151125000D03*
X23565000Y-153665000D03*
X26105000Y-153665000D03*
%TD*%
D10*
%TO.C,U23*%
X40635000Y-151130000D03*
D11*
X40635000Y-153670000D03*
X40635000Y-156210000D03*
X40635000Y-158750000D03*
X40635000Y-161290000D03*
X40635000Y-163830000D03*
X40635000Y-166370000D03*
X40635000Y-168910000D03*
X40635000Y-171450000D03*
X40635000Y-173990000D03*
X40635000Y-176530000D03*
X40635000Y-179070000D03*
X40635000Y-181610000D03*
X40635000Y-184150000D03*
X40635000Y-186690000D03*
X40635000Y-189230000D03*
X55875000Y-189230000D03*
X55875000Y-186690000D03*
X55875000Y-184150000D03*
X55875000Y-181610000D03*
X55875000Y-179070000D03*
X55875000Y-176530000D03*
X55875000Y-173990000D03*
X55875000Y-171450000D03*
X55875000Y-168910000D03*
X55875000Y-166370000D03*
X55875000Y-163830000D03*
X55875000Y-161290000D03*
X55875000Y-158750000D03*
X55875000Y-156210000D03*
X55875000Y-153670000D03*
X55875000Y-151130000D03*
%TD*%
M02*
