%TF.GenerationSoftware,KiCad,Pcbnew,(6.0.4)*%
%TF.CreationDate,2022-04-27T21:45:15+02:00*%
%TF.ProjectId,z80,7a38302e-6b69-4636-9164-5f7063625858,rev?*%
%TF.SameCoordinates,Original*%
%TF.FileFunction,Legend,Top*%
%TF.FilePolarity,Positive*%
%FSLAX46Y46*%
G04 Gerber Fmt 4.6, Leading zero omitted, Abs format (unit mm)*
G04 Created by KiCad (PCBNEW (6.0.4)) date 2022-04-27 21:45:15*
%MOMM*%
%LPD*%
G01*
G04 APERTURE LIST*
%ADD10C,0.300000*%
%ADD11C,0.150000*%
%ADD12C,0.125000*%
%ADD13C,0.120000*%
%ADD14C,0.381000*%
G04 APERTURE END LIST*
D10*
X157043571Y-61210000D02*
X157757857Y-61210000D01*
X156900714Y-61638571D02*
X157400714Y-60138571D01*
X157900714Y-61638571D01*
X159043571Y-60138571D02*
X158757857Y-60138571D01*
X158615000Y-60210000D01*
X158543571Y-60281428D01*
X158400714Y-60495714D01*
X158329285Y-60781428D01*
X158329285Y-61352857D01*
X158400714Y-61495714D01*
X158472142Y-61567142D01*
X158615000Y-61638571D01*
X158900714Y-61638571D01*
X159043571Y-61567142D01*
X159115000Y-61495714D01*
X159186428Y-61352857D01*
X159186428Y-60995714D01*
X159115000Y-60852857D01*
X159043571Y-60781428D01*
X158900714Y-60710000D01*
X158615000Y-60710000D01*
X158472142Y-60781428D01*
X158400714Y-60852857D01*
X158329285Y-60995714D01*
X157043571Y-68830000D02*
X157757857Y-68830000D01*
X156900714Y-69258571D02*
X157400714Y-67758571D01*
X157900714Y-69258571D01*
X158257857Y-67758571D02*
X159186428Y-67758571D01*
X158686428Y-68330000D01*
X158900714Y-68330000D01*
X159043571Y-68401428D01*
X159115000Y-68472857D01*
X159186428Y-68615714D01*
X159186428Y-68972857D01*
X159115000Y-69115714D01*
X159043571Y-69187142D01*
X158900714Y-69258571D01*
X158472142Y-69258571D01*
X158329285Y-69187142D01*
X158257857Y-69115714D01*
X174823571Y-44065000D02*
X175537857Y-44065000D01*
X174680714Y-44493571D02*
X175180714Y-42993571D01*
X175680714Y-44493571D01*
X176252142Y-44493571D02*
X176537857Y-44493571D01*
X176680714Y-44422142D01*
X176752142Y-44350714D01*
X176895000Y-44136428D01*
X176966428Y-43850714D01*
X176966428Y-43279285D01*
X176895000Y-43136428D01*
X176823571Y-43065000D01*
X176680714Y-42993571D01*
X176395000Y-42993571D01*
X176252142Y-43065000D01*
X176180714Y-43136428D01*
X176109285Y-43279285D01*
X176109285Y-43636428D01*
X176180714Y-43779285D01*
X176252142Y-43850714D01*
X176395000Y-43922142D01*
X176680714Y-43922142D01*
X176823571Y-43850714D01*
X176895000Y-43779285D01*
X176966428Y-43636428D01*
X157043571Y-73910000D02*
X157757857Y-73910000D01*
X156900714Y-74338571D02*
X157400714Y-72838571D01*
X157900714Y-74338571D01*
X159186428Y-74338571D02*
X158329285Y-74338571D01*
X158757857Y-74338571D02*
X158757857Y-72838571D01*
X158615000Y-73052857D01*
X158472142Y-73195714D01*
X158329285Y-73267142D01*
X171612857Y-97198571D02*
X171612857Y-95698571D01*
X171970000Y-95698571D01*
X172184285Y-95770000D01*
X172327142Y-95912857D01*
X172398571Y-96055714D01*
X172470000Y-96341428D01*
X172470000Y-96555714D01*
X172398571Y-96841428D01*
X172327142Y-96984285D01*
X172184285Y-97127142D01*
X171970000Y-97198571D01*
X171612857Y-97198571D01*
X172970000Y-95698571D02*
X173898571Y-95698571D01*
X173398571Y-96270000D01*
X173612857Y-96270000D01*
X173755714Y-96341428D01*
X173827142Y-96412857D01*
X173898571Y-96555714D01*
X173898571Y-96912857D01*
X173827142Y-97055714D01*
X173755714Y-97127142D01*
X173612857Y-97198571D01*
X173184285Y-97198571D01*
X173041428Y-97127142D01*
X172970000Y-97055714D01*
X232514285Y-150871071D02*
X233300000Y-150871071D01*
X232514285Y-151871071D01*
X233300000Y-151871071D01*
X234085714Y-151013928D02*
X233942857Y-150942500D01*
X233871428Y-150871071D01*
X233800000Y-150728214D01*
X233800000Y-150656785D01*
X233871428Y-150513928D01*
X233942857Y-150442500D01*
X234085714Y-150371071D01*
X234371428Y-150371071D01*
X234514285Y-150442500D01*
X234585714Y-150513928D01*
X234657142Y-150656785D01*
X234657142Y-150728214D01*
X234585714Y-150871071D01*
X234514285Y-150942500D01*
X234371428Y-151013928D01*
X234085714Y-151013928D01*
X233942857Y-151085357D01*
X233871428Y-151156785D01*
X233800000Y-151299642D01*
X233800000Y-151585357D01*
X233871428Y-151728214D01*
X233942857Y-151799642D01*
X234085714Y-151871071D01*
X234371428Y-151871071D01*
X234514285Y-151799642D01*
X234585714Y-151728214D01*
X234657142Y-151585357D01*
X234657142Y-151299642D01*
X234585714Y-151156785D01*
X234514285Y-151085357D01*
X234371428Y-151013928D01*
X235585714Y-150371071D02*
X235728571Y-150371071D01*
X235871428Y-150442500D01*
X235942857Y-150513928D01*
X236014285Y-150656785D01*
X236085714Y-150942500D01*
X236085714Y-151299642D01*
X236014285Y-151585357D01*
X235942857Y-151728214D01*
X235871428Y-151799642D01*
X235728571Y-151871071D01*
X235585714Y-151871071D01*
X235442857Y-151799642D01*
X235371428Y-151728214D01*
X235300000Y-151585357D01*
X235228571Y-151299642D01*
X235228571Y-150942500D01*
X235300000Y-150656785D01*
X235371428Y-150513928D01*
X235442857Y-150442500D01*
X235585714Y-150371071D01*
X237871428Y-151871071D02*
X237871428Y-150371071D01*
X238371428Y-151442500D01*
X238871428Y-150371071D01*
X238871428Y-151871071D01*
X240228571Y-151871071D02*
X240228571Y-151085357D01*
X240157142Y-150942500D01*
X240014285Y-150871071D01*
X239728571Y-150871071D01*
X239585714Y-150942500D01*
X240228571Y-151799642D02*
X240085714Y-151871071D01*
X239728571Y-151871071D01*
X239585714Y-151799642D01*
X239514285Y-151656785D01*
X239514285Y-151513928D01*
X239585714Y-151371071D01*
X239728571Y-151299642D01*
X240085714Y-151299642D01*
X240228571Y-151228214D01*
X240942857Y-151871071D02*
X240942857Y-150871071D01*
X240942857Y-150371071D02*
X240871428Y-150442500D01*
X240942857Y-150513928D01*
X241014285Y-150442500D01*
X240942857Y-150371071D01*
X240942857Y-150513928D01*
X241657142Y-150871071D02*
X241657142Y-151871071D01*
X241657142Y-151013928D02*
X241728571Y-150942500D01*
X241871428Y-150871071D01*
X242085714Y-150871071D01*
X242228571Y-150942500D01*
X242300000Y-151085357D01*
X242300000Y-151871071D01*
X244657142Y-151085357D02*
X244871428Y-151156785D01*
X244942857Y-151228214D01*
X245014285Y-151371071D01*
X245014285Y-151585357D01*
X244942857Y-151728214D01*
X244871428Y-151799642D01*
X244728571Y-151871071D01*
X244157142Y-151871071D01*
X244157142Y-150371071D01*
X244657142Y-150371071D01*
X244800000Y-150442500D01*
X244871428Y-150513928D01*
X244942857Y-150656785D01*
X244942857Y-150799642D01*
X244871428Y-150942500D01*
X244800000Y-151013928D01*
X244657142Y-151085357D01*
X244157142Y-151085357D01*
X245871428Y-151871071D02*
X245728571Y-151799642D01*
X245657142Y-151728214D01*
X245585714Y-151585357D01*
X245585714Y-151156785D01*
X245657142Y-151013928D01*
X245728571Y-150942500D01*
X245871428Y-150871071D01*
X246085714Y-150871071D01*
X246228571Y-150942500D01*
X246300000Y-151013928D01*
X246371428Y-151156785D01*
X246371428Y-151585357D01*
X246300000Y-151728214D01*
X246228571Y-151799642D01*
X246085714Y-151871071D01*
X245871428Y-151871071D01*
X247657142Y-151871071D02*
X247657142Y-151085357D01*
X247585714Y-150942500D01*
X247442857Y-150871071D01*
X247157142Y-150871071D01*
X247014285Y-150942500D01*
X247657142Y-151799642D02*
X247514285Y-151871071D01*
X247157142Y-151871071D01*
X247014285Y-151799642D01*
X246942857Y-151656785D01*
X246942857Y-151513928D01*
X247014285Y-151371071D01*
X247157142Y-151299642D01*
X247514285Y-151299642D01*
X247657142Y-151228214D01*
X248371428Y-151871071D02*
X248371428Y-150871071D01*
X248371428Y-151156785D02*
X248442857Y-151013928D01*
X248514285Y-150942500D01*
X248657142Y-150871071D01*
X248800000Y-150871071D01*
X249942857Y-151871071D02*
X249942857Y-150371071D01*
X249942857Y-151799642D02*
X249800000Y-151871071D01*
X249514285Y-151871071D01*
X249371428Y-151799642D01*
X249300000Y-151728214D01*
X249228571Y-151585357D01*
X249228571Y-151156785D01*
X249300000Y-151013928D01*
X249371428Y-150942500D01*
X249514285Y-150871071D01*
X249800000Y-150871071D01*
X249942857Y-150942500D01*
X211371428Y-154286071D02*
X211371428Y-152786071D01*
X211728571Y-152786071D01*
X211942857Y-152857500D01*
X212085714Y-153000357D01*
X212157142Y-153143214D01*
X212228571Y-153428928D01*
X212228571Y-153643214D01*
X212157142Y-153928928D01*
X212085714Y-154071785D01*
X211942857Y-154214642D01*
X211728571Y-154286071D01*
X211371428Y-154286071D01*
X213442857Y-154214642D02*
X213300000Y-154286071D01*
X213014285Y-154286071D01*
X212871428Y-154214642D01*
X212800000Y-154071785D01*
X212800000Y-153500357D01*
X212871428Y-153357500D01*
X213014285Y-153286071D01*
X213300000Y-153286071D01*
X213442857Y-153357500D01*
X213514285Y-153500357D01*
X213514285Y-153643214D01*
X212800000Y-153786071D01*
X214085714Y-154214642D02*
X214228571Y-154286071D01*
X214514285Y-154286071D01*
X214657142Y-154214642D01*
X214728571Y-154071785D01*
X214728571Y-154000357D01*
X214657142Y-153857500D01*
X214514285Y-153786071D01*
X214300000Y-153786071D01*
X214157142Y-153714642D01*
X214085714Y-153571785D01*
X214085714Y-153500357D01*
X214157142Y-153357500D01*
X214300000Y-153286071D01*
X214514285Y-153286071D01*
X214657142Y-153357500D01*
X215371428Y-154286071D02*
X215371428Y-153286071D01*
X215371428Y-152786071D02*
X215300000Y-152857500D01*
X215371428Y-152928928D01*
X215442857Y-152857500D01*
X215371428Y-152786071D01*
X215371428Y-152928928D01*
X216728571Y-153286071D02*
X216728571Y-154500357D01*
X216657142Y-154643214D01*
X216585714Y-154714642D01*
X216442857Y-154786071D01*
X216228571Y-154786071D01*
X216085714Y-154714642D01*
X216728571Y-154214642D02*
X216585714Y-154286071D01*
X216300000Y-154286071D01*
X216157142Y-154214642D01*
X216085714Y-154143214D01*
X216014285Y-154000357D01*
X216014285Y-153571785D01*
X216085714Y-153428928D01*
X216157142Y-153357500D01*
X216300000Y-153286071D01*
X216585714Y-153286071D01*
X216728571Y-153357500D01*
X217442857Y-153286071D02*
X217442857Y-154286071D01*
X217442857Y-153428928D02*
X217514285Y-153357500D01*
X217657142Y-153286071D01*
X217871428Y-153286071D01*
X218014285Y-153357500D01*
X218085714Y-153500357D01*
X218085714Y-154286071D01*
X219371428Y-154214642D02*
X219228571Y-154286071D01*
X218942857Y-154286071D01*
X218800000Y-154214642D01*
X218728571Y-154071785D01*
X218728571Y-153500357D01*
X218800000Y-153357500D01*
X218942857Y-153286071D01*
X219228571Y-153286071D01*
X219371428Y-153357500D01*
X219442857Y-153500357D01*
X219442857Y-153643214D01*
X218728571Y-153786071D01*
X220728571Y-154286071D02*
X220728571Y-152786071D01*
X220728571Y-154214642D02*
X220585714Y-154286071D01*
X220300000Y-154286071D01*
X220157142Y-154214642D01*
X220085714Y-154143214D01*
X220014285Y-154000357D01*
X220014285Y-153571785D01*
X220085714Y-153428928D01*
X220157142Y-153357500D01*
X220300000Y-153286071D01*
X220585714Y-153286071D01*
X220728571Y-153357500D01*
X222585714Y-154286071D02*
X222585714Y-152786071D01*
X222585714Y-153357500D02*
X222728571Y-153286071D01*
X223014285Y-153286071D01*
X223157142Y-153357500D01*
X223228571Y-153428928D01*
X223300000Y-153571785D01*
X223300000Y-154000357D01*
X223228571Y-154143214D01*
X223157142Y-154214642D01*
X223014285Y-154286071D01*
X222728571Y-154286071D01*
X222585714Y-154214642D01*
X223800000Y-153286071D02*
X224157142Y-154286071D01*
X224514285Y-153286071D02*
X224157142Y-154286071D01*
X224014285Y-154643214D01*
X223942857Y-154714642D01*
X223800000Y-154786071D01*
X226014285Y-152786071D02*
X226871428Y-152786071D01*
X226442857Y-154286071D02*
X226442857Y-152786071D01*
X227371428Y-154286071D02*
X227371428Y-153286071D01*
X227371428Y-153571785D02*
X227442857Y-153428928D01*
X227514285Y-153357500D01*
X227657142Y-153286071D01*
X227800000Y-153286071D01*
X228300000Y-154286071D02*
X228300000Y-153286071D01*
X228300000Y-152786071D02*
X228228571Y-152857500D01*
X228300000Y-152928928D01*
X228371428Y-152857500D01*
X228300000Y-152786071D01*
X228300000Y-152928928D01*
X228942857Y-154214642D02*
X229085714Y-154286071D01*
X229371428Y-154286071D01*
X229514285Y-154214642D01*
X229585714Y-154071785D01*
X229585714Y-154000357D01*
X229514285Y-153857500D01*
X229371428Y-153786071D01*
X229157142Y-153786071D01*
X229014285Y-153714642D01*
X228942857Y-153571785D01*
X228942857Y-153500357D01*
X229014285Y-153357500D01*
X229157142Y-153286071D01*
X229371428Y-153286071D01*
X229514285Y-153357500D01*
X230014285Y-153286071D02*
X230585714Y-153286071D01*
X230228571Y-152786071D02*
X230228571Y-154071785D01*
X230300000Y-154214642D01*
X230442857Y-154286071D01*
X230585714Y-154286071D01*
X231728571Y-154286071D02*
X231728571Y-153500357D01*
X231657142Y-153357500D01*
X231514285Y-153286071D01*
X231228571Y-153286071D01*
X231085714Y-153357500D01*
X231728571Y-154214642D02*
X231585714Y-154286071D01*
X231228571Y-154286071D01*
X231085714Y-154214642D01*
X231014285Y-154071785D01*
X231014285Y-153928928D01*
X231085714Y-153786071D01*
X231228571Y-153714642D01*
X231585714Y-153714642D01*
X231728571Y-153643214D01*
X232442857Y-153286071D02*
X232442857Y-154286071D01*
X232442857Y-153428928D02*
X232514285Y-153357500D01*
X232657142Y-153286071D01*
X232871428Y-153286071D01*
X233014285Y-153357500D01*
X233085714Y-153500357D01*
X233085714Y-154286071D01*
X234800000Y-153286071D02*
X235157142Y-154286071D01*
X235514285Y-153286071D01*
X236728571Y-154286071D02*
X236728571Y-153500357D01*
X236657142Y-153357500D01*
X236514285Y-153286071D01*
X236228571Y-153286071D01*
X236085714Y-153357500D01*
X236728571Y-154214642D02*
X236585714Y-154286071D01*
X236228571Y-154286071D01*
X236085714Y-154214642D01*
X236014285Y-154071785D01*
X236014285Y-153928928D01*
X236085714Y-153786071D01*
X236228571Y-153714642D01*
X236585714Y-153714642D01*
X236728571Y-153643214D01*
X237442857Y-153286071D02*
X237442857Y-154286071D01*
X237442857Y-153428928D02*
X237514285Y-153357500D01*
X237657142Y-153286071D01*
X237871428Y-153286071D01*
X238014285Y-153357500D01*
X238085714Y-153500357D01*
X238085714Y-154286071D01*
X240585714Y-154286071D02*
X240585714Y-152786071D01*
X240585714Y-154214642D02*
X240442857Y-154286071D01*
X240157142Y-154286071D01*
X240014285Y-154214642D01*
X239942857Y-154143214D01*
X239871428Y-154000357D01*
X239871428Y-153571785D01*
X239942857Y-153428928D01*
X240014285Y-153357500D01*
X240157142Y-153286071D01*
X240442857Y-153286071D01*
X240585714Y-153357500D01*
X241871428Y-154214642D02*
X241728571Y-154286071D01*
X241442857Y-154286071D01*
X241300000Y-154214642D01*
X241228571Y-154071785D01*
X241228571Y-153500357D01*
X241300000Y-153357500D01*
X241442857Y-153286071D01*
X241728571Y-153286071D01*
X241871428Y-153357500D01*
X241942857Y-153500357D01*
X241942857Y-153643214D01*
X241228571Y-153786071D01*
X243585714Y-152786071D02*
X243942857Y-154286071D01*
X244228571Y-153214642D01*
X244514285Y-154286071D01*
X244871428Y-152786071D01*
X246014285Y-154214642D02*
X245871428Y-154286071D01*
X245585714Y-154286071D01*
X245442857Y-154214642D01*
X245371428Y-154071785D01*
X245371428Y-153500357D01*
X245442857Y-153357500D01*
X245585714Y-153286071D01*
X245871428Y-153286071D01*
X246014285Y-153357500D01*
X246085714Y-153500357D01*
X246085714Y-153643214D01*
X245371428Y-153786071D01*
X247371428Y-153286071D02*
X247371428Y-154500357D01*
X247300000Y-154643214D01*
X247228571Y-154714642D01*
X247085714Y-154786071D01*
X246871428Y-154786071D01*
X246728571Y-154714642D01*
X247371428Y-154214642D02*
X247228571Y-154286071D01*
X246942857Y-154286071D01*
X246800000Y-154214642D01*
X246728571Y-154143214D01*
X246657142Y-154000357D01*
X246657142Y-153571785D01*
X246728571Y-153428928D01*
X246800000Y-153357500D01*
X246942857Y-153286071D01*
X247228571Y-153286071D01*
X247371428Y-153357500D01*
X250442857Y-154286071D02*
X250371428Y-154286071D01*
X250228571Y-154214642D01*
X250014285Y-154000357D01*
X249657142Y-153571785D01*
X249514285Y-153357500D01*
X249442857Y-153143214D01*
X249442857Y-153000357D01*
X249514285Y-152857500D01*
X249657142Y-152786071D01*
X249728571Y-152786071D01*
X249871428Y-152857500D01*
X249942857Y-153000357D01*
X249942857Y-153071785D01*
X249871428Y-153214642D01*
X249800000Y-153286071D01*
X249371428Y-153571785D01*
X249300000Y-153643214D01*
X249228571Y-153786071D01*
X249228571Y-154000357D01*
X249300000Y-154143214D01*
X249371428Y-154214642D01*
X249514285Y-154286071D01*
X249728571Y-154286071D01*
X249871428Y-154214642D01*
X249942857Y-154143214D01*
X250157142Y-153857500D01*
X250228571Y-153643214D01*
X250228571Y-153500357D01*
X252228571Y-154286071D02*
X252228571Y-152786071D01*
X252728571Y-153857500D01*
X253228571Y-152786071D01*
X253228571Y-154286071D01*
X254585714Y-154286071D02*
X254585714Y-153500357D01*
X254514285Y-153357500D01*
X254371428Y-153286071D01*
X254085714Y-153286071D01*
X253942857Y-153357500D01*
X254585714Y-154214642D02*
X254442857Y-154286071D01*
X254085714Y-154286071D01*
X253942857Y-154214642D01*
X253871428Y-154071785D01*
X253871428Y-153928928D01*
X253942857Y-153786071D01*
X254085714Y-153714642D01*
X254442857Y-153714642D01*
X254585714Y-153643214D01*
X255300000Y-154286071D02*
X255300000Y-153286071D01*
X255300000Y-153571785D02*
X255371428Y-153428928D01*
X255442857Y-153357500D01*
X255585714Y-153286071D01*
X255728571Y-153286071D01*
X256228571Y-154286071D02*
X256228571Y-153286071D01*
X256228571Y-152786071D02*
X256157142Y-152857500D01*
X256228571Y-152928928D01*
X256300000Y-152857500D01*
X256228571Y-152786071D01*
X256228571Y-152928928D01*
X256942857Y-153286071D02*
X256942857Y-154571785D01*
X256871428Y-154714642D01*
X256728571Y-154786071D01*
X256657142Y-154786071D01*
X256942857Y-152786071D02*
X256871428Y-152857500D01*
X256942857Y-152928928D01*
X257014285Y-152857500D01*
X256942857Y-152786071D01*
X256942857Y-152928928D01*
X257657142Y-153286071D02*
X257657142Y-154286071D01*
X257657142Y-153428928D02*
X257728571Y-153357500D01*
X257871428Y-153286071D01*
X258085714Y-153286071D01*
X258228571Y-153357500D01*
X258300000Y-153500357D01*
X258300000Y-154286071D01*
X259942857Y-152786071D02*
X260442857Y-154286071D01*
X260942857Y-152786071D01*
X261657142Y-154286071D02*
X261514285Y-154214642D01*
X261442857Y-154143214D01*
X261371428Y-154000357D01*
X261371428Y-153571785D01*
X261442857Y-153428928D01*
X261514285Y-153357500D01*
X261657142Y-153286071D01*
X261871428Y-153286071D01*
X262014285Y-153357500D01*
X262085714Y-153428928D01*
X262157142Y-153571785D01*
X262157142Y-154000357D01*
X262085714Y-154143214D01*
X262014285Y-154214642D01*
X261871428Y-154286071D01*
X261657142Y-154286071D01*
X263014285Y-154286071D02*
X262871428Y-154214642D01*
X262800000Y-154071785D01*
X262800000Y-152786071D01*
X263800000Y-154286071D02*
X263657142Y-154214642D01*
X263585714Y-154071785D01*
X263585714Y-152786071D01*
X264942857Y-154214642D02*
X264800000Y-154286071D01*
X264514285Y-154286071D01*
X264371428Y-154214642D01*
X264300000Y-154071785D01*
X264300000Y-153500357D01*
X264371428Y-153357500D01*
X264514285Y-153286071D01*
X264800000Y-153286071D01*
X264942857Y-153357500D01*
X265014285Y-153500357D01*
X265014285Y-153643214D01*
X264300000Y-153786071D01*
X265657142Y-153286071D02*
X265657142Y-154286071D01*
X265657142Y-153428928D02*
X265728571Y-153357500D01*
X265871428Y-153286071D01*
X266085714Y-153286071D01*
X266228571Y-153357500D01*
X266300000Y-153500357D01*
X266300000Y-154286071D01*
X267014285Y-154286071D02*
X267014285Y-152786071D01*
X267014285Y-153357500D02*
X267157142Y-153286071D01*
X267442857Y-153286071D01*
X267585714Y-153357500D01*
X267657142Y-153428928D01*
X267728571Y-153571785D01*
X267728571Y-154000357D01*
X267657142Y-154143214D01*
X267585714Y-154214642D01*
X267442857Y-154286071D01*
X267157142Y-154286071D01*
X267014285Y-154214642D01*
X268942857Y-154214642D02*
X268800000Y-154286071D01*
X268514285Y-154286071D01*
X268371428Y-154214642D01*
X268300000Y-154071785D01*
X268300000Y-153500357D01*
X268371428Y-153357500D01*
X268514285Y-153286071D01*
X268800000Y-153286071D01*
X268942857Y-153357500D01*
X269014285Y-153500357D01*
X269014285Y-153643214D01*
X268300000Y-153786071D01*
X269657142Y-154286071D02*
X269657142Y-153286071D01*
X269657142Y-153571785D02*
X269728571Y-153428928D01*
X269800000Y-153357500D01*
X269942857Y-153286071D01*
X270085714Y-153286071D01*
X271228571Y-153286071D02*
X271228571Y-154500357D01*
X271157142Y-154643214D01*
X271085714Y-154714642D01*
X270942857Y-154786071D01*
X270728571Y-154786071D01*
X270585714Y-154714642D01*
X271228571Y-154214642D02*
X271085714Y-154286071D01*
X270800000Y-154286071D01*
X270657142Y-154214642D01*
X270585714Y-154143214D01*
X270514285Y-154000357D01*
X270514285Y-153571785D01*
X270585714Y-153428928D01*
X270657142Y-153357500D01*
X270800000Y-153286071D01*
X271085714Y-153286071D01*
X271228571Y-153357500D01*
X174744285Y-28825000D02*
X175458571Y-28825000D01*
X174601428Y-29253571D02*
X175101428Y-27753571D01*
X175601428Y-29253571D01*
X176887142Y-29253571D02*
X176030000Y-29253571D01*
X176458571Y-29253571D02*
X176458571Y-27753571D01*
X176315714Y-27967857D01*
X176172857Y-28110714D01*
X176030000Y-28182142D01*
X178244285Y-27753571D02*
X177530000Y-27753571D01*
X177458571Y-28467857D01*
X177530000Y-28396428D01*
X177672857Y-28325000D01*
X178030000Y-28325000D01*
X178172857Y-28396428D01*
X178244285Y-28467857D01*
X178315714Y-28610714D01*
X178315714Y-28967857D01*
X178244285Y-29110714D01*
X178172857Y-29182142D01*
X178030000Y-29253571D01*
X177672857Y-29253571D01*
X177530000Y-29182142D01*
X177458571Y-29110714D01*
X174744285Y-36445000D02*
X175458571Y-36445000D01*
X174601428Y-36873571D02*
X175101428Y-35373571D01*
X175601428Y-36873571D01*
X176887142Y-36873571D02*
X176030000Y-36873571D01*
X176458571Y-36873571D02*
X176458571Y-35373571D01*
X176315714Y-35587857D01*
X176172857Y-35730714D01*
X176030000Y-35802142D01*
X177458571Y-35516428D02*
X177530000Y-35445000D01*
X177672857Y-35373571D01*
X178030000Y-35373571D01*
X178172857Y-35445000D01*
X178244285Y-35516428D01*
X178315714Y-35659285D01*
X178315714Y-35802142D01*
X178244285Y-36016428D01*
X177387142Y-36873571D01*
X178315714Y-36873571D01*
X171612857Y-104818571D02*
X171612857Y-103318571D01*
X171970000Y-103318571D01*
X172184285Y-103390000D01*
X172327142Y-103532857D01*
X172398571Y-103675714D01*
X172470000Y-103961428D01*
X172470000Y-104175714D01*
X172398571Y-104461428D01*
X172327142Y-104604285D01*
X172184285Y-104747142D01*
X171970000Y-104818571D01*
X171612857Y-104818571D01*
X173755714Y-103318571D02*
X173470000Y-103318571D01*
X173327142Y-103390000D01*
X173255714Y-103461428D01*
X173112857Y-103675714D01*
X173041428Y-103961428D01*
X173041428Y-104532857D01*
X173112857Y-104675714D01*
X173184285Y-104747142D01*
X173327142Y-104818571D01*
X173612857Y-104818571D01*
X173755714Y-104747142D01*
X173827142Y-104675714D01*
X173898571Y-104532857D01*
X173898571Y-104175714D01*
X173827142Y-104032857D01*
X173755714Y-103961428D01*
X173612857Y-103890000D01*
X173327142Y-103890000D01*
X173184285Y-103961428D01*
X173112857Y-104032857D01*
X173041428Y-104175714D01*
X171585581Y-94658571D02*
X171585581Y-93158571D01*
X171942724Y-93158571D01*
X172157009Y-93230000D01*
X172299866Y-93372857D01*
X172371295Y-93515714D01*
X172442724Y-93801428D01*
X172442724Y-94015714D01*
X172371295Y-94301428D01*
X172299866Y-94444285D01*
X172157009Y-94587142D01*
X171942724Y-94658571D01*
X171585581Y-94658571D01*
X173014152Y-93301428D02*
X173085581Y-93230000D01*
X173228438Y-93158571D01*
X173585581Y-93158571D01*
X173728438Y-93230000D01*
X173799866Y-93301428D01*
X173871295Y-93444285D01*
X173871295Y-93587142D01*
X173799866Y-93801428D01*
X172942724Y-94658571D01*
X173871295Y-94658571D01*
X174823571Y-46605000D02*
X175537857Y-46605000D01*
X174680714Y-47033571D02*
X175180714Y-45533571D01*
X175680714Y-47033571D01*
X176395000Y-46176428D02*
X176252142Y-46105000D01*
X176180714Y-46033571D01*
X176109285Y-45890714D01*
X176109285Y-45819285D01*
X176180714Y-45676428D01*
X176252142Y-45605000D01*
X176395000Y-45533571D01*
X176680714Y-45533571D01*
X176823571Y-45605000D01*
X176895000Y-45676428D01*
X176966428Y-45819285D01*
X176966428Y-45890714D01*
X176895000Y-46033571D01*
X176823571Y-46105000D01*
X176680714Y-46176428D01*
X176395000Y-46176428D01*
X176252142Y-46247857D01*
X176180714Y-46319285D01*
X176109285Y-46462142D01*
X176109285Y-46747857D01*
X176180714Y-46890714D01*
X176252142Y-46962142D01*
X176395000Y-47033571D01*
X176680714Y-47033571D01*
X176823571Y-46962142D01*
X176895000Y-46890714D01*
X176966428Y-46747857D01*
X176966428Y-46462142D01*
X176895000Y-46319285D01*
X176823571Y-46247857D01*
X176680714Y-46176428D01*
X157043571Y-76450000D02*
X157757857Y-76450000D01*
X156900714Y-76878571D02*
X157400714Y-75378571D01*
X157900714Y-76878571D01*
X158686428Y-75378571D02*
X158829285Y-75378571D01*
X158972142Y-75450000D01*
X159043571Y-75521428D01*
X159115000Y-75664285D01*
X159186428Y-75950000D01*
X159186428Y-76307142D01*
X159115000Y-76592857D01*
X159043571Y-76735714D01*
X158972142Y-76807142D01*
X158829285Y-76878571D01*
X158686428Y-76878571D01*
X158543571Y-76807142D01*
X158472142Y-76735714D01*
X158400714Y-76592857D01*
X158329285Y-76307142D01*
X158329285Y-75950000D01*
X158400714Y-75664285D01*
X158472142Y-75521428D01*
X158543571Y-75450000D01*
X158686428Y-75378571D01*
X157043571Y-71370000D02*
X157757857Y-71370000D01*
X156900714Y-71798571D02*
X157400714Y-70298571D01*
X157900714Y-71798571D01*
X158329285Y-70441428D02*
X158400714Y-70370000D01*
X158543571Y-70298571D01*
X158900714Y-70298571D01*
X159043571Y-70370000D01*
X159115000Y-70441428D01*
X159186428Y-70584285D01*
X159186428Y-70727142D01*
X159115000Y-70941428D01*
X158257857Y-71798571D01*
X159186428Y-71798571D01*
X157019793Y-63731098D02*
X157734079Y-63731098D01*
X156876936Y-64159669D02*
X157376936Y-62659669D01*
X157876936Y-64159669D01*
X159091222Y-62659669D02*
X158376936Y-62659669D01*
X158305507Y-63373955D01*
X158376936Y-63302526D01*
X158519793Y-63231098D01*
X158876936Y-63231098D01*
X159019793Y-63302526D01*
X159091222Y-63373955D01*
X159162650Y-63516812D01*
X159162650Y-63873955D01*
X159091222Y-64016812D01*
X159019793Y-64088240D01*
X158876936Y-64159669D01*
X158519793Y-64159669D01*
X158376936Y-64088240D01*
X158305507Y-64016812D01*
X174740656Y-31365000D02*
X175454942Y-31365000D01*
X174597799Y-31793571D02*
X175097799Y-30293571D01*
X175597799Y-31793571D01*
X176883513Y-31793571D02*
X176026371Y-31793571D01*
X176454942Y-31793571D02*
X176454942Y-30293571D01*
X176312085Y-30507857D01*
X176169228Y-30650714D01*
X176026371Y-30722142D01*
X178169228Y-30793571D02*
X178169228Y-31793571D01*
X177812085Y-30222142D02*
X177454942Y-31293571D01*
X178383513Y-31293571D01*
X171612857Y-107358571D02*
X171612857Y-105858571D01*
X171970000Y-105858571D01*
X172184285Y-105930000D01*
X172327142Y-106072857D01*
X172398571Y-106215714D01*
X172470000Y-106501428D01*
X172470000Y-106715714D01*
X172398571Y-107001428D01*
X172327142Y-107144285D01*
X172184285Y-107287142D01*
X171970000Y-107358571D01*
X171612857Y-107358571D01*
X172970000Y-105858571D02*
X173970000Y-105858571D01*
X173327142Y-107358571D01*
X171583259Y-102278571D02*
X171583259Y-100778571D01*
X171940402Y-100778571D01*
X172154687Y-100850000D01*
X172297544Y-100992857D01*
X172368973Y-101135714D01*
X172440402Y-101421428D01*
X172440402Y-101635714D01*
X172368973Y-101921428D01*
X172297544Y-102064285D01*
X172154687Y-102207142D01*
X171940402Y-102278571D01*
X171583259Y-102278571D01*
X173797544Y-100778571D02*
X173083259Y-100778571D01*
X173011830Y-101492857D01*
X173083259Y-101421428D01*
X173226116Y-101350000D01*
X173583259Y-101350000D01*
X173726116Y-101421428D01*
X173797544Y-101492857D01*
X173868973Y-101635714D01*
X173868973Y-101992857D01*
X173797544Y-102135714D01*
X173726116Y-102207142D01*
X173583259Y-102278571D01*
X173226116Y-102278571D01*
X173083259Y-102207142D01*
X173011830Y-102135714D01*
X171612857Y-92118571D02*
X171612857Y-90618571D01*
X171970000Y-90618571D01*
X172184285Y-90690000D01*
X172327142Y-90832857D01*
X172398571Y-90975714D01*
X172470000Y-91261428D01*
X172470000Y-91475714D01*
X172398571Y-91761428D01*
X172327142Y-91904285D01*
X172184285Y-92047142D01*
X171970000Y-92118571D01*
X171612857Y-92118571D01*
X173898571Y-92118571D02*
X173041428Y-92118571D01*
X173470000Y-92118571D02*
X173470000Y-90618571D01*
X173327142Y-90832857D01*
X173184285Y-90975714D01*
X173041428Y-91047142D01*
X174744285Y-41525000D02*
X175458571Y-41525000D01*
X174601428Y-41953571D02*
X175101428Y-40453571D01*
X175601428Y-41953571D01*
X176887142Y-41953571D02*
X176030000Y-41953571D01*
X176458571Y-41953571D02*
X176458571Y-40453571D01*
X176315714Y-40667857D01*
X176172857Y-40810714D01*
X176030000Y-40882142D01*
X177815714Y-40453571D02*
X177958571Y-40453571D01*
X178101428Y-40525000D01*
X178172857Y-40596428D01*
X178244285Y-40739285D01*
X178315714Y-41025000D01*
X178315714Y-41382142D01*
X178244285Y-41667857D01*
X178172857Y-41810714D01*
X178101428Y-41882142D01*
X177958571Y-41953571D01*
X177815714Y-41953571D01*
X177672857Y-41882142D01*
X177601428Y-41810714D01*
X177530000Y-41667857D01*
X177458571Y-41382142D01*
X177458571Y-41025000D01*
X177530000Y-40739285D01*
X177601428Y-40596428D01*
X177672857Y-40525000D01*
X177815714Y-40453571D01*
X157019793Y-66267897D02*
X157734079Y-66267897D01*
X156876936Y-66696468D02*
X157376936Y-65196468D01*
X157876936Y-66696468D01*
X159019793Y-65696468D02*
X159019793Y-66696468D01*
X158662650Y-65125039D02*
X158305507Y-66196468D01*
X159234079Y-66196468D01*
X157043571Y-58670000D02*
X157757857Y-58670000D01*
X156900714Y-59098571D02*
X157400714Y-57598571D01*
X157900714Y-59098571D01*
X158257857Y-57598571D02*
X159257857Y-57598571D01*
X158615000Y-59098571D01*
X174744285Y-33905000D02*
X175458571Y-33905000D01*
X174601428Y-34333571D02*
X175101428Y-32833571D01*
X175601428Y-34333571D01*
X176887142Y-34333571D02*
X176030000Y-34333571D01*
X176458571Y-34333571D02*
X176458571Y-32833571D01*
X176315714Y-33047857D01*
X176172857Y-33190714D01*
X176030000Y-33262142D01*
X177387142Y-32833571D02*
X178315714Y-32833571D01*
X177815714Y-33405000D01*
X178030000Y-33405000D01*
X178172857Y-33476428D01*
X178244285Y-33547857D01*
X178315714Y-33690714D01*
X178315714Y-34047857D01*
X178244285Y-34190714D01*
X178172857Y-34262142D01*
X178030000Y-34333571D01*
X177601428Y-34333571D01*
X177458571Y-34262142D01*
X177387142Y-34190714D01*
X174744285Y-38985000D02*
X175458571Y-38985000D01*
X174601428Y-39413571D02*
X175101428Y-37913571D01*
X175601428Y-39413571D01*
X176887142Y-39413571D02*
X176030000Y-39413571D01*
X176458571Y-39413571D02*
X176458571Y-37913571D01*
X176315714Y-38127857D01*
X176172857Y-38270714D01*
X176030000Y-38342142D01*
X178315714Y-39413571D02*
X177458571Y-39413571D01*
X177887142Y-39413571D02*
X177887142Y-37913571D01*
X177744285Y-38127857D01*
X177601428Y-38270714D01*
X177458571Y-38342142D01*
X171612857Y-99738571D02*
X171612857Y-98238571D01*
X171970000Y-98238571D01*
X172184285Y-98310000D01*
X172327142Y-98452857D01*
X172398571Y-98595714D01*
X172470000Y-98881428D01*
X172470000Y-99095714D01*
X172398571Y-99381428D01*
X172327142Y-99524285D01*
X172184285Y-99667142D01*
X171970000Y-99738571D01*
X171612857Y-99738571D01*
X173755714Y-98738571D02*
X173755714Y-99738571D01*
X173398571Y-98167142D02*
X173041428Y-99238571D01*
X173970000Y-99238571D01*
X171612857Y-89578571D02*
X171612857Y-88078571D01*
X171970000Y-88078571D01*
X172184285Y-88150000D01*
X172327142Y-88292857D01*
X172398571Y-88435714D01*
X172470000Y-88721428D01*
X172470000Y-88935714D01*
X172398571Y-89221428D01*
X172327142Y-89364285D01*
X172184285Y-89507142D01*
X171970000Y-89578571D01*
X171612857Y-89578571D01*
X173398571Y-88078571D02*
X173541428Y-88078571D01*
X173684285Y-88150000D01*
X173755714Y-88221428D01*
X173827142Y-88364285D01*
X173898571Y-88650000D01*
X173898571Y-89007142D01*
X173827142Y-89292857D01*
X173755714Y-89435714D01*
X173684285Y-89507142D01*
X173541428Y-89578571D01*
X173398571Y-89578571D01*
X173255714Y-89507142D01*
X173184285Y-89435714D01*
X173112857Y-89292857D01*
X173041428Y-89007142D01*
X173041428Y-88650000D01*
X173112857Y-88364285D01*
X173184285Y-88221428D01*
X173255714Y-88150000D01*
X173398571Y-88078571D01*
D11*
%TO.C,R7*%
X133007380Y-110021666D02*
X132531190Y-110355000D01*
X133007380Y-110593095D02*
X132007380Y-110593095D01*
X132007380Y-110212142D01*
X132055000Y-110116904D01*
X132102619Y-110069285D01*
X132197857Y-110021666D01*
X132340714Y-110021666D01*
X132435952Y-110069285D01*
X132483571Y-110116904D01*
X132531190Y-110212142D01*
X132531190Y-110593095D01*
X132007380Y-109688333D02*
X132007380Y-109021666D01*
X133007380Y-109450238D01*
%TO.C,R42*%
X242652142Y-115712380D02*
X242318809Y-115236190D01*
X242080714Y-115712380D02*
X242080714Y-114712380D01*
X242461666Y-114712380D01*
X242556904Y-114760000D01*
X242604523Y-114807619D01*
X242652142Y-114902857D01*
X242652142Y-115045714D01*
X242604523Y-115140952D01*
X242556904Y-115188571D01*
X242461666Y-115236190D01*
X242080714Y-115236190D01*
X243509285Y-115045714D02*
X243509285Y-115712380D01*
X243271190Y-114664761D02*
X243033095Y-115379047D01*
X243652142Y-115379047D01*
X243985476Y-114807619D02*
X244033095Y-114760000D01*
X244128333Y-114712380D01*
X244366428Y-114712380D01*
X244461666Y-114760000D01*
X244509285Y-114807619D01*
X244556904Y-114902857D01*
X244556904Y-114998095D01*
X244509285Y-115140952D01*
X243937857Y-115712380D01*
X244556904Y-115712380D01*
%TO.C,C7*%
X150963333Y-109352142D02*
X150915714Y-109399761D01*
X150772857Y-109447380D01*
X150677619Y-109447380D01*
X150534761Y-109399761D01*
X150439523Y-109304523D01*
X150391904Y-109209285D01*
X150344285Y-109018809D01*
X150344285Y-108875952D01*
X150391904Y-108685476D01*
X150439523Y-108590238D01*
X150534761Y-108495000D01*
X150677619Y-108447380D01*
X150772857Y-108447380D01*
X150915714Y-108495000D01*
X150963333Y-108542619D01*
X151296666Y-108447380D02*
X151963333Y-108447380D01*
X151534761Y-109447380D01*
D12*
%TO.C,D15*%
X168302857Y-37851190D02*
X168302857Y-37351190D01*
X168421904Y-37351190D01*
X168493333Y-37375000D01*
X168540952Y-37422619D01*
X168564761Y-37470238D01*
X168588571Y-37565476D01*
X168588571Y-37636904D01*
X168564761Y-37732142D01*
X168540952Y-37779761D01*
X168493333Y-37827380D01*
X168421904Y-37851190D01*
X168302857Y-37851190D01*
X169064761Y-37851190D02*
X168779047Y-37851190D01*
X168921904Y-37851190D02*
X168921904Y-37351190D01*
X168874285Y-37422619D01*
X168826666Y-37470238D01*
X168779047Y-37494047D01*
X169517142Y-37351190D02*
X169279047Y-37351190D01*
X169255238Y-37589285D01*
X169279047Y-37565476D01*
X169326666Y-37541666D01*
X169445714Y-37541666D01*
X169493333Y-37565476D01*
X169517142Y-37589285D01*
X169540952Y-37636904D01*
X169540952Y-37755952D01*
X169517142Y-37803571D01*
X169493333Y-37827380D01*
X169445714Y-37851190D01*
X169326666Y-37851190D01*
X169279047Y-37827380D01*
X169255238Y-37803571D01*
%TO.C,D23*%
X165127857Y-100716190D02*
X165127857Y-100216190D01*
X165246904Y-100216190D01*
X165318333Y-100240000D01*
X165365952Y-100287619D01*
X165389761Y-100335238D01*
X165413571Y-100430476D01*
X165413571Y-100501904D01*
X165389761Y-100597142D01*
X165365952Y-100644761D01*
X165318333Y-100692380D01*
X165246904Y-100716190D01*
X165127857Y-100716190D01*
X165604047Y-100263809D02*
X165627857Y-100240000D01*
X165675476Y-100216190D01*
X165794523Y-100216190D01*
X165842142Y-100240000D01*
X165865952Y-100263809D01*
X165889761Y-100311428D01*
X165889761Y-100359047D01*
X165865952Y-100430476D01*
X165580238Y-100716190D01*
X165889761Y-100716190D01*
X166056428Y-100216190D02*
X166365952Y-100216190D01*
X166199285Y-100406666D01*
X166270714Y-100406666D01*
X166318333Y-100430476D01*
X166342142Y-100454285D01*
X166365952Y-100501904D01*
X166365952Y-100620952D01*
X166342142Y-100668571D01*
X166318333Y-100692380D01*
X166270714Y-100716190D01*
X166127857Y-100716190D01*
X166080238Y-100692380D01*
X166056428Y-100668571D01*
D11*
%TO.C,U24*%
X125761904Y-148342380D02*
X125761904Y-149151904D01*
X125809523Y-149247142D01*
X125857142Y-149294761D01*
X125952380Y-149342380D01*
X126142857Y-149342380D01*
X126238095Y-149294761D01*
X126285714Y-149247142D01*
X126333333Y-149151904D01*
X126333333Y-148342380D01*
X126761904Y-148437619D02*
X126809523Y-148390000D01*
X126904761Y-148342380D01*
X127142857Y-148342380D01*
X127238095Y-148390000D01*
X127285714Y-148437619D01*
X127333333Y-148532857D01*
X127333333Y-148628095D01*
X127285714Y-148770952D01*
X126714285Y-149342380D01*
X127333333Y-149342380D01*
X128190476Y-148675714D02*
X128190476Y-149342380D01*
X127952380Y-148294761D02*
X127714285Y-149009047D01*
X128333333Y-149009047D01*
D12*
%TO.C,D21*%
X165127857Y-95636190D02*
X165127857Y-95136190D01*
X165246904Y-95136190D01*
X165318333Y-95160000D01*
X165365952Y-95207619D01*
X165389761Y-95255238D01*
X165413571Y-95350476D01*
X165413571Y-95421904D01*
X165389761Y-95517142D01*
X165365952Y-95564761D01*
X165318333Y-95612380D01*
X165246904Y-95636190D01*
X165127857Y-95636190D01*
X165604047Y-95183809D02*
X165627857Y-95160000D01*
X165675476Y-95136190D01*
X165794523Y-95136190D01*
X165842142Y-95160000D01*
X165865952Y-95183809D01*
X165889761Y-95231428D01*
X165889761Y-95279047D01*
X165865952Y-95350476D01*
X165580238Y-95636190D01*
X165889761Y-95636190D01*
X166365952Y-95636190D02*
X166080238Y-95636190D01*
X166223095Y-95636190D02*
X166223095Y-95136190D01*
X166175476Y-95207619D01*
X166127857Y-95255238D01*
X166080238Y-95279047D01*
%TO.C,D5*%
X150760952Y-72776190D02*
X150760952Y-72276190D01*
X150880000Y-72276190D01*
X150951428Y-72300000D01*
X150999047Y-72347619D01*
X151022857Y-72395238D01*
X151046666Y-72490476D01*
X151046666Y-72561904D01*
X151022857Y-72657142D01*
X150999047Y-72704761D01*
X150951428Y-72752380D01*
X150880000Y-72776190D01*
X150760952Y-72776190D01*
X151499047Y-72276190D02*
X151260952Y-72276190D01*
X151237142Y-72514285D01*
X151260952Y-72490476D01*
X151308571Y-72466666D01*
X151427619Y-72466666D01*
X151475238Y-72490476D01*
X151499047Y-72514285D01*
X151522857Y-72561904D01*
X151522857Y-72680952D01*
X151499047Y-72728571D01*
X151475238Y-72752380D01*
X151427619Y-72776190D01*
X151308571Y-72776190D01*
X151260952Y-72752380D01*
X151237142Y-72728571D01*
%TO.C,R32*%
X169223571Y-100716190D02*
X169056904Y-100478095D01*
X168937857Y-100716190D02*
X168937857Y-100216190D01*
X169128333Y-100216190D01*
X169175952Y-100240000D01*
X169199761Y-100263809D01*
X169223571Y-100311428D01*
X169223571Y-100382857D01*
X169199761Y-100430476D01*
X169175952Y-100454285D01*
X169128333Y-100478095D01*
X168937857Y-100478095D01*
X169390238Y-100216190D02*
X169699761Y-100216190D01*
X169533095Y-100406666D01*
X169604523Y-100406666D01*
X169652142Y-100430476D01*
X169675952Y-100454285D01*
X169699761Y-100501904D01*
X169699761Y-100620952D01*
X169675952Y-100668571D01*
X169652142Y-100692380D01*
X169604523Y-100716190D01*
X169461666Y-100716190D01*
X169414047Y-100692380D01*
X169390238Y-100668571D01*
X169890238Y-100263809D02*
X169914047Y-100240000D01*
X169961666Y-100216190D01*
X170080714Y-100216190D01*
X170128333Y-100240000D01*
X170152142Y-100263809D01*
X170175952Y-100311428D01*
X170175952Y-100359047D01*
X170152142Y-100430476D01*
X169866428Y-100716190D01*
X170175952Y-100716190D01*
%TO.C,R14*%
X154618571Y-72776190D02*
X154451904Y-72538095D01*
X154332857Y-72776190D02*
X154332857Y-72276190D01*
X154523333Y-72276190D01*
X154570952Y-72300000D01*
X154594761Y-72323809D01*
X154618571Y-72371428D01*
X154618571Y-72442857D01*
X154594761Y-72490476D01*
X154570952Y-72514285D01*
X154523333Y-72538095D01*
X154332857Y-72538095D01*
X155094761Y-72776190D02*
X154809047Y-72776190D01*
X154951904Y-72776190D02*
X154951904Y-72276190D01*
X154904285Y-72347619D01*
X154856666Y-72395238D01*
X154809047Y-72419047D01*
X155523333Y-72442857D02*
X155523333Y-72776190D01*
X155404285Y-72252380D02*
X155285238Y-72609523D01*
X155594761Y-72609523D01*
D11*
%TO.C,R9*%
X126071333Y-122372380D02*
X125738000Y-121896190D01*
X125499904Y-122372380D02*
X125499904Y-121372380D01*
X125880857Y-121372380D01*
X125976095Y-121420000D01*
X126023714Y-121467619D01*
X126071333Y-121562857D01*
X126071333Y-121705714D01*
X126023714Y-121800952D01*
X125976095Y-121848571D01*
X125880857Y-121896190D01*
X125499904Y-121896190D01*
X126547523Y-122372380D02*
X126738000Y-122372380D01*
X126833238Y-122324761D01*
X126880857Y-122277142D01*
X126976095Y-122134285D01*
X127023714Y-121943809D01*
X127023714Y-121562857D01*
X126976095Y-121467619D01*
X126928476Y-121420000D01*
X126833238Y-121372380D01*
X126642761Y-121372380D01*
X126547523Y-121420000D01*
X126499904Y-121467619D01*
X126452285Y-121562857D01*
X126452285Y-121800952D01*
X126499904Y-121896190D01*
X126547523Y-121943809D01*
X126642761Y-121991428D01*
X126833238Y-121991428D01*
X126928476Y-121943809D01*
X126976095Y-121896190D01*
X127023714Y-121800952D01*
%TO.C,R49*%
X247002142Y-120652380D02*
X246668809Y-120176190D01*
X246430714Y-120652380D02*
X246430714Y-119652380D01*
X246811666Y-119652380D01*
X246906904Y-119700000D01*
X246954523Y-119747619D01*
X247002142Y-119842857D01*
X247002142Y-119985714D01*
X246954523Y-120080952D01*
X246906904Y-120128571D01*
X246811666Y-120176190D01*
X246430714Y-120176190D01*
X247859285Y-119985714D02*
X247859285Y-120652380D01*
X247621190Y-119604761D02*
X247383095Y-120319047D01*
X248002142Y-120319047D01*
X248430714Y-120652380D02*
X248621190Y-120652380D01*
X248716428Y-120604761D01*
X248764047Y-120557142D01*
X248859285Y-120414285D01*
X248906904Y-120223809D01*
X248906904Y-119842857D01*
X248859285Y-119747619D01*
X248811666Y-119700000D01*
X248716428Y-119652380D01*
X248525952Y-119652380D01*
X248430714Y-119700000D01*
X248383095Y-119747619D01*
X248335476Y-119842857D01*
X248335476Y-120080952D01*
X248383095Y-120176190D01*
X248430714Y-120223809D01*
X248525952Y-120271428D01*
X248716428Y-120271428D01*
X248811666Y-120223809D01*
X248859285Y-120176190D01*
X248906904Y-120080952D01*
D12*
%TO.C,D20*%
X165127857Y-93096190D02*
X165127857Y-92596190D01*
X165246904Y-92596190D01*
X165318333Y-92620000D01*
X165365952Y-92667619D01*
X165389761Y-92715238D01*
X165413571Y-92810476D01*
X165413571Y-92881904D01*
X165389761Y-92977142D01*
X165365952Y-93024761D01*
X165318333Y-93072380D01*
X165246904Y-93096190D01*
X165127857Y-93096190D01*
X165604047Y-92643809D02*
X165627857Y-92620000D01*
X165675476Y-92596190D01*
X165794523Y-92596190D01*
X165842142Y-92620000D01*
X165865952Y-92643809D01*
X165889761Y-92691428D01*
X165889761Y-92739047D01*
X165865952Y-92810476D01*
X165580238Y-93096190D01*
X165889761Y-93096190D01*
X166199285Y-92596190D02*
X166246904Y-92596190D01*
X166294523Y-92620000D01*
X166318333Y-92643809D01*
X166342142Y-92691428D01*
X166365952Y-92786666D01*
X166365952Y-92905714D01*
X166342142Y-93000952D01*
X166318333Y-93048571D01*
X166294523Y-93072380D01*
X166246904Y-93096190D01*
X166199285Y-93096190D01*
X166151666Y-93072380D01*
X166127857Y-93048571D01*
X166104047Y-93000952D01*
X166080238Y-92905714D01*
X166080238Y-92786666D01*
X166104047Y-92691428D01*
X166127857Y-92643809D01*
X166151666Y-92620000D01*
X166199285Y-92596190D01*
D11*
%TO.C,R5*%
X163172380Y-98591666D02*
X162696190Y-98925000D01*
X163172380Y-99163095D02*
X162172380Y-99163095D01*
X162172380Y-98782142D01*
X162220000Y-98686904D01*
X162267619Y-98639285D01*
X162362857Y-98591666D01*
X162505714Y-98591666D01*
X162600952Y-98639285D01*
X162648571Y-98686904D01*
X162696190Y-98782142D01*
X162696190Y-99163095D01*
X162172380Y-97686904D02*
X162172380Y-98163095D01*
X162648571Y-98210714D01*
X162600952Y-98163095D01*
X162553333Y-98067857D01*
X162553333Y-97829761D01*
X162600952Y-97734523D01*
X162648571Y-97686904D01*
X162743809Y-97639285D01*
X162981904Y-97639285D01*
X163077142Y-97686904D01*
X163124761Y-97734523D01*
X163172380Y-97829761D01*
X163172380Y-98067857D01*
X163124761Y-98163095D01*
X163077142Y-98210714D01*
%TO.C,CPU1*%
X138504523Y-50102142D02*
X138456904Y-50149761D01*
X138314047Y-50197380D01*
X138218809Y-50197380D01*
X138075952Y-50149761D01*
X137980714Y-50054523D01*
X137933095Y-49959285D01*
X137885476Y-49768809D01*
X137885476Y-49625952D01*
X137933095Y-49435476D01*
X137980714Y-49340238D01*
X138075952Y-49245000D01*
X138218809Y-49197380D01*
X138314047Y-49197380D01*
X138456904Y-49245000D01*
X138504523Y-49292619D01*
X138933095Y-50197380D02*
X138933095Y-49197380D01*
X139314047Y-49197380D01*
X139409285Y-49245000D01*
X139456904Y-49292619D01*
X139504523Y-49387857D01*
X139504523Y-49530714D01*
X139456904Y-49625952D01*
X139409285Y-49673571D01*
X139314047Y-49721190D01*
X138933095Y-49721190D01*
X139933095Y-49197380D02*
X139933095Y-50006904D01*
X139980714Y-50102142D01*
X140028333Y-50149761D01*
X140123571Y-50197380D01*
X140314047Y-50197380D01*
X140409285Y-50149761D01*
X140456904Y-50102142D01*
X140504523Y-50006904D01*
X140504523Y-49197380D01*
X141504523Y-50197380D02*
X140933095Y-50197380D01*
X141218809Y-50197380D02*
X141218809Y-49197380D01*
X141123571Y-49340238D01*
X141028333Y-49435476D01*
X140933095Y-49483095D01*
D12*
%TO.C,R23*%
X172398571Y-40391190D02*
X172231904Y-40153095D01*
X172112857Y-40391190D02*
X172112857Y-39891190D01*
X172303333Y-39891190D01*
X172350952Y-39915000D01*
X172374761Y-39938809D01*
X172398571Y-39986428D01*
X172398571Y-40057857D01*
X172374761Y-40105476D01*
X172350952Y-40129285D01*
X172303333Y-40153095D01*
X172112857Y-40153095D01*
X172589047Y-39938809D02*
X172612857Y-39915000D01*
X172660476Y-39891190D01*
X172779523Y-39891190D01*
X172827142Y-39915000D01*
X172850952Y-39938809D01*
X172874761Y-39986428D01*
X172874761Y-40034047D01*
X172850952Y-40105476D01*
X172565238Y-40391190D01*
X172874761Y-40391190D01*
X173041428Y-39891190D02*
X173350952Y-39891190D01*
X173184285Y-40081666D01*
X173255714Y-40081666D01*
X173303333Y-40105476D01*
X173327142Y-40129285D01*
X173350952Y-40176904D01*
X173350952Y-40295952D01*
X173327142Y-40343571D01*
X173303333Y-40367380D01*
X173255714Y-40391190D01*
X173112857Y-40391190D01*
X173065238Y-40367380D01*
X173041428Y-40343571D01*
%TO.C,D19*%
X165127857Y-90556190D02*
X165127857Y-90056190D01*
X165246904Y-90056190D01*
X165318333Y-90080000D01*
X165365952Y-90127619D01*
X165389761Y-90175238D01*
X165413571Y-90270476D01*
X165413571Y-90341904D01*
X165389761Y-90437142D01*
X165365952Y-90484761D01*
X165318333Y-90532380D01*
X165246904Y-90556190D01*
X165127857Y-90556190D01*
X165889761Y-90556190D02*
X165604047Y-90556190D01*
X165746904Y-90556190D02*
X165746904Y-90056190D01*
X165699285Y-90127619D01*
X165651666Y-90175238D01*
X165604047Y-90199047D01*
X166127857Y-90556190D02*
X166223095Y-90556190D01*
X166270714Y-90532380D01*
X166294523Y-90508571D01*
X166342142Y-90437142D01*
X166365952Y-90341904D01*
X166365952Y-90151428D01*
X166342142Y-90103809D01*
X166318333Y-90080000D01*
X166270714Y-90056190D01*
X166175476Y-90056190D01*
X166127857Y-90080000D01*
X166104047Y-90103809D01*
X166080238Y-90151428D01*
X166080238Y-90270476D01*
X166104047Y-90318095D01*
X166127857Y-90341904D01*
X166175476Y-90365714D01*
X166270714Y-90365714D01*
X166318333Y-90341904D01*
X166342142Y-90318095D01*
X166365952Y-90270476D01*
%TO.C,R19*%
X154618571Y-60076190D02*
X154451904Y-59838095D01*
X154332857Y-60076190D02*
X154332857Y-59576190D01*
X154523333Y-59576190D01*
X154570952Y-59600000D01*
X154594761Y-59623809D01*
X154618571Y-59671428D01*
X154618571Y-59742857D01*
X154594761Y-59790476D01*
X154570952Y-59814285D01*
X154523333Y-59838095D01*
X154332857Y-59838095D01*
X155094761Y-60076190D02*
X154809047Y-60076190D01*
X154951904Y-60076190D02*
X154951904Y-59576190D01*
X154904285Y-59647619D01*
X154856666Y-59695238D01*
X154809047Y-59719047D01*
X155332857Y-60076190D02*
X155428095Y-60076190D01*
X155475714Y-60052380D01*
X155499523Y-60028571D01*
X155547142Y-59957142D01*
X155570952Y-59861904D01*
X155570952Y-59671428D01*
X155547142Y-59623809D01*
X155523333Y-59600000D01*
X155475714Y-59576190D01*
X155380476Y-59576190D01*
X155332857Y-59600000D01*
X155309047Y-59623809D01*
X155285238Y-59671428D01*
X155285238Y-59790476D01*
X155309047Y-59838095D01*
X155332857Y-59861904D01*
X155380476Y-59885714D01*
X155475714Y-59885714D01*
X155523333Y-59861904D01*
X155547142Y-59838095D01*
X155570952Y-59790476D01*
%TO.C,D16*%
X168302857Y-35311190D02*
X168302857Y-34811190D01*
X168421904Y-34811190D01*
X168493333Y-34835000D01*
X168540952Y-34882619D01*
X168564761Y-34930238D01*
X168588571Y-35025476D01*
X168588571Y-35096904D01*
X168564761Y-35192142D01*
X168540952Y-35239761D01*
X168493333Y-35287380D01*
X168421904Y-35311190D01*
X168302857Y-35311190D01*
X169064761Y-35311190D02*
X168779047Y-35311190D01*
X168921904Y-35311190D02*
X168921904Y-34811190D01*
X168874285Y-34882619D01*
X168826666Y-34930238D01*
X168779047Y-34954047D01*
X169493333Y-34811190D02*
X169398095Y-34811190D01*
X169350476Y-34835000D01*
X169326666Y-34858809D01*
X169279047Y-34930238D01*
X169255238Y-35025476D01*
X169255238Y-35215952D01*
X169279047Y-35263571D01*
X169302857Y-35287380D01*
X169350476Y-35311190D01*
X169445714Y-35311190D01*
X169493333Y-35287380D01*
X169517142Y-35263571D01*
X169540952Y-35215952D01*
X169540952Y-35096904D01*
X169517142Y-35049285D01*
X169493333Y-35025476D01*
X169445714Y-35001666D01*
X169350476Y-35001666D01*
X169302857Y-35025476D01*
X169279047Y-35049285D01*
X169255238Y-35096904D01*
%TO.C,D6*%
X150760952Y-70236190D02*
X150760952Y-69736190D01*
X150880000Y-69736190D01*
X150951428Y-69760000D01*
X150999047Y-69807619D01*
X151022857Y-69855238D01*
X151046666Y-69950476D01*
X151046666Y-70021904D01*
X151022857Y-70117142D01*
X150999047Y-70164761D01*
X150951428Y-70212380D01*
X150880000Y-70236190D01*
X150760952Y-70236190D01*
X151475238Y-69736190D02*
X151380000Y-69736190D01*
X151332380Y-69760000D01*
X151308571Y-69783809D01*
X151260952Y-69855238D01*
X151237142Y-69950476D01*
X151237142Y-70140952D01*
X151260952Y-70188571D01*
X151284761Y-70212380D01*
X151332380Y-70236190D01*
X151427619Y-70236190D01*
X151475238Y-70212380D01*
X151499047Y-70188571D01*
X151522857Y-70140952D01*
X151522857Y-70021904D01*
X151499047Y-69974285D01*
X151475238Y-69950476D01*
X151427619Y-69926666D01*
X151332380Y-69926666D01*
X151284761Y-69950476D01*
X151260952Y-69974285D01*
X151237142Y-70021904D01*
D11*
%TO.C,U14*%
X128301904Y-133102380D02*
X128301904Y-133911904D01*
X128349523Y-134007142D01*
X128397142Y-134054761D01*
X128492380Y-134102380D01*
X128682857Y-134102380D01*
X128778095Y-134054761D01*
X128825714Y-134007142D01*
X128873333Y-133911904D01*
X128873333Y-133102380D01*
X129873333Y-134102380D02*
X129301904Y-134102380D01*
X129587619Y-134102380D02*
X129587619Y-133102380D01*
X129492380Y-133245238D01*
X129397142Y-133340476D01*
X129301904Y-133388095D01*
X130730476Y-133435714D02*
X130730476Y-134102380D01*
X130492380Y-133054761D02*
X130254285Y-133769047D01*
X130873333Y-133769047D01*
%TO.C,U15*%
X141001904Y-133102380D02*
X141001904Y-133911904D01*
X141049523Y-134007142D01*
X141097142Y-134054761D01*
X141192380Y-134102380D01*
X141382857Y-134102380D01*
X141478095Y-134054761D01*
X141525714Y-134007142D01*
X141573333Y-133911904D01*
X141573333Y-133102380D01*
X142573333Y-134102380D02*
X142001904Y-134102380D01*
X142287619Y-134102380D02*
X142287619Y-133102380D01*
X142192380Y-133245238D01*
X142097142Y-133340476D01*
X142001904Y-133388095D01*
X143478095Y-133102380D02*
X143001904Y-133102380D01*
X142954285Y-133578571D01*
X143001904Y-133530952D01*
X143097142Y-133483333D01*
X143335238Y-133483333D01*
X143430476Y-133530952D01*
X143478095Y-133578571D01*
X143525714Y-133673809D01*
X143525714Y-133911904D01*
X143478095Y-134007142D01*
X143430476Y-134054761D01*
X143335238Y-134102380D01*
X143097142Y-134102380D01*
X143001904Y-134054761D01*
X142954285Y-134007142D01*
D12*
%TO.C,D8*%
X150760952Y-65156190D02*
X150760952Y-64656190D01*
X150880000Y-64656190D01*
X150951428Y-64680000D01*
X150999047Y-64727619D01*
X151022857Y-64775238D01*
X151046666Y-64870476D01*
X151046666Y-64941904D01*
X151022857Y-65037142D01*
X150999047Y-65084761D01*
X150951428Y-65132380D01*
X150880000Y-65156190D01*
X150760952Y-65156190D01*
X151332380Y-64870476D02*
X151284761Y-64846666D01*
X151260952Y-64822857D01*
X151237142Y-64775238D01*
X151237142Y-64751428D01*
X151260952Y-64703809D01*
X151284761Y-64680000D01*
X151332380Y-64656190D01*
X151427619Y-64656190D01*
X151475238Y-64680000D01*
X151499047Y-64703809D01*
X151522857Y-64751428D01*
X151522857Y-64775238D01*
X151499047Y-64822857D01*
X151475238Y-64846666D01*
X151427619Y-64870476D01*
X151332380Y-64870476D01*
X151284761Y-64894285D01*
X151260952Y-64918095D01*
X151237142Y-64965714D01*
X151237142Y-65060952D01*
X151260952Y-65108571D01*
X151284761Y-65132380D01*
X151332380Y-65156190D01*
X151427619Y-65156190D01*
X151475238Y-65132380D01*
X151499047Y-65108571D01*
X151522857Y-65060952D01*
X151522857Y-64965714D01*
X151499047Y-64918095D01*
X151475238Y-64894285D01*
X151427619Y-64870476D01*
D11*
%TO.C,R44*%
X251352142Y-115552380D02*
X251018809Y-115076190D01*
X250780714Y-115552380D02*
X250780714Y-114552380D01*
X251161666Y-114552380D01*
X251256904Y-114600000D01*
X251304523Y-114647619D01*
X251352142Y-114742857D01*
X251352142Y-114885714D01*
X251304523Y-114980952D01*
X251256904Y-115028571D01*
X251161666Y-115076190D01*
X250780714Y-115076190D01*
X252209285Y-114885714D02*
X252209285Y-115552380D01*
X251971190Y-114504761D02*
X251733095Y-115219047D01*
X252352142Y-115219047D01*
X253161666Y-114885714D02*
X253161666Y-115552380D01*
X252923571Y-114504761D02*
X252685476Y-115219047D01*
X253304523Y-115219047D01*
D12*
%TO.C,D22*%
X165127857Y-98176190D02*
X165127857Y-97676190D01*
X165246904Y-97676190D01*
X165318333Y-97700000D01*
X165365952Y-97747619D01*
X165389761Y-97795238D01*
X165413571Y-97890476D01*
X165413571Y-97961904D01*
X165389761Y-98057142D01*
X165365952Y-98104761D01*
X165318333Y-98152380D01*
X165246904Y-98176190D01*
X165127857Y-98176190D01*
X165604047Y-97723809D02*
X165627857Y-97700000D01*
X165675476Y-97676190D01*
X165794523Y-97676190D01*
X165842142Y-97700000D01*
X165865952Y-97723809D01*
X165889761Y-97771428D01*
X165889761Y-97819047D01*
X165865952Y-97890476D01*
X165580238Y-98176190D01*
X165889761Y-98176190D01*
X166080238Y-97723809D02*
X166104047Y-97700000D01*
X166151666Y-97676190D01*
X166270714Y-97676190D01*
X166318333Y-97700000D01*
X166342142Y-97723809D01*
X166365952Y-97771428D01*
X166365952Y-97819047D01*
X166342142Y-97890476D01*
X166056428Y-98176190D01*
X166365952Y-98176190D01*
D11*
%TO.C,R11*%
X256162142Y-113042380D02*
X255828809Y-112566190D01*
X255590714Y-113042380D02*
X255590714Y-112042380D01*
X255971666Y-112042380D01*
X256066904Y-112090000D01*
X256114523Y-112137619D01*
X256162142Y-112232857D01*
X256162142Y-112375714D01*
X256114523Y-112470952D01*
X256066904Y-112518571D01*
X255971666Y-112566190D01*
X255590714Y-112566190D01*
X257114523Y-113042380D02*
X256543095Y-113042380D01*
X256828809Y-113042380D02*
X256828809Y-112042380D01*
X256733571Y-112185238D01*
X256638333Y-112280476D01*
X256543095Y-112328095D01*
X258066904Y-113042380D02*
X257495476Y-113042380D01*
X257781190Y-113042380D02*
X257781190Y-112042380D01*
X257685952Y-112185238D01*
X257590714Y-112280476D01*
X257495476Y-112328095D01*
%TO.C,R38*%
X224672142Y-134442380D02*
X224338809Y-133966190D01*
X224100714Y-134442380D02*
X224100714Y-133442380D01*
X224481666Y-133442380D01*
X224576904Y-133490000D01*
X224624523Y-133537619D01*
X224672142Y-133632857D01*
X224672142Y-133775714D01*
X224624523Y-133870952D01*
X224576904Y-133918571D01*
X224481666Y-133966190D01*
X224100714Y-133966190D01*
X225005476Y-133442380D02*
X225624523Y-133442380D01*
X225291190Y-133823333D01*
X225434047Y-133823333D01*
X225529285Y-133870952D01*
X225576904Y-133918571D01*
X225624523Y-134013809D01*
X225624523Y-134251904D01*
X225576904Y-134347142D01*
X225529285Y-134394761D01*
X225434047Y-134442380D01*
X225148333Y-134442380D01*
X225053095Y-134394761D01*
X225005476Y-134347142D01*
X226195952Y-133870952D02*
X226100714Y-133823333D01*
X226053095Y-133775714D01*
X226005476Y-133680476D01*
X226005476Y-133632857D01*
X226053095Y-133537619D01*
X226100714Y-133490000D01*
X226195952Y-133442380D01*
X226386428Y-133442380D01*
X226481666Y-133490000D01*
X226529285Y-133537619D01*
X226576904Y-133632857D01*
X226576904Y-133680476D01*
X226529285Y-133775714D01*
X226481666Y-133823333D01*
X226386428Y-133870952D01*
X226195952Y-133870952D01*
X226100714Y-133918571D01*
X226053095Y-133966190D01*
X226005476Y-134061428D01*
X226005476Y-134251904D01*
X226053095Y-134347142D01*
X226100714Y-134394761D01*
X226195952Y-134442380D01*
X226386428Y-134442380D01*
X226481666Y-134394761D01*
X226529285Y-134347142D01*
X226576904Y-134251904D01*
X226576904Y-134061428D01*
X226529285Y-133966190D01*
X226481666Y-133918571D01*
X226386428Y-133870952D01*
%TO.C,C5*%
X130008333Y-117197142D02*
X129960714Y-117244761D01*
X129817857Y-117292380D01*
X129722619Y-117292380D01*
X129579761Y-117244761D01*
X129484523Y-117149523D01*
X129436904Y-117054285D01*
X129389285Y-116863809D01*
X129389285Y-116720952D01*
X129436904Y-116530476D01*
X129484523Y-116435238D01*
X129579761Y-116340000D01*
X129722619Y-116292380D01*
X129817857Y-116292380D01*
X129960714Y-116340000D01*
X130008333Y-116387619D01*
X130913095Y-116292380D02*
X130436904Y-116292380D01*
X130389285Y-116768571D01*
X130436904Y-116720952D01*
X130532142Y-116673333D01*
X130770238Y-116673333D01*
X130865476Y-116720952D01*
X130913095Y-116768571D01*
X130960714Y-116863809D01*
X130960714Y-117101904D01*
X130913095Y-117197142D01*
X130865476Y-117244761D01*
X130770238Y-117292380D01*
X130532142Y-117292380D01*
X130436904Y-117244761D01*
X130389285Y-117197142D01*
D12*
%TO.C,R26*%
X172398571Y-32771190D02*
X172231904Y-32533095D01*
X172112857Y-32771190D02*
X172112857Y-32271190D01*
X172303333Y-32271190D01*
X172350952Y-32295000D01*
X172374761Y-32318809D01*
X172398571Y-32366428D01*
X172398571Y-32437857D01*
X172374761Y-32485476D01*
X172350952Y-32509285D01*
X172303333Y-32533095D01*
X172112857Y-32533095D01*
X172589047Y-32318809D02*
X172612857Y-32295000D01*
X172660476Y-32271190D01*
X172779523Y-32271190D01*
X172827142Y-32295000D01*
X172850952Y-32318809D01*
X172874761Y-32366428D01*
X172874761Y-32414047D01*
X172850952Y-32485476D01*
X172565238Y-32771190D01*
X172874761Y-32771190D01*
X173303333Y-32271190D02*
X173208095Y-32271190D01*
X173160476Y-32295000D01*
X173136666Y-32318809D01*
X173089047Y-32390238D01*
X173065238Y-32485476D01*
X173065238Y-32675952D01*
X173089047Y-32723571D01*
X173112857Y-32747380D01*
X173160476Y-32771190D01*
X173255714Y-32771190D01*
X173303333Y-32747380D01*
X173327142Y-32723571D01*
X173350952Y-32675952D01*
X173350952Y-32556904D01*
X173327142Y-32509285D01*
X173303333Y-32485476D01*
X173255714Y-32461666D01*
X173160476Y-32461666D01*
X173112857Y-32485476D01*
X173089047Y-32509285D01*
X173065238Y-32556904D01*
D11*
%TO.C,SW9*%
X29781666Y-76669761D02*
X29924523Y-76717380D01*
X30162619Y-76717380D01*
X30257857Y-76669761D01*
X30305476Y-76622142D01*
X30353095Y-76526904D01*
X30353095Y-76431666D01*
X30305476Y-76336428D01*
X30257857Y-76288809D01*
X30162619Y-76241190D01*
X29972142Y-76193571D01*
X29876904Y-76145952D01*
X29829285Y-76098333D01*
X29781666Y-76003095D01*
X29781666Y-75907857D01*
X29829285Y-75812619D01*
X29876904Y-75765000D01*
X29972142Y-75717380D01*
X30210238Y-75717380D01*
X30353095Y-75765000D01*
X30686428Y-75717380D02*
X30924523Y-76717380D01*
X31115000Y-76003095D01*
X31305476Y-76717380D01*
X31543571Y-75717380D01*
X31972142Y-76717380D02*
X32162619Y-76717380D01*
X32257857Y-76669761D01*
X32305476Y-76622142D01*
X32400714Y-76479285D01*
X32448333Y-76288809D01*
X32448333Y-75907857D01*
X32400714Y-75812619D01*
X32353095Y-75765000D01*
X32257857Y-75717380D01*
X32067380Y-75717380D01*
X31972142Y-75765000D01*
X31924523Y-75812619D01*
X31876904Y-75907857D01*
X31876904Y-76145952D01*
X31924523Y-76241190D01*
X31972142Y-76288809D01*
X32067380Y-76336428D01*
X32257857Y-76336428D01*
X32353095Y-76288809D01*
X32400714Y-76241190D01*
X32448333Y-76145952D01*
%TO.C,RAM1*%
X169008333Y-50177380D02*
X168675000Y-49701190D01*
X168436904Y-50177380D02*
X168436904Y-49177380D01*
X168817857Y-49177380D01*
X168913095Y-49225000D01*
X168960714Y-49272619D01*
X169008333Y-49367857D01*
X169008333Y-49510714D01*
X168960714Y-49605952D01*
X168913095Y-49653571D01*
X168817857Y-49701190D01*
X168436904Y-49701190D01*
X169389285Y-49891666D02*
X169865476Y-49891666D01*
X169294047Y-50177380D02*
X169627380Y-49177380D01*
X169960714Y-50177380D01*
X170294047Y-50177380D02*
X170294047Y-49177380D01*
X170627380Y-49891666D01*
X170960714Y-49177380D01*
X170960714Y-50177380D01*
X171960714Y-50177380D02*
X171389285Y-50177380D01*
X171675000Y-50177380D02*
X171675000Y-49177380D01*
X171579761Y-49320238D01*
X171484523Y-49415476D01*
X171389285Y-49463095D01*
D12*
%TO.C,D9*%
X150760952Y-62456190D02*
X150760952Y-61956190D01*
X150880000Y-61956190D01*
X150951428Y-61980000D01*
X150999047Y-62027619D01*
X151022857Y-62075238D01*
X151046666Y-62170476D01*
X151046666Y-62241904D01*
X151022857Y-62337142D01*
X150999047Y-62384761D01*
X150951428Y-62432380D01*
X150880000Y-62456190D01*
X150760952Y-62456190D01*
X151284761Y-62456190D02*
X151380000Y-62456190D01*
X151427619Y-62432380D01*
X151451428Y-62408571D01*
X151499047Y-62337142D01*
X151522857Y-62241904D01*
X151522857Y-62051428D01*
X151499047Y-62003809D01*
X151475238Y-61980000D01*
X151427619Y-61956190D01*
X151332380Y-61956190D01*
X151284761Y-61980000D01*
X151260952Y-62003809D01*
X151237142Y-62051428D01*
X151237142Y-62170476D01*
X151260952Y-62218095D01*
X151284761Y-62241904D01*
X151332380Y-62265714D01*
X151427619Y-62265714D01*
X151475238Y-62241904D01*
X151499047Y-62218095D01*
X151522857Y-62170476D01*
D11*
%TO.C,R40*%
X237802142Y-130772380D02*
X237468809Y-130296190D01*
X237230714Y-130772380D02*
X237230714Y-129772380D01*
X237611666Y-129772380D01*
X237706904Y-129820000D01*
X237754523Y-129867619D01*
X237802142Y-129962857D01*
X237802142Y-130105714D01*
X237754523Y-130200952D01*
X237706904Y-130248571D01*
X237611666Y-130296190D01*
X237230714Y-130296190D01*
X238659285Y-130105714D02*
X238659285Y-130772380D01*
X238421190Y-129724761D02*
X238183095Y-130439047D01*
X238802142Y-130439047D01*
X239373571Y-129772380D02*
X239468809Y-129772380D01*
X239564047Y-129820000D01*
X239611666Y-129867619D01*
X239659285Y-129962857D01*
X239706904Y-130153333D01*
X239706904Y-130391428D01*
X239659285Y-130581904D01*
X239611666Y-130677142D01*
X239564047Y-130724761D01*
X239468809Y-130772380D01*
X239373571Y-130772380D01*
X239278333Y-130724761D01*
X239230714Y-130677142D01*
X239183095Y-130581904D01*
X239135476Y-130391428D01*
X239135476Y-130153333D01*
X239183095Y-129962857D01*
X239230714Y-129867619D01*
X239278333Y-129820000D01*
X239373571Y-129772380D01*
D12*
%TO.C,R33*%
X169223571Y-103256190D02*
X169056904Y-103018095D01*
X168937857Y-103256190D02*
X168937857Y-102756190D01*
X169128333Y-102756190D01*
X169175952Y-102780000D01*
X169199761Y-102803809D01*
X169223571Y-102851428D01*
X169223571Y-102922857D01*
X169199761Y-102970476D01*
X169175952Y-102994285D01*
X169128333Y-103018095D01*
X168937857Y-103018095D01*
X169390238Y-102756190D02*
X169699761Y-102756190D01*
X169533095Y-102946666D01*
X169604523Y-102946666D01*
X169652142Y-102970476D01*
X169675952Y-102994285D01*
X169699761Y-103041904D01*
X169699761Y-103160952D01*
X169675952Y-103208571D01*
X169652142Y-103232380D01*
X169604523Y-103256190D01*
X169461666Y-103256190D01*
X169414047Y-103232380D01*
X169390238Y-103208571D01*
X169866428Y-102756190D02*
X170175952Y-102756190D01*
X170009285Y-102946666D01*
X170080714Y-102946666D01*
X170128333Y-102970476D01*
X170152142Y-102994285D01*
X170175952Y-103041904D01*
X170175952Y-103160952D01*
X170152142Y-103208571D01*
X170128333Y-103232380D01*
X170080714Y-103256190D01*
X169937857Y-103256190D01*
X169890238Y-103232380D01*
X169866428Y-103208571D01*
D11*
%TO.C,SW10*%
X57475476Y-76669761D02*
X57618333Y-76717380D01*
X57856428Y-76717380D01*
X57951666Y-76669761D01*
X57999285Y-76622142D01*
X58046904Y-76526904D01*
X58046904Y-76431666D01*
X57999285Y-76336428D01*
X57951666Y-76288809D01*
X57856428Y-76241190D01*
X57665952Y-76193571D01*
X57570714Y-76145952D01*
X57523095Y-76098333D01*
X57475476Y-76003095D01*
X57475476Y-75907857D01*
X57523095Y-75812619D01*
X57570714Y-75765000D01*
X57665952Y-75717380D01*
X57904047Y-75717380D01*
X58046904Y-75765000D01*
X58380238Y-75717380D02*
X58618333Y-76717380D01*
X58808809Y-76003095D01*
X58999285Y-76717380D01*
X59237380Y-75717380D01*
X60142142Y-76717380D02*
X59570714Y-76717380D01*
X59856428Y-76717380D02*
X59856428Y-75717380D01*
X59761190Y-75860238D01*
X59665952Y-75955476D01*
X59570714Y-76003095D01*
X60761190Y-75717380D02*
X60856428Y-75717380D01*
X60951666Y-75765000D01*
X60999285Y-75812619D01*
X61046904Y-75907857D01*
X61094523Y-76098333D01*
X61094523Y-76336428D01*
X61046904Y-76526904D01*
X60999285Y-76622142D01*
X60951666Y-76669761D01*
X60856428Y-76717380D01*
X60761190Y-76717380D01*
X60665952Y-76669761D01*
X60618333Y-76622142D01*
X60570714Y-76526904D01*
X60523095Y-76336428D01*
X60523095Y-76098333D01*
X60570714Y-75907857D01*
X60618333Y-75812619D01*
X60665952Y-75765000D01*
X60761190Y-75717380D01*
%TO.C,R10*%
X125595142Y-124912380D02*
X125261809Y-124436190D01*
X125023714Y-124912380D02*
X125023714Y-123912380D01*
X125404666Y-123912380D01*
X125499904Y-123960000D01*
X125547523Y-124007619D01*
X125595142Y-124102857D01*
X125595142Y-124245714D01*
X125547523Y-124340952D01*
X125499904Y-124388571D01*
X125404666Y-124436190D01*
X125023714Y-124436190D01*
X126547523Y-124912380D02*
X125976095Y-124912380D01*
X126261809Y-124912380D02*
X126261809Y-123912380D01*
X126166571Y-124055238D01*
X126071333Y-124150476D01*
X125976095Y-124198095D01*
X127166571Y-123912380D02*
X127261809Y-123912380D01*
X127357047Y-123960000D01*
X127404666Y-124007619D01*
X127452285Y-124102857D01*
X127499904Y-124293333D01*
X127499904Y-124531428D01*
X127452285Y-124721904D01*
X127404666Y-124817142D01*
X127357047Y-124864761D01*
X127261809Y-124912380D01*
X127166571Y-124912380D01*
X127071333Y-124864761D01*
X127023714Y-124817142D01*
X126976095Y-124721904D01*
X126928476Y-124531428D01*
X126928476Y-124293333D01*
X126976095Y-124102857D01*
X127023714Y-124007619D01*
X127071333Y-123960000D01*
X127166571Y-123912380D01*
%TO.C,U25*%
X141001904Y-150882380D02*
X141001904Y-151691904D01*
X141049523Y-151787142D01*
X141097142Y-151834761D01*
X141192380Y-151882380D01*
X141382857Y-151882380D01*
X141478095Y-151834761D01*
X141525714Y-151787142D01*
X141573333Y-151691904D01*
X141573333Y-150882380D01*
X142001904Y-150977619D02*
X142049523Y-150930000D01*
X142144761Y-150882380D01*
X142382857Y-150882380D01*
X142478095Y-150930000D01*
X142525714Y-150977619D01*
X142573333Y-151072857D01*
X142573333Y-151168095D01*
X142525714Y-151310952D01*
X141954285Y-151882380D01*
X142573333Y-151882380D01*
X143478095Y-150882380D02*
X143001904Y-150882380D01*
X142954285Y-151358571D01*
X143001904Y-151310952D01*
X143097142Y-151263333D01*
X143335238Y-151263333D01*
X143430476Y-151310952D01*
X143478095Y-151358571D01*
X143525714Y-151453809D01*
X143525714Y-151691904D01*
X143478095Y-151787142D01*
X143430476Y-151834761D01*
X143335238Y-151882380D01*
X143097142Y-151882380D01*
X143001904Y-151834761D01*
X142954285Y-151787142D01*
D12*
%TO.C,D18*%
X168302857Y-30231190D02*
X168302857Y-29731190D01*
X168421904Y-29731190D01*
X168493333Y-29755000D01*
X168540952Y-29802619D01*
X168564761Y-29850238D01*
X168588571Y-29945476D01*
X168588571Y-30016904D01*
X168564761Y-30112142D01*
X168540952Y-30159761D01*
X168493333Y-30207380D01*
X168421904Y-30231190D01*
X168302857Y-30231190D01*
X169064761Y-30231190D02*
X168779047Y-30231190D01*
X168921904Y-30231190D02*
X168921904Y-29731190D01*
X168874285Y-29802619D01*
X168826666Y-29850238D01*
X168779047Y-29874047D01*
X169350476Y-29945476D02*
X169302857Y-29921666D01*
X169279047Y-29897857D01*
X169255238Y-29850238D01*
X169255238Y-29826428D01*
X169279047Y-29778809D01*
X169302857Y-29755000D01*
X169350476Y-29731190D01*
X169445714Y-29731190D01*
X169493333Y-29755000D01*
X169517142Y-29778809D01*
X169540952Y-29826428D01*
X169540952Y-29850238D01*
X169517142Y-29897857D01*
X169493333Y-29921666D01*
X169445714Y-29945476D01*
X169350476Y-29945476D01*
X169302857Y-29969285D01*
X169279047Y-29993095D01*
X169255238Y-30040714D01*
X169255238Y-30135952D01*
X169279047Y-30183571D01*
X169302857Y-30207380D01*
X169350476Y-30231190D01*
X169445714Y-30231190D01*
X169493333Y-30207380D01*
X169517142Y-30183571D01*
X169540952Y-30135952D01*
X169540952Y-30040714D01*
X169517142Y-29993095D01*
X169493333Y-29969285D01*
X169445714Y-29945476D01*
%TO.C,R15*%
X154618571Y-70236190D02*
X154451904Y-69998095D01*
X154332857Y-70236190D02*
X154332857Y-69736190D01*
X154523333Y-69736190D01*
X154570952Y-69760000D01*
X154594761Y-69783809D01*
X154618571Y-69831428D01*
X154618571Y-69902857D01*
X154594761Y-69950476D01*
X154570952Y-69974285D01*
X154523333Y-69998095D01*
X154332857Y-69998095D01*
X155094761Y-70236190D02*
X154809047Y-70236190D01*
X154951904Y-70236190D02*
X154951904Y-69736190D01*
X154904285Y-69807619D01*
X154856666Y-69855238D01*
X154809047Y-69879047D01*
X155547142Y-69736190D02*
X155309047Y-69736190D01*
X155285238Y-69974285D01*
X155309047Y-69950476D01*
X155356666Y-69926666D01*
X155475714Y-69926666D01*
X155523333Y-69950476D01*
X155547142Y-69974285D01*
X155570952Y-70021904D01*
X155570952Y-70140952D01*
X155547142Y-70188571D01*
X155523333Y-70212380D01*
X155475714Y-70236190D01*
X155356666Y-70236190D01*
X155309047Y-70212380D01*
X155285238Y-70188571D01*
D11*
%TO.C,ROM1*%
X107953095Y-50177380D02*
X107619761Y-49701190D01*
X107381666Y-50177380D02*
X107381666Y-49177380D01*
X107762619Y-49177380D01*
X107857857Y-49225000D01*
X107905476Y-49272619D01*
X107953095Y-49367857D01*
X107953095Y-49510714D01*
X107905476Y-49605952D01*
X107857857Y-49653571D01*
X107762619Y-49701190D01*
X107381666Y-49701190D01*
X108572142Y-49177380D02*
X108762619Y-49177380D01*
X108857857Y-49225000D01*
X108953095Y-49320238D01*
X109000714Y-49510714D01*
X109000714Y-49844047D01*
X108953095Y-50034523D01*
X108857857Y-50129761D01*
X108762619Y-50177380D01*
X108572142Y-50177380D01*
X108476904Y-50129761D01*
X108381666Y-50034523D01*
X108334047Y-49844047D01*
X108334047Y-49510714D01*
X108381666Y-49320238D01*
X108476904Y-49225000D01*
X108572142Y-49177380D01*
X109429285Y-50177380D02*
X109429285Y-49177380D01*
X109762619Y-49891666D01*
X110095952Y-49177380D01*
X110095952Y-50177380D01*
X111095952Y-50177380D02*
X110524523Y-50177380D01*
X110810238Y-50177380D02*
X110810238Y-49177380D01*
X110715000Y-49320238D01*
X110619761Y-49415476D01*
X110524523Y-49463095D01*
D12*
%TO.C,D26*%
X165127857Y-108336190D02*
X165127857Y-107836190D01*
X165246904Y-107836190D01*
X165318333Y-107860000D01*
X165365952Y-107907619D01*
X165389761Y-107955238D01*
X165413571Y-108050476D01*
X165413571Y-108121904D01*
X165389761Y-108217142D01*
X165365952Y-108264761D01*
X165318333Y-108312380D01*
X165246904Y-108336190D01*
X165127857Y-108336190D01*
X165604047Y-107883809D02*
X165627857Y-107860000D01*
X165675476Y-107836190D01*
X165794523Y-107836190D01*
X165842142Y-107860000D01*
X165865952Y-107883809D01*
X165889761Y-107931428D01*
X165889761Y-107979047D01*
X165865952Y-108050476D01*
X165580238Y-108336190D01*
X165889761Y-108336190D01*
X166318333Y-107836190D02*
X166223095Y-107836190D01*
X166175476Y-107860000D01*
X166151666Y-107883809D01*
X166104047Y-107955238D01*
X166080238Y-108050476D01*
X166080238Y-108240952D01*
X166104047Y-108288571D01*
X166127857Y-108312380D01*
X166175476Y-108336190D01*
X166270714Y-108336190D01*
X166318333Y-108312380D01*
X166342142Y-108288571D01*
X166365952Y-108240952D01*
X166365952Y-108121904D01*
X166342142Y-108074285D01*
X166318333Y-108050476D01*
X166270714Y-108026666D01*
X166175476Y-108026666D01*
X166127857Y-108050476D01*
X166104047Y-108074285D01*
X166080238Y-108121904D01*
%TO.C,R31*%
X169223571Y-98176190D02*
X169056904Y-97938095D01*
X168937857Y-98176190D02*
X168937857Y-97676190D01*
X169128333Y-97676190D01*
X169175952Y-97700000D01*
X169199761Y-97723809D01*
X169223571Y-97771428D01*
X169223571Y-97842857D01*
X169199761Y-97890476D01*
X169175952Y-97914285D01*
X169128333Y-97938095D01*
X168937857Y-97938095D01*
X169390238Y-97676190D02*
X169699761Y-97676190D01*
X169533095Y-97866666D01*
X169604523Y-97866666D01*
X169652142Y-97890476D01*
X169675952Y-97914285D01*
X169699761Y-97961904D01*
X169699761Y-98080952D01*
X169675952Y-98128571D01*
X169652142Y-98152380D01*
X169604523Y-98176190D01*
X169461666Y-98176190D01*
X169414047Y-98152380D01*
X169390238Y-98128571D01*
X170175952Y-98176190D02*
X169890238Y-98176190D01*
X170033095Y-98176190D02*
X170033095Y-97676190D01*
X169985476Y-97747619D01*
X169937857Y-97795238D01*
X169890238Y-97819047D01*
D11*
%TO.C,C4*%
X130008333Y-119737142D02*
X129960714Y-119784761D01*
X129817857Y-119832380D01*
X129722619Y-119832380D01*
X129579761Y-119784761D01*
X129484523Y-119689523D01*
X129436904Y-119594285D01*
X129389285Y-119403809D01*
X129389285Y-119260952D01*
X129436904Y-119070476D01*
X129484523Y-118975238D01*
X129579761Y-118880000D01*
X129722619Y-118832380D01*
X129817857Y-118832380D01*
X129960714Y-118880000D01*
X130008333Y-118927619D01*
X130865476Y-119165714D02*
X130865476Y-119832380D01*
X130627380Y-118784761D02*
X130389285Y-119499047D01*
X131008333Y-119499047D01*
%TO.C,R6*%
X136358333Y-109037380D02*
X136025000Y-108561190D01*
X135786904Y-109037380D02*
X135786904Y-108037380D01*
X136167857Y-108037380D01*
X136263095Y-108085000D01*
X136310714Y-108132619D01*
X136358333Y-108227857D01*
X136358333Y-108370714D01*
X136310714Y-108465952D01*
X136263095Y-108513571D01*
X136167857Y-108561190D01*
X135786904Y-108561190D01*
X137215476Y-108037380D02*
X137025000Y-108037380D01*
X136929761Y-108085000D01*
X136882142Y-108132619D01*
X136786904Y-108275476D01*
X136739285Y-108465952D01*
X136739285Y-108846904D01*
X136786904Y-108942142D01*
X136834523Y-108989761D01*
X136929761Y-109037380D01*
X137120238Y-109037380D01*
X137215476Y-108989761D01*
X137263095Y-108942142D01*
X137310714Y-108846904D01*
X137310714Y-108608809D01*
X137263095Y-108513571D01*
X137215476Y-108465952D01*
X137120238Y-108418333D01*
X136929761Y-108418333D01*
X136834523Y-108465952D01*
X136786904Y-108513571D01*
X136739285Y-108608809D01*
%TO.C,R37*%
X256582142Y-110532380D02*
X256248809Y-110056190D01*
X256010714Y-110532380D02*
X256010714Y-109532380D01*
X256391666Y-109532380D01*
X256486904Y-109580000D01*
X256534523Y-109627619D01*
X256582142Y-109722857D01*
X256582142Y-109865714D01*
X256534523Y-109960952D01*
X256486904Y-110008571D01*
X256391666Y-110056190D01*
X256010714Y-110056190D01*
X256915476Y-109532380D02*
X257534523Y-109532380D01*
X257201190Y-109913333D01*
X257344047Y-109913333D01*
X257439285Y-109960952D01*
X257486904Y-110008571D01*
X257534523Y-110103809D01*
X257534523Y-110341904D01*
X257486904Y-110437142D01*
X257439285Y-110484761D01*
X257344047Y-110532380D01*
X257058333Y-110532380D01*
X256963095Y-110484761D01*
X256915476Y-110437142D01*
X257867857Y-109532380D02*
X258534523Y-109532380D01*
X258105952Y-110532380D01*
%TO.C,R4*%
X150152380Y-101131666D02*
X149676190Y-101465000D01*
X150152380Y-101703095D02*
X149152380Y-101703095D01*
X149152380Y-101322142D01*
X149200000Y-101226904D01*
X149247619Y-101179285D01*
X149342857Y-101131666D01*
X149485714Y-101131666D01*
X149580952Y-101179285D01*
X149628571Y-101226904D01*
X149676190Y-101322142D01*
X149676190Y-101703095D01*
X149485714Y-100274523D02*
X150152380Y-100274523D01*
X149104761Y-100512619D02*
X149819047Y-100750714D01*
X149819047Y-100131666D01*
%TO.C,D1*%
X123213904Y-122372380D02*
X123213904Y-121372380D01*
X123452000Y-121372380D01*
X123594857Y-121420000D01*
X123690095Y-121515238D01*
X123737714Y-121610476D01*
X123785333Y-121800952D01*
X123785333Y-121943809D01*
X123737714Y-122134285D01*
X123690095Y-122229523D01*
X123594857Y-122324761D01*
X123452000Y-122372380D01*
X123213904Y-122372380D01*
X124737714Y-122372380D02*
X124166285Y-122372380D01*
X124452000Y-122372380D02*
X124452000Y-121372380D01*
X124356761Y-121515238D01*
X124261523Y-121610476D01*
X124166285Y-121658095D01*
D12*
%TO.C,R12*%
X154618571Y-77856190D02*
X154451904Y-77618095D01*
X154332857Y-77856190D02*
X154332857Y-77356190D01*
X154523333Y-77356190D01*
X154570952Y-77380000D01*
X154594761Y-77403809D01*
X154618571Y-77451428D01*
X154618571Y-77522857D01*
X154594761Y-77570476D01*
X154570952Y-77594285D01*
X154523333Y-77618095D01*
X154332857Y-77618095D01*
X155094761Y-77856190D02*
X154809047Y-77856190D01*
X154951904Y-77856190D02*
X154951904Y-77356190D01*
X154904285Y-77427619D01*
X154856666Y-77475238D01*
X154809047Y-77499047D01*
X155285238Y-77403809D02*
X155309047Y-77380000D01*
X155356666Y-77356190D01*
X155475714Y-77356190D01*
X155523333Y-77380000D01*
X155547142Y-77403809D01*
X155570952Y-77451428D01*
X155570952Y-77499047D01*
X155547142Y-77570476D01*
X155261428Y-77856190D01*
X155570952Y-77856190D01*
D11*
%TO.C,R46*%
X233912142Y-118722380D02*
X233578809Y-118246190D01*
X233340714Y-118722380D02*
X233340714Y-117722380D01*
X233721666Y-117722380D01*
X233816904Y-117770000D01*
X233864523Y-117817619D01*
X233912142Y-117912857D01*
X233912142Y-118055714D01*
X233864523Y-118150952D01*
X233816904Y-118198571D01*
X233721666Y-118246190D01*
X233340714Y-118246190D01*
X234769285Y-118055714D02*
X234769285Y-118722380D01*
X234531190Y-117674761D02*
X234293095Y-118389047D01*
X234912142Y-118389047D01*
X235721666Y-117722380D02*
X235531190Y-117722380D01*
X235435952Y-117770000D01*
X235388333Y-117817619D01*
X235293095Y-117960476D01*
X235245476Y-118150952D01*
X235245476Y-118531904D01*
X235293095Y-118627142D01*
X235340714Y-118674761D01*
X235435952Y-118722380D01*
X235626428Y-118722380D01*
X235721666Y-118674761D01*
X235769285Y-118627142D01*
X235816904Y-118531904D01*
X235816904Y-118293809D01*
X235769285Y-118198571D01*
X235721666Y-118150952D01*
X235626428Y-118103333D01*
X235435952Y-118103333D01*
X235340714Y-118150952D01*
X235293095Y-118198571D01*
X235245476Y-118293809D01*
D12*
%TO.C,R18*%
X154618571Y-62616190D02*
X154451904Y-62378095D01*
X154332857Y-62616190D02*
X154332857Y-62116190D01*
X154523333Y-62116190D01*
X154570952Y-62140000D01*
X154594761Y-62163809D01*
X154618571Y-62211428D01*
X154618571Y-62282857D01*
X154594761Y-62330476D01*
X154570952Y-62354285D01*
X154523333Y-62378095D01*
X154332857Y-62378095D01*
X155094761Y-62616190D02*
X154809047Y-62616190D01*
X154951904Y-62616190D02*
X154951904Y-62116190D01*
X154904285Y-62187619D01*
X154856666Y-62235238D01*
X154809047Y-62259047D01*
X155380476Y-62330476D02*
X155332857Y-62306666D01*
X155309047Y-62282857D01*
X155285238Y-62235238D01*
X155285238Y-62211428D01*
X155309047Y-62163809D01*
X155332857Y-62140000D01*
X155380476Y-62116190D01*
X155475714Y-62116190D01*
X155523333Y-62140000D01*
X155547142Y-62163809D01*
X155570952Y-62211428D01*
X155570952Y-62235238D01*
X155547142Y-62282857D01*
X155523333Y-62306666D01*
X155475714Y-62330476D01*
X155380476Y-62330476D01*
X155332857Y-62354285D01*
X155309047Y-62378095D01*
X155285238Y-62425714D01*
X155285238Y-62520952D01*
X155309047Y-62568571D01*
X155332857Y-62592380D01*
X155380476Y-62616190D01*
X155475714Y-62616190D01*
X155523333Y-62592380D01*
X155547142Y-62568571D01*
X155570952Y-62520952D01*
X155570952Y-62425714D01*
X155547142Y-62378095D01*
X155523333Y-62354285D01*
X155475714Y-62330476D01*
D11*
%TO.C,R51*%
X246962142Y-123162380D02*
X246628809Y-122686190D01*
X246390714Y-123162380D02*
X246390714Y-122162380D01*
X246771666Y-122162380D01*
X246866904Y-122210000D01*
X246914523Y-122257619D01*
X246962142Y-122352857D01*
X246962142Y-122495714D01*
X246914523Y-122590952D01*
X246866904Y-122638571D01*
X246771666Y-122686190D01*
X246390714Y-122686190D01*
X247866904Y-122162380D02*
X247390714Y-122162380D01*
X247343095Y-122638571D01*
X247390714Y-122590952D01*
X247485952Y-122543333D01*
X247724047Y-122543333D01*
X247819285Y-122590952D01*
X247866904Y-122638571D01*
X247914523Y-122733809D01*
X247914523Y-122971904D01*
X247866904Y-123067142D01*
X247819285Y-123114761D01*
X247724047Y-123162380D01*
X247485952Y-123162380D01*
X247390714Y-123114761D01*
X247343095Y-123067142D01*
X248866904Y-123162380D02*
X248295476Y-123162380D01*
X248581190Y-123162380D02*
X248581190Y-122162380D01*
X248485952Y-122305238D01*
X248390714Y-122400476D01*
X248295476Y-122448095D01*
D12*
%TO.C,R16*%
X154618571Y-67696190D02*
X154451904Y-67458095D01*
X154332857Y-67696190D02*
X154332857Y-67196190D01*
X154523333Y-67196190D01*
X154570952Y-67220000D01*
X154594761Y-67243809D01*
X154618571Y-67291428D01*
X154618571Y-67362857D01*
X154594761Y-67410476D01*
X154570952Y-67434285D01*
X154523333Y-67458095D01*
X154332857Y-67458095D01*
X155094761Y-67696190D02*
X154809047Y-67696190D01*
X154951904Y-67696190D02*
X154951904Y-67196190D01*
X154904285Y-67267619D01*
X154856666Y-67315238D01*
X154809047Y-67339047D01*
X155523333Y-67196190D02*
X155428095Y-67196190D01*
X155380476Y-67220000D01*
X155356666Y-67243809D01*
X155309047Y-67315238D01*
X155285238Y-67410476D01*
X155285238Y-67600952D01*
X155309047Y-67648571D01*
X155332857Y-67672380D01*
X155380476Y-67696190D01*
X155475714Y-67696190D01*
X155523333Y-67672380D01*
X155547142Y-67648571D01*
X155570952Y-67600952D01*
X155570952Y-67481904D01*
X155547142Y-67434285D01*
X155523333Y-67410476D01*
X155475714Y-67386666D01*
X155380476Y-67386666D01*
X155332857Y-67410476D01*
X155309047Y-67434285D01*
X155285238Y-67481904D01*
D11*
%TO.C,J1*%
X122407380Y-37163333D02*
X123121666Y-37163333D01*
X123264523Y-37210952D01*
X123359761Y-37306190D01*
X123407380Y-37449047D01*
X123407380Y-37544285D01*
X123407380Y-36163333D02*
X123407380Y-36734761D01*
X123407380Y-36449047D02*
X122407380Y-36449047D01*
X122550238Y-36544285D01*
X122645476Y-36639523D01*
X122693095Y-36734761D01*
D12*
%TO.C,D11*%
X168302857Y-48011190D02*
X168302857Y-47511190D01*
X168421904Y-47511190D01*
X168493333Y-47535000D01*
X168540952Y-47582619D01*
X168564761Y-47630238D01*
X168588571Y-47725476D01*
X168588571Y-47796904D01*
X168564761Y-47892142D01*
X168540952Y-47939761D01*
X168493333Y-47987380D01*
X168421904Y-48011190D01*
X168302857Y-48011190D01*
X169064761Y-48011190D02*
X168779047Y-48011190D01*
X168921904Y-48011190D02*
X168921904Y-47511190D01*
X168874285Y-47582619D01*
X168826666Y-47630238D01*
X168779047Y-47654047D01*
X169540952Y-48011190D02*
X169255238Y-48011190D01*
X169398095Y-48011190D02*
X169398095Y-47511190D01*
X169350476Y-47582619D01*
X169302857Y-47630238D01*
X169255238Y-47654047D01*
%TO.C,R21*%
X172398571Y-45471190D02*
X172231904Y-45233095D01*
X172112857Y-45471190D02*
X172112857Y-44971190D01*
X172303333Y-44971190D01*
X172350952Y-44995000D01*
X172374761Y-45018809D01*
X172398571Y-45066428D01*
X172398571Y-45137857D01*
X172374761Y-45185476D01*
X172350952Y-45209285D01*
X172303333Y-45233095D01*
X172112857Y-45233095D01*
X172589047Y-45018809D02*
X172612857Y-44995000D01*
X172660476Y-44971190D01*
X172779523Y-44971190D01*
X172827142Y-44995000D01*
X172850952Y-45018809D01*
X172874761Y-45066428D01*
X172874761Y-45114047D01*
X172850952Y-45185476D01*
X172565238Y-45471190D01*
X172874761Y-45471190D01*
X173350952Y-45471190D02*
X173065238Y-45471190D01*
X173208095Y-45471190D02*
X173208095Y-44971190D01*
X173160476Y-45042619D01*
X173112857Y-45090238D01*
X173065238Y-45114047D01*
D11*
%TO.C,SW14*%
X34000476Y-46839761D02*
X34143333Y-46887380D01*
X34381428Y-46887380D01*
X34476666Y-46839761D01*
X34524285Y-46792142D01*
X34571904Y-46696904D01*
X34571904Y-46601666D01*
X34524285Y-46506428D01*
X34476666Y-46458809D01*
X34381428Y-46411190D01*
X34190952Y-46363571D01*
X34095714Y-46315952D01*
X34048095Y-46268333D01*
X34000476Y-46173095D01*
X34000476Y-46077857D01*
X34048095Y-45982619D01*
X34095714Y-45935000D01*
X34190952Y-45887380D01*
X34429047Y-45887380D01*
X34571904Y-45935000D01*
X34905238Y-45887380D02*
X35143333Y-46887380D01*
X35333809Y-46173095D01*
X35524285Y-46887380D01*
X35762380Y-45887380D01*
X36667142Y-46887380D02*
X36095714Y-46887380D01*
X36381428Y-46887380D02*
X36381428Y-45887380D01*
X36286190Y-46030238D01*
X36190952Y-46125476D01*
X36095714Y-46173095D01*
X37524285Y-46220714D02*
X37524285Y-46887380D01*
X37286190Y-45839761D02*
X37048095Y-46554047D01*
X37667142Y-46554047D01*
%TO.C,R1*%
X150472380Y-125896666D02*
X149996190Y-126230000D01*
X150472380Y-126468095D02*
X149472380Y-126468095D01*
X149472380Y-126087142D01*
X149520000Y-125991904D01*
X149567619Y-125944285D01*
X149662857Y-125896666D01*
X149805714Y-125896666D01*
X149900952Y-125944285D01*
X149948571Y-125991904D01*
X149996190Y-126087142D01*
X149996190Y-126468095D01*
X150472380Y-124944285D02*
X150472380Y-125515714D01*
X150472380Y-125230000D02*
X149472380Y-125230000D01*
X149615238Y-125325238D01*
X149710476Y-125420476D01*
X149758095Y-125515714D01*
%TO.C,U20*%
X69881904Y-163582380D02*
X69881904Y-164391904D01*
X69929523Y-164487142D01*
X69977142Y-164534761D01*
X70072380Y-164582380D01*
X70262857Y-164582380D01*
X70358095Y-164534761D01*
X70405714Y-164487142D01*
X70453333Y-164391904D01*
X70453333Y-163582380D01*
X70881904Y-163677619D02*
X70929523Y-163630000D01*
X71024761Y-163582380D01*
X71262857Y-163582380D01*
X71358095Y-163630000D01*
X71405714Y-163677619D01*
X71453333Y-163772857D01*
X71453333Y-163868095D01*
X71405714Y-164010952D01*
X70834285Y-164582380D01*
X71453333Y-164582380D01*
X72072380Y-163582380D02*
X72167619Y-163582380D01*
X72262857Y-163630000D01*
X72310476Y-163677619D01*
X72358095Y-163772857D01*
X72405714Y-163963333D01*
X72405714Y-164201428D01*
X72358095Y-164391904D01*
X72310476Y-164487142D01*
X72262857Y-164534761D01*
X72167619Y-164582380D01*
X72072380Y-164582380D01*
X71977142Y-164534761D01*
X71929523Y-164487142D01*
X71881904Y-164391904D01*
X71834285Y-164201428D01*
X71834285Y-163963333D01*
X71881904Y-163772857D01*
X71929523Y-163677619D01*
X71977142Y-163630000D01*
X72072380Y-163582380D01*
%TO.C,CLK1*%
X144343571Y-109782142D02*
X144295952Y-109829761D01*
X144153095Y-109877380D01*
X144057857Y-109877380D01*
X143915000Y-109829761D01*
X143819761Y-109734523D01*
X143772142Y-109639285D01*
X143724523Y-109448809D01*
X143724523Y-109305952D01*
X143772142Y-109115476D01*
X143819761Y-109020238D01*
X143915000Y-108925000D01*
X144057857Y-108877380D01*
X144153095Y-108877380D01*
X144295952Y-108925000D01*
X144343571Y-108972619D01*
X145248333Y-109877380D02*
X144772142Y-109877380D01*
X144772142Y-108877380D01*
X145581666Y-109877380D02*
X145581666Y-108877380D01*
X146153095Y-109877380D02*
X145724523Y-109305952D01*
X146153095Y-108877380D02*
X145581666Y-109448809D01*
X147105476Y-109877380D02*
X146534047Y-109877380D01*
X146819761Y-109877380D02*
X146819761Y-108877380D01*
X146724523Y-109020238D01*
X146629285Y-109115476D01*
X146534047Y-109163095D01*
D12*
%TO.C,R28*%
X169223571Y-90556190D02*
X169056904Y-90318095D01*
X168937857Y-90556190D02*
X168937857Y-90056190D01*
X169128333Y-90056190D01*
X169175952Y-90080000D01*
X169199761Y-90103809D01*
X169223571Y-90151428D01*
X169223571Y-90222857D01*
X169199761Y-90270476D01*
X169175952Y-90294285D01*
X169128333Y-90318095D01*
X168937857Y-90318095D01*
X169414047Y-90103809D02*
X169437857Y-90080000D01*
X169485476Y-90056190D01*
X169604523Y-90056190D01*
X169652142Y-90080000D01*
X169675952Y-90103809D01*
X169699761Y-90151428D01*
X169699761Y-90199047D01*
X169675952Y-90270476D01*
X169390238Y-90556190D01*
X169699761Y-90556190D01*
X169985476Y-90270476D02*
X169937857Y-90246666D01*
X169914047Y-90222857D01*
X169890238Y-90175238D01*
X169890238Y-90151428D01*
X169914047Y-90103809D01*
X169937857Y-90080000D01*
X169985476Y-90056190D01*
X170080714Y-90056190D01*
X170128333Y-90080000D01*
X170152142Y-90103809D01*
X170175952Y-90151428D01*
X170175952Y-90175238D01*
X170152142Y-90222857D01*
X170128333Y-90246666D01*
X170080714Y-90270476D01*
X169985476Y-90270476D01*
X169937857Y-90294285D01*
X169914047Y-90318095D01*
X169890238Y-90365714D01*
X169890238Y-90460952D01*
X169914047Y-90508571D01*
X169937857Y-90532380D01*
X169985476Y-90556190D01*
X170080714Y-90556190D01*
X170128333Y-90532380D01*
X170152142Y-90508571D01*
X170175952Y-90460952D01*
X170175952Y-90365714D01*
X170152142Y-90318095D01*
X170128333Y-90294285D01*
X170080714Y-90270476D01*
%TO.C,R34*%
X169223571Y-105796190D02*
X169056904Y-105558095D01*
X168937857Y-105796190D02*
X168937857Y-105296190D01*
X169128333Y-105296190D01*
X169175952Y-105320000D01*
X169199761Y-105343809D01*
X169223571Y-105391428D01*
X169223571Y-105462857D01*
X169199761Y-105510476D01*
X169175952Y-105534285D01*
X169128333Y-105558095D01*
X168937857Y-105558095D01*
X169390238Y-105296190D02*
X169699761Y-105296190D01*
X169533095Y-105486666D01*
X169604523Y-105486666D01*
X169652142Y-105510476D01*
X169675952Y-105534285D01*
X169699761Y-105581904D01*
X169699761Y-105700952D01*
X169675952Y-105748571D01*
X169652142Y-105772380D01*
X169604523Y-105796190D01*
X169461666Y-105796190D01*
X169414047Y-105772380D01*
X169390238Y-105748571D01*
X170128333Y-105462857D02*
X170128333Y-105796190D01*
X170009285Y-105272380D02*
X169890238Y-105629523D01*
X170199761Y-105629523D01*
%TO.C,D10*%
X150522857Y-60076190D02*
X150522857Y-59576190D01*
X150641904Y-59576190D01*
X150713333Y-59600000D01*
X150760952Y-59647619D01*
X150784761Y-59695238D01*
X150808571Y-59790476D01*
X150808571Y-59861904D01*
X150784761Y-59957142D01*
X150760952Y-60004761D01*
X150713333Y-60052380D01*
X150641904Y-60076190D01*
X150522857Y-60076190D01*
X151284761Y-60076190D02*
X150999047Y-60076190D01*
X151141904Y-60076190D02*
X151141904Y-59576190D01*
X151094285Y-59647619D01*
X151046666Y-59695238D01*
X150999047Y-59719047D01*
X151594285Y-59576190D02*
X151641904Y-59576190D01*
X151689523Y-59600000D01*
X151713333Y-59623809D01*
X151737142Y-59671428D01*
X151760952Y-59766666D01*
X151760952Y-59885714D01*
X151737142Y-59980952D01*
X151713333Y-60028571D01*
X151689523Y-60052380D01*
X151641904Y-60076190D01*
X151594285Y-60076190D01*
X151546666Y-60052380D01*
X151522857Y-60028571D01*
X151499047Y-59980952D01*
X151475238Y-59885714D01*
X151475238Y-59766666D01*
X151499047Y-59671428D01*
X151522857Y-59623809D01*
X151546666Y-59600000D01*
X151594285Y-59576190D01*
D11*
%TO.C,SW13*%
X19800476Y-46839761D02*
X19943333Y-46887380D01*
X20181428Y-46887380D01*
X20276666Y-46839761D01*
X20324285Y-46792142D01*
X20371904Y-46696904D01*
X20371904Y-46601666D01*
X20324285Y-46506428D01*
X20276666Y-46458809D01*
X20181428Y-46411190D01*
X19990952Y-46363571D01*
X19895714Y-46315952D01*
X19848095Y-46268333D01*
X19800476Y-46173095D01*
X19800476Y-46077857D01*
X19848095Y-45982619D01*
X19895714Y-45935000D01*
X19990952Y-45887380D01*
X20229047Y-45887380D01*
X20371904Y-45935000D01*
X20705238Y-45887380D02*
X20943333Y-46887380D01*
X21133809Y-46173095D01*
X21324285Y-46887380D01*
X21562380Y-45887380D01*
X22467142Y-46887380D02*
X21895714Y-46887380D01*
X22181428Y-46887380D02*
X22181428Y-45887380D01*
X22086190Y-46030238D01*
X21990952Y-46125476D01*
X21895714Y-46173095D01*
X22800476Y-45887380D02*
X23419523Y-45887380D01*
X23086190Y-46268333D01*
X23229047Y-46268333D01*
X23324285Y-46315952D01*
X23371904Y-46363571D01*
X23419523Y-46458809D01*
X23419523Y-46696904D01*
X23371904Y-46792142D01*
X23324285Y-46839761D01*
X23229047Y-46887380D01*
X22943333Y-46887380D01*
X22848095Y-46839761D01*
X22800476Y-46792142D01*
D12*
%TO.C,R20*%
X172398571Y-48011190D02*
X172231904Y-47773095D01*
X172112857Y-48011190D02*
X172112857Y-47511190D01*
X172303333Y-47511190D01*
X172350952Y-47535000D01*
X172374761Y-47558809D01*
X172398571Y-47606428D01*
X172398571Y-47677857D01*
X172374761Y-47725476D01*
X172350952Y-47749285D01*
X172303333Y-47773095D01*
X172112857Y-47773095D01*
X172589047Y-47558809D02*
X172612857Y-47535000D01*
X172660476Y-47511190D01*
X172779523Y-47511190D01*
X172827142Y-47535000D01*
X172850952Y-47558809D01*
X172874761Y-47606428D01*
X172874761Y-47654047D01*
X172850952Y-47725476D01*
X172565238Y-48011190D01*
X172874761Y-48011190D01*
X173184285Y-47511190D02*
X173231904Y-47511190D01*
X173279523Y-47535000D01*
X173303333Y-47558809D01*
X173327142Y-47606428D01*
X173350952Y-47701666D01*
X173350952Y-47820714D01*
X173327142Y-47915952D01*
X173303333Y-47963571D01*
X173279523Y-47987380D01*
X173231904Y-48011190D01*
X173184285Y-48011190D01*
X173136666Y-47987380D01*
X173112857Y-47963571D01*
X173089047Y-47915952D01*
X173065238Y-47820714D01*
X173065238Y-47701666D01*
X173089047Y-47606428D01*
X173112857Y-47558809D01*
X173136666Y-47535000D01*
X173184285Y-47511190D01*
%TO.C,D25*%
X165127857Y-105796190D02*
X165127857Y-105296190D01*
X165246904Y-105296190D01*
X165318333Y-105320000D01*
X165365952Y-105367619D01*
X165389761Y-105415238D01*
X165413571Y-105510476D01*
X165413571Y-105581904D01*
X165389761Y-105677142D01*
X165365952Y-105724761D01*
X165318333Y-105772380D01*
X165246904Y-105796190D01*
X165127857Y-105796190D01*
X165604047Y-105343809D02*
X165627857Y-105320000D01*
X165675476Y-105296190D01*
X165794523Y-105296190D01*
X165842142Y-105320000D01*
X165865952Y-105343809D01*
X165889761Y-105391428D01*
X165889761Y-105439047D01*
X165865952Y-105510476D01*
X165580238Y-105796190D01*
X165889761Y-105796190D01*
X166342142Y-105296190D02*
X166104047Y-105296190D01*
X166080238Y-105534285D01*
X166104047Y-105510476D01*
X166151666Y-105486666D01*
X166270714Y-105486666D01*
X166318333Y-105510476D01*
X166342142Y-105534285D01*
X166365952Y-105581904D01*
X166365952Y-105700952D01*
X166342142Y-105748571D01*
X166318333Y-105772380D01*
X166270714Y-105796190D01*
X166151666Y-105796190D01*
X166104047Y-105772380D01*
X166080238Y-105748571D01*
%TO.C,R24*%
X172398571Y-37851190D02*
X172231904Y-37613095D01*
X172112857Y-37851190D02*
X172112857Y-37351190D01*
X172303333Y-37351190D01*
X172350952Y-37375000D01*
X172374761Y-37398809D01*
X172398571Y-37446428D01*
X172398571Y-37517857D01*
X172374761Y-37565476D01*
X172350952Y-37589285D01*
X172303333Y-37613095D01*
X172112857Y-37613095D01*
X172589047Y-37398809D02*
X172612857Y-37375000D01*
X172660476Y-37351190D01*
X172779523Y-37351190D01*
X172827142Y-37375000D01*
X172850952Y-37398809D01*
X172874761Y-37446428D01*
X172874761Y-37494047D01*
X172850952Y-37565476D01*
X172565238Y-37851190D01*
X172874761Y-37851190D01*
X173303333Y-37517857D02*
X173303333Y-37851190D01*
X173184285Y-37327380D02*
X173065238Y-37684523D01*
X173374761Y-37684523D01*
%TO.C,D14*%
X168302857Y-40391190D02*
X168302857Y-39891190D01*
X168421904Y-39891190D01*
X168493333Y-39915000D01*
X168540952Y-39962619D01*
X168564761Y-40010238D01*
X168588571Y-40105476D01*
X168588571Y-40176904D01*
X168564761Y-40272142D01*
X168540952Y-40319761D01*
X168493333Y-40367380D01*
X168421904Y-40391190D01*
X168302857Y-40391190D01*
X169064761Y-40391190D02*
X168779047Y-40391190D01*
X168921904Y-40391190D02*
X168921904Y-39891190D01*
X168874285Y-39962619D01*
X168826666Y-40010238D01*
X168779047Y-40034047D01*
X169493333Y-40057857D02*
X169493333Y-40391190D01*
X169374285Y-39867380D02*
X169255238Y-40224523D01*
X169564761Y-40224523D01*
%TO.C,D13*%
X168302857Y-42931190D02*
X168302857Y-42431190D01*
X168421904Y-42431190D01*
X168493333Y-42455000D01*
X168540952Y-42502619D01*
X168564761Y-42550238D01*
X168588571Y-42645476D01*
X168588571Y-42716904D01*
X168564761Y-42812142D01*
X168540952Y-42859761D01*
X168493333Y-42907380D01*
X168421904Y-42931190D01*
X168302857Y-42931190D01*
X169064761Y-42931190D02*
X168779047Y-42931190D01*
X168921904Y-42931190D02*
X168921904Y-42431190D01*
X168874285Y-42502619D01*
X168826666Y-42550238D01*
X168779047Y-42574047D01*
X169231428Y-42431190D02*
X169540952Y-42431190D01*
X169374285Y-42621666D01*
X169445714Y-42621666D01*
X169493333Y-42645476D01*
X169517142Y-42669285D01*
X169540952Y-42716904D01*
X169540952Y-42835952D01*
X169517142Y-42883571D01*
X169493333Y-42907380D01*
X169445714Y-42931190D01*
X169302857Y-42931190D01*
X169255238Y-42907380D01*
X169231428Y-42883571D01*
D11*
%TO.C,D2*%
X123213904Y-124912380D02*
X123213904Y-123912380D01*
X123452000Y-123912380D01*
X123594857Y-123960000D01*
X123690095Y-124055238D01*
X123737714Y-124150476D01*
X123785333Y-124340952D01*
X123785333Y-124483809D01*
X123737714Y-124674285D01*
X123690095Y-124769523D01*
X123594857Y-124864761D01*
X123452000Y-124912380D01*
X123213904Y-124912380D01*
X124166285Y-124007619D02*
X124213904Y-123960000D01*
X124309142Y-123912380D01*
X124547238Y-123912380D01*
X124642476Y-123960000D01*
X124690095Y-124007619D01*
X124737714Y-124102857D01*
X124737714Y-124198095D01*
X124690095Y-124340952D01*
X124118666Y-124912380D01*
X124737714Y-124912380D01*
%TO.C,C2*%
X171283333Y-122687142D02*
X171235714Y-122734761D01*
X171092857Y-122782380D01*
X170997619Y-122782380D01*
X170854761Y-122734761D01*
X170759523Y-122639523D01*
X170711904Y-122544285D01*
X170664285Y-122353809D01*
X170664285Y-122210952D01*
X170711904Y-122020476D01*
X170759523Y-121925238D01*
X170854761Y-121830000D01*
X170997619Y-121782380D01*
X171092857Y-121782380D01*
X171235714Y-121830000D01*
X171283333Y-121877619D01*
X171664285Y-121877619D02*
X171711904Y-121830000D01*
X171807142Y-121782380D01*
X172045238Y-121782380D01*
X172140476Y-121830000D01*
X172188095Y-121877619D01*
X172235714Y-121972857D01*
X172235714Y-122068095D01*
X172188095Y-122210952D01*
X171616666Y-122782380D01*
X172235714Y-122782380D01*
%TO.C,R41*%
X220322142Y-134602380D02*
X219988809Y-134126190D01*
X219750714Y-134602380D02*
X219750714Y-133602380D01*
X220131666Y-133602380D01*
X220226904Y-133650000D01*
X220274523Y-133697619D01*
X220322142Y-133792857D01*
X220322142Y-133935714D01*
X220274523Y-134030952D01*
X220226904Y-134078571D01*
X220131666Y-134126190D01*
X219750714Y-134126190D01*
X221179285Y-133935714D02*
X221179285Y-134602380D01*
X220941190Y-133554761D02*
X220703095Y-134269047D01*
X221322142Y-134269047D01*
X222226904Y-134602380D02*
X221655476Y-134602380D01*
X221941190Y-134602380D02*
X221941190Y-133602380D01*
X221845952Y-133745238D01*
X221750714Y-133840476D01*
X221655476Y-133888095D01*
D12*
%TO.C,R13*%
X154618571Y-75316190D02*
X154451904Y-75078095D01*
X154332857Y-75316190D02*
X154332857Y-74816190D01*
X154523333Y-74816190D01*
X154570952Y-74840000D01*
X154594761Y-74863809D01*
X154618571Y-74911428D01*
X154618571Y-74982857D01*
X154594761Y-75030476D01*
X154570952Y-75054285D01*
X154523333Y-75078095D01*
X154332857Y-75078095D01*
X155094761Y-75316190D02*
X154809047Y-75316190D01*
X154951904Y-75316190D02*
X154951904Y-74816190D01*
X154904285Y-74887619D01*
X154856666Y-74935238D01*
X154809047Y-74959047D01*
X155261428Y-74816190D02*
X155570952Y-74816190D01*
X155404285Y-75006666D01*
X155475714Y-75006666D01*
X155523333Y-75030476D01*
X155547142Y-75054285D01*
X155570952Y-75101904D01*
X155570952Y-75220952D01*
X155547142Y-75268571D01*
X155523333Y-75292380D01*
X155475714Y-75316190D01*
X155332857Y-75316190D01*
X155285238Y-75292380D01*
X155261428Y-75268571D01*
D11*
%TO.C,R2*%
X154773333Y-103797380D02*
X154440000Y-103321190D01*
X154201904Y-103797380D02*
X154201904Y-102797380D01*
X154582857Y-102797380D01*
X154678095Y-102845000D01*
X154725714Y-102892619D01*
X154773333Y-102987857D01*
X154773333Y-103130714D01*
X154725714Y-103225952D01*
X154678095Y-103273571D01*
X154582857Y-103321190D01*
X154201904Y-103321190D01*
X155154285Y-102892619D02*
X155201904Y-102845000D01*
X155297142Y-102797380D01*
X155535238Y-102797380D01*
X155630476Y-102845000D01*
X155678095Y-102892619D01*
X155725714Y-102987857D01*
X155725714Y-103083095D01*
X155678095Y-103225952D01*
X155106666Y-103797380D01*
X155725714Y-103797380D01*
%TO.C,R8*%
X147788333Y-104432380D02*
X147455000Y-103956190D01*
X147216904Y-104432380D02*
X147216904Y-103432380D01*
X147597857Y-103432380D01*
X147693095Y-103480000D01*
X147740714Y-103527619D01*
X147788333Y-103622857D01*
X147788333Y-103765714D01*
X147740714Y-103860952D01*
X147693095Y-103908571D01*
X147597857Y-103956190D01*
X147216904Y-103956190D01*
X148359761Y-103860952D02*
X148264523Y-103813333D01*
X148216904Y-103765714D01*
X148169285Y-103670476D01*
X148169285Y-103622857D01*
X148216904Y-103527619D01*
X148264523Y-103480000D01*
X148359761Y-103432380D01*
X148550238Y-103432380D01*
X148645476Y-103480000D01*
X148693095Y-103527619D01*
X148740714Y-103622857D01*
X148740714Y-103670476D01*
X148693095Y-103765714D01*
X148645476Y-103813333D01*
X148550238Y-103860952D01*
X148359761Y-103860952D01*
X148264523Y-103908571D01*
X148216904Y-103956190D01*
X148169285Y-104051428D01*
X148169285Y-104241904D01*
X148216904Y-104337142D01*
X148264523Y-104384761D01*
X148359761Y-104432380D01*
X148550238Y-104432380D01*
X148645476Y-104384761D01*
X148693095Y-104337142D01*
X148740714Y-104241904D01*
X148740714Y-104051428D01*
X148693095Y-103956190D01*
X148645476Y-103908571D01*
X148550238Y-103860952D01*
%TO.C,A1*%
X52620714Y-39741666D02*
X53096904Y-39741666D01*
X52525476Y-40027380D02*
X52858809Y-39027380D01*
X53192142Y-40027380D01*
X54049285Y-40027380D02*
X53477857Y-40027380D01*
X53763571Y-40027380D02*
X53763571Y-39027380D01*
X53668333Y-39170238D01*
X53573095Y-39265476D01*
X53477857Y-39313095D01*
D12*
%TO.C,D4*%
X150760952Y-75316190D02*
X150760952Y-74816190D01*
X150880000Y-74816190D01*
X150951428Y-74840000D01*
X150999047Y-74887619D01*
X151022857Y-74935238D01*
X151046666Y-75030476D01*
X151046666Y-75101904D01*
X151022857Y-75197142D01*
X150999047Y-75244761D01*
X150951428Y-75292380D01*
X150880000Y-75316190D01*
X150760952Y-75316190D01*
X151475238Y-74982857D02*
X151475238Y-75316190D01*
X151356190Y-74792380D02*
X151237142Y-75149523D01*
X151546666Y-75149523D01*
D11*
%TO.C,SW5*%
X101139761Y-96333333D02*
X101187380Y-96190476D01*
X101187380Y-95952380D01*
X101139761Y-95857142D01*
X101092142Y-95809523D01*
X100996904Y-95761904D01*
X100901666Y-95761904D01*
X100806428Y-95809523D01*
X100758809Y-95857142D01*
X100711190Y-95952380D01*
X100663571Y-96142857D01*
X100615952Y-96238095D01*
X100568333Y-96285714D01*
X100473095Y-96333333D01*
X100377857Y-96333333D01*
X100282619Y-96285714D01*
X100235000Y-96238095D01*
X100187380Y-96142857D01*
X100187380Y-95904761D01*
X100235000Y-95761904D01*
X100187380Y-95428571D02*
X101187380Y-95190476D01*
X100473095Y-95000000D01*
X101187380Y-94809523D01*
X100187380Y-94571428D01*
X100187380Y-93714285D02*
X100187380Y-94190476D01*
X100663571Y-94238095D01*
X100615952Y-94190476D01*
X100568333Y-94095238D01*
X100568333Y-93857142D01*
X100615952Y-93761904D01*
X100663571Y-93714285D01*
X100758809Y-93666666D01*
X100996904Y-93666666D01*
X101092142Y-93714285D01*
X101139761Y-93761904D01*
X101187380Y-93857142D01*
X101187380Y-94095238D01*
X101139761Y-94190476D01*
X101092142Y-94238095D01*
%TO.C,SW12*%
X43275476Y-76669761D02*
X43418333Y-76717380D01*
X43656428Y-76717380D01*
X43751666Y-76669761D01*
X43799285Y-76622142D01*
X43846904Y-76526904D01*
X43846904Y-76431666D01*
X43799285Y-76336428D01*
X43751666Y-76288809D01*
X43656428Y-76241190D01*
X43465952Y-76193571D01*
X43370714Y-76145952D01*
X43323095Y-76098333D01*
X43275476Y-76003095D01*
X43275476Y-75907857D01*
X43323095Y-75812619D01*
X43370714Y-75765000D01*
X43465952Y-75717380D01*
X43704047Y-75717380D01*
X43846904Y-75765000D01*
X44180238Y-75717380D02*
X44418333Y-76717380D01*
X44608809Y-76003095D01*
X44799285Y-76717380D01*
X45037380Y-75717380D01*
X45942142Y-76717380D02*
X45370714Y-76717380D01*
X45656428Y-76717380D02*
X45656428Y-75717380D01*
X45561190Y-75860238D01*
X45465952Y-75955476D01*
X45370714Y-76003095D01*
X46323095Y-75812619D02*
X46370714Y-75765000D01*
X46465952Y-75717380D01*
X46704047Y-75717380D01*
X46799285Y-75765000D01*
X46846904Y-75812619D01*
X46894523Y-75907857D01*
X46894523Y-76003095D01*
X46846904Y-76145952D01*
X46275476Y-76717380D01*
X46894523Y-76717380D01*
%TO.C,R50*%
X242612142Y-123242380D02*
X242278809Y-122766190D01*
X242040714Y-123242380D02*
X242040714Y-122242380D01*
X242421666Y-122242380D01*
X242516904Y-122290000D01*
X242564523Y-122337619D01*
X242612142Y-122432857D01*
X242612142Y-122575714D01*
X242564523Y-122670952D01*
X242516904Y-122718571D01*
X242421666Y-122766190D01*
X242040714Y-122766190D01*
X243516904Y-122242380D02*
X243040714Y-122242380D01*
X242993095Y-122718571D01*
X243040714Y-122670952D01*
X243135952Y-122623333D01*
X243374047Y-122623333D01*
X243469285Y-122670952D01*
X243516904Y-122718571D01*
X243564523Y-122813809D01*
X243564523Y-123051904D01*
X243516904Y-123147142D01*
X243469285Y-123194761D01*
X243374047Y-123242380D01*
X243135952Y-123242380D01*
X243040714Y-123194761D01*
X242993095Y-123147142D01*
X244183571Y-122242380D02*
X244278809Y-122242380D01*
X244374047Y-122290000D01*
X244421666Y-122337619D01*
X244469285Y-122432857D01*
X244516904Y-122623333D01*
X244516904Y-122861428D01*
X244469285Y-123051904D01*
X244421666Y-123147142D01*
X244374047Y-123194761D01*
X244278809Y-123242380D01*
X244183571Y-123242380D01*
X244088333Y-123194761D01*
X244040714Y-123147142D01*
X243993095Y-123051904D01*
X243945476Y-122861428D01*
X243945476Y-122623333D01*
X243993095Y-122432857D01*
X244040714Y-122337619D01*
X244088333Y-122290000D01*
X244183571Y-122242380D01*
D12*
%TO.C,R22*%
X172398571Y-42931190D02*
X172231904Y-42693095D01*
X172112857Y-42931190D02*
X172112857Y-42431190D01*
X172303333Y-42431190D01*
X172350952Y-42455000D01*
X172374761Y-42478809D01*
X172398571Y-42526428D01*
X172398571Y-42597857D01*
X172374761Y-42645476D01*
X172350952Y-42669285D01*
X172303333Y-42693095D01*
X172112857Y-42693095D01*
X172589047Y-42478809D02*
X172612857Y-42455000D01*
X172660476Y-42431190D01*
X172779523Y-42431190D01*
X172827142Y-42455000D01*
X172850952Y-42478809D01*
X172874761Y-42526428D01*
X172874761Y-42574047D01*
X172850952Y-42645476D01*
X172565238Y-42931190D01*
X172874761Y-42931190D01*
X173065238Y-42478809D02*
X173089047Y-42455000D01*
X173136666Y-42431190D01*
X173255714Y-42431190D01*
X173303333Y-42455000D01*
X173327142Y-42478809D01*
X173350952Y-42526428D01*
X173350952Y-42574047D01*
X173327142Y-42645476D01*
X173041428Y-42931190D01*
X173350952Y-42931190D01*
%TO.C,R27*%
X172398571Y-30231190D02*
X172231904Y-29993095D01*
X172112857Y-30231190D02*
X172112857Y-29731190D01*
X172303333Y-29731190D01*
X172350952Y-29755000D01*
X172374761Y-29778809D01*
X172398571Y-29826428D01*
X172398571Y-29897857D01*
X172374761Y-29945476D01*
X172350952Y-29969285D01*
X172303333Y-29993095D01*
X172112857Y-29993095D01*
X172589047Y-29778809D02*
X172612857Y-29755000D01*
X172660476Y-29731190D01*
X172779523Y-29731190D01*
X172827142Y-29755000D01*
X172850952Y-29778809D01*
X172874761Y-29826428D01*
X172874761Y-29874047D01*
X172850952Y-29945476D01*
X172565238Y-30231190D01*
X172874761Y-30231190D01*
X173041428Y-29731190D02*
X173374761Y-29731190D01*
X173160476Y-30231190D01*
%TO.C,R17*%
X154618571Y-65156190D02*
X154451904Y-64918095D01*
X154332857Y-65156190D02*
X154332857Y-64656190D01*
X154523333Y-64656190D01*
X154570952Y-64680000D01*
X154594761Y-64703809D01*
X154618571Y-64751428D01*
X154618571Y-64822857D01*
X154594761Y-64870476D01*
X154570952Y-64894285D01*
X154523333Y-64918095D01*
X154332857Y-64918095D01*
X155094761Y-65156190D02*
X154809047Y-65156190D01*
X154951904Y-65156190D02*
X154951904Y-64656190D01*
X154904285Y-64727619D01*
X154856666Y-64775238D01*
X154809047Y-64799047D01*
X155261428Y-64656190D02*
X155594761Y-64656190D01*
X155380476Y-65156190D01*
%TO.C,R35*%
X169223571Y-108336190D02*
X169056904Y-108098095D01*
X168937857Y-108336190D02*
X168937857Y-107836190D01*
X169128333Y-107836190D01*
X169175952Y-107860000D01*
X169199761Y-107883809D01*
X169223571Y-107931428D01*
X169223571Y-108002857D01*
X169199761Y-108050476D01*
X169175952Y-108074285D01*
X169128333Y-108098095D01*
X168937857Y-108098095D01*
X169390238Y-107836190D02*
X169699761Y-107836190D01*
X169533095Y-108026666D01*
X169604523Y-108026666D01*
X169652142Y-108050476D01*
X169675952Y-108074285D01*
X169699761Y-108121904D01*
X169699761Y-108240952D01*
X169675952Y-108288571D01*
X169652142Y-108312380D01*
X169604523Y-108336190D01*
X169461666Y-108336190D01*
X169414047Y-108312380D01*
X169390238Y-108288571D01*
X170152142Y-107836190D02*
X169914047Y-107836190D01*
X169890238Y-108074285D01*
X169914047Y-108050476D01*
X169961666Y-108026666D01*
X170080714Y-108026666D01*
X170128333Y-108050476D01*
X170152142Y-108074285D01*
X170175952Y-108121904D01*
X170175952Y-108240952D01*
X170152142Y-108288571D01*
X170128333Y-108312380D01*
X170080714Y-108336190D01*
X169961666Y-108336190D01*
X169914047Y-108312380D01*
X169890238Y-108288571D01*
D11*
%TO.C,C3*%
X147788333Y-107672142D02*
X147740714Y-107719761D01*
X147597857Y-107767380D01*
X147502619Y-107767380D01*
X147359761Y-107719761D01*
X147264523Y-107624523D01*
X147216904Y-107529285D01*
X147169285Y-107338809D01*
X147169285Y-107195952D01*
X147216904Y-107005476D01*
X147264523Y-106910238D01*
X147359761Y-106815000D01*
X147502619Y-106767380D01*
X147597857Y-106767380D01*
X147740714Y-106815000D01*
X147788333Y-106862619D01*
X148121666Y-106767380D02*
X148740714Y-106767380D01*
X148407380Y-107148333D01*
X148550238Y-107148333D01*
X148645476Y-107195952D01*
X148693095Y-107243571D01*
X148740714Y-107338809D01*
X148740714Y-107576904D01*
X148693095Y-107672142D01*
X148645476Y-107719761D01*
X148550238Y-107767380D01*
X148264523Y-107767380D01*
X148169285Y-107719761D01*
X148121666Y-107672142D01*
%TO.C,U3*%
X50038095Y-24032380D02*
X50038095Y-24841904D01*
X50085714Y-24937142D01*
X50133333Y-24984761D01*
X50228571Y-25032380D01*
X50419047Y-25032380D01*
X50514285Y-24984761D01*
X50561904Y-24937142D01*
X50609523Y-24841904D01*
X50609523Y-24032380D01*
X50990476Y-24032380D02*
X51609523Y-24032380D01*
X51276190Y-24413333D01*
X51419047Y-24413333D01*
X51514285Y-24460952D01*
X51561904Y-24508571D01*
X51609523Y-24603809D01*
X51609523Y-24841904D01*
X51561904Y-24937142D01*
X51514285Y-24984761D01*
X51419047Y-25032380D01*
X51133333Y-25032380D01*
X51038095Y-24984761D01*
X50990476Y-24937142D01*
D12*
%TO.C,R29*%
X169223571Y-93096190D02*
X169056904Y-92858095D01*
X168937857Y-93096190D02*
X168937857Y-92596190D01*
X169128333Y-92596190D01*
X169175952Y-92620000D01*
X169199761Y-92643809D01*
X169223571Y-92691428D01*
X169223571Y-92762857D01*
X169199761Y-92810476D01*
X169175952Y-92834285D01*
X169128333Y-92858095D01*
X168937857Y-92858095D01*
X169414047Y-92643809D02*
X169437857Y-92620000D01*
X169485476Y-92596190D01*
X169604523Y-92596190D01*
X169652142Y-92620000D01*
X169675952Y-92643809D01*
X169699761Y-92691428D01*
X169699761Y-92739047D01*
X169675952Y-92810476D01*
X169390238Y-93096190D01*
X169699761Y-93096190D01*
X169937857Y-93096190D02*
X170033095Y-93096190D01*
X170080714Y-93072380D01*
X170104523Y-93048571D01*
X170152142Y-92977142D01*
X170175952Y-92881904D01*
X170175952Y-92691428D01*
X170152142Y-92643809D01*
X170128333Y-92620000D01*
X170080714Y-92596190D01*
X169985476Y-92596190D01*
X169937857Y-92620000D01*
X169914047Y-92643809D01*
X169890238Y-92691428D01*
X169890238Y-92810476D01*
X169914047Y-92858095D01*
X169937857Y-92881904D01*
X169985476Y-92905714D01*
X170080714Y-92905714D01*
X170128333Y-92881904D01*
X170152142Y-92858095D01*
X170175952Y-92810476D01*
D11*
%TO.C,X8.000Mhz1*%
X154369047Y-123742380D02*
X155035714Y-124742380D01*
X155035714Y-123742380D02*
X154369047Y-124742380D01*
X155559523Y-124170952D02*
X155464285Y-124123333D01*
X155416666Y-124075714D01*
X155369047Y-123980476D01*
X155369047Y-123932857D01*
X155416666Y-123837619D01*
X155464285Y-123790000D01*
X155559523Y-123742380D01*
X155750000Y-123742380D01*
X155845238Y-123790000D01*
X155892857Y-123837619D01*
X155940476Y-123932857D01*
X155940476Y-123980476D01*
X155892857Y-124075714D01*
X155845238Y-124123333D01*
X155750000Y-124170952D01*
X155559523Y-124170952D01*
X155464285Y-124218571D01*
X155416666Y-124266190D01*
X155369047Y-124361428D01*
X155369047Y-124551904D01*
X155416666Y-124647142D01*
X155464285Y-124694761D01*
X155559523Y-124742380D01*
X155750000Y-124742380D01*
X155845238Y-124694761D01*
X155892857Y-124647142D01*
X155940476Y-124551904D01*
X155940476Y-124361428D01*
X155892857Y-124266190D01*
X155845238Y-124218571D01*
X155750000Y-124170952D01*
X156369047Y-124647142D02*
X156416666Y-124694761D01*
X156369047Y-124742380D01*
X156321428Y-124694761D01*
X156369047Y-124647142D01*
X156369047Y-124742380D01*
X157035714Y-123742380D02*
X157130952Y-123742380D01*
X157226190Y-123790000D01*
X157273809Y-123837619D01*
X157321428Y-123932857D01*
X157369047Y-124123333D01*
X157369047Y-124361428D01*
X157321428Y-124551904D01*
X157273809Y-124647142D01*
X157226190Y-124694761D01*
X157130952Y-124742380D01*
X157035714Y-124742380D01*
X156940476Y-124694761D01*
X156892857Y-124647142D01*
X156845238Y-124551904D01*
X156797619Y-124361428D01*
X156797619Y-124123333D01*
X156845238Y-123932857D01*
X156892857Y-123837619D01*
X156940476Y-123790000D01*
X157035714Y-123742380D01*
X157988095Y-123742380D02*
X158083333Y-123742380D01*
X158178571Y-123790000D01*
X158226190Y-123837619D01*
X158273809Y-123932857D01*
X158321428Y-124123333D01*
X158321428Y-124361428D01*
X158273809Y-124551904D01*
X158226190Y-124647142D01*
X158178571Y-124694761D01*
X158083333Y-124742380D01*
X157988095Y-124742380D01*
X157892857Y-124694761D01*
X157845238Y-124647142D01*
X157797619Y-124551904D01*
X157750000Y-124361428D01*
X157750000Y-124123333D01*
X157797619Y-123932857D01*
X157845238Y-123837619D01*
X157892857Y-123790000D01*
X157988095Y-123742380D01*
X158940476Y-123742380D02*
X159035714Y-123742380D01*
X159130952Y-123790000D01*
X159178571Y-123837619D01*
X159226190Y-123932857D01*
X159273809Y-124123333D01*
X159273809Y-124361428D01*
X159226190Y-124551904D01*
X159178571Y-124647142D01*
X159130952Y-124694761D01*
X159035714Y-124742380D01*
X158940476Y-124742380D01*
X158845238Y-124694761D01*
X158797619Y-124647142D01*
X158750000Y-124551904D01*
X158702380Y-124361428D01*
X158702380Y-124123333D01*
X158750000Y-123932857D01*
X158797619Y-123837619D01*
X158845238Y-123790000D01*
X158940476Y-123742380D01*
X159702380Y-124742380D02*
X159702380Y-123742380D01*
X160035714Y-124456666D01*
X160369047Y-123742380D01*
X160369047Y-124742380D01*
X160845238Y-124742380D02*
X160845238Y-123742380D01*
X161273809Y-124742380D02*
X161273809Y-124218571D01*
X161226190Y-124123333D01*
X161130952Y-124075714D01*
X160988095Y-124075714D01*
X160892857Y-124123333D01*
X160845238Y-124170952D01*
X161654761Y-124075714D02*
X162178571Y-124075714D01*
X161654761Y-124742380D01*
X162178571Y-124742380D01*
X163083333Y-124742380D02*
X162511904Y-124742380D01*
X162797619Y-124742380D02*
X162797619Y-123742380D01*
X162702380Y-123885238D01*
X162607142Y-123980476D01*
X162511904Y-124028095D01*
%TO.C,R39*%
X242152142Y-130772380D02*
X241818809Y-130296190D01*
X241580714Y-130772380D02*
X241580714Y-129772380D01*
X241961666Y-129772380D01*
X242056904Y-129820000D01*
X242104523Y-129867619D01*
X242152142Y-129962857D01*
X242152142Y-130105714D01*
X242104523Y-130200952D01*
X242056904Y-130248571D01*
X241961666Y-130296190D01*
X241580714Y-130296190D01*
X242485476Y-129772380D02*
X243104523Y-129772380D01*
X242771190Y-130153333D01*
X242914047Y-130153333D01*
X243009285Y-130200952D01*
X243056904Y-130248571D01*
X243104523Y-130343809D01*
X243104523Y-130581904D01*
X243056904Y-130677142D01*
X243009285Y-130724761D01*
X242914047Y-130772380D01*
X242628333Y-130772380D01*
X242533095Y-130724761D01*
X242485476Y-130677142D01*
X243580714Y-130772380D02*
X243771190Y-130772380D01*
X243866428Y-130724761D01*
X243914047Y-130677142D01*
X244009285Y-130534285D01*
X244056904Y-130343809D01*
X244056904Y-129962857D01*
X244009285Y-129867619D01*
X243961666Y-129820000D01*
X243866428Y-129772380D01*
X243675952Y-129772380D01*
X243580714Y-129820000D01*
X243533095Y-129867619D01*
X243485476Y-129962857D01*
X243485476Y-130200952D01*
X243533095Y-130296190D01*
X243580714Y-130343809D01*
X243675952Y-130391428D01*
X243866428Y-130391428D01*
X243961666Y-130343809D01*
X244009285Y-130296190D01*
X244056904Y-130200952D01*
%TO.C,C1*%
X130008333Y-114657142D02*
X129960714Y-114704761D01*
X129817857Y-114752380D01*
X129722619Y-114752380D01*
X129579761Y-114704761D01*
X129484523Y-114609523D01*
X129436904Y-114514285D01*
X129389285Y-114323809D01*
X129389285Y-114180952D01*
X129436904Y-113990476D01*
X129484523Y-113895238D01*
X129579761Y-113800000D01*
X129722619Y-113752380D01*
X129817857Y-113752380D01*
X129960714Y-113800000D01*
X130008333Y-113847619D01*
X130960714Y-114752380D02*
X130389285Y-114752380D01*
X130675000Y-114752380D02*
X130675000Y-113752380D01*
X130579761Y-113895238D01*
X130484523Y-113990476D01*
X130389285Y-114038095D01*
%TO.C,R43*%
X229102142Y-126412380D02*
X228768809Y-125936190D01*
X228530714Y-126412380D02*
X228530714Y-125412380D01*
X228911666Y-125412380D01*
X229006904Y-125460000D01*
X229054523Y-125507619D01*
X229102142Y-125602857D01*
X229102142Y-125745714D01*
X229054523Y-125840952D01*
X229006904Y-125888571D01*
X228911666Y-125936190D01*
X228530714Y-125936190D01*
X229959285Y-125745714D02*
X229959285Y-126412380D01*
X229721190Y-125364761D02*
X229483095Y-126079047D01*
X230102142Y-126079047D01*
X230387857Y-125412380D02*
X231006904Y-125412380D01*
X230673571Y-125793333D01*
X230816428Y-125793333D01*
X230911666Y-125840952D01*
X230959285Y-125888571D01*
X231006904Y-125983809D01*
X231006904Y-126221904D01*
X230959285Y-126317142D01*
X230911666Y-126364761D01*
X230816428Y-126412380D01*
X230530714Y-126412380D01*
X230435476Y-126364761D01*
X230387857Y-126317142D01*
D12*
%TO.C,D17*%
X168302857Y-32771190D02*
X168302857Y-32271190D01*
X168421904Y-32271190D01*
X168493333Y-32295000D01*
X168540952Y-32342619D01*
X168564761Y-32390238D01*
X168588571Y-32485476D01*
X168588571Y-32556904D01*
X168564761Y-32652142D01*
X168540952Y-32699761D01*
X168493333Y-32747380D01*
X168421904Y-32771190D01*
X168302857Y-32771190D01*
X169064761Y-32771190D02*
X168779047Y-32771190D01*
X168921904Y-32771190D02*
X168921904Y-32271190D01*
X168874285Y-32342619D01*
X168826666Y-32390238D01*
X168779047Y-32414047D01*
X169231428Y-32271190D02*
X169564761Y-32271190D01*
X169350476Y-32771190D01*
D11*
%TO.C,R45*%
X233452142Y-128762380D02*
X233118809Y-128286190D01*
X232880714Y-128762380D02*
X232880714Y-127762380D01*
X233261666Y-127762380D01*
X233356904Y-127810000D01*
X233404523Y-127857619D01*
X233452142Y-127952857D01*
X233452142Y-128095714D01*
X233404523Y-128190952D01*
X233356904Y-128238571D01*
X233261666Y-128286190D01*
X232880714Y-128286190D01*
X234309285Y-128095714D02*
X234309285Y-128762380D01*
X234071190Y-127714761D02*
X233833095Y-128429047D01*
X234452142Y-128429047D01*
X235309285Y-127762380D02*
X234833095Y-127762380D01*
X234785476Y-128238571D01*
X234833095Y-128190952D01*
X234928333Y-128143333D01*
X235166428Y-128143333D01*
X235261666Y-128190952D01*
X235309285Y-128238571D01*
X235356904Y-128333809D01*
X235356904Y-128571904D01*
X235309285Y-128667142D01*
X235261666Y-128714761D01*
X235166428Y-128762380D01*
X234928333Y-128762380D01*
X234833095Y-128714761D01*
X234785476Y-128667142D01*
D12*
%TO.C,D7*%
X150760952Y-67696190D02*
X150760952Y-67196190D01*
X150880000Y-67196190D01*
X150951428Y-67220000D01*
X150999047Y-67267619D01*
X151022857Y-67315238D01*
X151046666Y-67410476D01*
X151046666Y-67481904D01*
X151022857Y-67577142D01*
X150999047Y-67624761D01*
X150951428Y-67672380D01*
X150880000Y-67696190D01*
X150760952Y-67696190D01*
X151213333Y-67196190D02*
X151546666Y-67196190D01*
X151332380Y-67696190D01*
D11*
%TO.C,R48*%
X243532142Y-110532380D02*
X243198809Y-110056190D01*
X242960714Y-110532380D02*
X242960714Y-109532380D01*
X243341666Y-109532380D01*
X243436904Y-109580000D01*
X243484523Y-109627619D01*
X243532142Y-109722857D01*
X243532142Y-109865714D01*
X243484523Y-109960952D01*
X243436904Y-110008571D01*
X243341666Y-110056190D01*
X242960714Y-110056190D01*
X244389285Y-109865714D02*
X244389285Y-110532380D01*
X244151190Y-109484761D02*
X243913095Y-110199047D01*
X244532142Y-110199047D01*
X245055952Y-109960952D02*
X244960714Y-109913333D01*
X244913095Y-109865714D01*
X244865476Y-109770476D01*
X244865476Y-109722857D01*
X244913095Y-109627619D01*
X244960714Y-109580000D01*
X245055952Y-109532380D01*
X245246428Y-109532380D01*
X245341666Y-109580000D01*
X245389285Y-109627619D01*
X245436904Y-109722857D01*
X245436904Y-109770476D01*
X245389285Y-109865714D01*
X245341666Y-109913333D01*
X245246428Y-109960952D01*
X245055952Y-109960952D01*
X244960714Y-110008571D01*
X244913095Y-110056190D01*
X244865476Y-110151428D01*
X244865476Y-110341904D01*
X244913095Y-110437142D01*
X244960714Y-110484761D01*
X245055952Y-110532380D01*
X245246428Y-110532380D01*
X245341666Y-110484761D01*
X245389285Y-110437142D01*
X245436904Y-110341904D01*
X245436904Y-110151428D01*
X245389285Y-110056190D01*
X245341666Y-110008571D01*
X245246428Y-109960952D01*
%TO.C,C6*%
X153802142Y-125896666D02*
X153849761Y-125944285D01*
X153897380Y-126087142D01*
X153897380Y-126182380D01*
X153849761Y-126325238D01*
X153754523Y-126420476D01*
X153659285Y-126468095D01*
X153468809Y-126515714D01*
X153325952Y-126515714D01*
X153135476Y-126468095D01*
X153040238Y-126420476D01*
X152945000Y-126325238D01*
X152897380Y-126182380D01*
X152897380Y-126087142D01*
X152945000Y-125944285D01*
X152992619Y-125896666D01*
X152897380Y-125039523D02*
X152897380Y-125230000D01*
X152945000Y-125325238D01*
X152992619Y-125372857D01*
X153135476Y-125468095D01*
X153325952Y-125515714D01*
X153706904Y-125515714D01*
X153802142Y-125468095D01*
X153849761Y-125420476D01*
X153897380Y-125325238D01*
X153897380Y-125134761D01*
X153849761Y-125039523D01*
X153802142Y-124991904D01*
X153706904Y-124944285D01*
X153468809Y-124944285D01*
X153373571Y-124991904D01*
X153325952Y-125039523D01*
X153278333Y-125134761D01*
X153278333Y-125325238D01*
X153325952Y-125420476D01*
X153373571Y-125468095D01*
X153468809Y-125515714D01*
D12*
%TO.C,R25*%
X172398571Y-35311190D02*
X172231904Y-35073095D01*
X172112857Y-35311190D02*
X172112857Y-34811190D01*
X172303333Y-34811190D01*
X172350952Y-34835000D01*
X172374761Y-34858809D01*
X172398571Y-34906428D01*
X172398571Y-34977857D01*
X172374761Y-35025476D01*
X172350952Y-35049285D01*
X172303333Y-35073095D01*
X172112857Y-35073095D01*
X172589047Y-34858809D02*
X172612857Y-34835000D01*
X172660476Y-34811190D01*
X172779523Y-34811190D01*
X172827142Y-34835000D01*
X172850952Y-34858809D01*
X172874761Y-34906428D01*
X172874761Y-34954047D01*
X172850952Y-35025476D01*
X172565238Y-35311190D01*
X172874761Y-35311190D01*
X173327142Y-34811190D02*
X173089047Y-34811190D01*
X173065238Y-35049285D01*
X173089047Y-35025476D01*
X173136666Y-35001666D01*
X173255714Y-35001666D01*
X173303333Y-35025476D01*
X173327142Y-35049285D01*
X173350952Y-35096904D01*
X173350952Y-35215952D01*
X173327142Y-35263571D01*
X173303333Y-35287380D01*
X173255714Y-35311190D01*
X173136666Y-35311190D01*
X173089047Y-35287380D01*
X173065238Y-35263571D01*
D11*
%TO.C,J2*%
X28886666Y-112747380D02*
X28886666Y-113461666D01*
X28839047Y-113604523D01*
X28743809Y-113699761D01*
X28600952Y-113747380D01*
X28505714Y-113747380D01*
X29315238Y-112842619D02*
X29362857Y-112795000D01*
X29458095Y-112747380D01*
X29696190Y-112747380D01*
X29791428Y-112795000D01*
X29839047Y-112842619D01*
X29886666Y-112937857D01*
X29886666Y-113033095D01*
X29839047Y-113175952D01*
X29267619Y-113747380D01*
X29886666Y-113747380D01*
%TO.C,U2*%
X39878095Y-24032380D02*
X39878095Y-24841904D01*
X39925714Y-24937142D01*
X39973333Y-24984761D01*
X40068571Y-25032380D01*
X40259047Y-25032380D01*
X40354285Y-24984761D01*
X40401904Y-24937142D01*
X40449523Y-24841904D01*
X40449523Y-24032380D01*
X40878095Y-24127619D02*
X40925714Y-24080000D01*
X41020952Y-24032380D01*
X41259047Y-24032380D01*
X41354285Y-24080000D01*
X41401904Y-24127619D01*
X41449523Y-24222857D01*
X41449523Y-24318095D01*
X41401904Y-24460952D01*
X40830476Y-25032380D01*
X41449523Y-25032380D01*
D12*
%TO.C,D12*%
X168302857Y-45471190D02*
X168302857Y-44971190D01*
X168421904Y-44971190D01*
X168493333Y-44995000D01*
X168540952Y-45042619D01*
X168564761Y-45090238D01*
X168588571Y-45185476D01*
X168588571Y-45256904D01*
X168564761Y-45352142D01*
X168540952Y-45399761D01*
X168493333Y-45447380D01*
X168421904Y-45471190D01*
X168302857Y-45471190D01*
X169064761Y-45471190D02*
X168779047Y-45471190D01*
X168921904Y-45471190D02*
X168921904Y-44971190D01*
X168874285Y-45042619D01*
X168826666Y-45090238D01*
X168779047Y-45114047D01*
X169255238Y-45018809D02*
X169279047Y-44995000D01*
X169326666Y-44971190D01*
X169445714Y-44971190D01*
X169493333Y-44995000D01*
X169517142Y-45018809D01*
X169540952Y-45066428D01*
X169540952Y-45114047D01*
X169517142Y-45185476D01*
X169231428Y-45471190D01*
X169540952Y-45471190D01*
D11*
%TO.C,R47*%
X238262142Y-120732380D02*
X237928809Y-120256190D01*
X237690714Y-120732380D02*
X237690714Y-119732380D01*
X238071666Y-119732380D01*
X238166904Y-119780000D01*
X238214523Y-119827619D01*
X238262142Y-119922857D01*
X238262142Y-120065714D01*
X238214523Y-120160952D01*
X238166904Y-120208571D01*
X238071666Y-120256190D01*
X237690714Y-120256190D01*
X239119285Y-120065714D02*
X239119285Y-120732380D01*
X238881190Y-119684761D02*
X238643095Y-120399047D01*
X239262142Y-120399047D01*
X239547857Y-119732380D02*
X240214523Y-119732380D01*
X239785952Y-120732380D01*
%TO.C,U1*%
X155448095Y-91327380D02*
X155448095Y-92136904D01*
X155495714Y-92232142D01*
X155543333Y-92279761D01*
X155638571Y-92327380D01*
X155829047Y-92327380D01*
X155924285Y-92279761D01*
X155971904Y-92232142D01*
X156019523Y-92136904D01*
X156019523Y-91327380D01*
X157019523Y-92327380D02*
X156448095Y-92327380D01*
X156733809Y-92327380D02*
X156733809Y-91327380D01*
X156638571Y-91470238D01*
X156543333Y-91565476D01*
X156448095Y-91613095D01*
D12*
%TO.C,R30*%
X169223571Y-95636190D02*
X169056904Y-95398095D01*
X168937857Y-95636190D02*
X168937857Y-95136190D01*
X169128333Y-95136190D01*
X169175952Y-95160000D01*
X169199761Y-95183809D01*
X169223571Y-95231428D01*
X169223571Y-95302857D01*
X169199761Y-95350476D01*
X169175952Y-95374285D01*
X169128333Y-95398095D01*
X168937857Y-95398095D01*
X169390238Y-95136190D02*
X169699761Y-95136190D01*
X169533095Y-95326666D01*
X169604523Y-95326666D01*
X169652142Y-95350476D01*
X169675952Y-95374285D01*
X169699761Y-95421904D01*
X169699761Y-95540952D01*
X169675952Y-95588571D01*
X169652142Y-95612380D01*
X169604523Y-95636190D01*
X169461666Y-95636190D01*
X169414047Y-95612380D01*
X169390238Y-95588571D01*
X170009285Y-95136190D02*
X170056904Y-95136190D01*
X170104523Y-95160000D01*
X170128333Y-95183809D01*
X170152142Y-95231428D01*
X170175952Y-95326666D01*
X170175952Y-95445714D01*
X170152142Y-95540952D01*
X170128333Y-95588571D01*
X170104523Y-95612380D01*
X170056904Y-95636190D01*
X170009285Y-95636190D01*
X169961666Y-95612380D01*
X169937857Y-95588571D01*
X169914047Y-95540952D01*
X169890238Y-95445714D01*
X169890238Y-95326666D01*
X169914047Y-95231428D01*
X169937857Y-95183809D01*
X169961666Y-95160000D01*
X170009285Y-95136190D01*
%TO.C,D3*%
X150760952Y-77856190D02*
X150760952Y-77356190D01*
X150880000Y-77356190D01*
X150951428Y-77380000D01*
X150999047Y-77427619D01*
X151022857Y-77475238D01*
X151046666Y-77570476D01*
X151046666Y-77641904D01*
X151022857Y-77737142D01*
X150999047Y-77784761D01*
X150951428Y-77832380D01*
X150880000Y-77856190D01*
X150760952Y-77856190D01*
X151213333Y-77356190D02*
X151522857Y-77356190D01*
X151356190Y-77546666D01*
X151427619Y-77546666D01*
X151475238Y-77570476D01*
X151499047Y-77594285D01*
X151522857Y-77641904D01*
X151522857Y-77760952D01*
X151499047Y-77808571D01*
X151475238Y-77832380D01*
X151427619Y-77856190D01*
X151284761Y-77856190D01*
X151237142Y-77832380D01*
X151213333Y-77808571D01*
%TO.C,D24*%
X165127857Y-103256190D02*
X165127857Y-102756190D01*
X165246904Y-102756190D01*
X165318333Y-102780000D01*
X165365952Y-102827619D01*
X165389761Y-102875238D01*
X165413571Y-102970476D01*
X165413571Y-103041904D01*
X165389761Y-103137142D01*
X165365952Y-103184761D01*
X165318333Y-103232380D01*
X165246904Y-103256190D01*
X165127857Y-103256190D01*
X165604047Y-102803809D02*
X165627857Y-102780000D01*
X165675476Y-102756190D01*
X165794523Y-102756190D01*
X165842142Y-102780000D01*
X165865952Y-102803809D01*
X165889761Y-102851428D01*
X165889761Y-102899047D01*
X165865952Y-102970476D01*
X165580238Y-103256190D01*
X165889761Y-103256190D01*
X166318333Y-102922857D02*
X166318333Y-103256190D01*
X166199285Y-102732380D02*
X166080238Y-103089523D01*
X166389761Y-103089523D01*
D11*
%TO.C,U23*%
X47016904Y-148252380D02*
X47016904Y-149061904D01*
X47064523Y-149157142D01*
X47112142Y-149204761D01*
X47207380Y-149252380D01*
X47397857Y-149252380D01*
X47493095Y-149204761D01*
X47540714Y-149157142D01*
X47588333Y-149061904D01*
X47588333Y-148252380D01*
X48016904Y-148347619D02*
X48064523Y-148300000D01*
X48159761Y-148252380D01*
X48397857Y-148252380D01*
X48493095Y-148300000D01*
X48540714Y-148347619D01*
X48588333Y-148442857D01*
X48588333Y-148538095D01*
X48540714Y-148680952D01*
X47969285Y-149252380D01*
X48588333Y-149252380D01*
X48921666Y-148252380D02*
X49540714Y-148252380D01*
X49207380Y-148633333D01*
X49350238Y-148633333D01*
X49445476Y-148680952D01*
X49493095Y-148728571D01*
X49540714Y-148823809D01*
X49540714Y-149061904D01*
X49493095Y-149157142D01*
X49445476Y-149204761D01*
X49350238Y-149252380D01*
X49064523Y-149252380D01*
X48969285Y-149204761D01*
X48921666Y-149157142D01*
%TO.C,R3*%
X150152380Y-96051666D02*
X149676190Y-96385000D01*
X150152380Y-96623095D02*
X149152380Y-96623095D01*
X149152380Y-96242142D01*
X149200000Y-96146904D01*
X149247619Y-96099285D01*
X149342857Y-96051666D01*
X149485714Y-96051666D01*
X149580952Y-96099285D01*
X149628571Y-96146904D01*
X149676190Y-96242142D01*
X149676190Y-96623095D01*
X149152380Y-95718333D02*
X149152380Y-95099285D01*
X149533333Y-95432619D01*
X149533333Y-95289761D01*
X149580952Y-95194523D01*
X149628571Y-95146904D01*
X149723809Y-95099285D01*
X149961904Y-95099285D01*
X150057142Y-95146904D01*
X150104761Y-95194523D01*
X150152380Y-95289761D01*
X150152380Y-95575476D01*
X150104761Y-95670714D01*
X150057142Y-95718333D01*
%TO.C,R36*%
X198112142Y-176822380D02*
X197778809Y-176346190D01*
X197540714Y-176822380D02*
X197540714Y-175822380D01*
X197921666Y-175822380D01*
X198016904Y-175870000D01*
X198064523Y-175917619D01*
X198112142Y-176012857D01*
X198112142Y-176155714D01*
X198064523Y-176250952D01*
X198016904Y-176298571D01*
X197921666Y-176346190D01*
X197540714Y-176346190D01*
X198445476Y-175822380D02*
X199064523Y-175822380D01*
X198731190Y-176203333D01*
X198874047Y-176203333D01*
X198969285Y-176250952D01*
X199016904Y-176298571D01*
X199064523Y-176393809D01*
X199064523Y-176631904D01*
X199016904Y-176727142D01*
X198969285Y-176774761D01*
X198874047Y-176822380D01*
X198588333Y-176822380D01*
X198493095Y-176774761D01*
X198445476Y-176727142D01*
X199921666Y-175822380D02*
X199731190Y-175822380D01*
X199635952Y-175870000D01*
X199588333Y-175917619D01*
X199493095Y-176060476D01*
X199445476Y-176250952D01*
X199445476Y-176631904D01*
X199493095Y-176727142D01*
X199540714Y-176774761D01*
X199635952Y-176822380D01*
X199826428Y-176822380D01*
X199921666Y-176774761D01*
X199969285Y-176727142D01*
X200016904Y-176631904D01*
X200016904Y-176393809D01*
X199969285Y-176298571D01*
X199921666Y-176250952D01*
X199826428Y-176203333D01*
X199635952Y-176203333D01*
X199540714Y-176250952D01*
X199493095Y-176298571D01*
X199445476Y-176393809D01*
D13*
%TO.C,R7*%
X134507500Y-110109724D02*
X134507500Y-109600276D01*
X133462500Y-110109724D02*
X133462500Y-109600276D01*
%TO.C,R42*%
X243040276Y-116167500D02*
X243549724Y-116167500D01*
X243040276Y-117212500D02*
X243549724Y-117212500D01*
%TO.C,C7*%
X151391252Y-108050000D02*
X150868748Y-108050000D01*
X151391252Y-106580000D02*
X150868748Y-106580000D01*
%TO.C,D15*%
X170570000Y-35460000D02*
X168110000Y-35460000D01*
X170570000Y-36930000D02*
X170570000Y-35460000D01*
X168110000Y-36930000D02*
X170570000Y-36930000D01*
%TO.C,D23*%
X167395000Y-99795000D02*
X167395000Y-98325000D01*
X167395000Y-98325000D02*
X164935000Y-98325000D01*
X164935000Y-99795000D02*
X167395000Y-99795000D01*
%TO.C,U24*%
X127000000Y-160150000D02*
X129760000Y-160150000D01*
X127000000Y-149730000D02*
X124240000Y-149730000D01*
X124240000Y-160150000D02*
X124240000Y-159945000D01*
X124240000Y-149730000D02*
X124240000Y-149935000D01*
X124240000Y-149935000D02*
X122550000Y-149935000D01*
X129760000Y-149730000D02*
X129760000Y-149935000D01*
X129760000Y-160150000D02*
X129760000Y-159945000D01*
X127000000Y-149730000D02*
X129760000Y-149730000D01*
X127000000Y-160150000D02*
X124240000Y-160150000D01*
%TO.C,D21*%
X164935000Y-94715000D02*
X167395000Y-94715000D01*
X167395000Y-93245000D02*
X164935000Y-93245000D01*
X167395000Y-94715000D02*
X167395000Y-93245000D01*
%TO.C,D5*%
X150330000Y-71855000D02*
X152790000Y-71855000D01*
X152790000Y-71855000D02*
X152790000Y-70385000D01*
X152790000Y-70385000D02*
X150330000Y-70385000D01*
%TO.C,R32*%
X169799724Y-99582500D02*
X169290276Y-99582500D01*
X169799724Y-98537500D02*
X169290276Y-98537500D01*
%TO.C,R14*%
X155194724Y-71642500D02*
X154685276Y-71642500D01*
X155194724Y-70597500D02*
X154685276Y-70597500D01*
%TO.C,R9*%
X133095276Y-121397500D02*
X133604724Y-121397500D01*
X133095276Y-122442500D02*
X133604724Y-122442500D01*
%TO.C,R49*%
X247390276Y-121107500D02*
X247899724Y-121107500D01*
X247390276Y-122152500D02*
X247899724Y-122152500D01*
%TO.C,D20*%
X167395000Y-90705000D02*
X164935000Y-90705000D01*
X167395000Y-92175000D02*
X167395000Y-90705000D01*
X164935000Y-92175000D02*
X167395000Y-92175000D01*
%TO.C,R5*%
X161812500Y-98170276D02*
X161812500Y-98679724D01*
X160767500Y-98170276D02*
X160767500Y-98679724D01*
%TO.C,CPU1*%
X148645000Y-50685000D02*
X130745000Y-50685000D01*
X138695000Y-50745000D02*
X133235000Y-50745000D01*
X146155000Y-50745000D02*
X140695000Y-50745000D01*
X148645000Y-101725000D02*
X148645000Y-50685000D01*
X146155000Y-101665000D02*
X146155000Y-50745000D01*
X133235000Y-50745000D02*
X133235000Y-101665000D01*
X130745000Y-101725000D02*
X148645000Y-101725000D01*
X133235000Y-101665000D02*
X146155000Y-101665000D01*
X130745000Y-50685000D02*
X130745000Y-101725000D01*
X138695000Y-50745000D02*
G75*
G03*
X140695000Y-50745000I1000000J0D01*
G01*
%TO.C,R23*%
X172974724Y-38212500D02*
X172465276Y-38212500D01*
X172974724Y-39257500D02*
X172465276Y-39257500D01*
%TO.C,D19*%
X167395000Y-89635000D02*
X167395000Y-88165000D01*
X164935000Y-89635000D02*
X167395000Y-89635000D01*
X167395000Y-88165000D02*
X164935000Y-88165000D01*
%TO.C,R19*%
X155194724Y-57897500D02*
X154685276Y-57897500D01*
X155194724Y-58942500D02*
X154685276Y-58942500D01*
%TO.C,D16*%
X170570000Y-34390000D02*
X170570000Y-32920000D01*
X168110000Y-34390000D02*
X170570000Y-34390000D01*
X170570000Y-32920000D02*
X168110000Y-32920000D01*
%TO.C,D6*%
X150330000Y-69315000D02*
X152790000Y-69315000D01*
X152790000Y-67845000D02*
X150330000Y-67845000D01*
X152790000Y-69315000D02*
X152790000Y-67845000D01*
%TO.C,U14*%
X129540000Y-144910000D02*
X132300000Y-144910000D01*
X126780000Y-134490000D02*
X126780000Y-134695000D01*
X126780000Y-144910000D02*
X126780000Y-144705000D01*
X132300000Y-144910000D02*
X132300000Y-144705000D01*
X132300000Y-134490000D02*
X132300000Y-134695000D01*
X126780000Y-134695000D02*
X125090000Y-134695000D01*
X129540000Y-134490000D02*
X126780000Y-134490000D01*
X129540000Y-134490000D02*
X132300000Y-134490000D01*
X129540000Y-144910000D02*
X126780000Y-144910000D01*
%TO.C,U15*%
X139480000Y-134695000D02*
X137790000Y-134695000D01*
X142240000Y-134490000D02*
X145000000Y-134490000D01*
X142240000Y-144910000D02*
X145000000Y-144910000D01*
X142240000Y-134490000D02*
X139480000Y-134490000D01*
X139480000Y-134490000D02*
X139480000Y-134695000D01*
X139480000Y-144910000D02*
X139480000Y-144705000D01*
X145000000Y-144910000D02*
X145000000Y-144705000D01*
X145000000Y-134490000D02*
X145000000Y-134695000D01*
X142240000Y-144910000D02*
X139480000Y-144910000D01*
%TO.C,D8*%
X152790000Y-64235000D02*
X152790000Y-62765000D01*
X152790000Y-62765000D02*
X150330000Y-62765000D01*
X150330000Y-64235000D02*
X152790000Y-64235000D01*
%TO.C,R44*%
X251740276Y-117052500D02*
X252249724Y-117052500D01*
X251740276Y-116007500D02*
X252249724Y-116007500D01*
%TO.C,D22*%
X167395000Y-95785000D02*
X164935000Y-95785000D01*
X167395000Y-97255000D02*
X167395000Y-95785000D01*
X164935000Y-97255000D02*
X167395000Y-97255000D01*
%TO.C,R11*%
X256550276Y-114542500D02*
X257059724Y-114542500D01*
X256550276Y-113497500D02*
X257059724Y-113497500D01*
%TO.C,R38*%
X225060276Y-135942500D02*
X225569724Y-135942500D01*
X225060276Y-134897500D02*
X225569724Y-134897500D01*
%TO.C,C5*%
X133611252Y-117575000D02*
X133088748Y-117575000D01*
X133611252Y-116105000D02*
X133088748Y-116105000D01*
%TO.C,R26*%
X172974724Y-31637500D02*
X172465276Y-31637500D01*
X172974724Y-30592500D02*
X172465276Y-30592500D01*
%TO.C,SW9*%
X23795000Y-88725000D02*
X23795000Y-90345000D01*
X23795000Y-91265000D02*
X23795000Y-92885000D01*
X23795000Y-78565000D02*
X25655000Y-78565000D01*
X23795000Y-88725000D02*
X25655000Y-88725000D01*
X23795000Y-80185000D02*
X25655000Y-80185000D01*
X25655000Y-77265000D02*
X36575000Y-77265000D01*
X23795000Y-81105000D02*
X25655000Y-81105000D01*
X25655000Y-99266000D02*
X36575000Y-99266000D01*
X23795000Y-85265000D02*
X25655000Y-85265000D01*
X23795000Y-78565000D02*
X23795000Y-80185000D01*
X25415000Y-77025000D02*
X26798000Y-77025000D01*
X25655000Y-96346000D02*
X25655000Y-97966000D01*
X25415000Y-77025000D02*
X25415000Y-78408000D01*
X36575000Y-77265000D02*
X36575000Y-99266000D01*
X25655000Y-91265000D02*
X25655000Y-92885000D01*
X23795000Y-96346000D02*
X23795000Y-97966000D01*
X23795000Y-92885000D02*
X25655000Y-92885000D01*
X23795000Y-93805000D02*
X25655000Y-93805000D01*
X23795000Y-93805000D02*
X23795000Y-95425000D01*
X23795000Y-83645000D02*
X23795000Y-85265000D01*
X23795000Y-97966000D02*
X25655000Y-97966000D01*
X25655000Y-93805000D02*
X25655000Y-95425000D01*
X23795000Y-86185000D02*
X25655000Y-86185000D01*
X25655000Y-88725000D02*
X25655000Y-90345000D01*
X25655000Y-83645000D02*
X25655000Y-85265000D01*
X25655000Y-81105000D02*
X25655000Y-82725000D01*
X23795000Y-95425000D02*
X25655000Y-95425000D01*
X25655000Y-78565000D02*
X25655000Y-80185000D01*
X23795000Y-83645000D02*
X25655000Y-83645000D01*
X25655000Y-86185000D02*
X25655000Y-87805000D01*
X23795000Y-81105000D02*
X23795000Y-82725000D01*
X23795000Y-87805000D02*
X25655000Y-87805000D01*
X23795000Y-91265000D02*
X25655000Y-91265000D01*
X23795000Y-82725000D02*
X25655000Y-82725000D01*
X23795000Y-96346000D02*
X25655000Y-96346000D01*
X23795000Y-86185000D02*
X23795000Y-87805000D01*
X23795000Y-90345000D02*
X25655000Y-90345000D01*
X25655000Y-77265000D02*
X25655000Y-99266000D01*
%TO.C,RAM1*%
X169175000Y-50725000D02*
X163715000Y-50725000D01*
X179125000Y-86465000D02*
X179125000Y-50665000D01*
X161225000Y-50665000D02*
X161225000Y-86465000D01*
X161225000Y-86465000D02*
X179125000Y-86465000D01*
X163715000Y-50725000D02*
X163715000Y-86405000D01*
X163715000Y-86405000D02*
X176635000Y-86405000D01*
X179125000Y-50665000D02*
X161225000Y-50665000D01*
X176635000Y-50725000D02*
X171175000Y-50725000D01*
X176635000Y-86405000D02*
X176635000Y-50725000D01*
X169175000Y-50725000D02*
G75*
G03*
X171175000Y-50725000I1000000J0D01*
G01*
%TO.C,D9*%
X152790000Y-61695000D02*
X152790000Y-60225000D01*
X150330000Y-61695000D02*
X152790000Y-61695000D01*
X152790000Y-60225000D02*
X150330000Y-60225000D01*
%TO.C,R40*%
X238190276Y-132272500D02*
X238699724Y-132272500D01*
X238190276Y-131227500D02*
X238699724Y-131227500D01*
%TO.C,R33*%
X169799724Y-102122500D02*
X169290276Y-102122500D01*
X169799724Y-101077500D02*
X169290276Y-101077500D01*
%TO.C,SW10*%
X53825000Y-77265000D02*
X64745000Y-77265000D01*
X51965000Y-81105000D02*
X53825000Y-81105000D01*
X51965000Y-80185000D02*
X53825000Y-80185000D01*
X53825000Y-86185000D02*
X53825000Y-87805000D01*
X51965000Y-88725000D02*
X51965000Y-90345000D01*
X53825000Y-91265000D02*
X53825000Y-92885000D01*
X51965000Y-81105000D02*
X51965000Y-82725000D01*
X51965000Y-92885000D02*
X53825000Y-92885000D01*
X51965000Y-90345000D02*
X53825000Y-90345000D01*
X51965000Y-95425000D02*
X53825000Y-95425000D01*
X53825000Y-93805000D02*
X53825000Y-95425000D01*
X51965000Y-83645000D02*
X51965000Y-85265000D01*
X64745000Y-77265000D02*
X64745000Y-99266000D01*
X51965000Y-86185000D02*
X53825000Y-86185000D01*
X51965000Y-96346000D02*
X51965000Y-97966000D01*
X53825000Y-96346000D02*
X53825000Y-97966000D01*
X51965000Y-78565000D02*
X53825000Y-78565000D01*
X53825000Y-77265000D02*
X53825000Y-99266000D01*
X51965000Y-91265000D02*
X51965000Y-92885000D01*
X53585000Y-77025000D02*
X53585000Y-78408000D01*
X51965000Y-91265000D02*
X53825000Y-91265000D01*
X51965000Y-93805000D02*
X51965000Y-95425000D01*
X51965000Y-78565000D02*
X51965000Y-80185000D01*
X51965000Y-88725000D02*
X53825000Y-88725000D01*
X53825000Y-99266000D02*
X64745000Y-99266000D01*
X51965000Y-83645000D02*
X53825000Y-83645000D01*
X51965000Y-86185000D02*
X51965000Y-87805000D01*
X51965000Y-85265000D02*
X53825000Y-85265000D01*
X51965000Y-93805000D02*
X53825000Y-93805000D01*
X53825000Y-78565000D02*
X53825000Y-80185000D01*
X51965000Y-82725000D02*
X53825000Y-82725000D01*
X51965000Y-96346000D02*
X53825000Y-96346000D01*
X51965000Y-87805000D02*
X53825000Y-87805000D01*
X53825000Y-88725000D02*
X53825000Y-90345000D01*
X53585000Y-77025000D02*
X54968000Y-77025000D01*
X51965000Y-97966000D02*
X53825000Y-97966000D01*
X53825000Y-81105000D02*
X53825000Y-82725000D01*
X53825000Y-83645000D02*
X53825000Y-85265000D01*
%TO.C,R10*%
X133604724Y-124982500D02*
X133095276Y-124982500D01*
X133604724Y-123937500D02*
X133095276Y-123937500D01*
%TO.C,U25*%
X142240000Y-162690000D02*
X145000000Y-162690000D01*
X142240000Y-152270000D02*
X139480000Y-152270000D01*
X139480000Y-152270000D02*
X139480000Y-152475000D01*
X139480000Y-162690000D02*
X139480000Y-162485000D01*
X145000000Y-152270000D02*
X145000000Y-152475000D01*
X139480000Y-152475000D02*
X137790000Y-152475000D01*
X145000000Y-162690000D02*
X145000000Y-162485000D01*
X142240000Y-162690000D02*
X139480000Y-162690000D01*
X142240000Y-152270000D02*
X145000000Y-152270000D01*
%TO.C,D18*%
X170570000Y-29310000D02*
X170570000Y-27840000D01*
X170570000Y-27840000D02*
X168110000Y-27840000D01*
X168110000Y-29310000D02*
X170570000Y-29310000D01*
%TO.C,R15*%
X155194724Y-68057500D02*
X154685276Y-68057500D01*
X155194724Y-69102500D02*
X154685276Y-69102500D01*
%TO.C,ROM1*%
X102755000Y-86405000D02*
X115675000Y-86405000D01*
X102755000Y-50725000D02*
X102755000Y-86405000D01*
X118165000Y-86465000D02*
X118165000Y-50665000D01*
X100265000Y-86465000D02*
X118165000Y-86465000D01*
X108215000Y-50725000D02*
X102755000Y-50725000D01*
X115675000Y-86405000D02*
X115675000Y-50725000D01*
X115675000Y-50725000D02*
X110215000Y-50725000D01*
X118165000Y-50665000D02*
X100265000Y-50665000D01*
X100265000Y-50665000D02*
X100265000Y-86465000D01*
X108215000Y-50725000D02*
G75*
G03*
X110215000Y-50725000I1000000J0D01*
G01*
%TO.C,D26*%
X164935000Y-107415000D02*
X167395000Y-107415000D01*
X167395000Y-105945000D02*
X164935000Y-105945000D01*
X167395000Y-107415000D02*
X167395000Y-105945000D01*
%TO.C,R31*%
X169799724Y-95997500D02*
X169290276Y-95997500D01*
X169799724Y-97042500D02*
X169290276Y-97042500D01*
%TO.C,C4*%
X133088748Y-120115000D02*
X133611252Y-120115000D01*
X133088748Y-118645000D02*
X133611252Y-118645000D01*
%TO.C,R6*%
X139302258Y-109107500D02*
X138827742Y-109107500D01*
X139302258Y-108062500D02*
X138827742Y-108062500D01*
%TO.C,R37*%
X256970276Y-110987500D02*
X257479724Y-110987500D01*
X256970276Y-112032500D02*
X257479724Y-112032500D01*
%TO.C,R4*%
X150607500Y-101219724D02*
X150607500Y-100710276D01*
X151652500Y-101219724D02*
X151652500Y-100710276D01*
%TO.C,D1*%
X130340000Y-121185000D02*
X127880000Y-121185000D01*
X127880000Y-121185000D02*
X127880000Y-122655000D01*
X127880000Y-122655000D02*
X130340000Y-122655000D01*
%TO.C,R12*%
X155194724Y-75677500D02*
X154685276Y-75677500D01*
X155194724Y-76722500D02*
X154685276Y-76722500D01*
D14*
%TO.C,REF\u002A\u002A*%
X249936000Y-142240000D02*
X249936000Y-136652000D01*
X256100580Y-141599920D02*
X257299460Y-141599920D01*
X256100580Y-138998960D02*
X256400300Y-138998960D01*
X257098800Y-138899900D02*
X257299460Y-138800840D01*
X252399800Y-140200380D02*
X252199140Y-140098780D01*
X255000760Y-140401040D02*
X255000760Y-140599160D01*
X255800860Y-137500360D02*
X255800860Y-138800840D01*
X251399040Y-140200380D02*
X251200920Y-140299440D01*
X251500640Y-139100560D02*
X252199140Y-138899900D01*
X249936000Y-136652000D02*
X258064000Y-136652000D01*
X256400300Y-138998960D02*
X256799080Y-138998960D01*
X258064000Y-136652000D02*
X258064000Y-142240000D01*
X251698760Y-140098780D02*
X251399040Y-140200380D01*
X256100580Y-139999720D02*
X256100580Y-141599920D01*
X253199900Y-138998960D02*
X253199900Y-137500360D01*
X256799080Y-138998960D02*
X257098800Y-138899900D01*
X251200920Y-137599420D02*
X250799600Y-137800080D01*
X252199140Y-138399520D02*
X251698760Y-138399520D01*
X251200920Y-140299440D02*
X251000260Y-140599160D01*
X251399040Y-141500860D02*
X251698760Y-141599920D01*
X253199900Y-137500360D02*
X254701040Y-138998960D01*
X254899160Y-140200380D02*
X255000760Y-140401040D01*
X251000260Y-140599160D02*
X251000260Y-140898880D01*
X255000760Y-140599160D02*
X254800100Y-140799820D01*
X254500380Y-140898880D02*
X253601220Y-140898880D01*
X250598940Y-138198860D02*
X250700540Y-138600180D01*
X251698760Y-137500360D02*
X251200920Y-137599420D01*
X254701040Y-140098780D02*
X254899160Y-140200380D01*
X252001020Y-141599920D02*
X252498860Y-141500860D01*
X254500380Y-140098780D02*
X254701040Y-140098780D01*
X252001020Y-137599420D02*
X251698760Y-137500360D01*
X251000260Y-140898880D02*
X251099320Y-141300200D01*
X253601220Y-140098780D02*
X254500380Y-140098780D01*
X251099320Y-141300200D02*
X251399040Y-141500860D01*
X252199140Y-138899900D02*
X252199140Y-138399520D01*
X257299460Y-138800840D02*
X257299460Y-137500360D01*
X252199140Y-140098780D02*
X251698760Y-140098780D01*
X250700540Y-138600180D02*
X251000260Y-138899900D01*
X254701040Y-138998960D02*
X254701040Y-137500360D01*
X251000260Y-138899900D02*
X251500640Y-139100560D01*
X250799600Y-137800080D02*
X250598940Y-138198860D01*
X255800860Y-138800840D02*
X256100580Y-138998960D01*
X254800100Y-140799820D02*
X254500380Y-140898880D01*
X251698760Y-141599920D02*
X252001020Y-141599920D01*
X252498860Y-141500860D02*
X252498860Y-141000480D01*
X258064000Y-142240000D02*
X249936000Y-142240000D01*
X252498860Y-141000480D02*
X252001020Y-141000480D01*
X253601220Y-141599920D02*
X253601220Y-140098780D01*
D13*
%TO.C,R46*%
X234300276Y-119177500D02*
X234809724Y-119177500D01*
X234300276Y-120222500D02*
X234809724Y-120222500D01*
%TO.C,R18*%
X155194724Y-61482500D02*
X154685276Y-61482500D01*
X155194724Y-60437500D02*
X154685276Y-60437500D01*
%TO.C,R51*%
X247350276Y-123617500D02*
X247859724Y-123617500D01*
X247350276Y-124662500D02*
X247859724Y-124662500D01*
%TO.C,R16*%
X155194724Y-66562500D02*
X154685276Y-66562500D01*
X155194724Y-65517500D02*
X154685276Y-65517500D01*
%TO.C,J1*%
X124395000Y-39430000D02*
X124395000Y-36830000D01*
X124395000Y-39430000D02*
X165155000Y-39430000D01*
X124395000Y-34230000D02*
X125725000Y-34230000D01*
X126995000Y-34230000D02*
X165155000Y-34230000D01*
X124395000Y-35560000D02*
X124395000Y-34230000D01*
X124395000Y-36830000D02*
X126995000Y-36830000D01*
X126995000Y-36830000D02*
X126995000Y-34230000D01*
X165155000Y-39430000D02*
X165155000Y-34230000D01*
%TO.C,D11*%
X168110000Y-47090000D02*
X170570000Y-47090000D01*
X170570000Y-47090000D02*
X170570000Y-45620000D01*
X170570000Y-45620000D02*
X168110000Y-45620000D01*
%TO.C,R21*%
X172974724Y-44337500D02*
X172465276Y-44337500D01*
X172974724Y-43292500D02*
X172465276Y-43292500D01*
%TO.C,SW14*%
X28490000Y-50355000D02*
X30350000Y-50355000D01*
X28490000Y-63975000D02*
X30350000Y-63975000D01*
X28490000Y-58895000D02*
X28490000Y-60515000D01*
X30350000Y-53815000D02*
X30350000Y-55435000D01*
X28490000Y-57975000D02*
X30350000Y-57975000D01*
X28490000Y-48735000D02*
X28490000Y-50355000D01*
X41270000Y-47435000D02*
X41270000Y-69436000D01*
X30350000Y-47435000D02*
X41270000Y-47435000D01*
X30350000Y-63975000D02*
X30350000Y-65595000D01*
X28490000Y-63975000D02*
X28490000Y-65595000D01*
X30350000Y-51275000D02*
X30350000Y-52895000D01*
X28490000Y-61435000D02*
X30350000Y-61435000D01*
X30350000Y-56355000D02*
X30350000Y-57975000D01*
X28490000Y-66516000D02*
X28490000Y-68136000D01*
X30110000Y-47195000D02*
X31493000Y-47195000D01*
X30350000Y-66516000D02*
X30350000Y-68136000D01*
X28490000Y-68136000D02*
X30350000Y-68136000D01*
X28490000Y-53815000D02*
X30350000Y-53815000D01*
X28490000Y-56355000D02*
X30350000Y-56355000D01*
X28490000Y-66516000D02*
X30350000Y-66516000D01*
X30350000Y-48735000D02*
X30350000Y-50355000D01*
X28490000Y-60515000D02*
X30350000Y-60515000D01*
X30110000Y-47195000D02*
X30110000Y-48578000D01*
X28490000Y-53815000D02*
X28490000Y-55435000D01*
X28490000Y-55435000D02*
X30350000Y-55435000D01*
X28490000Y-52895000D02*
X30350000Y-52895000D01*
X28490000Y-48735000D02*
X30350000Y-48735000D01*
X28490000Y-58895000D02*
X30350000Y-58895000D01*
X28490000Y-51275000D02*
X30350000Y-51275000D01*
X30350000Y-69436000D02*
X41270000Y-69436000D01*
X30350000Y-61435000D02*
X30350000Y-63055000D01*
X28490000Y-65595000D02*
X30350000Y-65595000D01*
X30350000Y-58895000D02*
X30350000Y-60515000D01*
X28490000Y-61435000D02*
X28490000Y-63055000D01*
X28490000Y-63055000D02*
X30350000Y-63055000D01*
X28490000Y-51275000D02*
X28490000Y-52895000D01*
X30350000Y-47435000D02*
X30350000Y-69436000D01*
X28490000Y-56355000D02*
X28490000Y-57975000D01*
%TO.C,R1*%
X148067500Y-125475276D02*
X148067500Y-125984724D01*
X149112500Y-125475276D02*
X149112500Y-125984724D01*
%TO.C,U20*%
X71120000Y-175390000D02*
X68360000Y-175390000D01*
X71120000Y-164970000D02*
X68360000Y-164970000D01*
X68360000Y-164970000D02*
X68360000Y-165175000D01*
X73880000Y-164970000D02*
X73880000Y-165175000D01*
X68360000Y-165175000D02*
X66670000Y-165175000D01*
X71120000Y-175390000D02*
X73880000Y-175390000D01*
X68360000Y-175390000D02*
X68360000Y-175185000D01*
X71120000Y-164970000D02*
X73880000Y-164970000D01*
X73880000Y-175390000D02*
X73880000Y-175185000D01*
%TO.C,CLK1*%
X144265000Y-110425000D02*
X142615000Y-110425000D01*
X146755000Y-110365000D02*
X136475000Y-110365000D01*
X136475000Y-110365000D02*
X136475000Y-128385000D01*
X138965000Y-110425000D02*
X138965000Y-128325000D01*
X138965000Y-128325000D02*
X144265000Y-128325000D01*
X144265000Y-128325000D02*
X144265000Y-110425000D01*
X140615000Y-110425000D02*
X138965000Y-110425000D01*
X146755000Y-128385000D02*
X146755000Y-110365000D01*
X136475000Y-128385000D02*
X146755000Y-128385000D01*
X140615000Y-110425000D02*
G75*
G03*
X142615000Y-110425000I1000000J0D01*
G01*
%TO.C,R28*%
X169799724Y-88377500D02*
X169290276Y-88377500D01*
X169799724Y-89422500D02*
X169290276Y-89422500D01*
%TO.C,R34*%
X169799724Y-103617500D02*
X169290276Y-103617500D01*
X169799724Y-104662500D02*
X169290276Y-104662500D01*
%TO.C,D10*%
X150330000Y-59155000D02*
X152790000Y-59155000D01*
X152790000Y-59155000D02*
X152790000Y-57685000D01*
X152790000Y-57685000D02*
X150330000Y-57685000D01*
%TO.C,SW13*%
X14290000Y-57975000D02*
X16150000Y-57975000D01*
X14290000Y-61435000D02*
X16150000Y-61435000D01*
X14290000Y-66516000D02*
X16150000Y-66516000D01*
X27070000Y-47435000D02*
X27070000Y-69436000D01*
X14290000Y-58895000D02*
X14290000Y-60515000D01*
X14290000Y-63055000D02*
X16150000Y-63055000D01*
X14290000Y-55435000D02*
X16150000Y-55435000D01*
X16150000Y-61435000D02*
X16150000Y-63055000D01*
X14290000Y-56355000D02*
X14290000Y-57975000D01*
X14290000Y-58895000D02*
X16150000Y-58895000D01*
X14290000Y-63975000D02*
X14290000Y-65595000D01*
X14290000Y-65595000D02*
X16150000Y-65595000D01*
X16150000Y-56355000D02*
X16150000Y-57975000D01*
X16150000Y-63975000D02*
X16150000Y-65595000D01*
X14290000Y-52895000D02*
X16150000Y-52895000D01*
X16150000Y-47435000D02*
X27070000Y-47435000D01*
X14290000Y-50355000D02*
X16150000Y-50355000D01*
X14290000Y-53815000D02*
X16150000Y-53815000D01*
X14290000Y-63975000D02*
X16150000Y-63975000D01*
X16150000Y-69436000D02*
X27070000Y-69436000D01*
X14290000Y-51275000D02*
X16150000Y-51275000D01*
X16150000Y-48735000D02*
X16150000Y-50355000D01*
X16150000Y-66516000D02*
X16150000Y-68136000D01*
X14290000Y-48735000D02*
X14290000Y-50355000D01*
X15910000Y-47195000D02*
X17293000Y-47195000D01*
X14290000Y-66516000D02*
X14290000Y-68136000D01*
X14290000Y-61435000D02*
X14290000Y-63055000D01*
X16150000Y-58895000D02*
X16150000Y-60515000D01*
X16150000Y-47435000D02*
X16150000Y-69436000D01*
X14290000Y-60515000D02*
X16150000Y-60515000D01*
X14290000Y-56355000D02*
X16150000Y-56355000D01*
X14290000Y-53815000D02*
X14290000Y-55435000D01*
X14290000Y-51275000D02*
X14290000Y-52895000D01*
X14290000Y-68136000D02*
X16150000Y-68136000D01*
X16150000Y-53815000D02*
X16150000Y-55435000D01*
X16150000Y-51275000D02*
X16150000Y-52895000D01*
X15910000Y-47195000D02*
X15910000Y-48578000D01*
X14290000Y-48735000D02*
X16150000Y-48735000D01*
%TO.C,R20*%
X172974724Y-46877500D02*
X172465276Y-46877500D01*
X172974724Y-45832500D02*
X172465276Y-45832500D01*
%TO.C,D25*%
X164935000Y-104875000D02*
X167395000Y-104875000D01*
X167395000Y-104875000D02*
X167395000Y-103405000D01*
X167395000Y-103405000D02*
X164935000Y-103405000D01*
%TO.C,R24*%
X172974724Y-35672500D02*
X172465276Y-35672500D01*
X172974724Y-36717500D02*
X172465276Y-36717500D01*
%TO.C,D14*%
X170570000Y-38000000D02*
X168110000Y-38000000D01*
X168110000Y-39470000D02*
X170570000Y-39470000D01*
X170570000Y-39470000D02*
X170570000Y-38000000D01*
%TO.C,D13*%
X168110000Y-42010000D02*
X170570000Y-42010000D01*
X170570000Y-42010000D02*
X170570000Y-40540000D01*
X170570000Y-40540000D02*
X168110000Y-40540000D01*
%TO.C,D2*%
X127880000Y-123725000D02*
X127880000Y-125195000D01*
X130340000Y-123725000D02*
X127880000Y-123725000D01*
X127880000Y-125195000D02*
X130340000Y-125195000D01*
%TO.C,C2*%
X171711252Y-119915000D02*
X171188748Y-119915000D01*
X171711252Y-121385000D02*
X171188748Y-121385000D01*
%TO.C,R41*%
X220710276Y-135057500D02*
X221219724Y-135057500D01*
X220710276Y-136102500D02*
X221219724Y-136102500D01*
%TO.C,R13*%
X155194724Y-73137500D02*
X154685276Y-73137500D01*
X155194724Y-74182500D02*
X154685276Y-74182500D01*
%TO.C,R2*%
X154685276Y-104252500D02*
X155194724Y-104252500D01*
X154685276Y-105297500D02*
X155194724Y-105297500D01*
%TO.C,R8*%
X147700276Y-104887500D02*
X148209724Y-104887500D01*
X147700276Y-105932500D02*
X148209724Y-105932500D01*
%TO.C,A1*%
X62285000Y-40515000D02*
X44385000Y-40515000D01*
X46875000Y-40575000D02*
X46875000Y-71175000D01*
X52335000Y-40575000D02*
X46875000Y-40575000D01*
X44385000Y-40515000D02*
X44385000Y-71235000D01*
X59795000Y-40575000D02*
X54335000Y-40575000D01*
X46875000Y-71175000D02*
X59795000Y-71175000D01*
X62285000Y-71235000D02*
X62285000Y-40515000D01*
X59795000Y-71175000D02*
X59795000Y-40575000D01*
X44385000Y-71235000D02*
X62285000Y-71235000D01*
X52335000Y-40575000D02*
G75*
G03*
X54335000Y-40575000I1000000J0D01*
G01*
%TO.C,D4*%
X152790000Y-72925000D02*
X150330000Y-72925000D01*
X150330000Y-74395000D02*
X152790000Y-74395000D01*
X152790000Y-74395000D02*
X152790000Y-72925000D01*
%TO.C,SW5*%
X122260000Y-97030000D02*
X122260000Y-95676667D01*
X106780000Y-97030000D02*
X106780000Y-95676667D01*
X106900000Y-97030000D02*
X106900000Y-95676667D01*
X101735000Y-99950000D02*
X101735000Y-90050000D01*
X107330000Y-92970000D02*
X106060000Y-92970000D01*
X106060000Y-97030000D02*
X107330000Y-97030000D01*
X108600000Y-92970000D02*
X108600000Y-97030000D01*
X119840000Y-97030000D02*
X119840000Y-95676667D01*
X116220000Y-92970000D02*
X116220000Y-97030000D01*
X109320000Y-97030000D02*
X109320000Y-95676667D01*
X114160000Y-97030000D02*
X114160000Y-95676667D01*
X104790000Y-92970000D02*
X103520000Y-92970000D01*
X106540000Y-97030000D02*
X106540000Y-95676667D01*
X118760000Y-95676667D02*
X120030000Y-95676667D01*
X114640000Y-97030000D02*
X114640000Y-95676667D01*
X116940000Y-97030000D02*
X116940000Y-95676667D01*
X106060000Y-95676667D02*
X107330000Y-95676667D01*
X112100000Y-97030000D02*
X112100000Y-95676667D01*
X116340000Y-97030000D02*
X116340000Y-95676667D01*
X120030000Y-92970000D02*
X118760000Y-92970000D01*
X109080000Y-97030000D02*
X109080000Y-95676667D01*
X107020000Y-97030000D02*
X107020000Y-95676667D01*
X118880000Y-97030000D02*
X118880000Y-95676667D01*
X119600000Y-97030000D02*
X119600000Y-95676667D01*
X104720000Y-97030000D02*
X104720000Y-95676667D01*
X104480000Y-97030000D02*
X104480000Y-95676667D01*
X109560000Y-97030000D02*
X109560000Y-95676667D01*
X114040000Y-97030000D02*
X114040000Y-95676667D01*
X119120000Y-97030000D02*
X119120000Y-95676667D01*
X119960000Y-97030000D02*
X119960000Y-95676667D01*
X116460000Y-97030000D02*
X116460000Y-95676667D01*
X122500000Y-97030000D02*
X122500000Y-95676667D01*
X112410000Y-92970000D02*
X111140000Y-92970000D01*
X111860000Y-97030000D02*
X111860000Y-95676667D01*
X104240000Y-97030000D02*
X104240000Y-95676667D01*
X111620000Y-97030000D02*
X111620000Y-95676667D01*
X117490000Y-97030000D02*
X117490000Y-92970000D01*
X121900000Y-97030000D02*
X121900000Y-95676667D01*
X121300000Y-92970000D02*
X121300000Y-97030000D01*
X116220000Y-95676667D02*
X117490000Y-95676667D01*
X121300000Y-95676667D02*
X122570000Y-95676667D01*
X108720000Y-97030000D02*
X108720000Y-95676667D01*
X106420000Y-97030000D02*
X106420000Y-95676667D01*
X111140000Y-97030000D02*
X112410000Y-97030000D01*
X106300000Y-97030000D02*
X106300000Y-95676667D01*
X111980000Y-97030000D02*
X111980000Y-95676667D01*
X116700000Y-97030000D02*
X116700000Y-95676667D01*
X113920000Y-97030000D02*
X113920000Y-95676667D01*
X104120000Y-97030000D02*
X104120000Y-95676667D01*
X104360000Y-97030000D02*
X104360000Y-95676667D01*
X111500000Y-97030000D02*
X111500000Y-95676667D01*
X121780000Y-97030000D02*
X121780000Y-95676667D01*
X119360000Y-97030000D02*
X119360000Y-95676667D01*
X108960000Y-97030000D02*
X108960000Y-95676667D01*
X114400000Y-97030000D02*
X114400000Y-95676667D01*
X103880000Y-97030000D02*
X103880000Y-95676667D01*
X111260000Y-97030000D02*
X111260000Y-95676667D01*
X103760000Y-97030000D02*
X103760000Y-95676667D01*
X101495000Y-100190000D02*
X102878000Y-100190000D01*
X109440000Y-97030000D02*
X109440000Y-95676667D01*
X109680000Y-97030000D02*
X109680000Y-95676667D01*
X107330000Y-97030000D02*
X107330000Y-92970000D01*
X104000000Y-97030000D02*
X104000000Y-95676667D01*
X122570000Y-92970000D02*
X121300000Y-92970000D01*
X121300000Y-97030000D02*
X122570000Y-97030000D01*
X122380000Y-97030000D02*
X122380000Y-95676667D01*
X114950000Y-97030000D02*
X114950000Y-92970000D01*
X108840000Y-97030000D02*
X108840000Y-95676667D01*
X119480000Y-97030000D02*
X119480000Y-95676667D01*
X117180000Y-97030000D02*
X117180000Y-95676667D01*
X112410000Y-97030000D02*
X112410000Y-92970000D01*
X103640000Y-97030000D02*
X103640000Y-95676667D01*
X101735000Y-99950000D02*
X124356000Y-99950000D01*
X113800000Y-97030000D02*
X113800000Y-95676667D01*
X121660000Y-97030000D02*
X121660000Y-95676667D01*
X118760000Y-92970000D02*
X118760000Y-97030000D01*
X114520000Y-97030000D02*
X114520000Y-95676667D01*
X106180000Y-97030000D02*
X106180000Y-95676667D01*
X101735000Y-90050000D02*
X124356000Y-90050000D01*
X112340000Y-97030000D02*
X112340000Y-95676667D01*
X111380000Y-97030000D02*
X111380000Y-95676667D01*
X103520000Y-97030000D02*
X104790000Y-97030000D01*
X120030000Y-97030000D02*
X120030000Y-92970000D01*
X109870000Y-97030000D02*
X109870000Y-92970000D01*
X119240000Y-97030000D02*
X119240000Y-95676667D01*
X124356000Y-99950000D02*
X124356000Y-90050000D01*
X116220000Y-97030000D02*
X117490000Y-97030000D01*
X106060000Y-92970000D02*
X106060000Y-97030000D01*
X109200000Y-97030000D02*
X109200000Y-95676667D01*
X107140000Y-97030000D02*
X107140000Y-95676667D01*
X114760000Y-97030000D02*
X114760000Y-95676667D01*
X112220000Y-97030000D02*
X112220000Y-95676667D01*
X122140000Y-97030000D02*
X122140000Y-95676667D01*
X104600000Y-97030000D02*
X104600000Y-95676667D01*
X117420000Y-97030000D02*
X117420000Y-95676667D01*
X109800000Y-97030000D02*
X109800000Y-95676667D01*
X114950000Y-92970000D02*
X113680000Y-92970000D01*
X121420000Y-97030000D02*
X121420000Y-95676667D01*
X107260000Y-97030000D02*
X107260000Y-95676667D01*
X114880000Y-97030000D02*
X114880000Y-95676667D01*
X116580000Y-97030000D02*
X116580000Y-95676667D01*
X114280000Y-97030000D02*
X114280000Y-95676667D01*
X108600000Y-97030000D02*
X109870000Y-97030000D01*
X122570000Y-97030000D02*
X122570000Y-92970000D01*
X111140000Y-92970000D02*
X111140000Y-97030000D01*
X119720000Y-97030000D02*
X119720000Y-95676667D01*
X113680000Y-92970000D02*
X113680000Y-97030000D01*
X113680000Y-97030000D02*
X114950000Y-97030000D01*
X121540000Y-97030000D02*
X121540000Y-95676667D01*
X117300000Y-97030000D02*
X117300000Y-95676667D01*
X117490000Y-92970000D02*
X116220000Y-92970000D01*
X122020000Y-97030000D02*
X122020000Y-95676667D01*
X113680000Y-95676667D02*
X114950000Y-95676667D01*
X101495000Y-100190000D02*
X101495000Y-98806000D01*
X111140000Y-95676667D02*
X112410000Y-95676667D01*
X104790000Y-97030000D02*
X104790000Y-92970000D01*
X119000000Y-97030000D02*
X119000000Y-95676667D01*
X103520000Y-95676667D02*
X104790000Y-95676667D01*
X109870000Y-92970000D02*
X108600000Y-92970000D01*
X103520000Y-92970000D02*
X103520000Y-97030000D01*
X117060000Y-97030000D02*
X117060000Y-95676667D01*
X108600000Y-95676667D02*
X109870000Y-95676667D01*
X118760000Y-97030000D02*
X120030000Y-97030000D01*
X111740000Y-97030000D02*
X111740000Y-95676667D01*
X116820000Y-97030000D02*
X116820000Y-95676667D01*
X106660000Y-97030000D02*
X106660000Y-95676667D01*
%TO.C,SW12*%
X37765000Y-80185000D02*
X39625000Y-80185000D01*
X37765000Y-86185000D02*
X37765000Y-87805000D01*
X39625000Y-77265000D02*
X39625000Y-99266000D01*
X39625000Y-77265000D02*
X50545000Y-77265000D01*
X37765000Y-82725000D02*
X39625000Y-82725000D01*
X50545000Y-77265000D02*
X50545000Y-99266000D01*
X39625000Y-99266000D02*
X50545000Y-99266000D01*
X37765000Y-85265000D02*
X39625000Y-85265000D01*
X37765000Y-93805000D02*
X37765000Y-95425000D01*
X37765000Y-95425000D02*
X39625000Y-95425000D01*
X39625000Y-83645000D02*
X39625000Y-85265000D01*
X37765000Y-87805000D02*
X39625000Y-87805000D01*
X37765000Y-91265000D02*
X39625000Y-91265000D01*
X37765000Y-96346000D02*
X39625000Y-96346000D01*
X39625000Y-93805000D02*
X39625000Y-95425000D01*
X37765000Y-96346000D02*
X37765000Y-97966000D01*
X39625000Y-81105000D02*
X39625000Y-82725000D01*
X37765000Y-97966000D02*
X39625000Y-97966000D01*
X37765000Y-78565000D02*
X39625000Y-78565000D01*
X39625000Y-86185000D02*
X39625000Y-87805000D01*
X37765000Y-78565000D02*
X37765000Y-80185000D01*
X39625000Y-91265000D02*
X39625000Y-92885000D01*
X37765000Y-91265000D02*
X37765000Y-92885000D01*
X37765000Y-93805000D02*
X39625000Y-93805000D01*
X39385000Y-77025000D02*
X39385000Y-78408000D01*
X37765000Y-81105000D02*
X37765000Y-82725000D01*
X37765000Y-88725000D02*
X37765000Y-90345000D01*
X39385000Y-77025000D02*
X40768000Y-77025000D01*
X37765000Y-86185000D02*
X39625000Y-86185000D01*
X37765000Y-83645000D02*
X37765000Y-85265000D01*
X37765000Y-83645000D02*
X39625000Y-83645000D01*
X37765000Y-92885000D02*
X39625000Y-92885000D01*
X39625000Y-88725000D02*
X39625000Y-90345000D01*
X39625000Y-78565000D02*
X39625000Y-80185000D01*
X39625000Y-96346000D02*
X39625000Y-97966000D01*
X37765000Y-90345000D02*
X39625000Y-90345000D01*
X37765000Y-81105000D02*
X39625000Y-81105000D01*
X37765000Y-88725000D02*
X39625000Y-88725000D01*
%TO.C,R50*%
X243000276Y-124742500D02*
X243509724Y-124742500D01*
X243000276Y-123697500D02*
X243509724Y-123697500D01*
%TO.C,R22*%
X172974724Y-41797500D02*
X172465276Y-41797500D01*
X172974724Y-40752500D02*
X172465276Y-40752500D01*
%TO.C,R27*%
X172974724Y-29097500D02*
X172465276Y-29097500D01*
X172974724Y-28052500D02*
X172465276Y-28052500D01*
%TO.C,R17*%
X155194724Y-64022500D02*
X154685276Y-64022500D01*
X155194724Y-62977500D02*
X154685276Y-62977500D01*
%TO.C,R35*%
X169799724Y-106157500D02*
X169290276Y-106157500D01*
X169799724Y-107202500D02*
X169290276Y-107202500D01*
%TO.C,C3*%
X145041252Y-108050000D02*
X144518748Y-108050000D01*
X145041252Y-106580000D02*
X144518748Y-106580000D01*
%TO.C,U3*%
X50800000Y-35540000D02*
X52750000Y-35540000D01*
X50800000Y-25420000D02*
X52750000Y-25420000D01*
X50800000Y-25420000D02*
X47350000Y-25420000D01*
X50800000Y-35540000D02*
X48850000Y-35540000D01*
%TO.C,R29*%
X169799724Y-90917500D02*
X169290276Y-90917500D01*
X169799724Y-91962500D02*
X169290276Y-91962500D01*
%TO.C,X8.000Mhz1*%
X149050000Y-123290000D02*
X168450000Y-123290000D01*
X148300000Y-111140000D02*
X148300000Y-122540000D01*
X169200000Y-122540000D02*
X169200000Y-110390000D01*
X169200000Y-110390000D02*
X149050000Y-110390000D01*
X148300000Y-122540000D02*
G75*
G03*
X149050000Y-123290000I750000J0D01*
G01*
X168450000Y-123290000D02*
G75*
G03*
X169200000Y-122540000I0J750000D01*
G01*
X149050000Y-110390000D02*
G75*
G03*
X148300000Y-111140000I0J-750000D01*
G01*
%TO.C,R39*%
X242540276Y-132272500D02*
X243049724Y-132272500D01*
X242540276Y-131227500D02*
X243049724Y-131227500D01*
%TO.C,C1*%
X133611252Y-113565000D02*
X133088748Y-113565000D01*
X133611252Y-115035000D02*
X133088748Y-115035000D01*
%TO.C,R43*%
X229490276Y-126867500D02*
X229999724Y-126867500D01*
X229490276Y-127912500D02*
X229999724Y-127912500D01*
%TO.C,D17*%
X170570000Y-30380000D02*
X168110000Y-30380000D01*
X170570000Y-31850000D02*
X170570000Y-30380000D01*
X168110000Y-31850000D02*
X170570000Y-31850000D01*
%TO.C,R45*%
X233840276Y-130262500D02*
X234349724Y-130262500D01*
X233840276Y-129217500D02*
X234349724Y-129217500D01*
%TO.C,D7*%
X150330000Y-66775000D02*
X152790000Y-66775000D01*
X152790000Y-65305000D02*
X150330000Y-65305000D01*
X152790000Y-66775000D02*
X152790000Y-65305000D01*
%TO.C,R48*%
X243920276Y-110987500D02*
X244429724Y-110987500D01*
X243920276Y-112032500D02*
X244429724Y-112032500D01*
%TO.C,C6*%
X151030000Y-125468748D02*
X151030000Y-125991252D01*
X152500000Y-125468748D02*
X152500000Y-125991252D01*
%TO.C,R25*%
X172974724Y-33132500D02*
X172465276Y-33132500D01*
X172974724Y-34177500D02*
X172465276Y-34177500D01*
%TO.C,J2*%
X27147929Y-138805000D02*
X27545000Y-138805000D01*
X24607929Y-146425000D02*
X25062071Y-146425000D01*
X36205000Y-132965000D02*
X36205000Y-133725000D01*
X36205000Y-133725000D02*
X30205000Y-133725000D01*
X27147929Y-127885000D02*
X27545000Y-127885000D01*
X24607929Y-138045000D02*
X25062071Y-138045000D01*
X36205000Y-141345000D02*
X30205000Y-141345000D01*
X30205000Y-154995000D02*
X30205000Y-114235000D01*
X30205000Y-138045000D02*
X36205000Y-138045000D01*
X24607929Y-148205000D02*
X25062071Y-148205000D01*
X24607929Y-151505000D02*
X25062071Y-151505000D01*
X27147929Y-130425000D02*
X27545000Y-130425000D01*
X36205000Y-118485000D02*
X30205000Y-118485000D01*
X30205000Y-145665000D02*
X36205000Y-145665000D01*
X27147929Y-146425000D02*
X27545000Y-146425000D01*
X27147929Y-125345000D02*
X27545000Y-125345000D01*
X27147929Y-145665000D02*
X27545000Y-145665000D01*
X24607929Y-135505000D02*
X25062071Y-135505000D01*
X24675000Y-115185000D02*
X25062071Y-115185000D01*
X27147929Y-115945000D02*
X27545000Y-115945000D01*
X27545000Y-152395000D02*
X30205000Y-152395000D01*
X27545000Y-114235000D02*
X27545000Y-154995000D01*
X30205000Y-114235000D02*
X27545000Y-114235000D01*
X24607929Y-153285000D02*
X25062071Y-153285000D01*
X36205000Y-120265000D02*
X36205000Y-121025000D01*
X27545000Y-134615000D02*
X30205000Y-134615000D01*
X27147929Y-150745000D02*
X27545000Y-150745000D01*
X36205000Y-148965000D02*
X30205000Y-148965000D01*
X27147929Y-117725000D02*
X27545000Y-117725000D01*
X30205000Y-127885000D02*
X36205000Y-127885000D01*
X27545000Y-116835000D02*
X30205000Y-116835000D01*
X27147929Y-135505000D02*
X27545000Y-135505000D01*
X27545000Y-154995000D02*
X30205000Y-154995000D01*
X36205000Y-115185000D02*
X36205000Y-115945000D01*
X30205000Y-140585000D02*
X36205000Y-140585000D01*
X36205000Y-126105000D02*
X30205000Y-126105000D01*
X27147929Y-131185000D02*
X27545000Y-131185000D01*
X30205000Y-122805000D02*
X36205000Y-122805000D01*
X36205000Y-115945000D02*
X30205000Y-115945000D01*
X30205000Y-120265000D02*
X36205000Y-120265000D01*
X27147929Y-120265000D02*
X27545000Y-120265000D01*
X36205000Y-146425000D02*
X30205000Y-146425000D01*
X36205000Y-122805000D02*
X36205000Y-123565000D01*
X24607929Y-145665000D02*
X25062071Y-145665000D01*
X36205000Y-125345000D02*
X36205000Y-126105000D01*
X27147929Y-143125000D02*
X27545000Y-143125000D01*
X22295000Y-114295000D02*
X23565000Y-114295000D01*
X36205000Y-121025000D02*
X30205000Y-121025000D01*
X30205000Y-115245000D02*
X36205000Y-115245000D01*
X30205000Y-153285000D02*
X36205000Y-153285000D01*
X36205000Y-153285000D02*
X36205000Y-154045000D01*
X27545000Y-149855000D02*
X30205000Y-149855000D01*
X30205000Y-115845000D02*
X36205000Y-115845000D01*
X24607929Y-117725000D02*
X25062071Y-117725000D01*
X24607929Y-138805000D02*
X25062071Y-138805000D01*
X30205000Y-115485000D02*
X36205000Y-115485000D01*
X30205000Y-115725000D02*
X36205000Y-115725000D01*
X27147929Y-148205000D02*
X27545000Y-148205000D01*
X27545000Y-132075000D02*
X30205000Y-132075000D01*
X27545000Y-119375000D02*
X30205000Y-119375000D01*
X24607929Y-130425000D02*
X25062071Y-130425000D01*
X24607929Y-132965000D02*
X25062071Y-132965000D01*
X27545000Y-137155000D02*
X30205000Y-137155000D01*
X36205000Y-127885000D02*
X36205000Y-128645000D01*
X27545000Y-144775000D02*
X30205000Y-144775000D01*
X27545000Y-121915000D02*
X30205000Y-121915000D01*
X24607929Y-141345000D02*
X25062071Y-141345000D01*
X24607929Y-125345000D02*
X25062071Y-125345000D01*
X27147929Y-118485000D02*
X27545000Y-118485000D01*
X24607929Y-118485000D02*
X25062071Y-118485000D01*
X30205000Y-130425000D02*
X36205000Y-130425000D01*
X30205000Y-143125000D02*
X36205000Y-143125000D01*
X27147929Y-151505000D02*
X27545000Y-151505000D01*
X36205000Y-131185000D02*
X30205000Y-131185000D01*
X36205000Y-154045000D02*
X30205000Y-154045000D01*
X36205000Y-138805000D02*
X30205000Y-138805000D01*
X27147929Y-121025000D02*
X27545000Y-121025000D01*
X24607929Y-127885000D02*
X25062071Y-127885000D01*
X27147929Y-138045000D02*
X27545000Y-138045000D01*
X27545000Y-139695000D02*
X30205000Y-139695000D01*
X27147929Y-128645000D02*
X27545000Y-128645000D01*
X36205000Y-138045000D02*
X36205000Y-138805000D01*
X30205000Y-117725000D02*
X36205000Y-117725000D01*
X27545000Y-147315000D02*
X30205000Y-147315000D01*
X24607929Y-126105000D02*
X25062071Y-126105000D01*
X27147929Y-123565000D02*
X27545000Y-123565000D01*
X36205000Y-123565000D02*
X30205000Y-123565000D01*
X27545000Y-129535000D02*
X30205000Y-129535000D01*
X36205000Y-140585000D02*
X36205000Y-141345000D01*
X27545000Y-126995000D02*
X30205000Y-126995000D01*
X30205000Y-115365000D02*
X36205000Y-115365000D01*
X24607929Y-121025000D02*
X25062071Y-121025000D01*
X27147929Y-132965000D02*
X27545000Y-132965000D01*
X27147929Y-143885000D02*
X27545000Y-143885000D01*
X36205000Y-143125000D02*
X36205000Y-143885000D01*
X24607929Y-133725000D02*
X25062071Y-133725000D01*
X24607929Y-154045000D02*
X25062071Y-154045000D01*
X36205000Y-145665000D02*
X36205000Y-146425000D01*
X30205000Y-150745000D02*
X36205000Y-150745000D01*
X36205000Y-150745000D02*
X36205000Y-151505000D01*
X27147929Y-122805000D02*
X27545000Y-122805000D01*
X24607929Y-143885000D02*
X25062071Y-143885000D01*
X36205000Y-148205000D02*
X36205000Y-148965000D01*
X27147929Y-126105000D02*
X27545000Y-126105000D01*
X24607929Y-120265000D02*
X25062071Y-120265000D01*
X27545000Y-142235000D02*
X30205000Y-142235000D01*
X24607929Y-148965000D02*
X25062071Y-148965000D01*
X24607929Y-136265000D02*
X25062071Y-136265000D01*
X24607929Y-131185000D02*
X25062071Y-131185000D01*
X36205000Y-130425000D02*
X36205000Y-131185000D01*
X27147929Y-154045000D02*
X27545000Y-154045000D01*
X27147929Y-140585000D02*
X27545000Y-140585000D01*
X22295000Y-115565000D02*
X22295000Y-114295000D01*
X30205000Y-148205000D02*
X36205000Y-148205000D01*
X36205000Y-128645000D02*
X30205000Y-128645000D01*
X27147929Y-133725000D02*
X27545000Y-133725000D01*
X24607929Y-150745000D02*
X25062071Y-150745000D01*
X27147929Y-115185000D02*
X27545000Y-115185000D01*
X24607929Y-128645000D02*
X25062071Y-128645000D01*
X30205000Y-115605000D02*
X36205000Y-115605000D01*
X36205000Y-151505000D02*
X30205000Y-151505000D01*
X24607929Y-140585000D02*
X25062071Y-140585000D01*
X30205000Y-125345000D02*
X36205000Y-125345000D01*
X30205000Y-132965000D02*
X36205000Y-132965000D01*
X36205000Y-117725000D02*
X36205000Y-118485000D01*
X30205000Y-115185000D02*
X36205000Y-115185000D01*
X30205000Y-135505000D02*
X36205000Y-135505000D01*
X27147929Y-136265000D02*
X27545000Y-136265000D01*
X24675000Y-115945000D02*
X25062071Y-115945000D01*
X36205000Y-143885000D02*
X30205000Y-143885000D01*
X27147929Y-148965000D02*
X27545000Y-148965000D01*
X24607929Y-122805000D02*
X25062071Y-122805000D01*
X27147929Y-153285000D02*
X27545000Y-153285000D01*
X24607929Y-143125000D02*
X25062071Y-143125000D01*
X24607929Y-123565000D02*
X25062071Y-123565000D01*
X27147929Y-141345000D02*
X27545000Y-141345000D01*
X36205000Y-135505000D02*
X36205000Y-136265000D01*
X27545000Y-124455000D02*
X30205000Y-124455000D01*
X36205000Y-136265000D02*
X30205000Y-136265000D01*
%TO.C,U2*%
X40640000Y-25420000D02*
X37190000Y-25420000D01*
X40640000Y-35540000D02*
X42590000Y-35540000D01*
X40640000Y-35540000D02*
X38690000Y-35540000D01*
X40640000Y-25420000D02*
X42590000Y-25420000D01*
%TO.C,D12*%
X170570000Y-43080000D02*
X168110000Y-43080000D01*
X170570000Y-44550000D02*
X170570000Y-43080000D01*
X168110000Y-44550000D02*
X170570000Y-44550000D01*
%TO.C,R47*%
X238650276Y-122232500D02*
X239159724Y-122232500D01*
X238650276Y-121187500D02*
X239159724Y-121187500D01*
%TO.C,U1*%
X156210000Y-101590000D02*
X154260000Y-101590000D01*
X156210000Y-92720000D02*
X152760000Y-92720000D01*
X156210000Y-101590000D02*
X158160000Y-101590000D01*
X156210000Y-92720000D02*
X158160000Y-92720000D01*
%TO.C,R30*%
X169799724Y-93457500D02*
X169290276Y-93457500D01*
X169799724Y-94502500D02*
X169290276Y-94502500D01*
%TO.C,D3*%
X150330000Y-76935000D02*
X152790000Y-76935000D01*
X152790000Y-76935000D02*
X152790000Y-75465000D01*
X152790000Y-75465000D02*
X150330000Y-75465000D01*
%TO.C,D24*%
X167395000Y-102335000D02*
X167395000Y-100865000D01*
X167395000Y-100865000D02*
X164935000Y-100865000D01*
X164935000Y-102335000D02*
X167395000Y-102335000D01*
%TO.C,U23*%
X41795000Y-190560000D02*
X54715000Y-190560000D01*
X57205000Y-190620000D02*
X57205000Y-149740000D01*
X47255000Y-149800000D02*
X41795000Y-149800000D01*
X39305000Y-149740000D02*
X39305000Y-190620000D01*
X54715000Y-149800000D02*
X49255000Y-149800000D01*
X39305000Y-190620000D02*
X57205000Y-190620000D01*
X57205000Y-149740000D02*
X39305000Y-149740000D01*
X41795000Y-149800000D02*
X41795000Y-190560000D01*
X54715000Y-190560000D02*
X54715000Y-149800000D01*
X47255000Y-149800000D02*
G75*
G03*
X49255000Y-149800000I1000000J0D01*
G01*
%TO.C,R3*%
X151652500Y-96139724D02*
X151652500Y-95630276D01*
X150607500Y-96139724D02*
X150607500Y-95630276D01*
%TO.C,R36*%
X198500276Y-177277500D02*
X199009724Y-177277500D01*
X198500276Y-178322500D02*
X199009724Y-178322500D01*
%TD*%
M02*
