M48
; DRILL file {KiCad 7.0.9} date ma 20 nov 2023 12:42:12 CET
; FORMAT={-:-/ absolute / inch / decimal}
; #@! TF.CreationDate,2023-11-20T12:42:12+01:00
; #@! TF.GenerationSoftware,Kicad,Pcbnew,7.0.9
; #@! TF.FileFunction,Plated,1,2,PTH
FMAT,2
INCH
; #@! TA.AperFunction,Plated,PTH,ViaDrill
T1C0.0157
; #@! TA.AperFunction,Plated,PTH,ComponentDrill
T2C0.0394
%
G90
G05
T1
X4.1109Y-4.0688
T2
X3.2313Y-3.74
X3.2313Y-3.84
X3.3313Y-3.74
X3.3313Y-3.84
X3.4313Y-3.74
X3.4313Y-3.84
X3.5313Y-3.74
X3.5313Y-3.84
X3.6313Y-3.74
X3.6313Y-3.84
X3.7313Y-3.74
X3.7313Y-3.84
X3.8313Y-3.74
X3.8313Y-3.84
X3.9313Y-3.74
X3.9313Y-3.84
X4.0313Y-3.74
X4.0313Y-3.84
X4.1313Y-3.74
X4.1313Y-3.84
X4.2313Y-3.74
X4.2313Y-3.84
X4.3313Y-3.74
X4.3313Y-3.84
X4.4313Y-3.74
X4.4313Y-3.84
X4.5313Y-3.74
X4.5313Y-3.84
X4.6313Y-3.74
X4.6313Y-3.84
X4.7313Y-3.74
X4.7313Y-3.84
X4.8313Y-3.74
X4.8313Y-3.84
X4.9313Y-3.74
X4.9313Y-3.84
X5.0313Y-3.74
X5.0313Y-3.84
T0
M30
