%TF.GenerationSoftware,KiCad,Pcbnew,7.0.9*%
%TF.CreationDate,2023-11-20T12:28:54+01:00*%
%TF.ProjectId,perfboardCard,70657266-626f-4617-9264-436172642e6b,rev?*%
%TF.SameCoordinates,Original*%
%TF.FileFunction,Copper,L2,Bot*%
%TF.FilePolarity,Positive*%
%FSLAX46Y46*%
G04 Gerber Fmt 4.6, Leading zero omitted, Abs format (unit mm)*
G04 Created by KiCad (PCBNEW 7.0.9) date 2023-11-20 12:28:54*
%MOMM*%
%LPD*%
G01*
G04 APERTURE LIST*
%TA.AperFunction,ComponentPad*%
%ADD10O,1.700000X1.700000*%
%TD*%
%TA.AperFunction,ComponentPad*%
%ADD11C,1.700000*%
%TD*%
%TA.AperFunction,SMDPad,CuDef*%
%ADD12R,0.550000X2.800000*%
%TD*%
%TA.AperFunction,ViaPad*%
%ADD13C,0.800000*%
%TD*%
%TA.AperFunction,Conductor*%
%ADD14C,0.250000*%
%TD*%
G04 APERTURE END LIST*
D10*
%TO.P,J2,38,Pin_38*%
%TO.N,GND*%
X127796000Y-94996000D03*
%TO.P,J2,37,Pin_37*%
%TO.N,+5V*%
X127796000Y-97536000D03*
%TO.P,J2,36,Pin_36*%
%TO.N,/IO-CS3*%
X125256000Y-94996000D03*
%TO.P,J2,35,Pin_35*%
%TO.N,/IO-CS1*%
X125256000Y-97536000D03*
%TO.P,J2,34,Pin_34*%
%TO.N,/CS*%
X122716000Y-94996000D03*
%TO.P,J2,33,Pin_33*%
%TO.N,/IO-CS2*%
X122716000Y-97536000D03*
%TO.P,J2,32,Pin_32*%
%TO.N,/A0*%
X120176000Y-94996000D03*
%TO.P,J2,31,Pin_31*%
%TO.N,/WAIT*%
X120176000Y-97536000D03*
%TO.P,J2,30,Pin_30*%
%TO.N,/A1*%
X117636000Y-94996000D03*
%TO.P,J2,29,Pin_29*%
%TO.N,/NMI*%
X117636000Y-97536000D03*
%TO.P,J2,28,Pin_28*%
%TO.N,/A2*%
X115096000Y-94996000D03*
%TO.P,J2,27,Pin_27*%
%TO.N,/INT*%
X115096000Y-97536000D03*
%TO.P,J2,26,Pin_26*%
%TO.N,/A3*%
X112556000Y-94996000D03*
%TO.P,J2,25,Pin_25*%
%TO.N,/WR*%
X112556000Y-97536000D03*
%TO.P,J2,24,Pin_24*%
%TO.N,/A4*%
X110016000Y-94996000D03*
%TO.P,J2,23,Pin_23*%
%TO.N,/RD*%
X110016000Y-97536000D03*
%TO.P,J2,22,Pin_22*%
%TO.N,/A5*%
X107476000Y-94996000D03*
%TO.P,J2,21,Pin_21*%
%TO.N,/MREQ*%
X107476000Y-97536000D03*
%TO.P,J2,20,Pin_20*%
%TO.N,/A6*%
X104936000Y-94996000D03*
%TO.P,J2,19,Pin_19*%
%TO.N,/IORQ*%
X104936000Y-97536000D03*
%TO.P,J2,18,Pin_18*%
%TO.N,/A7*%
X102396000Y-94996000D03*
%TO.P,J2,17,Pin_17*%
%TO.N,/RST*%
X102396000Y-97536000D03*
%TO.P,J2,16,Pin_16*%
%TO.N,/A8*%
X99856000Y-94996000D03*
%TO.P,J2,15,Pin_15*%
%TO.N,/D0*%
X99856000Y-97536000D03*
%TO.P,J2,14,Pin_14*%
%TO.N,/A9*%
X97316000Y-94996000D03*
%TO.P,J2,13,Pin_13*%
%TO.N,/D1*%
X97316000Y-97536000D03*
%TO.P,J2,12,Pin_12*%
%TO.N,/A10*%
X94776000Y-94996000D03*
%TO.P,J2,11,Pin_11*%
%TO.N,/D2*%
X94776000Y-97536000D03*
%TO.P,J2,10,Pin_10*%
%TO.N,/A11*%
X92236000Y-94996000D03*
%TO.P,J2,9,Pin_9*%
%TO.N,/D3*%
X92236000Y-97536000D03*
%TO.P,J2,8,Pin_8*%
%TO.N,/A12*%
X89696000Y-94996000D03*
%TO.P,J2,7,Pin_7*%
%TO.N,/D4*%
X89696000Y-97536000D03*
%TO.P,J2,6,Pin_6*%
%TO.N,/A13*%
X87156000Y-94996000D03*
%TO.P,J2,5,Pin_5*%
%TO.N,/D5*%
X87156000Y-97536000D03*
%TO.P,J2,4,Pin_4*%
%TO.N,/A14*%
X84616000Y-94996000D03*
%TO.P,J2,3,Pin_3*%
%TO.N,/D6*%
X84616000Y-97536000D03*
%TO.P,J2,2,Pin_2*%
%TO.N,/A15*%
X82076000Y-94996000D03*
D11*
%TO.P,J2,1,Pin_1*%
%TO.N,/D7*%
X82076000Y-97536000D03*
%TD*%
D12*
%TO.P,J1,21,Pin_21*%
%TO.N,/A15*%
X97292000Y-105918000D03*
%TO.P,J1,22,Pin_22*%
%TO.N,/A14*%
X98092000Y-105918000D03*
%TO.P,J1,23,Pin_23*%
%TO.N,/A13*%
X98892000Y-105918000D03*
%TO.P,J1,24,Pin_24*%
%TO.N,/A12*%
X99692000Y-105918000D03*
%TO.P,J1,25,Pin_25*%
%TO.N,/A11*%
X100492000Y-105918000D03*
%TO.P,J1,26,Pin_26*%
%TO.N,/A10*%
X101292000Y-105918000D03*
%TO.P,J1,27,Pin_27*%
%TO.N,/A9*%
X102092000Y-105918000D03*
%TO.P,J1,28,Pin_28*%
%TO.N,/A8*%
X102892000Y-105918000D03*
%TO.P,J1,29,Pin_29*%
%TO.N,/A7*%
X103692000Y-105918000D03*
%TO.P,J1,30,Pin_30*%
%TO.N,/A6*%
X104492000Y-105918000D03*
%TO.P,J1,31,Pin_31*%
%TO.N,/A5*%
X105307000Y-105918000D03*
%TO.P,J1,32,Pin_32*%
%TO.N,/A4*%
X106107000Y-105918000D03*
%TO.P,J1,33,Pin_33*%
%TO.N,/A3*%
X106907000Y-105918000D03*
%TO.P,J1,34,Pin_34*%
%TO.N,/A2*%
X107707000Y-105918000D03*
%TO.P,J1,35,Pin_35*%
%TO.N,/A1*%
X108507000Y-105918000D03*
%TO.P,J1,36,Pin_36*%
%TO.N,/A0*%
X109307000Y-105918000D03*
%TO.P,J1,37,Pin_37*%
%TO.N,/CS*%
X110107000Y-105918000D03*
%TO.P,J1,38,Pin_38*%
%TO.N,/IO-CS3*%
X110907000Y-105918000D03*
%TO.P,J1,39,Pin_39*%
%TO.N,GND*%
X111707000Y-105918000D03*
%TO.P,J1,40,Pin_40*%
X112507000Y-105918000D03*
%TD*%
D13*
%TO.N,/A6*%
X104416081Y-103347320D03*
%TD*%
D14*
%TO.N,/A6*%
X104492000Y-103423239D02*
X104416081Y-103347320D01*
X104492000Y-105918000D02*
X104492000Y-103423239D01*
%TO.N,/A7*%
X103692000Y-105918000D02*
X103692000Y-96292000D01*
X103692000Y-96292000D02*
X102396000Y-94996000D01*
%TO.N,/A5*%
X105307000Y-105918000D02*
X105307000Y-98826701D01*
X105307000Y-98826701D02*
X106301000Y-97832701D01*
X106301000Y-97832701D02*
X106301000Y-96171000D01*
X106301000Y-96171000D02*
X107476000Y-94996000D01*
%TO.N,/A4*%
X106107000Y-105918000D02*
X106107000Y-100756701D01*
X106107000Y-100756701D02*
X108841000Y-98022701D01*
X108841000Y-98022701D02*
X108841000Y-96171000D01*
X108841000Y-96171000D02*
X110016000Y-94996000D01*
%TO.N,/A8*%
X102892000Y-105918000D02*
X102892000Y-99693701D01*
X102892000Y-99693701D02*
X101031000Y-97832701D01*
X101031000Y-96171000D02*
X99856000Y-94996000D01*
X101031000Y-97832701D02*
X101031000Y-96171000D01*
%TO.N,/A9*%
X102092000Y-105918000D02*
X102092000Y-102600000D01*
X102092000Y-102600000D02*
X98491000Y-98999000D01*
X98491000Y-98999000D02*
X98491000Y-96171000D01*
X98491000Y-96171000D02*
X97316000Y-94996000D01*
%TO.N,/A10*%
X101292000Y-105918000D02*
X101292000Y-103324243D01*
X101292000Y-103324243D02*
X96831757Y-98864000D01*
X96831757Y-98864000D02*
X94442299Y-98864000D01*
X93472000Y-97893701D02*
X93472000Y-96300000D01*
X94442299Y-98864000D02*
X93472000Y-97893701D01*
X93472000Y-96300000D02*
X94776000Y-94996000D01*
%TO.N,/A11*%
X96645361Y-99314000D02*
X92202000Y-99314000D01*
X91061000Y-96171000D02*
X92236000Y-94996000D01*
X100492000Y-103160639D02*
X96645361Y-99314000D01*
X100492000Y-105918000D02*
X100492000Y-103160639D01*
X92202000Y-99314000D02*
X91061000Y-98173000D01*
X91061000Y-98173000D02*
X91061000Y-96171000D01*
%TO.N,/A12*%
X96516965Y-99822000D02*
X89662000Y-99822000D01*
X99692000Y-102997035D02*
X96516965Y-99822000D01*
X99692000Y-105918000D02*
X99692000Y-102997035D01*
X88521000Y-96171000D02*
X89696000Y-94996000D01*
X89662000Y-99822000D02*
X88521000Y-98681000D01*
X88521000Y-98681000D02*
X88521000Y-96171000D01*
%TO.N,/A13*%
X96504569Y-100446000D02*
X87122000Y-100446000D01*
X98892000Y-102833431D02*
X96504569Y-100446000D01*
X98892000Y-105918000D02*
X98892000Y-102833431D01*
X87122000Y-100446000D02*
X85981000Y-99305000D01*
X85981000Y-99305000D02*
X85981000Y-96171000D01*
X85981000Y-96171000D02*
X87156000Y-94996000D01*
%TO.N,/A14*%
X96318173Y-100896000D02*
X84778000Y-100896000D01*
X98092000Y-102669827D02*
X96318173Y-100896000D01*
X98092000Y-105918000D02*
X98092000Y-102669827D01*
X84778000Y-100896000D02*
X83441000Y-99559000D01*
X83441000Y-99559000D02*
X83441000Y-96171000D01*
X83441000Y-96171000D02*
X84616000Y-94996000D01*
%TO.N,/A15*%
X96131777Y-101346000D02*
X82296000Y-101346000D01*
X97292000Y-102506223D02*
X96131777Y-101346000D01*
X97292000Y-105918000D02*
X97292000Y-102506223D01*
X82296000Y-101346000D02*
X80901000Y-99951000D01*
X80901000Y-99951000D02*
X80901000Y-96171000D01*
X80901000Y-96171000D02*
X82076000Y-94996000D01*
%TO.N,/A3*%
X106907000Y-105918000D02*
X106907000Y-102496701D01*
X106907000Y-102496701D02*
X111381000Y-98022701D01*
X111381000Y-98022701D02*
X111381000Y-96171000D01*
X111381000Y-96171000D02*
X112556000Y-94996000D01*
%TO.N,/A2*%
X107707000Y-105918000D02*
X107707000Y-104129243D01*
X107707000Y-104129243D02*
X113030243Y-98806000D01*
X113030243Y-98806000D02*
X115487701Y-98806000D01*
X115487701Y-98806000D02*
X116271000Y-98022701D01*
X116271000Y-98022701D02*
X116271000Y-96171000D01*
X116271000Y-96171000D02*
X115096000Y-94996000D01*
%TO.N,/A1*%
X113158639Y-99314000D02*
X117602000Y-99314000D01*
X117602000Y-99314000D02*
X118811000Y-98105000D01*
X108507000Y-103965639D02*
X113158639Y-99314000D01*
X108507000Y-105918000D02*
X108507000Y-103965639D01*
X118811000Y-98105000D02*
X118811000Y-96171000D01*
X118811000Y-96171000D02*
X117636000Y-94996000D01*
%TO.N,/A0*%
X113287035Y-99822000D02*
X120142000Y-99822000D01*
X109307000Y-103802035D02*
X113287035Y-99822000D01*
X109307000Y-105918000D02*
X109307000Y-103802035D01*
X120142000Y-99822000D02*
X121351000Y-98613000D01*
X121351000Y-98613000D02*
X121351000Y-96171000D01*
X121351000Y-96171000D02*
X120176000Y-94996000D01*
%TO.N,/CS*%
X113415431Y-100330000D02*
X122682000Y-100330000D01*
X110107000Y-103638431D02*
X113415431Y-100330000D01*
X110107000Y-105918000D02*
X110107000Y-103638431D01*
X122682000Y-100330000D02*
X123891000Y-99121000D01*
X123891000Y-99121000D02*
X123891000Y-96171000D01*
X123891000Y-96171000D02*
X122716000Y-94996000D01*
%TO.N,/IO-CS3*%
X113543827Y-100838000D02*
X125730000Y-100838000D01*
X125256000Y-94996000D02*
X126431000Y-96171000D01*
X126431000Y-96171000D02*
X126431000Y-100137000D01*
X126431000Y-100137000D02*
X125730000Y-100838000D01*
X110907000Y-103474827D02*
X113543827Y-100838000D01*
X110907000Y-105918000D02*
X110907000Y-103474827D01*
%TO.N,GND*%
X113672223Y-101346000D02*
X127762000Y-101346000D01*
X112507000Y-102511223D02*
X113672223Y-101346000D01*
X127762000Y-101346000D02*
X128971000Y-100137000D01*
X112507000Y-105918000D02*
X112507000Y-102511223D01*
X128971000Y-100137000D02*
X128971000Y-96171000D01*
X128971000Y-96171000D02*
X127796000Y-94996000D01*
X112507000Y-105918000D02*
X111707000Y-105918000D01*
%TD*%
M02*
