%TF.GenerationSoftware,KiCad,Pcbnew,7.0.10*%
%TF.CreationDate,2024-03-07T18:21:54+01:00*%
%TF.ProjectId,ROM_Card,524f4d5f-4361-4726-942e-6b696361645f,rev?*%
%TF.SameCoordinates,Original*%
%TF.FileFunction,Legend,Bot*%
%TF.FilePolarity,Positive*%
%FSLAX46Y46*%
G04 Gerber Fmt 4.6, Leading zero omitted, Abs format (unit mm)*
G04 Created by KiCad (PCBNEW 7.0.10) date 2024-03-07 18:21:54*
%MOMM*%
%LPD*%
G01*
G04 APERTURE LIST*
%ADD10C,0.150000*%
%ADD11C,0.120000*%
G04 APERTURE END LIST*
D10*
X140894600Y-110305905D02*
X140942219Y-110448762D01*
X140942219Y-110448762D02*
X140942219Y-110686857D01*
X140942219Y-110686857D02*
X140894600Y-110782095D01*
X140894600Y-110782095D02*
X140846980Y-110829714D01*
X140846980Y-110829714D02*
X140751742Y-110877333D01*
X140751742Y-110877333D02*
X140656504Y-110877333D01*
X140656504Y-110877333D02*
X140561266Y-110829714D01*
X140561266Y-110829714D02*
X140513647Y-110782095D01*
X140513647Y-110782095D02*
X140466028Y-110686857D01*
X140466028Y-110686857D02*
X140418409Y-110496381D01*
X140418409Y-110496381D02*
X140370790Y-110401143D01*
X140370790Y-110401143D02*
X140323171Y-110353524D01*
X140323171Y-110353524D02*
X140227933Y-110305905D01*
X140227933Y-110305905D02*
X140132695Y-110305905D01*
X140132695Y-110305905D02*
X140037457Y-110353524D01*
X140037457Y-110353524D02*
X139989838Y-110401143D01*
X139989838Y-110401143D02*
X139942219Y-110496381D01*
X139942219Y-110496381D02*
X139942219Y-110734476D01*
X139942219Y-110734476D02*
X139989838Y-110877333D01*
X140846980Y-111877333D02*
X140894600Y-111829714D01*
X140894600Y-111829714D02*
X140942219Y-111686857D01*
X140942219Y-111686857D02*
X140942219Y-111591619D01*
X140942219Y-111591619D02*
X140894600Y-111448762D01*
X140894600Y-111448762D02*
X140799361Y-111353524D01*
X140799361Y-111353524D02*
X140704123Y-111305905D01*
X140704123Y-111305905D02*
X140513647Y-111258286D01*
X140513647Y-111258286D02*
X140370790Y-111258286D01*
X140370790Y-111258286D02*
X140180314Y-111305905D01*
X140180314Y-111305905D02*
X140085076Y-111353524D01*
X140085076Y-111353524D02*
X139989838Y-111448762D01*
X139989838Y-111448762D02*
X139942219Y-111591619D01*
X139942219Y-111591619D02*
X139942219Y-111686857D01*
X139942219Y-111686857D02*
X139989838Y-111829714D01*
X139989838Y-111829714D02*
X140037457Y-111877333D01*
X140894600Y-112258286D02*
X140942219Y-112401143D01*
X140942219Y-112401143D02*
X140942219Y-112639238D01*
X140942219Y-112639238D02*
X140894600Y-112734476D01*
X140894600Y-112734476D02*
X140846980Y-112782095D01*
X140846980Y-112782095D02*
X140751742Y-112829714D01*
X140751742Y-112829714D02*
X140656504Y-112829714D01*
X140656504Y-112829714D02*
X140561266Y-112782095D01*
X140561266Y-112782095D02*
X140513647Y-112734476D01*
X140513647Y-112734476D02*
X140466028Y-112639238D01*
X140466028Y-112639238D02*
X140418409Y-112448762D01*
X140418409Y-112448762D02*
X140370790Y-112353524D01*
X140370790Y-112353524D02*
X140323171Y-112305905D01*
X140323171Y-112305905D02*
X140227933Y-112258286D01*
X140227933Y-112258286D02*
X140132695Y-112258286D01*
X140132695Y-112258286D02*
X140037457Y-112305905D01*
X140037457Y-112305905D02*
X139989838Y-112353524D01*
X139989838Y-112353524D02*
X139942219Y-112448762D01*
X139942219Y-112448762D02*
X139942219Y-112686857D01*
X139942219Y-112686857D02*
X139989838Y-112829714D01*
X140942219Y-113782095D02*
X140942219Y-113210667D01*
X140942219Y-113496381D02*
X139942219Y-113496381D01*
X139942219Y-113496381D02*
X140085076Y-113401143D01*
X140085076Y-113401143D02*
X140180314Y-113305905D01*
X140180314Y-113305905D02*
X140227933Y-113210667D01*
X137672200Y-94502333D02*
X137719819Y-94645190D01*
X137719819Y-94645190D02*
X137719819Y-94883285D01*
X137719819Y-94883285D02*
X137672200Y-94978523D01*
X137672200Y-94978523D02*
X137624580Y-95026142D01*
X137624580Y-95026142D02*
X137529342Y-95073761D01*
X137529342Y-95073761D02*
X137434104Y-95073761D01*
X137434104Y-95073761D02*
X137338866Y-95026142D01*
X137338866Y-95026142D02*
X137291247Y-94978523D01*
X137291247Y-94978523D02*
X137243628Y-94883285D01*
X137243628Y-94883285D02*
X137196009Y-94692809D01*
X137196009Y-94692809D02*
X137148390Y-94597571D01*
X137148390Y-94597571D02*
X137100771Y-94549952D01*
X137100771Y-94549952D02*
X137005533Y-94502333D01*
X137005533Y-94502333D02*
X136910295Y-94502333D01*
X136910295Y-94502333D02*
X136815057Y-94549952D01*
X136815057Y-94549952D02*
X136767438Y-94597571D01*
X136767438Y-94597571D02*
X136719819Y-94692809D01*
X136719819Y-94692809D02*
X136719819Y-94930904D01*
X136719819Y-94930904D02*
X136767438Y-95073761D01*
X137434104Y-95454714D02*
X137434104Y-95930904D01*
X137719819Y-95359476D02*
X136719819Y-95692809D01*
X136719819Y-95692809D02*
X137719819Y-96026142D01*
X137719819Y-96883285D02*
X137719819Y-96311857D01*
X137719819Y-96597571D02*
X136719819Y-96597571D01*
X136719819Y-96597571D02*
X136862676Y-96502333D01*
X136862676Y-96502333D02*
X136957914Y-96407095D01*
X136957914Y-96407095D02*
X137005533Y-96311857D01*
X137053152Y-97740428D02*
X137719819Y-97740428D01*
X136672200Y-97502333D02*
X137386485Y-97264238D01*
X137386485Y-97264238D02*
X137386485Y-97883285D01*
D11*
%TO.C,SCS1*%
X139684000Y-114094000D02*
X139684000Y-109994000D01*
X137684000Y-114094000D02*
X139684000Y-114094000D01*
X137184000Y-113644000D02*
X137184000Y-113044000D01*
X137484000Y-113344000D02*
X137184000Y-113644000D01*
X137484000Y-113344000D02*
X137184000Y-113044000D01*
X139684000Y-109994000D02*
X137684000Y-109994000D01*
X137684000Y-109994000D02*
X137684000Y-114094000D01*
%TO.C,SA14*%
X138065000Y-94119000D02*
X138065000Y-98219000D01*
X140065000Y-94119000D02*
X138065000Y-94119000D01*
X140565000Y-94569000D02*
X140565000Y-95169000D01*
X140265000Y-94869000D02*
X140565000Y-94569000D01*
X140265000Y-94869000D02*
X140565000Y-95169000D01*
X138065000Y-98219000D02*
X140065000Y-98219000D01*
X140065000Y-98219000D02*
X140065000Y-94119000D01*
%TD*%
M02*
