%TF.GenerationSoftware,KiCad,Pcbnew,7.0.10*%
%TF.CreationDate,2024-03-07T18:21:54+01:00*%
%TF.ProjectId,ROM_Card,524f4d5f-4361-4726-942e-6b696361645f,rev?*%
%TF.SameCoordinates,Original*%
%TF.FileFunction,Soldermask,Top*%
%TF.FilePolarity,Negative*%
%FSLAX46Y46*%
G04 Gerber Fmt 4.6, Leading zero omitted, Abs format (unit mm)*
G04 Created by KiCad (PCBNEW 7.0.10) date 2024-03-07 18:21:54*
%MOMM*%
%LPD*%
G01*
G04 APERTURE LIST*
G04 Aperture macros list*
%AMRoundRect*
0 Rectangle with rounded corners*
0 $1 Rounding radius*
0 $2 $3 $4 $5 $6 $7 $8 $9 X,Y pos of 4 corners*
0 Add a 4 corners polygon primitive as box body*
4,1,4,$2,$3,$4,$5,$6,$7,$8,$9,$2,$3,0*
0 Add four circle primitives for the rounded corners*
1,1,$1+$1,$2,$3*
1,1,$1+$1,$4,$5*
1,1,$1+$1,$6,$7*
1,1,$1+$1,$8,$9*
0 Add four rect primitives between the rounded corners*
20,1,$1+$1,$2,$3,$4,$5,0*
20,1,$1+$1,$4,$5,$6,$7,0*
20,1,$1+$1,$6,$7,$8,$9,0*
20,1,$1+$1,$8,$9,$2,$3,0*%
G04 Aperture macros list end*
%ADD10C,3.200000*%
%ADD11RoundRect,0.100000X-0.637500X-0.100000X0.637500X-0.100000X0.637500X0.100000X-0.637500X0.100000X0*%
%ADD12R,1.422400X1.422400*%
%ADD13C,1.422400*%
%ADD14R,1.500000X1.000000*%
%ADD15R,0.450000X0.300000*%
%ADD16R,2.800000X0.550000*%
G04 APERTURE END LIST*
D10*
%TO.C,REF\u002A\u002A*%
X170292000Y-118618000D03*
%TD*%
%TO.C,REF\u002A\u002A*%
X177292000Y-118618000D03*
%TD*%
D11*
%TO.C,U3*%
X153914000Y-89927000D03*
X153914000Y-90577000D03*
X153914000Y-91227000D03*
X153914000Y-91877000D03*
X153914000Y-92527000D03*
X153914000Y-93177000D03*
X153914000Y-93827000D03*
X153914000Y-94477000D03*
X159639000Y-94477000D03*
X159639000Y-93827000D03*
X159639000Y-93177000D03*
X159639000Y-92527000D03*
X159639000Y-91877000D03*
X159639000Y-91227000D03*
X159639000Y-90577000D03*
X159639000Y-89927000D03*
%TD*%
D12*
%TO.C,U2*%
X173355000Y-97282000D03*
D13*
X170815000Y-94742000D03*
X170815000Y-97282000D03*
X168275000Y-94742000D03*
X165735000Y-97282000D03*
X168275000Y-97282000D03*
X165735000Y-99822000D03*
X168275000Y-99822000D03*
X165735000Y-102362000D03*
X168275000Y-102362000D03*
X165735000Y-104902000D03*
X168275000Y-104902000D03*
X165735000Y-107442000D03*
X168275000Y-109982000D03*
X168275000Y-107442000D03*
X170815000Y-109982000D03*
X170815000Y-107442000D03*
X173355000Y-109982000D03*
X173355000Y-107442000D03*
X175895000Y-109982000D03*
X178435000Y-107442000D03*
X175895000Y-107442000D03*
X178435000Y-104902000D03*
X175895000Y-104902000D03*
X178435000Y-102362000D03*
X175895000Y-102362000D03*
X178435000Y-99822000D03*
X175895000Y-99822000D03*
X178435000Y-97282000D03*
X175895000Y-94742000D03*
X175895000Y-97282000D03*
X173355000Y-94742000D03*
%TD*%
D11*
%TO.C,U1*%
X141172498Y-112548000D03*
X141172498Y-113198000D03*
X141172498Y-113848000D03*
X141172498Y-114498000D03*
X141172498Y-115148000D03*
X141172498Y-115798000D03*
X141172498Y-116448000D03*
X141172498Y-117098000D03*
X141172498Y-117748000D03*
X141172498Y-118398000D03*
X146897498Y-118398000D03*
X146897498Y-117748000D03*
X146897498Y-117098000D03*
X146897498Y-116448000D03*
X146897498Y-115798000D03*
X146897498Y-115148000D03*
X146897498Y-114498000D03*
X146897498Y-113848000D03*
X146897498Y-113198000D03*
X146897498Y-112548000D03*
%TD*%
D14*
%TO.C,ID1*%
X154956998Y-114457000D03*
X154956998Y-113157000D03*
X154956998Y-111857000D03*
%TD*%
%TO.C,ID3*%
X160036998Y-114457000D03*
X160036998Y-113157000D03*
X160036998Y-111857000D03*
%TD*%
%TO.C,ID7*%
X160036998Y-116526000D03*
X160036998Y-117826000D03*
X160036998Y-119126000D03*
%TD*%
%TO.C,ID0*%
X152416998Y-114457000D03*
X152416998Y-113157000D03*
X152416998Y-111857000D03*
%TD*%
%TO.C,ID4*%
X152416998Y-116526000D03*
X152416998Y-117826000D03*
X152416998Y-119126000D03*
%TD*%
D15*
%TO.C,U5*%
X140459000Y-90297000D03*
X140459000Y-90797000D03*
X140459000Y-91297000D03*
X141859000Y-91297000D03*
X141859000Y-90297000D03*
%TD*%
D14*
%TO.C,ID6*%
X157496998Y-116526000D03*
X157496998Y-117826000D03*
X157496998Y-119126000D03*
%TD*%
%TO.C,ID5*%
X154956998Y-116526000D03*
X154956998Y-117826000D03*
X154956998Y-119126000D03*
%TD*%
%TO.C,ID2*%
X157496998Y-114457000D03*
X157496998Y-113157000D03*
X157496998Y-111857000D03*
%TD*%
D16*
%TO.C,J1*%
X132080000Y-97956000D03*
X132080000Y-98756000D03*
X132080000Y-99556000D03*
X132080000Y-100356000D03*
X132080000Y-101156000D03*
X132080000Y-101956000D03*
X132080000Y-102756000D03*
X132080000Y-103556000D03*
X132080000Y-104356000D03*
X132080000Y-105156000D03*
X132080000Y-105971000D03*
X132080000Y-106771000D03*
X132080000Y-107571000D03*
X132080000Y-108371000D03*
X132080000Y-109171000D03*
X132080000Y-109971000D03*
X132080000Y-110771000D03*
X132080000Y-111571000D03*
X132080000Y-112371000D03*
X132080000Y-113171000D03*
%TD*%
M02*
