M48
; DRILL file {KiCad 7.0.10} date do 07 mrt 2024 18:21:56 CET
; FORMAT={-:-/ absolute / inch / decimal}
; #@! TF.CreationDate,2024-03-07T18:21:56+01:00
; #@! TF.GenerationSoftware,Kicad,Pcbnew,7.0.10
; #@! TF.FileFunction,Plated,1,4,PTH
FMAT,2
INCH
; #@! TA.AperFunction,Plated,PTH,ViaDrill
T1C0.0157
; #@! TA.AperFunction,Plated,PTH,ComponentDrill
T2C0.0315
%
G90
G05
T1
X5.285Y-4.395
X5.4102Y-4.5298
X5.4242Y-4.5858
X5.4494Y-4.52
X5.455Y-3.59
X5.48Y-4.285
X5.5272Y-4.2478
X5.53Y-3.65
X5.555Y-4.22
X5.5652Y-4.1802
X5.5694Y-3.65
X5.5757Y-4.4097
X5.59Y-4.365
X5.6Y-4.1585
X5.6006Y-4.5593
X5.6207Y-4.6112
X5.6212Y-4.4077
X5.6217Y-4.4879
X5.6394Y-4.352
X5.6402Y-4.1587
X5.655Y-4.06
X5.6679Y-4.1867
X5.6838Y-3.6528
X5.7071Y-4.19
X5.725Y-4.6733
X5.73Y-4.0837
X5.77Y-4.0837
X5.775Y-4.16
X5.785Y-3.7237
X5.8216Y-3.9837
X5.8407Y-4.6262
X5.8407Y-4.6812
X5.8421Y-4.5797
X5.8607Y-4.4385
X5.875Y-3.9585
X5.9157Y-4.5712
X5.925Y-3.5975
X5.9257Y-4.4262
X5.955Y-3.8585
X5.965Y-4.16
X5.995Y-3.569
X6.01Y-3.7237
X6.01Y-3.8355
X6.035Y-3.8837
X6.0538Y-4.4562
X6.0538Y-4.6362
X6.11Y-3.6095
X6.1168Y-4.0607
X6.13Y-3.8837
X6.1538Y-4.4562
X6.1557Y-4.6362
X6.165Y-3.6095
X6.185Y-3.98
X6.1897Y-3.7237
X6.225Y-3.59
X6.23Y-3.7237
X6.24Y-3.88
X6.2538Y-4.4562
X6.2538Y-4.6362
X6.3377Y-3.7237
X6.3707Y-4.4412
X6.46Y-3.6666
X6.5494Y-3.6944
X6.7735Y-3.8601
X7.025Y-3.725
T2
X6.525Y-3.83
X6.525Y-3.93
X6.525Y-4.03
X6.525Y-4.13
X6.525Y-4.23
X6.625Y-3.73
X6.625Y-3.83
X6.625Y-3.93
X6.625Y-4.03
X6.625Y-4.13
X6.625Y-4.23
X6.625Y-4.33
X6.725Y-3.73
X6.725Y-3.83
X6.725Y-4.23
X6.725Y-4.33
X6.825Y-3.73
X6.825Y-3.83
X6.825Y-4.23
X6.825Y-4.33
X6.925Y-3.73
X6.925Y-3.83
X6.925Y-3.93
X6.925Y-4.03
X6.925Y-4.13
X6.925Y-4.23
X6.925Y-4.33
X7.025Y-3.83
X7.025Y-3.93
X7.025Y-4.03
X7.025Y-4.13
X7.025Y-4.23
M30
