%TF.GenerationSoftware,KiCad,Pcbnew,7.0.10*%
%TF.CreationDate,2024-03-07T18:21:54+01:00*%
%TF.ProjectId,ROM_Card,524f4d5f-4361-4726-942e-6b696361645f,rev?*%
%TF.SameCoordinates,Original*%
%TF.FileFunction,Copper,L2,Inr*%
%TF.FilePolarity,Positive*%
%FSLAX46Y46*%
G04 Gerber Fmt 4.6, Leading zero omitted, Abs format (unit mm)*
G04 Created by KiCad (PCBNEW 7.0.10) date 2024-03-07 18:21:54*
%MOMM*%
%LPD*%
G01*
G04 APERTURE LIST*
%TA.AperFunction,ComponentPad*%
%ADD10R,1.422400X1.422400*%
%TD*%
%TA.AperFunction,ComponentPad*%
%ADD11C,1.422400*%
%TD*%
%TA.AperFunction,ViaPad*%
%ADD12C,0.800000*%
%TD*%
%TA.AperFunction,Conductor*%
%ADD13C,0.250000*%
%TD*%
G04 APERTURE END LIST*
D10*
%TO.N,/A18*%
%TO.C,U2*%
X173355000Y-97282000D03*
D11*
%TO.N,/A16*%
X170815000Y-94742000D03*
%TO.N,/A15B*%
X170815000Y-97282000D03*
%TO.N,/A12*%
X168275000Y-94742000D03*
%TO.N,/A7*%
X165735000Y-97282000D03*
%TO.N,/A6*%
X168275000Y-97282000D03*
%TO.N,/A5*%
X165735000Y-99822000D03*
%TO.N,/A4*%
X168275000Y-99822000D03*
%TO.N,/A3*%
X165735000Y-102362000D03*
%TO.N,/A2*%
X168275000Y-102362000D03*
%TO.N,/A1*%
X165735000Y-104902000D03*
%TO.N,/A0*%
X168275000Y-104902000D03*
%TO.N,/D0*%
X165735000Y-107442000D03*
%TO.N,/D1*%
X168275000Y-109982000D03*
%TO.N,/D2*%
X168275000Y-107442000D03*
%TO.N,GND*%
X170815000Y-109982000D03*
%TO.N,/D3*%
X170815000Y-107442000D03*
%TO.N,/D4*%
X173355000Y-109982000D03*
%TO.N,/D5*%
X173355000Y-107442000D03*
%TO.N,/D6*%
X175895000Y-109982000D03*
%TO.N,/D7*%
X178435000Y-107442000D03*
%TO.N,Net-(SCS1-B)*%
X175895000Y-107442000D03*
%TO.N,/A10*%
X178435000Y-104902000D03*
%TO.N,/RD*%
X175895000Y-104902000D03*
%TO.N,/A11*%
X178435000Y-102362000D03*
%TO.N,/A9*%
X175895000Y-102362000D03*
%TO.N,/A8*%
X178435000Y-99822000D03*
%TO.N,/A13*%
X175895000Y-99822000D03*
%TO.N,Net-(SA14-B)*%
X178435000Y-97282000D03*
%TO.N,/A17*%
X175895000Y-94742000D03*
%TO.N,/PGM{slash}5V*%
X175895000Y-97282000D03*
%TO.N,+5V*%
X173355000Y-94742000D03*
%TD*%
D12*
%TO.N,/D1*%
X152654000Y-97420800D03*
X155194000Y-91681520D03*
%TO.N,/D0*%
X141354955Y-106175955D03*
%TO.N,/IO-CS2*%
X139192000Y-108839000D03*
%TO.N,/D0*%
X150495000Y-91377000D03*
%TO.N,/D2*%
X143637000Y-103124000D03*
X144369604Y-92782298D03*
%TO.N,/A16*%
X157217515Y-94582341D03*
%TO.N,/A15B*%
X158242000Y-94581520D03*
%TO.N,/D3*%
X158496000Y-98552000D03*
X157099000Y-101092000D03*
%TO.N,/A17*%
X160976500Y-94581520D03*
%TO.N,/D4*%
X156591000Y-91681520D03*
%TO.N,/D5*%
X158115000Y-91186000D03*
%TO.N,/A14B*%
X152273000Y-90652000D03*
%TO.N,GND*%
X152654000Y-94581520D03*
%TO.N,/D4*%
X149225000Y-100547000D03*
X141986000Y-110871000D03*
X146685000Y-105664000D03*
%TO.N,/D5*%
X155702000Y-98647000D03*
X155366784Y-103140800D03*
X145415000Y-118701000D03*
%TO.N,Net-(ID1-B)*%
X142790380Y-113993118D03*
%TO.N,Net-(ID2-B)*%
X142255740Y-115806448D03*
%TO.N,/D3*%
X143240380Y-110540704D03*
X147868017Y-101187000D03*
%TO.N,/D2*%
X143965380Y-106341134D03*
X146558000Y-103727000D03*
%TO.N,/D1*%
X144960998Y-106426000D03*
X145542000Y-103727000D03*
%TO.N,/IO-CS1*%
X134239000Y-111633000D03*
%TO.N,/D6*%
X153289000Y-98647000D03*
%TO.N,/A13*%
X164084000Y-93131520D03*
%TO.N,/A12*%
X166355247Y-93838247D03*
%TO.N,/A11*%
X146939000Y-94581520D03*
%TO.N,/IO-CS2*%
X138557000Y-91186000D03*
%TO.N,/WR*%
X140389891Y-107895109D03*
X141462003Y-92710000D03*
%TO.N,GND*%
X137418653Y-115057347D03*
X140462000Y-92710000D03*
%TO.N,/RD*%
X141097000Y-107188000D03*
X151511000Y-105664000D03*
%TO.N,/PGM{slash}5V*%
X138414998Y-114808000D03*
%TO.N,+5V*%
X161814998Y-112806000D03*
X137774736Y-116479264D03*
%TO.N,/D6*%
X143260653Y-105631653D03*
%TO.N,/D7*%
X142240000Y-105627000D03*
X151257000Y-98007000D03*
%TO.N,Net-(SA14-B)*%
X178435000Y-94615000D03*
%TO.N,/A9*%
X172046263Y-98047522D03*
%TO.N,GND*%
X150257998Y-116108000D03*
%TO.N,/IO-CS1*%
X148860998Y-112737000D03*
X141621998Y-112007000D03*
%TO.N,Net-(ID0-B)*%
X150511998Y-112425000D03*
X142778031Y-111956033D03*
%TO.N,Net-(ID7-B)*%
X148352998Y-118902000D03*
X158847000Y-117759000D03*
%TO.N,Net-(ID6-B)*%
X148352998Y-117505000D03*
X156353998Y-117759000D03*
%TO.N,Net-(ID5-B)*%
X148390251Y-116324747D03*
X153767000Y-117759000D03*
%TO.N,Net-(ID3-B)*%
X142764998Y-117124000D03*
X158847000Y-113187000D03*
%TO.N,Net-(ID2-B)*%
X156307000Y-113187000D03*
%TO.N,Net-(ID1-B)*%
X153767000Y-113187000D03*
%TD*%
D13*
%TO.N,/D1*%
X152515200Y-97282000D02*
X152654000Y-97420800D01*
X150747712Y-97282000D02*
X152515200Y-97282000D01*
X145542000Y-102487712D02*
X150747712Y-97282000D01*
X145542000Y-103727000D02*
X145542000Y-102487712D01*
%TO.N,/D2*%
X144369604Y-102391396D02*
X143637000Y-103124000D01*
X144369604Y-92782298D02*
X144369604Y-102391396D01*
%TO.N,/A11*%
X146939000Y-94581520D02*
X151628695Y-94581520D01*
X151628695Y-94581520D02*
X154969175Y-97922000D01*
X154969175Y-97922000D02*
X156235200Y-97922000D01*
X156235200Y-97922000D02*
X159639000Y-101325800D01*
X159639000Y-101325800D02*
X177398800Y-101325800D01*
X177398800Y-101325800D02*
X178435000Y-102362000D01*
%TO.N,/A17*%
X163151500Y-92406520D02*
X160976500Y-94581520D01*
X173559520Y-92406520D02*
X163151500Y-92406520D01*
X175895000Y-94742000D02*
X173559520Y-92406520D01*
%TO.N,GND*%
X152654000Y-94581520D02*
X150057480Y-91985000D01*
X141161698Y-91985000D02*
X140462000Y-92684698D01*
X150057480Y-91985000D02*
X141161698Y-91985000D01*
X140462000Y-92684698D02*
X140462000Y-92710000D01*
%TO.N,/D7*%
X178435000Y-107442000D02*
X178435000Y-108966000D01*
X175932800Y-111468200D02*
X164718200Y-111468200D01*
X178435000Y-108966000D02*
X175932800Y-111468200D01*
X164718200Y-111468200D02*
X151257000Y-98007000D01*
%TO.N,/D6*%
X153289000Y-98647000D02*
X165660200Y-111018200D01*
X165660200Y-111018200D02*
X174858800Y-111018200D01*
X174858800Y-111018200D02*
X175895000Y-109982000D01*
%TO.N,/D4*%
X149225000Y-103124000D02*
X149225000Y-100547000D01*
X146685000Y-105664000D02*
X149225000Y-103124000D01*
%TO.N,/D5*%
X155366784Y-103140800D02*
X145415000Y-113092584D01*
X145415000Y-113092584D02*
X145415000Y-118701000D01*
%TO.N,/D2*%
X146558000Y-103748514D02*
X146558000Y-103727000D01*
X143965380Y-106341134D02*
X146558000Y-103748514D01*
%TO.N,/A13*%
X164745500Y-93826500D02*
X167164800Y-96245800D01*
X164745500Y-93793020D02*
X164745500Y-93826500D01*
X164084000Y-93131520D02*
X164745500Y-93793020D01*
%TO.N,/WR*%
X140372000Y-107877218D02*
X140372000Y-93825305D01*
X140389891Y-107895109D02*
X140372000Y-107877218D01*
X140372000Y-93825305D02*
X141462003Y-92735302D01*
X141462003Y-92735302D02*
X141462003Y-92710000D01*
%TO.N,GND*%
X137418653Y-95753347D02*
X137418653Y-115057347D01*
X140462000Y-92710000D02*
X137418653Y-95753347D01*
%TO.N,/RD*%
X149987000Y-107188000D02*
X141097000Y-107188000D01*
X151511000Y-105664000D02*
X149987000Y-107188000D01*
%TO.N,/A13*%
X169778800Y-97769800D02*
X171831000Y-99822000D01*
X167164800Y-96245800D02*
X168742600Y-96245800D01*
X168742600Y-96245800D02*
X169778800Y-97282000D01*
X169778800Y-97282000D02*
X169778800Y-97769800D01*
X171831000Y-99822000D02*
X175895000Y-99822000D01*
%TD*%
%TA.AperFunction,Conductor*%
%TO.N,GND*%
G36*
X169593812Y-107749054D02*
G01*
X169647690Y-107793539D01*
X169664775Y-107830949D01*
X169672023Y-107858001D01*
X169672025Y-107858005D01*
X169672026Y-107858009D01*
X169727912Y-107977857D01*
X169761629Y-108050164D01*
X169761631Y-108050168D01*
X169883235Y-108223836D01*
X169883239Y-108223841D01*
X170033159Y-108373761D01*
X170033161Y-108373762D01*
X170033163Y-108373764D01*
X170206831Y-108495368D01*
X170206833Y-108495369D01*
X170206836Y-108495371D01*
X170398991Y-108584974D01*
X170398997Y-108584975D01*
X170398998Y-108584976D01*
X170427014Y-108592483D01*
X170486675Y-108628848D01*
X170517204Y-108691695D01*
X170508909Y-108761070D01*
X170464424Y-108814948D01*
X170427014Y-108832033D01*
X170399170Y-108839493D01*
X170399161Y-108839497D01*
X170207088Y-108929062D01*
X170153286Y-108966733D01*
X170770599Y-109584046D01*
X170689852Y-109596835D01*
X170576955Y-109654359D01*
X170487359Y-109743955D01*
X170429835Y-109856852D01*
X170417046Y-109937599D01*
X169799733Y-109320286D01*
X169762062Y-109374088D01*
X169672497Y-109566161D01*
X169672493Y-109566170D01*
X169665033Y-109594014D01*
X169628668Y-109653675D01*
X169565821Y-109684204D01*
X169496445Y-109675909D01*
X169442568Y-109631424D01*
X169425483Y-109594014D01*
X169417976Y-109565998D01*
X169417975Y-109565996D01*
X169417974Y-109565991D01*
X169328371Y-109373836D01*
X169328369Y-109373833D01*
X169328368Y-109373831D01*
X169206764Y-109200163D01*
X169206759Y-109200157D01*
X169056842Y-109050240D01*
X169056836Y-109050235D01*
X168883168Y-108928631D01*
X168883164Y-108928629D01*
X168691009Y-108839026D01*
X168691005Y-108839025D01*
X168691001Y-108839023D01*
X168663949Y-108831775D01*
X168604288Y-108795410D01*
X168573759Y-108732563D01*
X168582054Y-108663188D01*
X168626539Y-108609310D01*
X168663949Y-108592225D01*
X168681930Y-108587406D01*
X168691009Y-108584974D01*
X168883164Y-108495371D01*
X169056841Y-108373761D01*
X169206761Y-108223841D01*
X169328371Y-108050164D01*
X169417974Y-107858009D01*
X169425225Y-107830949D01*
X169461590Y-107771288D01*
X169524437Y-107740759D01*
X169593812Y-107749054D01*
G37*
%TD.AperFunction*%
%TA.AperFunction,Conductor*%
G36*
X172133812Y-107749054D02*
G01*
X172187690Y-107793539D01*
X172204775Y-107830949D01*
X172212023Y-107858001D01*
X172212025Y-107858005D01*
X172212026Y-107858009D01*
X172267912Y-107977857D01*
X172301629Y-108050164D01*
X172301631Y-108050168D01*
X172423235Y-108223836D01*
X172423239Y-108223841D01*
X172573159Y-108373761D01*
X172573161Y-108373762D01*
X172573163Y-108373764D01*
X172746831Y-108495368D01*
X172746833Y-108495369D01*
X172746836Y-108495371D01*
X172938991Y-108584974D01*
X172953717Y-108588919D01*
X172966051Y-108592225D01*
X173025711Y-108628591D01*
X173056240Y-108691438D01*
X173047945Y-108760813D01*
X173003459Y-108814691D01*
X172966051Y-108831775D01*
X172938996Y-108839024D01*
X172938989Y-108839027D01*
X172746835Y-108928629D01*
X172746831Y-108928631D01*
X172573163Y-109050235D01*
X172573157Y-109050240D01*
X172423240Y-109200157D01*
X172423235Y-109200163D01*
X172301631Y-109373831D01*
X172301629Y-109373835D01*
X172212027Y-109565989D01*
X172212023Y-109565999D01*
X172204515Y-109594018D01*
X172168149Y-109653677D01*
X172105301Y-109684205D01*
X172035926Y-109675908D01*
X171982049Y-109631421D01*
X171964965Y-109594011D01*
X171957505Y-109566166D01*
X171957502Y-109566161D01*
X171867934Y-109374083D01*
X171830266Y-109320286D01*
X171830265Y-109320285D01*
X171212953Y-109937597D01*
X171200165Y-109856852D01*
X171142641Y-109743955D01*
X171053045Y-109654359D01*
X170940148Y-109596835D01*
X170859401Y-109584046D01*
X171476713Y-108966734D01*
X171476712Y-108966733D01*
X171422914Y-108929063D01*
X171422912Y-108929062D01*
X171230838Y-108839497D01*
X171230829Y-108839493D01*
X171202985Y-108832033D01*
X171143325Y-108795669D01*
X171112795Y-108732822D01*
X171121089Y-108663446D01*
X171165574Y-108609568D01*
X171202986Y-108592483D01*
X171230999Y-108584977D01*
X171231000Y-108584976D01*
X171231009Y-108584974D01*
X171423164Y-108495371D01*
X171596841Y-108373761D01*
X171746761Y-108223841D01*
X171868371Y-108050164D01*
X171957974Y-107858009D01*
X171965225Y-107830949D01*
X172001590Y-107771288D01*
X172064437Y-107740759D01*
X172133812Y-107749054D01*
G37*
%TD.AperFunction*%
%TA.AperFunction,Conductor*%
G36*
X174656042Y-101970985D02*
G01*
X174701797Y-102023789D01*
X174711741Y-102092947D01*
X174708778Y-102107392D01*
X174697153Y-102150778D01*
X174697150Y-102150791D01*
X174678672Y-102361999D01*
X174678672Y-102362000D01*
X174697150Y-102573208D01*
X174697152Y-102573218D01*
X174752023Y-102778001D01*
X174752025Y-102778005D01*
X174752026Y-102778009D01*
X174778845Y-102835522D01*
X174841629Y-102970164D01*
X174841631Y-102970168D01*
X174963235Y-103143836D01*
X174963240Y-103143842D01*
X175113157Y-103293759D01*
X175113163Y-103293764D01*
X175286831Y-103415368D01*
X175286833Y-103415369D01*
X175286836Y-103415371D01*
X175478991Y-103504974D01*
X175493717Y-103508919D01*
X175506051Y-103512225D01*
X175565711Y-103548591D01*
X175596240Y-103611438D01*
X175587945Y-103680813D01*
X175543459Y-103734691D01*
X175506051Y-103751775D01*
X175478996Y-103759024D01*
X175478991Y-103759025D01*
X175478991Y-103759026D01*
X175454726Y-103770340D01*
X175286835Y-103848629D01*
X175286831Y-103848631D01*
X175113163Y-103970235D01*
X175113157Y-103970240D01*
X174963240Y-104120157D01*
X174963235Y-104120163D01*
X174841631Y-104293831D01*
X174841629Y-104293835D01*
X174752027Y-104485989D01*
X174752023Y-104485998D01*
X174697152Y-104690781D01*
X174697150Y-104690791D01*
X174678672Y-104901999D01*
X174678672Y-104902000D01*
X174697150Y-105113208D01*
X174697152Y-105113218D01*
X174752023Y-105318001D01*
X174752025Y-105318005D01*
X174752026Y-105318009D01*
X174825577Y-105475740D01*
X174841629Y-105510164D01*
X174841631Y-105510168D01*
X174963235Y-105683836D01*
X174963240Y-105683842D01*
X175113157Y-105833759D01*
X175113163Y-105833764D01*
X175286831Y-105955368D01*
X175286833Y-105955369D01*
X175286836Y-105955371D01*
X175478991Y-106044974D01*
X175493717Y-106048919D01*
X175506051Y-106052225D01*
X175565711Y-106088591D01*
X175596240Y-106151438D01*
X175587945Y-106220813D01*
X175543459Y-106274691D01*
X175506051Y-106291775D01*
X175478996Y-106299024D01*
X175478989Y-106299027D01*
X175286835Y-106388629D01*
X175286831Y-106388631D01*
X175113163Y-106510235D01*
X175113157Y-106510240D01*
X174963240Y-106660157D01*
X174963235Y-106660163D01*
X174841631Y-106833831D01*
X174841629Y-106833835D01*
X174752027Y-107025989D01*
X174752024Y-107025996D01*
X174744775Y-107053051D01*
X174708409Y-107112711D01*
X174645562Y-107143240D01*
X174576187Y-107134945D01*
X174522309Y-107090459D01*
X174505225Y-107053051D01*
X174497975Y-107025996D01*
X174497974Y-107025991D01*
X174408371Y-106833836D01*
X174408369Y-106833833D01*
X174408368Y-106833831D01*
X174286764Y-106660163D01*
X174286759Y-106660157D01*
X174136842Y-106510240D01*
X174136836Y-106510235D01*
X173963168Y-106388631D01*
X173963164Y-106388629D01*
X173771009Y-106299026D01*
X173771005Y-106299025D01*
X173771001Y-106299023D01*
X173566218Y-106244152D01*
X173566208Y-106244150D01*
X173355001Y-106225672D01*
X173354999Y-106225672D01*
X173143791Y-106244150D01*
X173143781Y-106244152D01*
X172938998Y-106299023D01*
X172938989Y-106299027D01*
X172746835Y-106388629D01*
X172746831Y-106388631D01*
X172573163Y-106510235D01*
X172573157Y-106510240D01*
X172423240Y-106660157D01*
X172423235Y-106660163D01*
X172301631Y-106833831D01*
X172301629Y-106833835D01*
X172212027Y-107025989D01*
X172212024Y-107025996D01*
X172204775Y-107053051D01*
X172168409Y-107112711D01*
X172105562Y-107143240D01*
X172036187Y-107134945D01*
X171982309Y-107090459D01*
X171965225Y-107053051D01*
X171957975Y-107025996D01*
X171957974Y-107025991D01*
X171868371Y-106833836D01*
X171868369Y-106833833D01*
X171868368Y-106833831D01*
X171746764Y-106660163D01*
X171746759Y-106660157D01*
X171596842Y-106510240D01*
X171596836Y-106510235D01*
X171423168Y-106388631D01*
X171423164Y-106388629D01*
X171231009Y-106299026D01*
X171231005Y-106299025D01*
X171231001Y-106299023D01*
X171026218Y-106244152D01*
X171026208Y-106244150D01*
X170815001Y-106225672D01*
X170814999Y-106225672D01*
X170603791Y-106244150D01*
X170603781Y-106244152D01*
X170398998Y-106299023D01*
X170398989Y-106299027D01*
X170206835Y-106388629D01*
X170206831Y-106388631D01*
X170033163Y-106510235D01*
X170033157Y-106510240D01*
X169883240Y-106660157D01*
X169883235Y-106660163D01*
X169761631Y-106833831D01*
X169761629Y-106833835D01*
X169672027Y-107025989D01*
X169672024Y-107025996D01*
X169664775Y-107053051D01*
X169628409Y-107112711D01*
X169565562Y-107143240D01*
X169496187Y-107134945D01*
X169442309Y-107090459D01*
X169425225Y-107053051D01*
X169417975Y-107025996D01*
X169417974Y-107025991D01*
X169328371Y-106833836D01*
X169328369Y-106833833D01*
X169328368Y-106833831D01*
X169206764Y-106660163D01*
X169206759Y-106660157D01*
X169056842Y-106510240D01*
X169056836Y-106510235D01*
X168883168Y-106388631D01*
X168883164Y-106388629D01*
X168691009Y-106299026D01*
X168691005Y-106299025D01*
X168691001Y-106299023D01*
X168663949Y-106291775D01*
X168604288Y-106255410D01*
X168573759Y-106192563D01*
X168582054Y-106123188D01*
X168626539Y-106069310D01*
X168663949Y-106052225D01*
X168681930Y-106047406D01*
X168691009Y-106044974D01*
X168883164Y-105955371D01*
X169056841Y-105833761D01*
X169206761Y-105683841D01*
X169328371Y-105510164D01*
X169417974Y-105318009D01*
X169472849Y-105113213D01*
X169491328Y-104902000D01*
X169490017Y-104887021D01*
X169479417Y-104765856D01*
X169472849Y-104690787D01*
X169417974Y-104485991D01*
X169328371Y-104293836D01*
X169328369Y-104293833D01*
X169328368Y-104293831D01*
X169206764Y-104120163D01*
X169206759Y-104120157D01*
X169056842Y-103970240D01*
X169056836Y-103970235D01*
X168883168Y-103848631D01*
X168883164Y-103848629D01*
X168820840Y-103819567D01*
X168691009Y-103759026D01*
X168691005Y-103759025D01*
X168691001Y-103759023D01*
X168663949Y-103751775D01*
X168604288Y-103715410D01*
X168573759Y-103652563D01*
X168582054Y-103583188D01*
X168626539Y-103529310D01*
X168663949Y-103512225D01*
X168681930Y-103507406D01*
X168691009Y-103504974D01*
X168883164Y-103415371D01*
X169056841Y-103293761D01*
X169206761Y-103143841D01*
X169328371Y-102970164D01*
X169417974Y-102778009D01*
X169472849Y-102573213D01*
X169491328Y-102362000D01*
X169472849Y-102150787D01*
X169463831Y-102117130D01*
X169461222Y-102107392D01*
X169462885Y-102037543D01*
X169502048Y-101979680D01*
X169566277Y-101952177D01*
X169580997Y-101951300D01*
X174589003Y-101951300D01*
X174656042Y-101970985D01*
G37*
%TD.AperFunction*%
%TA.AperFunction,Conductor*%
G36*
X150492307Y-98524506D02*
G01*
X150541123Y-98557714D01*
X150651129Y-98679888D01*
X150651132Y-98679890D01*
X150804265Y-98791148D01*
X150804270Y-98791151D01*
X150977192Y-98868142D01*
X150977197Y-98868144D01*
X151162354Y-98907500D01*
X151221548Y-98907500D01*
X151288587Y-98927185D01*
X151309229Y-98943819D01*
X154712013Y-102346603D01*
X154745498Y-102407926D01*
X154740514Y-102477618D01*
X154716483Y-102517256D01*
X154634251Y-102608584D01*
X154634249Y-102608585D01*
X154634248Y-102608588D01*
X154539605Y-102772515D01*
X154539602Y-102772522D01*
X154484530Y-102942017D01*
X154481110Y-102952544D01*
X154479258Y-102970168D01*
X154463462Y-103120451D01*
X154436877Y-103185066D01*
X154427822Y-103195170D01*
X152448456Y-105174535D01*
X152387133Y-105208020D01*
X152317441Y-105203036D01*
X152261508Y-105161164D01*
X152253395Y-105148866D01*
X152243533Y-105131784D01*
X152116871Y-104991112D01*
X152116870Y-104991111D01*
X151963734Y-104879851D01*
X151963729Y-104879848D01*
X151790807Y-104802857D01*
X151790802Y-104802855D01*
X151638616Y-104770508D01*
X151605646Y-104763500D01*
X151416354Y-104763500D01*
X151383897Y-104770398D01*
X151231197Y-104802855D01*
X151231192Y-104802857D01*
X151058270Y-104879848D01*
X151058265Y-104879851D01*
X150905129Y-104991111D01*
X150778466Y-105131785D01*
X150683821Y-105295715D01*
X150683818Y-105295722D01*
X150665739Y-105351365D01*
X150625326Y-105475744D01*
X150607679Y-105643649D01*
X150581094Y-105708263D01*
X150572039Y-105718368D01*
X149764228Y-106526181D01*
X149702905Y-106559666D01*
X149676547Y-106562500D01*
X147361975Y-106562500D01*
X147294936Y-106542815D01*
X147249181Y-106490011D01*
X147239237Y-106420853D01*
X147268262Y-106357297D01*
X147289091Y-106338181D01*
X147290871Y-106336888D01*
X147417533Y-106196216D01*
X147512179Y-106032284D01*
X147570674Y-105852256D01*
X147588321Y-105684344D01*
X147614904Y-105619734D01*
X147623951Y-105609638D01*
X149608788Y-103624801D01*
X149621042Y-103614986D01*
X149620859Y-103614764D01*
X149626868Y-103609791D01*
X149626877Y-103609786D01*
X149672949Y-103560722D01*
X149675566Y-103558023D01*
X149695120Y-103538471D01*
X149697576Y-103535303D01*
X149705156Y-103526427D01*
X149735062Y-103494582D01*
X149744713Y-103477024D01*
X149755396Y-103460761D01*
X149767673Y-103444936D01*
X149785021Y-103404844D01*
X149790151Y-103394371D01*
X149811197Y-103356092D01*
X149816180Y-103336680D01*
X149822481Y-103318280D01*
X149830437Y-103299896D01*
X149837270Y-103256748D01*
X149839633Y-103245338D01*
X149850500Y-103203019D01*
X149850500Y-103182983D01*
X149852027Y-103163582D01*
X149855160Y-103143804D01*
X149851050Y-103100324D01*
X149850500Y-103088655D01*
X149850500Y-101245687D01*
X149870185Y-101178648D01*
X149882350Y-101162715D01*
X149900891Y-101142122D01*
X149957533Y-101079216D01*
X150052179Y-100915284D01*
X150110674Y-100735256D01*
X150130460Y-100547000D01*
X150110674Y-100358744D01*
X150052179Y-100178716D01*
X149957533Y-100014784D01*
X149830871Y-99874112D01*
X149759145Y-99822000D01*
X149677734Y-99762851D01*
X149677729Y-99762848D01*
X149504807Y-99685857D01*
X149504802Y-99685855D01*
X149500278Y-99684894D01*
X149438796Y-99651702D01*
X149405020Y-99590539D01*
X149409672Y-99520824D01*
X149438376Y-99475925D01*
X150361295Y-98553005D01*
X150422616Y-98519522D01*
X150492307Y-98524506D01*
G37*
%TD.AperFunction*%
%TA.AperFunction,Conductor*%
G36*
X183330539Y-88333185D02*
G01*
X183376294Y-88385989D01*
X183387500Y-88437500D01*
X183387500Y-122684500D01*
X183367815Y-122751539D01*
X183315011Y-122797294D01*
X183263500Y-122808500D01*
X136454500Y-122808500D01*
X136387461Y-122788815D01*
X136341706Y-122736011D01*
X136330500Y-122684500D01*
X136330500Y-116479264D01*
X136869276Y-116479264D01*
X136889062Y-116667520D01*
X136889063Y-116667523D01*
X136947554Y-116847541D01*
X136947557Y-116847548D01*
X137042203Y-117011480D01*
X137154966Y-117136716D01*
X137168865Y-117152152D01*
X137322001Y-117263412D01*
X137322006Y-117263415D01*
X137494928Y-117340406D01*
X137494933Y-117340408D01*
X137680090Y-117379764D01*
X137680091Y-117379764D01*
X137869380Y-117379764D01*
X137869382Y-117379764D01*
X138054539Y-117340408D01*
X138227466Y-117263415D01*
X138380607Y-117152152D01*
X138507269Y-117011480D01*
X138601915Y-116847548D01*
X138660410Y-116667520D01*
X138680196Y-116479264D01*
X138660410Y-116291008D01*
X138601915Y-116110980D01*
X138507269Y-115947048D01*
X138471074Y-115906850D01*
X138440846Y-115843861D01*
X138449471Y-115774526D01*
X138494212Y-115720860D01*
X138537443Y-115702591D01*
X138694801Y-115669144D01*
X138867728Y-115592151D01*
X139020869Y-115480888D01*
X139147531Y-115340216D01*
X139242177Y-115176284D01*
X139300672Y-114996256D01*
X139320458Y-114808000D01*
X139300672Y-114619744D01*
X139242177Y-114439716D01*
X139147531Y-114275784D01*
X139020869Y-114135112D01*
X139020868Y-114135111D01*
X138867732Y-114023851D01*
X138867727Y-114023848D01*
X138694805Y-113946857D01*
X138694800Y-113946855D01*
X138548999Y-113915865D01*
X138509644Y-113907500D01*
X138320352Y-113907500D01*
X138287895Y-113914398D01*
X138135195Y-113946855D01*
X138135190Y-113946857D01*
X137962268Y-114023848D01*
X137962263Y-114023851D01*
X137809127Y-114135111D01*
X137682464Y-114275785D01*
X137587819Y-114439715D01*
X137587816Y-114439722D01*
X137529325Y-114619740D01*
X137529324Y-114619744D01*
X137509538Y-114808000D01*
X137529324Y-114996256D01*
X137529325Y-114996259D01*
X137587816Y-115176277D01*
X137587819Y-115176284D01*
X137682465Y-115340216D01*
X137718657Y-115380411D01*
X137748887Y-115443402D01*
X137740262Y-115512737D01*
X137695521Y-115566403D01*
X137652288Y-115584673D01*
X137494933Y-115618119D01*
X137494928Y-115618121D01*
X137322006Y-115695112D01*
X137322001Y-115695115D01*
X137168865Y-115806375D01*
X137042202Y-115947049D01*
X136947557Y-116110979D01*
X136947554Y-116110986D01*
X136898994Y-116260440D01*
X136889062Y-116291008D01*
X136869276Y-116479264D01*
X136330500Y-116479264D01*
X136330500Y-114210759D01*
X136330528Y-114210616D01*
X136330524Y-114210616D01*
X136330539Y-114186002D01*
X136330541Y-114186000D01*
X136330462Y-114185808D01*
X136330384Y-114185618D01*
X136330380Y-114185614D01*
X136330194Y-114185538D01*
X136329987Y-114185453D01*
X136318255Y-114180594D01*
X136292391Y-114173000D01*
X136271000Y-114173000D01*
X135454500Y-114173000D01*
X135387461Y-114153315D01*
X135341706Y-114100511D01*
X135330500Y-114049000D01*
X135330500Y-113410759D01*
X135330528Y-113410616D01*
X135330524Y-113410616D01*
X135330539Y-113386002D01*
X135330541Y-113386000D01*
X135330462Y-113385808D01*
X135330384Y-113385618D01*
X135330380Y-113385614D01*
X135330194Y-113385538D01*
X135330002Y-113385459D01*
X135305446Y-113385459D01*
X135305240Y-113385500D01*
X133854760Y-113385500D01*
X133854554Y-113385459D01*
X133829998Y-113385459D01*
X133829807Y-113385538D01*
X133829619Y-113385615D01*
X133829615Y-113385618D01*
X133829459Y-113385999D01*
X133829476Y-113410616D01*
X133829471Y-113410616D01*
X133829500Y-113410759D01*
X133829500Y-114049000D01*
X133809815Y-114116039D01*
X133757011Y-114161794D01*
X133705500Y-114173000D01*
X129804500Y-114173000D01*
X129737461Y-114153315D01*
X129691706Y-114100511D01*
X129680500Y-114049000D01*
X129680500Y-111633000D01*
X133333540Y-111633000D01*
X133353326Y-111821256D01*
X133353327Y-111821259D01*
X133411818Y-112001277D01*
X133411821Y-112001284D01*
X133506467Y-112165216D01*
X133604223Y-112273785D01*
X133633129Y-112305888D01*
X133786265Y-112417148D01*
X133786270Y-112417151D01*
X133959192Y-112494142D01*
X133959197Y-112494144D01*
X134144354Y-112533500D01*
X134144355Y-112533500D01*
X134333644Y-112533500D01*
X134333646Y-112533500D01*
X134518803Y-112494144D01*
X134691730Y-112417151D01*
X134844871Y-112305888D01*
X134971533Y-112165216D01*
X135062879Y-112007000D01*
X140716538Y-112007000D01*
X140736324Y-112195256D01*
X140736325Y-112195259D01*
X140794816Y-112375277D01*
X140794819Y-112375284D01*
X140889465Y-112539216D01*
X140956131Y-112613256D01*
X141016127Y-112679888D01*
X141169263Y-112791148D01*
X141169268Y-112791151D01*
X141342190Y-112868142D01*
X141342195Y-112868144D01*
X141527352Y-112907500D01*
X141527353Y-112907500D01*
X141716642Y-112907500D01*
X141716644Y-112907500D01*
X141901801Y-112868144D01*
X142074728Y-112791151D01*
X142162205Y-112727595D01*
X142228010Y-112704116D01*
X142296063Y-112719941D01*
X142307971Y-112727593D01*
X142325301Y-112740184D01*
X142498223Y-112817175D01*
X142498224Y-112817175D01*
X142498228Y-112817177D01*
X142674282Y-112854598D01*
X142735762Y-112887789D01*
X142769539Y-112948952D01*
X142764887Y-113018666D01*
X142723283Y-113074799D01*
X142674281Y-113097177D01*
X142510577Y-113131973D01*
X142510572Y-113131975D01*
X142337650Y-113208966D01*
X142337645Y-113208969D01*
X142184509Y-113320229D01*
X142057846Y-113460903D01*
X141963201Y-113624833D01*
X141963198Y-113624840D01*
X141932534Y-113719216D01*
X141904706Y-113804862D01*
X141884920Y-113993118D01*
X141904706Y-114181374D01*
X141904707Y-114181377D01*
X141963198Y-114361395D01*
X141963201Y-114361402D01*
X142057847Y-114525334D01*
X142170498Y-114650445D01*
X142184508Y-114666005D01*
X142209395Y-114684087D01*
X142252060Y-114739417D01*
X142258038Y-114809031D01*
X142225431Y-114870825D01*
X142164592Y-114905182D01*
X142162289Y-114905694D01*
X141975937Y-114945303D01*
X141975932Y-114945305D01*
X141803010Y-115022296D01*
X141803005Y-115022299D01*
X141649869Y-115133559D01*
X141523206Y-115274233D01*
X141428561Y-115438163D01*
X141428558Y-115438170D01*
X141370089Y-115618120D01*
X141370066Y-115618192D01*
X141350280Y-115806448D01*
X141370066Y-115994704D01*
X141370067Y-115994707D01*
X141428558Y-116174725D01*
X141428561Y-116174732D01*
X141523207Y-116338664D01*
X141649869Y-116479336D01*
X141803010Y-116590599D01*
X141865657Y-116618491D01*
X141918891Y-116663740D01*
X141939212Y-116730589D01*
X141933149Y-116770087D01*
X141879325Y-116935740D01*
X141879324Y-116935744D01*
X141859538Y-117124000D01*
X141879324Y-117312256D01*
X141879325Y-117312259D01*
X141937816Y-117492277D01*
X141937819Y-117492284D01*
X142032465Y-117656216D01*
X142134566Y-117769610D01*
X142159127Y-117796888D01*
X142312263Y-117908148D01*
X142312268Y-117908151D01*
X142485190Y-117985142D01*
X142485195Y-117985144D01*
X142670352Y-118024500D01*
X142670353Y-118024500D01*
X142859642Y-118024500D01*
X142859644Y-118024500D01*
X143044801Y-117985144D01*
X143217728Y-117908151D01*
X143370869Y-117796888D01*
X143497531Y-117656216D01*
X143592177Y-117492284D01*
X143650672Y-117312256D01*
X143670458Y-117124000D01*
X143650672Y-116935744D01*
X143592177Y-116755716D01*
X143497531Y-116591784D01*
X143370869Y-116451112D01*
X143370868Y-116451111D01*
X143217732Y-116339851D01*
X143217727Y-116339848D01*
X143155083Y-116311957D01*
X143101846Y-116266707D01*
X143081525Y-116199857D01*
X143087587Y-116160365D01*
X143141414Y-115994704D01*
X143161200Y-115806448D01*
X143141414Y-115618192D01*
X143082919Y-115438164D01*
X142988273Y-115274232D01*
X142861611Y-115133560D01*
X142861610Y-115133559D01*
X142836724Y-115115478D01*
X142794059Y-115060147D01*
X142788081Y-114990534D01*
X142820688Y-114928739D01*
X142881528Y-114894383D01*
X142883831Y-114893870D01*
X142885017Y-114893618D01*
X142885026Y-114893618D01*
X143070183Y-114854262D01*
X143070187Y-114854260D01*
X143070188Y-114854260D01*
X143171772Y-114809031D01*
X143243110Y-114777269D01*
X143396251Y-114666006D01*
X143522913Y-114525334D01*
X143617559Y-114361402D01*
X143676054Y-114181374D01*
X143695840Y-113993118D01*
X143676054Y-113804862D01*
X143617559Y-113624834D01*
X143522913Y-113460902D01*
X143396251Y-113320230D01*
X143396250Y-113320229D01*
X143243114Y-113208969D01*
X143243109Y-113208966D01*
X143070187Y-113131975D01*
X143070182Y-113131973D01*
X142916410Y-113099289D01*
X142894128Y-113094552D01*
X142832647Y-113061361D01*
X142798871Y-113000198D01*
X142803523Y-112930483D01*
X142845128Y-112874351D01*
X142894127Y-112851973D01*
X143057834Y-112817177D01*
X143230761Y-112740184D01*
X143383902Y-112628921D01*
X143510564Y-112488249D01*
X143605210Y-112324317D01*
X143663705Y-112144289D01*
X143683491Y-111956033D01*
X143663705Y-111767777D01*
X143605210Y-111587749D01*
X143571297Y-111529011D01*
X143554825Y-111461112D01*
X143577678Y-111395085D01*
X143628245Y-111353734D01*
X143693110Y-111324855D01*
X143846251Y-111213592D01*
X143972913Y-111072920D01*
X144067559Y-110908988D01*
X144126054Y-110728960D01*
X144145840Y-110540704D01*
X144126054Y-110352448D01*
X144067559Y-110172420D01*
X143972913Y-110008488D01*
X143846251Y-109867816D01*
X143846250Y-109867815D01*
X143693114Y-109756555D01*
X143693109Y-109756552D01*
X143520187Y-109679561D01*
X143520182Y-109679559D01*
X143374381Y-109648569D01*
X143335026Y-109640204D01*
X143145734Y-109640204D01*
X143113277Y-109647102D01*
X142960577Y-109679559D01*
X142960572Y-109679561D01*
X142787650Y-109756552D01*
X142787645Y-109756555D01*
X142634509Y-109867815D01*
X142507845Y-110008489D01*
X142506956Y-110009714D01*
X142506259Y-110010250D01*
X142503499Y-110013317D01*
X142502938Y-110012812D01*
X142451625Y-110052378D01*
X142382011Y-110058356D01*
X142356204Y-110050105D01*
X142265807Y-110009857D01*
X142265802Y-110009855D01*
X142120001Y-109978865D01*
X142080646Y-109970500D01*
X141891354Y-109970500D01*
X141858897Y-109977398D01*
X141706197Y-110009855D01*
X141706192Y-110009857D01*
X141533270Y-110086848D01*
X141533265Y-110086851D01*
X141380129Y-110198111D01*
X141253466Y-110338785D01*
X141158821Y-110502715D01*
X141158818Y-110502722D01*
X141100327Y-110682740D01*
X141100326Y-110682744D01*
X141090960Y-110771856D01*
X141080540Y-110871000D01*
X141100326Y-111059256D01*
X141100328Y-111059262D01*
X141128655Y-111146447D01*
X141130650Y-111216288D01*
X141094569Y-111276121D01*
X141083611Y-111285081D01*
X141016126Y-111334112D01*
X141016121Y-111334116D01*
X140889464Y-111474785D01*
X140794819Y-111638715D01*
X140794816Y-111638722D01*
X140752884Y-111767777D01*
X140736324Y-111818744D01*
X140716538Y-112007000D01*
X135062879Y-112007000D01*
X135066179Y-112001284D01*
X135124674Y-111821256D01*
X135144460Y-111633000D01*
X135124674Y-111444744D01*
X135066179Y-111264716D01*
X134971533Y-111100784D01*
X134844871Y-110960112D01*
X134774505Y-110908988D01*
X134691734Y-110848851D01*
X134691729Y-110848848D01*
X134518807Y-110771857D01*
X134518802Y-110771855D01*
X134373001Y-110740865D01*
X134333646Y-110732500D01*
X134144354Y-110732500D01*
X134111897Y-110739398D01*
X133959197Y-110771855D01*
X133959192Y-110771857D01*
X133786270Y-110848848D01*
X133786265Y-110848851D01*
X133633129Y-110960111D01*
X133506466Y-111100785D01*
X133411821Y-111264715D01*
X133411818Y-111264722D01*
X133353327Y-111444740D01*
X133353326Y-111444744D01*
X133333540Y-111633000D01*
X129680500Y-111633000D01*
X129680500Y-108839000D01*
X138286540Y-108839000D01*
X138306326Y-109027256D01*
X138306327Y-109027259D01*
X138364818Y-109207277D01*
X138364821Y-109207284D01*
X138459467Y-109371216D01*
X138545537Y-109466806D01*
X138586129Y-109511888D01*
X138739265Y-109623148D01*
X138739270Y-109623151D01*
X138912192Y-109700142D01*
X138912197Y-109700144D01*
X139097354Y-109739500D01*
X139097355Y-109739500D01*
X139286644Y-109739500D01*
X139286646Y-109739500D01*
X139471803Y-109700144D01*
X139644730Y-109623151D01*
X139797871Y-109511888D01*
X139924533Y-109371216D01*
X140019179Y-109207284D01*
X140077674Y-109027256D01*
X140091848Y-108892394D01*
X140118431Y-108827782D01*
X140175729Y-108787797D01*
X140240948Y-108784068D01*
X140295245Y-108795609D01*
X140295246Y-108795609D01*
X140484535Y-108795609D01*
X140484537Y-108795609D01*
X140669694Y-108756253D01*
X140842621Y-108679260D01*
X140995762Y-108567997D01*
X141122424Y-108427325D01*
X141217070Y-108263393D01*
X141257876Y-108137805D01*
X141297312Y-108080132D01*
X141350024Y-108054835D01*
X141376803Y-108049144D01*
X141376807Y-108049142D01*
X141376808Y-108049142D01*
X141514546Y-107987816D01*
X141549730Y-107972151D01*
X141702871Y-107860888D01*
X141705788Y-107857647D01*
X141708600Y-107854526D01*
X141768087Y-107817879D01*
X141800748Y-107813500D01*
X149510131Y-107813500D01*
X149577170Y-107833185D01*
X149622925Y-107885989D01*
X149632869Y-107955147D01*
X149603844Y-108018703D01*
X149597812Y-108025181D01*
X145031208Y-112591783D01*
X145018951Y-112601604D01*
X145019134Y-112601825D01*
X145013122Y-112606798D01*
X144967098Y-112655807D01*
X144964391Y-112658600D01*
X144944889Y-112678101D01*
X144944875Y-112678118D01*
X144942407Y-112681299D01*
X144934843Y-112690154D01*
X144904937Y-112722002D01*
X144904936Y-112722004D01*
X144895284Y-112739560D01*
X144884610Y-112755810D01*
X144872329Y-112771645D01*
X144872324Y-112771652D01*
X144854975Y-112811742D01*
X144849838Y-112822228D01*
X144828803Y-112860490D01*
X144823822Y-112879891D01*
X144817521Y-112898294D01*
X144809562Y-112916686D01*
X144809561Y-112916689D01*
X144802728Y-112959827D01*
X144800360Y-112971258D01*
X144789501Y-113013555D01*
X144789500Y-113013566D01*
X144789500Y-113033600D01*
X144787973Y-113052999D01*
X144786649Y-113061361D01*
X144784840Y-113072780D01*
X144787517Y-113101096D01*
X144788950Y-113116258D01*
X144789500Y-113127927D01*
X144789500Y-118002312D01*
X144769815Y-118069351D01*
X144757650Y-118085284D01*
X144682466Y-118168784D01*
X144587821Y-118332715D01*
X144587818Y-118332722D01*
X144529327Y-118512740D01*
X144529326Y-118512744D01*
X144509540Y-118701000D01*
X144529326Y-118889256D01*
X144529327Y-118889259D01*
X144587818Y-119069277D01*
X144587821Y-119069284D01*
X144682467Y-119233216D01*
X144781922Y-119343672D01*
X144809129Y-119373888D01*
X144962265Y-119485148D01*
X144962270Y-119485151D01*
X145135192Y-119562142D01*
X145135197Y-119562144D01*
X145320354Y-119601500D01*
X145320355Y-119601500D01*
X145509644Y-119601500D01*
X145509646Y-119601500D01*
X145694803Y-119562144D01*
X145867730Y-119485151D01*
X146020871Y-119373888D01*
X146147533Y-119233216D01*
X146242179Y-119069284D01*
X146296533Y-118902000D01*
X147447538Y-118902000D01*
X147467324Y-119090256D01*
X147467325Y-119090259D01*
X147525816Y-119270277D01*
X147525819Y-119270284D01*
X147620465Y-119434216D01*
X147735650Y-119562142D01*
X147747127Y-119574888D01*
X147900263Y-119686148D01*
X147900268Y-119686151D01*
X148073190Y-119763142D01*
X148073195Y-119763144D01*
X148258352Y-119802500D01*
X148258353Y-119802500D01*
X148447642Y-119802500D01*
X148447644Y-119802500D01*
X148632801Y-119763144D01*
X148805728Y-119686151D01*
X148958869Y-119574888D01*
X149085531Y-119434216D01*
X149180177Y-119270284D01*
X149238672Y-119090256D01*
X149258458Y-118902000D01*
X149238672Y-118713744D01*
X149229580Y-118685763D01*
X168437787Y-118685763D01*
X168467413Y-118955013D01*
X168467415Y-118955024D01*
X168535926Y-119217082D01*
X168535928Y-119217088D01*
X168641870Y-119466390D01*
X168653318Y-119485148D01*
X168782979Y-119697605D01*
X168782986Y-119697615D01*
X168956253Y-119905819D01*
X168956259Y-119905824D01*
X169157998Y-120086582D01*
X169383910Y-120236044D01*
X169629176Y-120351020D01*
X169629183Y-120351022D01*
X169629185Y-120351023D01*
X169888557Y-120429057D01*
X169888564Y-120429058D01*
X169888569Y-120429060D01*
X170156561Y-120468500D01*
X170156566Y-120468500D01*
X170359629Y-120468500D01*
X170359631Y-120468500D01*
X170359636Y-120468499D01*
X170359648Y-120468499D01*
X170397191Y-120465750D01*
X170562156Y-120453677D01*
X170674758Y-120428593D01*
X170826546Y-120394782D01*
X170826548Y-120394781D01*
X170826553Y-120394780D01*
X171079558Y-120298014D01*
X171315777Y-120165441D01*
X171530177Y-119999888D01*
X171718186Y-119804881D01*
X171875799Y-119584579D01*
X171953107Y-119434214D01*
X171999649Y-119343690D01*
X171999651Y-119343684D01*
X171999656Y-119343675D01*
X172087118Y-119087305D01*
X172136319Y-118820933D01*
X172141259Y-118685763D01*
X175437787Y-118685763D01*
X175467413Y-118955013D01*
X175467415Y-118955024D01*
X175535926Y-119217082D01*
X175535928Y-119217088D01*
X175641870Y-119466390D01*
X175653318Y-119485148D01*
X175782979Y-119697605D01*
X175782986Y-119697615D01*
X175956253Y-119905819D01*
X175956259Y-119905824D01*
X176157998Y-120086582D01*
X176383910Y-120236044D01*
X176629176Y-120351020D01*
X176629183Y-120351022D01*
X176629185Y-120351023D01*
X176888557Y-120429057D01*
X176888564Y-120429058D01*
X176888569Y-120429060D01*
X177156561Y-120468500D01*
X177156566Y-120468500D01*
X177359629Y-120468500D01*
X177359631Y-120468500D01*
X177359636Y-120468499D01*
X177359648Y-120468499D01*
X177397191Y-120465750D01*
X177562156Y-120453677D01*
X177674758Y-120428593D01*
X177826546Y-120394782D01*
X177826548Y-120394781D01*
X177826553Y-120394780D01*
X178079558Y-120298014D01*
X178315777Y-120165441D01*
X178530177Y-119999888D01*
X178718186Y-119804881D01*
X178875799Y-119584579D01*
X178953107Y-119434214D01*
X178999649Y-119343690D01*
X178999651Y-119343684D01*
X178999656Y-119343675D01*
X179087118Y-119087305D01*
X179136319Y-118820933D01*
X179146212Y-118550235D01*
X179116586Y-118280982D01*
X179048072Y-118018912D01*
X178942130Y-117769610D01*
X178801018Y-117538390D01*
X178773231Y-117505000D01*
X178627746Y-117330180D01*
X178627740Y-117330175D01*
X178426002Y-117149418D01*
X178200092Y-116999957D01*
X178146536Y-116974851D01*
X177954824Y-116884980D01*
X177954819Y-116884978D01*
X177954814Y-116884976D01*
X177695442Y-116806942D01*
X177695428Y-116806939D01*
X177579791Y-116789921D01*
X177427439Y-116767500D01*
X177224369Y-116767500D01*
X177224351Y-116767500D01*
X177021844Y-116782323D01*
X177021831Y-116782325D01*
X176757453Y-116841217D01*
X176757446Y-116841220D01*
X176504439Y-116937987D01*
X176268226Y-117070557D01*
X176268224Y-117070558D01*
X176268223Y-117070559D01*
X176248081Y-117086112D01*
X176053822Y-117236112D01*
X175865822Y-117431109D01*
X175865816Y-117431116D01*
X175708202Y-117651419D01*
X175708199Y-117651424D01*
X175584350Y-117892309D01*
X175584343Y-117892327D01*
X175496884Y-118148685D01*
X175496881Y-118148699D01*
X175447681Y-118415068D01*
X175447680Y-118415075D01*
X175437787Y-118685763D01*
X172141259Y-118685763D01*
X172146212Y-118550235D01*
X172116586Y-118280982D01*
X172048072Y-118018912D01*
X171942130Y-117769610D01*
X171801018Y-117538390D01*
X171773231Y-117505000D01*
X171627746Y-117330180D01*
X171627740Y-117330175D01*
X171426002Y-117149418D01*
X171200092Y-116999957D01*
X171146536Y-116974851D01*
X170954824Y-116884980D01*
X170954819Y-116884978D01*
X170954814Y-116884976D01*
X170695442Y-116806942D01*
X170695428Y-116806939D01*
X170579791Y-116789921D01*
X170427439Y-116767500D01*
X170224369Y-116767500D01*
X170224351Y-116767500D01*
X170021844Y-116782323D01*
X170021831Y-116782325D01*
X169757453Y-116841217D01*
X169757446Y-116841220D01*
X169504439Y-116937987D01*
X169268226Y-117070557D01*
X169268224Y-117070558D01*
X169268223Y-117070559D01*
X169248081Y-117086112D01*
X169053822Y-117236112D01*
X168865822Y-117431109D01*
X168865816Y-117431116D01*
X168708202Y-117651419D01*
X168708199Y-117651424D01*
X168584350Y-117892309D01*
X168584343Y-117892327D01*
X168496884Y-118148685D01*
X168496881Y-118148699D01*
X168447681Y-118415068D01*
X168447680Y-118415075D01*
X168437787Y-118685763D01*
X149229580Y-118685763D01*
X149180177Y-118533716D01*
X149085531Y-118369784D01*
X149010515Y-118286471D01*
X148980286Y-118223481D01*
X148988911Y-118154146D01*
X149010516Y-118120528D01*
X149085531Y-118037216D01*
X149180177Y-117873284D01*
X149217310Y-117759000D01*
X152861540Y-117759000D01*
X152881326Y-117947256D01*
X152881327Y-117947259D01*
X152939818Y-118127277D01*
X152939821Y-118127284D01*
X153034467Y-118291216D01*
X153161129Y-118431888D01*
X153314265Y-118543148D01*
X153314270Y-118543151D01*
X153487192Y-118620142D01*
X153487197Y-118620144D01*
X153672354Y-118659500D01*
X153672355Y-118659500D01*
X153861644Y-118659500D01*
X153861646Y-118659500D01*
X154046803Y-118620144D01*
X154219730Y-118543151D01*
X154372871Y-118431888D01*
X154499533Y-118291216D01*
X154594179Y-118127284D01*
X154652674Y-117947256D01*
X154672460Y-117759000D01*
X155448538Y-117759000D01*
X155468324Y-117947256D01*
X155468325Y-117947259D01*
X155526816Y-118127277D01*
X155526819Y-118127284D01*
X155621465Y-118291216D01*
X155748127Y-118431888D01*
X155901263Y-118543148D01*
X155901268Y-118543151D01*
X156074190Y-118620142D01*
X156074195Y-118620144D01*
X156259352Y-118659500D01*
X156259353Y-118659500D01*
X156448642Y-118659500D01*
X156448644Y-118659500D01*
X156633801Y-118620144D01*
X156806728Y-118543151D01*
X156959869Y-118431888D01*
X157086531Y-118291216D01*
X157181177Y-118127284D01*
X157239672Y-117947256D01*
X157259458Y-117759000D01*
X157941540Y-117759000D01*
X157961326Y-117947256D01*
X157961327Y-117947259D01*
X158019818Y-118127277D01*
X158019821Y-118127284D01*
X158114467Y-118291216D01*
X158241129Y-118431888D01*
X158394265Y-118543148D01*
X158394270Y-118543151D01*
X158567192Y-118620142D01*
X158567197Y-118620144D01*
X158752354Y-118659500D01*
X158752355Y-118659500D01*
X158941644Y-118659500D01*
X158941646Y-118659500D01*
X159126803Y-118620144D01*
X159299730Y-118543151D01*
X159452871Y-118431888D01*
X159579533Y-118291216D01*
X159674179Y-118127284D01*
X159732674Y-117947256D01*
X159752460Y-117759000D01*
X159732674Y-117570744D01*
X159674179Y-117390716D01*
X159579533Y-117226784D01*
X159452871Y-117086112D01*
X159452870Y-117086111D01*
X159299734Y-116974851D01*
X159299729Y-116974848D01*
X159126807Y-116897857D01*
X159126802Y-116897855D01*
X158950881Y-116860463D01*
X158941646Y-116858500D01*
X158752354Y-116858500D01*
X158743119Y-116860463D01*
X158567197Y-116897855D01*
X158567192Y-116897857D01*
X158394270Y-116974848D01*
X158394265Y-116974851D01*
X158241129Y-117086111D01*
X158114466Y-117226785D01*
X158019821Y-117390715D01*
X158019818Y-117390722D01*
X157971837Y-117538394D01*
X157961326Y-117570744D01*
X157941540Y-117759000D01*
X157259458Y-117759000D01*
X157239672Y-117570744D01*
X157181177Y-117390716D01*
X157086531Y-117226784D01*
X156959869Y-117086112D01*
X156959868Y-117086111D01*
X156806732Y-116974851D01*
X156806727Y-116974848D01*
X156633805Y-116897857D01*
X156633800Y-116897855D01*
X156457879Y-116860463D01*
X156448644Y-116858500D01*
X156259352Y-116858500D01*
X156250117Y-116860463D01*
X156074195Y-116897855D01*
X156074190Y-116897857D01*
X155901268Y-116974848D01*
X155901263Y-116974851D01*
X155748127Y-117086111D01*
X155621464Y-117226785D01*
X155526819Y-117390715D01*
X155526816Y-117390722D01*
X155478835Y-117538394D01*
X155468324Y-117570744D01*
X155448538Y-117759000D01*
X154672460Y-117759000D01*
X154652674Y-117570744D01*
X154594179Y-117390716D01*
X154499533Y-117226784D01*
X154372871Y-117086112D01*
X154372870Y-117086111D01*
X154219734Y-116974851D01*
X154219729Y-116974848D01*
X154046807Y-116897857D01*
X154046802Y-116897855D01*
X153870881Y-116860463D01*
X153861646Y-116858500D01*
X153672354Y-116858500D01*
X153663119Y-116860463D01*
X153487197Y-116897855D01*
X153487192Y-116897857D01*
X153314270Y-116974848D01*
X153314265Y-116974851D01*
X153161129Y-117086111D01*
X153034466Y-117226785D01*
X152939821Y-117390715D01*
X152939818Y-117390722D01*
X152891837Y-117538394D01*
X152881326Y-117570744D01*
X152861540Y-117759000D01*
X149217310Y-117759000D01*
X149238672Y-117693256D01*
X149258458Y-117505000D01*
X149238672Y-117316744D01*
X149180177Y-117136716D01*
X149104387Y-117005443D01*
X149087914Y-116937542D01*
X149110767Y-116871515D01*
X149119618Y-116860478D01*
X149122784Y-116856963D01*
X149217430Y-116693031D01*
X149275925Y-116513003D01*
X149295711Y-116324747D01*
X149275925Y-116136491D01*
X149217430Y-115956463D01*
X149122784Y-115792531D01*
X148996122Y-115651859D01*
X148996121Y-115651858D01*
X148842985Y-115540598D01*
X148842980Y-115540595D01*
X148670058Y-115463604D01*
X148670053Y-115463602D01*
X148524252Y-115432612D01*
X148484897Y-115424247D01*
X148295605Y-115424247D01*
X148263148Y-115431145D01*
X148110448Y-115463602D01*
X148110443Y-115463604D01*
X147937521Y-115540595D01*
X147937516Y-115540598D01*
X147784380Y-115651858D01*
X147657717Y-115792532D01*
X147563072Y-115956462D01*
X147563069Y-115956469D01*
X147512866Y-116110979D01*
X147504577Y-116136491D01*
X147484791Y-116324747D01*
X147504577Y-116513003D01*
X147504578Y-116513006D01*
X147563069Y-116693024D01*
X147563072Y-116693031D01*
X147638861Y-116824302D01*
X147655334Y-116892203D01*
X147632481Y-116958229D01*
X147623631Y-116969266D01*
X147620470Y-116972776D01*
X147620462Y-116972787D01*
X147525819Y-117136715D01*
X147525816Y-117136722D01*
X147468782Y-117312256D01*
X147467324Y-117316744D01*
X147447538Y-117505000D01*
X147467324Y-117693256D01*
X147467325Y-117693259D01*
X147525816Y-117873277D01*
X147525819Y-117873284D01*
X147620465Y-118037216D01*
X147631897Y-118049912D01*
X147695479Y-118120528D01*
X147725709Y-118183520D01*
X147717083Y-118252855D01*
X147695479Y-118286472D01*
X147620464Y-118369785D01*
X147525819Y-118533715D01*
X147525816Y-118533722D01*
X147467325Y-118713740D01*
X147467324Y-118713744D01*
X147447538Y-118902000D01*
X146296533Y-118902000D01*
X146300674Y-118889256D01*
X146320460Y-118701000D01*
X146300674Y-118512744D01*
X146242179Y-118332716D01*
X146147533Y-118168784D01*
X146134353Y-118154146D01*
X146072350Y-118085284D01*
X146042120Y-118022292D01*
X146040500Y-118002312D01*
X146040500Y-113403036D01*
X146060185Y-113335997D01*
X146076819Y-113315355D01*
X146655174Y-112737000D01*
X147955538Y-112737000D01*
X147975324Y-112925256D01*
X147975325Y-112925259D01*
X148033816Y-113105277D01*
X148033819Y-113105284D01*
X148128465Y-113269216D01*
X148233273Y-113385617D01*
X148255127Y-113409888D01*
X148408263Y-113521148D01*
X148408268Y-113521151D01*
X148581190Y-113598142D01*
X148581195Y-113598144D01*
X148766352Y-113637500D01*
X148766353Y-113637500D01*
X148955642Y-113637500D01*
X148955644Y-113637500D01*
X149140801Y-113598144D01*
X149313728Y-113521151D01*
X149466869Y-113409888D01*
X149593531Y-113269216D01*
X149688177Y-113105284D01*
X149688179Y-113105276D01*
X149690593Y-113101096D01*
X149741160Y-113052880D01*
X149809767Y-113039656D01*
X149874632Y-113065624D01*
X149890130Y-113080122D01*
X149906126Y-113097887D01*
X149906127Y-113097888D01*
X150059263Y-113209148D01*
X150059268Y-113209151D01*
X150232190Y-113286142D01*
X150232195Y-113286144D01*
X150417352Y-113325500D01*
X150417353Y-113325500D01*
X150606642Y-113325500D01*
X150606644Y-113325500D01*
X150791801Y-113286144D01*
X150964728Y-113209151D01*
X150995216Y-113187000D01*
X152861540Y-113187000D01*
X152881326Y-113375256D01*
X152881327Y-113375259D01*
X152939818Y-113555277D01*
X152939821Y-113555284D01*
X153034467Y-113719216D01*
X153161129Y-113859888D01*
X153314265Y-113971148D01*
X153314270Y-113971151D01*
X153487192Y-114048142D01*
X153487197Y-114048144D01*
X153672354Y-114087500D01*
X153672355Y-114087500D01*
X153861644Y-114087500D01*
X153861646Y-114087500D01*
X154046803Y-114048144D01*
X154219730Y-113971151D01*
X154372871Y-113859888D01*
X154499533Y-113719216D01*
X154594179Y-113555284D01*
X154652674Y-113375256D01*
X154672460Y-113187000D01*
X155401540Y-113187000D01*
X155421326Y-113375256D01*
X155421327Y-113375259D01*
X155479818Y-113555277D01*
X155479821Y-113555284D01*
X155574467Y-113719216D01*
X155701129Y-113859888D01*
X155854265Y-113971148D01*
X155854270Y-113971151D01*
X156027192Y-114048142D01*
X156027197Y-114048144D01*
X156212354Y-114087500D01*
X156212355Y-114087500D01*
X156401644Y-114087500D01*
X156401646Y-114087500D01*
X156586803Y-114048144D01*
X156759730Y-113971151D01*
X156912871Y-113859888D01*
X157039533Y-113719216D01*
X157134179Y-113555284D01*
X157192674Y-113375256D01*
X157212460Y-113187000D01*
X157941540Y-113187000D01*
X157961326Y-113375256D01*
X157961327Y-113375259D01*
X158019818Y-113555277D01*
X158019821Y-113555284D01*
X158114467Y-113719216D01*
X158241129Y-113859888D01*
X158394265Y-113971148D01*
X158394270Y-113971151D01*
X158567192Y-114048142D01*
X158567197Y-114048144D01*
X158752354Y-114087500D01*
X158752355Y-114087500D01*
X158941644Y-114087500D01*
X158941646Y-114087500D01*
X159126803Y-114048144D01*
X159299730Y-113971151D01*
X159452871Y-113859888D01*
X159579533Y-113719216D01*
X159674179Y-113555284D01*
X159732674Y-113375256D01*
X159752460Y-113187000D01*
X159732674Y-112998744D01*
X159674179Y-112818716D01*
X159666837Y-112806000D01*
X160909538Y-112806000D01*
X160929324Y-112994256D01*
X160929325Y-112994259D01*
X160987816Y-113174277D01*
X160987819Y-113174284D01*
X161082465Y-113338216D01*
X161192932Y-113460902D01*
X161209127Y-113478888D01*
X161362263Y-113590148D01*
X161362268Y-113590151D01*
X161535190Y-113667142D01*
X161535195Y-113667144D01*
X161720352Y-113706500D01*
X161720353Y-113706500D01*
X161909642Y-113706500D01*
X161909644Y-113706500D01*
X162094801Y-113667144D01*
X162267728Y-113590151D01*
X162420869Y-113478888D01*
X162547531Y-113338216D01*
X162642177Y-113174284D01*
X162700672Y-112994256D01*
X162720458Y-112806000D01*
X162700672Y-112617744D01*
X162642177Y-112437716D01*
X162547531Y-112273784D01*
X162420869Y-112133112D01*
X162406047Y-112122343D01*
X162267732Y-112021851D01*
X162267727Y-112021848D01*
X162094805Y-111944857D01*
X162094800Y-111944855D01*
X161948999Y-111913865D01*
X161909644Y-111905500D01*
X161720352Y-111905500D01*
X161687895Y-111912398D01*
X161535195Y-111944855D01*
X161535190Y-111944857D01*
X161362268Y-112021848D01*
X161362263Y-112021851D01*
X161209127Y-112133111D01*
X161082464Y-112273785D01*
X160987819Y-112437715D01*
X160987816Y-112437722D01*
X160930782Y-112613256D01*
X160929324Y-112617744D01*
X160909538Y-112806000D01*
X159666837Y-112806000D01*
X159579533Y-112654784D01*
X159452871Y-112514112D01*
X159452870Y-112514111D01*
X159299734Y-112402851D01*
X159299729Y-112402848D01*
X159126807Y-112325857D01*
X159126802Y-112325855D01*
X158981001Y-112294865D01*
X158941646Y-112286500D01*
X158752354Y-112286500D01*
X158719897Y-112293398D01*
X158567197Y-112325855D01*
X158567192Y-112325857D01*
X158394270Y-112402848D01*
X158394265Y-112402851D01*
X158241129Y-112514111D01*
X158114466Y-112654785D01*
X158019821Y-112818715D01*
X158019818Y-112818722D01*
X157962784Y-112994256D01*
X157961326Y-112998744D01*
X157941540Y-113187000D01*
X157212460Y-113187000D01*
X157192674Y-112998744D01*
X157134179Y-112818716D01*
X157039533Y-112654784D01*
X156912871Y-112514112D01*
X156912870Y-112514111D01*
X156759734Y-112402851D01*
X156759729Y-112402848D01*
X156586807Y-112325857D01*
X156586802Y-112325855D01*
X156441001Y-112294865D01*
X156401646Y-112286500D01*
X156212354Y-112286500D01*
X156179897Y-112293398D01*
X156027197Y-112325855D01*
X156027192Y-112325857D01*
X155854270Y-112402848D01*
X155854265Y-112402851D01*
X155701129Y-112514111D01*
X155574466Y-112654785D01*
X155479821Y-112818715D01*
X155479818Y-112818722D01*
X155422784Y-112994256D01*
X155421326Y-112998744D01*
X155401540Y-113187000D01*
X154672460Y-113187000D01*
X154652674Y-112998744D01*
X154594179Y-112818716D01*
X154499533Y-112654784D01*
X154372871Y-112514112D01*
X154372870Y-112514111D01*
X154219734Y-112402851D01*
X154219729Y-112402848D01*
X154046807Y-112325857D01*
X154046802Y-112325855D01*
X153901001Y-112294865D01*
X153861646Y-112286500D01*
X153672354Y-112286500D01*
X153639897Y-112293398D01*
X153487197Y-112325855D01*
X153487192Y-112325857D01*
X153314270Y-112402848D01*
X153314265Y-112402851D01*
X153161129Y-112514111D01*
X153034466Y-112654785D01*
X152939821Y-112818715D01*
X152939818Y-112818722D01*
X152882784Y-112994256D01*
X152881326Y-112998744D01*
X152861540Y-113187000D01*
X150995216Y-113187000D01*
X151117869Y-113097888D01*
X151244531Y-112957216D01*
X151339177Y-112793284D01*
X151397672Y-112613256D01*
X151417458Y-112425000D01*
X151397672Y-112236744D01*
X151339177Y-112056716D01*
X151244531Y-111892784D01*
X151117869Y-111752112D01*
X151117868Y-111752111D01*
X150964732Y-111640851D01*
X150964727Y-111640848D01*
X150791805Y-111563857D01*
X150791800Y-111563855D01*
X150627871Y-111529012D01*
X150606644Y-111524500D01*
X150417352Y-111524500D01*
X150396125Y-111529012D01*
X150232195Y-111563855D01*
X150232190Y-111563857D01*
X150059268Y-111640848D01*
X150059263Y-111640851D01*
X149906127Y-111752111D01*
X149779464Y-111892785D01*
X149682401Y-112060904D01*
X149631834Y-112109119D01*
X149563227Y-112122343D01*
X149498362Y-112096375D01*
X149482865Y-112081877D01*
X149466869Y-112064112D01*
X149466868Y-112064111D01*
X149313732Y-111952851D01*
X149313727Y-111952848D01*
X149140805Y-111875857D01*
X149140800Y-111875855D01*
X148994999Y-111844865D01*
X148955644Y-111836500D01*
X148766352Y-111836500D01*
X148733895Y-111843398D01*
X148581195Y-111875855D01*
X148581190Y-111875857D01*
X148408268Y-111952848D01*
X148408263Y-111952851D01*
X148255127Y-112064111D01*
X148128464Y-112204785D01*
X148033819Y-112368715D01*
X148033816Y-112368722D01*
X147978420Y-112539216D01*
X147975324Y-112548744D01*
X147955538Y-112737000D01*
X146655174Y-112737000D01*
X155314556Y-104077619D01*
X155375879Y-104044134D01*
X155402237Y-104041300D01*
X155461428Y-104041300D01*
X155461430Y-104041300D01*
X155646587Y-104001944D01*
X155819514Y-103924951D01*
X155972655Y-103813688D01*
X155983032Y-103802163D01*
X156042515Y-103765514D01*
X156112372Y-103766842D01*
X156162863Y-103797453D01*
X164217394Y-111851984D01*
X164227219Y-111864248D01*
X164227440Y-111864066D01*
X164232410Y-111870074D01*
X164281439Y-111916115D01*
X164284236Y-111918826D01*
X164303730Y-111938320D01*
X164306895Y-111940775D01*
X164315771Y-111948356D01*
X164347618Y-111978262D01*
X164347622Y-111978264D01*
X164365173Y-111987913D01*
X164381431Y-111998592D01*
X164397264Y-112010874D01*
X164422632Y-112021851D01*
X164437355Y-112028222D01*
X164447835Y-112033355D01*
X164486108Y-112054397D01*
X164505512Y-112059379D01*
X164523910Y-112065678D01*
X164542305Y-112073638D01*
X164585454Y-112080471D01*
X164596880Y-112082838D01*
X164639181Y-112093700D01*
X164659216Y-112093700D01*
X164678613Y-112095226D01*
X164698396Y-112098360D01*
X164741875Y-112094250D01*
X164753544Y-112093700D01*
X175850057Y-112093700D01*
X175865677Y-112095424D01*
X175865704Y-112095139D01*
X175873460Y-112095871D01*
X175873467Y-112095873D01*
X175940673Y-112093761D01*
X175944568Y-112093700D01*
X175972146Y-112093700D01*
X175972150Y-112093700D01*
X175976124Y-112093197D01*
X175987763Y-112092280D01*
X176031427Y-112090909D01*
X176050669Y-112085317D01*
X176069712Y-112081374D01*
X176089592Y-112078864D01*
X176130201Y-112062785D01*
X176141244Y-112059003D01*
X176183190Y-112046818D01*
X176200429Y-112036622D01*
X176217903Y-112028062D01*
X176236527Y-112020688D01*
X176236527Y-112020687D01*
X176236532Y-112020686D01*
X176271883Y-111995000D01*
X176281614Y-111988608D01*
X176319220Y-111966370D01*
X176333389Y-111952199D01*
X176348179Y-111939568D01*
X176364387Y-111927794D01*
X176392238Y-111894126D01*
X176400079Y-111885509D01*
X178818788Y-109466801D01*
X178831042Y-109456986D01*
X178830859Y-109456764D01*
X178836868Y-109451791D01*
X178836877Y-109451786D01*
X178882949Y-109402722D01*
X178885566Y-109400023D01*
X178905120Y-109380471D01*
X178907576Y-109377303D01*
X178915156Y-109368427D01*
X178945062Y-109336582D01*
X178954713Y-109319024D01*
X178965396Y-109302761D01*
X178977673Y-109286936D01*
X178995021Y-109246844D01*
X179000151Y-109236371D01*
X179021197Y-109198092D01*
X179026180Y-109178680D01*
X179032481Y-109160280D01*
X179040437Y-109141896D01*
X179047270Y-109098748D01*
X179049633Y-109087338D01*
X179060500Y-109045019D01*
X179060500Y-109024983D01*
X179062027Y-109005582D01*
X179065160Y-108985804D01*
X179061050Y-108942324D01*
X179060500Y-108930655D01*
X179060500Y-108547782D01*
X179080185Y-108480743D01*
X179113377Y-108446207D01*
X179216841Y-108373761D01*
X179366761Y-108223841D01*
X179488371Y-108050164D01*
X179577974Y-107858009D01*
X179632849Y-107653213D01*
X179651328Y-107442000D01*
X179632849Y-107230787D01*
X179577974Y-107025991D01*
X179488371Y-106833836D01*
X179488369Y-106833833D01*
X179488368Y-106833831D01*
X179366764Y-106660163D01*
X179366759Y-106660157D01*
X179216842Y-106510240D01*
X179216836Y-106510235D01*
X179043168Y-106388631D01*
X179043164Y-106388629D01*
X178851009Y-106299026D01*
X178851005Y-106299025D01*
X178851001Y-106299023D01*
X178823949Y-106291775D01*
X178764288Y-106255410D01*
X178733759Y-106192563D01*
X178742054Y-106123188D01*
X178786539Y-106069310D01*
X178823949Y-106052225D01*
X178841930Y-106047406D01*
X178851009Y-106044974D01*
X179043164Y-105955371D01*
X179216841Y-105833761D01*
X179366761Y-105683841D01*
X179488371Y-105510164D01*
X179577974Y-105318009D01*
X179632849Y-105113213D01*
X179651328Y-104902000D01*
X179650017Y-104887021D01*
X179639417Y-104765856D01*
X179632849Y-104690787D01*
X179577974Y-104485991D01*
X179488371Y-104293836D01*
X179488369Y-104293833D01*
X179488368Y-104293831D01*
X179366764Y-104120163D01*
X179366759Y-104120157D01*
X179216842Y-103970240D01*
X179216836Y-103970235D01*
X179043168Y-103848631D01*
X179043164Y-103848629D01*
X178980840Y-103819567D01*
X178851009Y-103759026D01*
X178851005Y-103759025D01*
X178851001Y-103759023D01*
X178823949Y-103751775D01*
X178764288Y-103715410D01*
X178733759Y-103652563D01*
X178742054Y-103583188D01*
X178786539Y-103529310D01*
X178823949Y-103512225D01*
X178841930Y-103507406D01*
X178851009Y-103504974D01*
X179043164Y-103415371D01*
X179216841Y-103293761D01*
X179366761Y-103143841D01*
X179488371Y-102970164D01*
X179577974Y-102778009D01*
X179632849Y-102573213D01*
X179651328Y-102362000D01*
X179632849Y-102150787D01*
X179577974Y-101945991D01*
X179488371Y-101753836D01*
X179488369Y-101753833D01*
X179488368Y-101753831D01*
X179366764Y-101580163D01*
X179366759Y-101580157D01*
X179216842Y-101430240D01*
X179216836Y-101430235D01*
X179043168Y-101308631D01*
X179043164Y-101308629D01*
X178982324Y-101280259D01*
X178851009Y-101219026D01*
X178851005Y-101219025D01*
X178851001Y-101219023D01*
X178823949Y-101211775D01*
X178764288Y-101175410D01*
X178733759Y-101112563D01*
X178742054Y-101043188D01*
X178786539Y-100989310D01*
X178823949Y-100972225D01*
X178841930Y-100967406D01*
X178851009Y-100964974D01*
X179043164Y-100875371D01*
X179216841Y-100753761D01*
X179366761Y-100603841D01*
X179488371Y-100430164D01*
X179577974Y-100238009D01*
X179632849Y-100033213D01*
X179651328Y-99822000D01*
X179632849Y-99610787D01*
X179577974Y-99405991D01*
X179488371Y-99213836D01*
X179488369Y-99213833D01*
X179488368Y-99213831D01*
X179366764Y-99040163D01*
X179366759Y-99040157D01*
X179216842Y-98890240D01*
X179216836Y-98890235D01*
X179043168Y-98768631D01*
X179043164Y-98768629D01*
X178982324Y-98740259D01*
X178851009Y-98679026D01*
X178851005Y-98679025D01*
X178851001Y-98679023D01*
X178823949Y-98671775D01*
X178764288Y-98635410D01*
X178733759Y-98572563D01*
X178742054Y-98503188D01*
X178786539Y-98449310D01*
X178823949Y-98432225D01*
X178841930Y-98427406D01*
X178851009Y-98424974D01*
X179043164Y-98335371D01*
X179216841Y-98213761D01*
X179366761Y-98063841D01*
X179488371Y-97890164D01*
X179577974Y-97698009D01*
X179632849Y-97493213D01*
X179651328Y-97282000D01*
X179632849Y-97070787D01*
X179577974Y-96865991D01*
X179488371Y-96673836D01*
X179488369Y-96673833D01*
X179488368Y-96673831D01*
X179366764Y-96500163D01*
X179366759Y-96500157D01*
X179216842Y-96350240D01*
X179216836Y-96350235D01*
X179043168Y-96228631D01*
X179043164Y-96228629D01*
X179010188Y-96213252D01*
X178851009Y-96139026D01*
X178851005Y-96139025D01*
X178851001Y-96139023D01*
X178646218Y-96084152D01*
X178646208Y-96084150D01*
X178435001Y-96065672D01*
X178434999Y-96065672D01*
X178223791Y-96084150D01*
X178223781Y-96084152D01*
X178018998Y-96139023D01*
X178018989Y-96139027D01*
X177826835Y-96228629D01*
X177826831Y-96228631D01*
X177653163Y-96350235D01*
X177653157Y-96350240D01*
X177503240Y-96500157D01*
X177503235Y-96500163D01*
X177381631Y-96673831D01*
X177381629Y-96673835D01*
X177292027Y-96865989D01*
X177292024Y-96865996D01*
X177284775Y-96893051D01*
X177248409Y-96952711D01*
X177185562Y-96983240D01*
X177116187Y-96974945D01*
X177062309Y-96930459D01*
X177045225Y-96893051D01*
X177040008Y-96873583D01*
X177037974Y-96865991D01*
X176948371Y-96673836D01*
X176948369Y-96673833D01*
X176948368Y-96673831D01*
X176826764Y-96500163D01*
X176826759Y-96500157D01*
X176676842Y-96350240D01*
X176676836Y-96350235D01*
X176503168Y-96228631D01*
X176503164Y-96228629D01*
X176470188Y-96213252D01*
X176311009Y-96139026D01*
X176311005Y-96139025D01*
X176311001Y-96139023D01*
X176283949Y-96131775D01*
X176224288Y-96095410D01*
X176193759Y-96032563D01*
X176202054Y-95963188D01*
X176246539Y-95909310D01*
X176283949Y-95892225D01*
X176301930Y-95887406D01*
X176311009Y-95884974D01*
X176503164Y-95795371D01*
X176676841Y-95673761D01*
X176826761Y-95523841D01*
X176948371Y-95350164D01*
X177037974Y-95158009D01*
X177092849Y-94953213D01*
X177111328Y-94742000D01*
X177100217Y-94615000D01*
X177529540Y-94615000D01*
X177549326Y-94803256D01*
X177549327Y-94803259D01*
X177607818Y-94983277D01*
X177607821Y-94983284D01*
X177702467Y-95147216D01*
X177798984Y-95254409D01*
X177829129Y-95287888D01*
X177982265Y-95399148D01*
X177982270Y-95399151D01*
X178155192Y-95476142D01*
X178155197Y-95476144D01*
X178340354Y-95515500D01*
X178340355Y-95515500D01*
X178529644Y-95515500D01*
X178529646Y-95515500D01*
X178714803Y-95476144D01*
X178887730Y-95399151D01*
X179040871Y-95287888D01*
X179167533Y-95147216D01*
X179262179Y-94983284D01*
X179320674Y-94803256D01*
X179340460Y-94615000D01*
X179320674Y-94426744D01*
X179262179Y-94246716D01*
X179167533Y-94082784D01*
X179040871Y-93942112D01*
X179032920Y-93936335D01*
X178887734Y-93830851D01*
X178887729Y-93830848D01*
X178714807Y-93753857D01*
X178714802Y-93753855D01*
X178557295Y-93720377D01*
X178529646Y-93714500D01*
X178340354Y-93714500D01*
X178312705Y-93720377D01*
X178155197Y-93753855D01*
X178155192Y-93753857D01*
X177982270Y-93830848D01*
X177982265Y-93830851D01*
X177829129Y-93942111D01*
X177702466Y-94082785D01*
X177607821Y-94246715D01*
X177607818Y-94246722D01*
X177549327Y-94426740D01*
X177549326Y-94426744D01*
X177529540Y-94615000D01*
X177100217Y-94615000D01*
X177092849Y-94530787D01*
X177037974Y-94325991D01*
X176948371Y-94133836D01*
X176948369Y-94133833D01*
X176948368Y-94133831D01*
X176826764Y-93960163D01*
X176826759Y-93960157D01*
X176676842Y-93810240D01*
X176676836Y-93810235D01*
X176503168Y-93688631D01*
X176503164Y-93688629D01*
X176311009Y-93599026D01*
X176311005Y-93599025D01*
X176311001Y-93599023D01*
X176106218Y-93544152D01*
X176106208Y-93544150D01*
X175895001Y-93525672D01*
X175894999Y-93525672D01*
X175683792Y-93544150D01*
X175683777Y-93544153D01*
X175672449Y-93547188D01*
X175602599Y-93545520D01*
X175552683Y-93515092D01*
X174060323Y-92022732D01*
X174050500Y-92010470D01*
X174050279Y-92010654D01*
X174045306Y-92004642D01*
X173996296Y-91958619D01*
X173993497Y-91955906D01*
X173973997Y-91936405D01*
X173973991Y-91936400D01*
X173970806Y-91933929D01*
X173961954Y-91926368D01*
X173930102Y-91896458D01*
X173930100Y-91896456D01*
X173930097Y-91896455D01*
X173912549Y-91886808D01*
X173896283Y-91876124D01*
X173888099Y-91869776D01*
X173880456Y-91863847D01*
X173880455Y-91863846D01*
X173880452Y-91863844D01*
X173840369Y-91846498D01*
X173829883Y-91841361D01*
X173791614Y-91820323D01*
X173791612Y-91820322D01*
X173772213Y-91815342D01*
X173753801Y-91809038D01*
X173735418Y-91801082D01*
X173735412Y-91801080D01*
X173692280Y-91794249D01*
X173680842Y-91791881D01*
X173638540Y-91781020D01*
X173638539Y-91781020D01*
X173618504Y-91781020D01*
X173599106Y-91779493D01*
X173591682Y-91778317D01*
X173579325Y-91776360D01*
X173579324Y-91776360D01*
X173535845Y-91780470D01*
X173524176Y-91781020D01*
X163234237Y-91781020D01*
X163218620Y-91779296D01*
X163218593Y-91779582D01*
X163210831Y-91778847D01*
X163143644Y-91780959D01*
X163139750Y-91781020D01*
X163112150Y-91781020D01*
X163108462Y-91781485D01*
X163108149Y-91781525D01*
X163096531Y-91782438D01*
X163052872Y-91783810D01*
X163052869Y-91783811D01*
X163033626Y-91789401D01*
X163014583Y-91793345D01*
X162994704Y-91795856D01*
X162994703Y-91795857D01*
X162954093Y-91811935D01*
X162943048Y-91815717D01*
X162901108Y-91827903D01*
X162901104Y-91827905D01*
X162883865Y-91838100D01*
X162866398Y-91846657D01*
X162847769Y-91854032D01*
X162847767Y-91854034D01*
X162812426Y-91879709D01*
X162802668Y-91886119D01*
X162765080Y-91908348D01*
X162750908Y-91922520D01*
X162736123Y-91935148D01*
X162719912Y-91946927D01*
X162692071Y-91980579D01*
X162684211Y-91989216D01*
X161028728Y-93644701D01*
X160967405Y-93678186D01*
X160941047Y-93681020D01*
X160881854Y-93681020D01*
X160871236Y-93683277D01*
X160696697Y-93720375D01*
X160696692Y-93720377D01*
X160523770Y-93797368D01*
X160523765Y-93797371D01*
X160370629Y-93908631D01*
X160243966Y-94049305D01*
X160149321Y-94213235D01*
X160149318Y-94213242D01*
X160091737Y-94390459D01*
X160090826Y-94393264D01*
X160071040Y-94581520D01*
X160090826Y-94769776D01*
X160090827Y-94769779D01*
X160149318Y-94949797D01*
X160149321Y-94949804D01*
X160243967Y-95113736D01*
X160345685Y-95226705D01*
X160370629Y-95254408D01*
X160523765Y-95365668D01*
X160523770Y-95365671D01*
X160696692Y-95442662D01*
X160696697Y-95442664D01*
X160881854Y-95482020D01*
X160881855Y-95482020D01*
X161071144Y-95482020D01*
X161071146Y-95482020D01*
X161256303Y-95442664D01*
X161429230Y-95365671D01*
X161582371Y-95254408D01*
X161709033Y-95113736D01*
X161803679Y-94949804D01*
X161862174Y-94769776D01*
X161879821Y-94601864D01*
X161906404Y-94537254D01*
X161915451Y-94527158D01*
X163036731Y-93405878D01*
X163098052Y-93372395D01*
X163167744Y-93377379D01*
X163223677Y-93419251D01*
X163242340Y-93455241D01*
X163256817Y-93499794D01*
X163256821Y-93499804D01*
X163351467Y-93663736D01*
X163461302Y-93785720D01*
X163478129Y-93804408D01*
X163631265Y-93915668D01*
X163631270Y-93915671D01*
X163804192Y-93992662D01*
X163804197Y-93992664D01*
X163989354Y-94032020D01*
X164048547Y-94032020D01*
X164115586Y-94051705D01*
X164136228Y-94068339D01*
X164174298Y-94106409D01*
X164187794Y-94124382D01*
X164188429Y-94123922D01*
X164218680Y-94165559D01*
X164225093Y-94175321D01*
X164247328Y-94212917D01*
X164247333Y-94212924D01*
X164261490Y-94227080D01*
X164274128Y-94241876D01*
X164285905Y-94258086D01*
X164285906Y-94258087D01*
X164319557Y-94285925D01*
X164328198Y-94293788D01*
X165894182Y-95859773D01*
X165927667Y-95921096D01*
X165922683Y-95990788D01*
X165880811Y-96046721D01*
X165815347Y-96071138D01*
X165795693Y-96070982D01*
X165735001Y-96065672D01*
X165734999Y-96065672D01*
X165523791Y-96084150D01*
X165523781Y-96084152D01*
X165318998Y-96139023D01*
X165318989Y-96139027D01*
X165126835Y-96228629D01*
X165126831Y-96228631D01*
X164953163Y-96350235D01*
X164953157Y-96350240D01*
X164803240Y-96500157D01*
X164803235Y-96500163D01*
X164681631Y-96673831D01*
X164681629Y-96673835D01*
X164592027Y-96865989D01*
X164592023Y-96865998D01*
X164537152Y-97070781D01*
X164537150Y-97070791D01*
X164518672Y-97281999D01*
X164518672Y-97282000D01*
X164537150Y-97493208D01*
X164537152Y-97493218D01*
X164592023Y-97698001D01*
X164592025Y-97698005D01*
X164592026Y-97698009D01*
X164667519Y-97859904D01*
X164681629Y-97890164D01*
X164681631Y-97890168D01*
X164803235Y-98063836D01*
X164803240Y-98063842D01*
X164953157Y-98213759D01*
X164953163Y-98213764D01*
X165126831Y-98335368D01*
X165126833Y-98335369D01*
X165126836Y-98335371D01*
X165318991Y-98424974D01*
X165333717Y-98428919D01*
X165346051Y-98432225D01*
X165405711Y-98468591D01*
X165436240Y-98531438D01*
X165427945Y-98600813D01*
X165383459Y-98654691D01*
X165346051Y-98671775D01*
X165318996Y-98679024D01*
X165318991Y-98679025D01*
X165318991Y-98679026D01*
X165317138Y-98679890D01*
X165126835Y-98768629D01*
X165126831Y-98768631D01*
X164953163Y-98890235D01*
X164953157Y-98890240D01*
X164803240Y-99040157D01*
X164803235Y-99040163D01*
X164681631Y-99213831D01*
X164681629Y-99213835D01*
X164592027Y-99405989D01*
X164592023Y-99405998D01*
X164537152Y-99610781D01*
X164537150Y-99610791D01*
X164518672Y-99821999D01*
X164518672Y-99822000D01*
X164537150Y-100033208D01*
X164537152Y-100033218D01*
X164592023Y-100238001D01*
X164592025Y-100238005D01*
X164592026Y-100238009D01*
X164661576Y-100387160D01*
X164681629Y-100430164D01*
X164681631Y-100430168D01*
X164734153Y-100505177D01*
X164756480Y-100571383D01*
X164739470Y-100639150D01*
X164688522Y-100686963D01*
X164632578Y-100700300D01*
X159949453Y-100700300D01*
X159882414Y-100680615D01*
X159861772Y-100663981D01*
X158789302Y-99591511D01*
X158755817Y-99530188D01*
X158760801Y-99460496D01*
X158802673Y-99404563D01*
X158826547Y-99390551D01*
X158948730Y-99336151D01*
X159101871Y-99224888D01*
X159228533Y-99084216D01*
X159323179Y-98920284D01*
X159381674Y-98740256D01*
X159401460Y-98552000D01*
X159381674Y-98363744D01*
X159323179Y-98183716D01*
X159228533Y-98019784D01*
X159101871Y-97879112D01*
X159079487Y-97862849D01*
X158948734Y-97767851D01*
X158948729Y-97767848D01*
X158775807Y-97690857D01*
X158775802Y-97690855D01*
X158630001Y-97659865D01*
X158590646Y-97651500D01*
X158401354Y-97651500D01*
X158368897Y-97658398D01*
X158216197Y-97690855D01*
X158216192Y-97690857D01*
X158043270Y-97767848D01*
X158043265Y-97767851D01*
X157890129Y-97879111D01*
X157763466Y-98019785D01*
X157668821Y-98183715D01*
X157668818Y-98183722D01*
X157660890Y-98208124D01*
X157621452Y-98265800D01*
X157557094Y-98292998D01*
X157488247Y-98281083D01*
X157455278Y-98257487D01*
X156736003Y-97538212D01*
X156726180Y-97525950D01*
X156725959Y-97526134D01*
X156720986Y-97520122D01*
X156671976Y-97474099D01*
X156669177Y-97471386D01*
X156649677Y-97451885D01*
X156649671Y-97451880D01*
X156646486Y-97449409D01*
X156637634Y-97441848D01*
X156605782Y-97411938D01*
X156605780Y-97411936D01*
X156605777Y-97411935D01*
X156588229Y-97402288D01*
X156571963Y-97391604D01*
X156556132Y-97379324D01*
X156516049Y-97361978D01*
X156505563Y-97356841D01*
X156467294Y-97335803D01*
X156467292Y-97335802D01*
X156447893Y-97330822D01*
X156429481Y-97324518D01*
X156411098Y-97316562D01*
X156411092Y-97316560D01*
X156367960Y-97309729D01*
X156356522Y-97307361D01*
X156314220Y-97296500D01*
X156314219Y-97296500D01*
X156294184Y-97296500D01*
X156274786Y-97294973D01*
X156267362Y-97293797D01*
X156255005Y-97291840D01*
X156255004Y-97291840D01*
X156211525Y-97295950D01*
X156199856Y-97296500D01*
X155279628Y-97296500D01*
X155212589Y-97276815D01*
X155191947Y-97260181D01*
X152514107Y-94582341D01*
X156312055Y-94582341D01*
X156331841Y-94770597D01*
X156331842Y-94770600D01*
X156390333Y-94950618D01*
X156390336Y-94950625D01*
X156484982Y-95114557D01*
X156572179Y-95211399D01*
X156611644Y-95255229D01*
X156764780Y-95366489D01*
X156764785Y-95366492D01*
X156937707Y-95443483D01*
X156937712Y-95443485D01*
X157122869Y-95482841D01*
X157122870Y-95482841D01*
X157312159Y-95482841D01*
X157312161Y-95482841D01*
X157497318Y-95443485D01*
X157596893Y-95399151D01*
X157676182Y-95363849D01*
X157676906Y-95365475D01*
X157736339Y-95351043D01*
X157782621Y-95364627D01*
X157783334Y-95363028D01*
X157962192Y-95442662D01*
X157962197Y-95442664D01*
X158147354Y-95482020D01*
X158147355Y-95482020D01*
X158336644Y-95482020D01*
X158336646Y-95482020D01*
X158521803Y-95442664D01*
X158694730Y-95365671D01*
X158847871Y-95254408D01*
X158974533Y-95113736D01*
X159069179Y-94949804D01*
X159127674Y-94769776D01*
X159147460Y-94581520D01*
X159127674Y-94393264D01*
X159069179Y-94213236D01*
X158974533Y-94049304D01*
X158847871Y-93908632D01*
X158847870Y-93908631D01*
X158694734Y-93797371D01*
X158694729Y-93797368D01*
X158521807Y-93720377D01*
X158521802Y-93720375D01*
X158347264Y-93683277D01*
X158336646Y-93681020D01*
X158147354Y-93681020D01*
X158136736Y-93683277D01*
X157962197Y-93720375D01*
X157962192Y-93720377D01*
X157783334Y-93800012D01*
X157782613Y-93798394D01*
X157723123Y-93812814D01*
X157676891Y-93799237D01*
X157676181Y-93800833D01*
X157668405Y-93797371D01*
X157642237Y-93785720D01*
X157497322Y-93721198D01*
X157497317Y-93721196D01*
X157344096Y-93688629D01*
X157312161Y-93681841D01*
X157122869Y-93681841D01*
X157090934Y-93688629D01*
X156937712Y-93721196D01*
X156937707Y-93721198D01*
X156764785Y-93798189D01*
X156764780Y-93798192D01*
X156611644Y-93909452D01*
X156484981Y-94050126D01*
X156390336Y-94214056D01*
X156390333Y-94214063D01*
X156331842Y-94394081D01*
X156331841Y-94394085D01*
X156312055Y-94582341D01*
X152514107Y-94582341D01*
X152129498Y-94197732D01*
X152119675Y-94185470D01*
X152119454Y-94185654D01*
X152114481Y-94179642D01*
X152065471Y-94133619D01*
X152062672Y-94130906D01*
X152043172Y-94111405D01*
X152043166Y-94111400D01*
X152039981Y-94108929D01*
X152031129Y-94101368D01*
X151999277Y-94071458D01*
X151999275Y-94071456D01*
X151999272Y-94071455D01*
X151981724Y-94061808D01*
X151965458Y-94051124D01*
X151964171Y-94050126D01*
X151949631Y-94038847D01*
X151949630Y-94038846D01*
X151949627Y-94038844D01*
X151909544Y-94021498D01*
X151899058Y-94016361D01*
X151860789Y-93995323D01*
X151860787Y-93995322D01*
X151841388Y-93990342D01*
X151822976Y-93984038D01*
X151804593Y-93976082D01*
X151804587Y-93976080D01*
X151761455Y-93969249D01*
X151750017Y-93966881D01*
X151707715Y-93956020D01*
X151707714Y-93956020D01*
X151687679Y-93956020D01*
X151668281Y-93954493D01*
X151660857Y-93953317D01*
X151648500Y-93951360D01*
X151648499Y-93951360D01*
X151605020Y-93955470D01*
X151593351Y-93956020D01*
X147642748Y-93956020D01*
X147575709Y-93936335D01*
X147550600Y-93914994D01*
X147544873Y-93908634D01*
X147544869Y-93908630D01*
X147391734Y-93797371D01*
X147391729Y-93797368D01*
X147218807Y-93720377D01*
X147218802Y-93720375D01*
X147044264Y-93683277D01*
X147033646Y-93681020D01*
X146844354Y-93681020D01*
X146833736Y-93683277D01*
X146659197Y-93720375D01*
X146659192Y-93720377D01*
X146486270Y-93797368D01*
X146486265Y-93797371D01*
X146333129Y-93908631D01*
X146206466Y-94049305D01*
X146111821Y-94213235D01*
X146111818Y-94213242D01*
X146054237Y-94390459D01*
X146053326Y-94393264D01*
X146033540Y-94581520D01*
X146053326Y-94769776D01*
X146053327Y-94769779D01*
X146111818Y-94949797D01*
X146111821Y-94949804D01*
X146206467Y-95113736D01*
X146308185Y-95226705D01*
X146333129Y-95254408D01*
X146486265Y-95365668D01*
X146486270Y-95365671D01*
X146659192Y-95442662D01*
X146659197Y-95442664D01*
X146844354Y-95482020D01*
X146844355Y-95482020D01*
X147033644Y-95482020D01*
X147033646Y-95482020D01*
X147218803Y-95442664D01*
X147391730Y-95365671D01*
X147544871Y-95254408D01*
X147547788Y-95251167D01*
X147550600Y-95248046D01*
X147610087Y-95211399D01*
X147642748Y-95207020D01*
X151318243Y-95207020D01*
X151385282Y-95226705D01*
X151405924Y-95243339D01*
X152499741Y-96337156D01*
X152533226Y-96398479D01*
X152528242Y-96468171D01*
X152486370Y-96524104D01*
X152437842Y-96546127D01*
X152374196Y-96559656D01*
X152374192Y-96559657D01*
X152201274Y-96636646D01*
X152195661Y-96639888D01*
X152133662Y-96656500D01*
X150830455Y-96656500D01*
X150814834Y-96654775D01*
X150814807Y-96655061D01*
X150807045Y-96654326D01*
X150739825Y-96656439D01*
X150735931Y-96656500D01*
X150708362Y-96656500D01*
X150704385Y-96657002D01*
X150692754Y-96657917D01*
X150649086Y-96659289D01*
X150649080Y-96659290D01*
X150629838Y-96664880D01*
X150610799Y-96668823D01*
X150590929Y-96671334D01*
X150590912Y-96671338D01*
X150550308Y-96687413D01*
X150539267Y-96691194D01*
X150497318Y-96703383D01*
X150497316Y-96703384D01*
X150480070Y-96713583D01*
X150462605Y-96722139D01*
X150456722Y-96724468D01*
X150443978Y-96729514D01*
X150408646Y-96755183D01*
X150398890Y-96761592D01*
X150361292Y-96783828D01*
X150347120Y-96798000D01*
X150332335Y-96810628D01*
X150316124Y-96822407D01*
X150288283Y-96856059D01*
X150280423Y-96864696D01*
X145206785Y-101938335D01*
X145145462Y-101971820D01*
X145075770Y-101966836D01*
X145019837Y-101924964D01*
X144995420Y-101859500D01*
X144995104Y-101850654D01*
X144995104Y-93480985D01*
X145014789Y-93413946D01*
X145026954Y-93398013D01*
X145050020Y-93372395D01*
X145102137Y-93314514D01*
X145196783Y-93150582D01*
X145255278Y-92970554D01*
X145275064Y-92782298D01*
X145255278Y-92594042D01*
X145196783Y-92414014D01*
X145102137Y-92250082D01*
X144975475Y-92109410D01*
X144975474Y-92109409D01*
X144822338Y-91998149D01*
X144822333Y-91998146D01*
X144649411Y-91921155D01*
X144649406Y-91921153D01*
X144487820Y-91886808D01*
X144464250Y-91881798D01*
X144274958Y-91881798D01*
X144268640Y-91883141D01*
X144089801Y-91921153D01*
X144089796Y-91921155D01*
X143916874Y-91998146D01*
X143916869Y-91998149D01*
X143763733Y-92109409D01*
X143637070Y-92250083D01*
X143542425Y-92414013D01*
X143542422Y-92414020D01*
X143487836Y-92582020D01*
X143483930Y-92594042D01*
X143464144Y-92782298D01*
X143483930Y-92970554D01*
X143483931Y-92970557D01*
X143542422Y-93150575D01*
X143542425Y-93150582D01*
X143637071Y-93314514D01*
X143659586Y-93339519D01*
X143712254Y-93398013D01*
X143742484Y-93461004D01*
X143744104Y-93480985D01*
X143744104Y-102080943D01*
X143724419Y-102147982D01*
X143707785Y-102168624D01*
X143689228Y-102187181D01*
X143627905Y-102220666D01*
X143601547Y-102223500D01*
X143542354Y-102223500D01*
X143509897Y-102230398D01*
X143357197Y-102262855D01*
X143357192Y-102262857D01*
X143184270Y-102339848D01*
X143184265Y-102339851D01*
X143031129Y-102451111D01*
X142904466Y-102591785D01*
X142809821Y-102755715D01*
X142809818Y-102755722D01*
X142758548Y-102913516D01*
X142751326Y-102935744D01*
X142731540Y-103124000D01*
X142751326Y-103312256D01*
X142751327Y-103312259D01*
X142809818Y-103492277D01*
X142809821Y-103492284D01*
X142904467Y-103656216D01*
X143025887Y-103791066D01*
X143031129Y-103796888D01*
X143184265Y-103908148D01*
X143184270Y-103908151D01*
X143357192Y-103985142D01*
X143357197Y-103985144D01*
X143542354Y-104024500D01*
X143542355Y-104024500D01*
X143731644Y-104024500D01*
X143731646Y-104024500D01*
X143916803Y-103985144D01*
X144089730Y-103908151D01*
X144242871Y-103796888D01*
X144369533Y-103656216D01*
X144413375Y-103580278D01*
X144463940Y-103532065D01*
X144532547Y-103518841D01*
X144597412Y-103544809D01*
X144637941Y-103601722D01*
X144644081Y-103655240D01*
X144636540Y-103727000D01*
X144656326Y-103915256D01*
X144656327Y-103915259D01*
X144714818Y-104095277D01*
X144714821Y-104095284D01*
X144809467Y-104259216D01*
X144898094Y-104357646D01*
X144928323Y-104420635D01*
X144919698Y-104489970D01*
X144893624Y-104528297D01*
X144227986Y-105193935D01*
X144166663Y-105227420D01*
X144096971Y-105222436D01*
X144041038Y-105180564D01*
X144032918Y-105168254D01*
X144011862Y-105131785D01*
X143993186Y-105099437D01*
X143988996Y-105094784D01*
X143895649Y-104991112D01*
X143866524Y-104958765D01*
X143860120Y-104954112D01*
X143713387Y-104847504D01*
X143713382Y-104847501D01*
X143540460Y-104770510D01*
X143540455Y-104770508D01*
X143394654Y-104739518D01*
X143355299Y-104731153D01*
X143166007Y-104731153D01*
X143133550Y-104738051D01*
X142980850Y-104770508D01*
X142980845Y-104770510D01*
X142805154Y-104848734D01*
X142735904Y-104858019D01*
X142698881Y-104845008D01*
X142698666Y-104845492D01*
X142519807Y-104765857D01*
X142519802Y-104765855D01*
X142374001Y-104734865D01*
X142334646Y-104726500D01*
X142145354Y-104726500D01*
X142123463Y-104731153D01*
X141960197Y-104765855D01*
X141960192Y-104765857D01*
X141787270Y-104842848D01*
X141787265Y-104842851D01*
X141634129Y-104954111D01*
X141507467Y-105094783D01*
X141482750Y-105137595D01*
X141438951Y-105213456D01*
X141388387Y-105261670D01*
X141331566Y-105275455D01*
X141260309Y-105275455D01*
X141147279Y-105299479D01*
X141077613Y-105294163D01*
X141021880Y-105252025D01*
X140997775Y-105186445D01*
X140997500Y-105178189D01*
X140997500Y-94135757D01*
X141017185Y-94068718D01*
X141033819Y-94048076D01*
X141435077Y-93646819D01*
X141496400Y-93613334D01*
X141522758Y-93610500D01*
X141556647Y-93610500D01*
X141556649Y-93610500D01*
X141741806Y-93571144D01*
X141914733Y-93494151D01*
X142067874Y-93382888D01*
X142194536Y-93242216D01*
X142289182Y-93078284D01*
X142347677Y-92898256D01*
X142367463Y-92710000D01*
X142347677Y-92521744D01*
X142289182Y-92341716D01*
X142194536Y-92177784D01*
X142067874Y-92037112D01*
X142048082Y-92022732D01*
X141914737Y-91925851D01*
X141914732Y-91925848D01*
X141741810Y-91848857D01*
X141741805Y-91848855D01*
X141585898Y-91815717D01*
X141556649Y-91809500D01*
X141367357Y-91809500D01*
X141351291Y-91812915D01*
X141182200Y-91848855D01*
X141182195Y-91848857D01*
X141009273Y-91925848D01*
X141009268Y-91925851D01*
X140856132Y-92037111D01*
X140729469Y-92177785D01*
X140634824Y-92341715D01*
X140634821Y-92341722D01*
X140594549Y-92465668D01*
X140576329Y-92521744D01*
X140556543Y-92710000D01*
X140555864Y-92716463D01*
X140553202Y-92716183D01*
X140536858Y-92771847D01*
X140520224Y-92792489D01*
X139988208Y-93324504D01*
X139975951Y-93334325D01*
X139976134Y-93334546D01*
X139970122Y-93339519D01*
X139924098Y-93388528D01*
X139921391Y-93391321D01*
X139901889Y-93410822D01*
X139901875Y-93410839D01*
X139899407Y-93414020D01*
X139891843Y-93422875D01*
X139861937Y-93454723D01*
X139861936Y-93454725D01*
X139852284Y-93472281D01*
X139841610Y-93488531D01*
X139829329Y-93504366D01*
X139829324Y-93504373D01*
X139811975Y-93544463D01*
X139806838Y-93554949D01*
X139785803Y-93593211D01*
X139780822Y-93612612D01*
X139774521Y-93631015D01*
X139766562Y-93649407D01*
X139766561Y-93649410D01*
X139759728Y-93692548D01*
X139757360Y-93703979D01*
X139746501Y-93746276D01*
X139746500Y-93746287D01*
X139746500Y-93766321D01*
X139744973Y-93785720D01*
X139741840Y-93805499D01*
X139741840Y-93805500D01*
X139745950Y-93848979D01*
X139746500Y-93860648D01*
X139746500Y-107216291D01*
X139726815Y-107283330D01*
X139714650Y-107299263D01*
X139657357Y-107362893D01*
X139562712Y-107526824D01*
X139562709Y-107526831D01*
X139521644Y-107653218D01*
X139504217Y-107706853D01*
X139499782Y-107749054D01*
X139490043Y-107841712D01*
X139463458Y-107906327D01*
X139406161Y-107946311D01*
X139340943Y-107950041D01*
X139286646Y-107938500D01*
X139097354Y-107938500D01*
X139064897Y-107945398D01*
X138912197Y-107977855D01*
X138912192Y-107977857D01*
X138739270Y-108054848D01*
X138739265Y-108054851D01*
X138586129Y-108166111D01*
X138459466Y-108306785D01*
X138364821Y-108470715D01*
X138364818Y-108470722D01*
X138309866Y-108639849D01*
X138306326Y-108650744D01*
X138286540Y-108839000D01*
X129680500Y-108839000D01*
X129680500Y-97060500D01*
X129700185Y-96993461D01*
X129752989Y-96947706D01*
X129804500Y-96936500D01*
X133705500Y-96936500D01*
X133772539Y-96956185D01*
X133818294Y-97008989D01*
X133829500Y-97060500D01*
X133829500Y-97711467D01*
X133829416Y-97711889D01*
X133829459Y-97736000D01*
X133829500Y-97736099D01*
X133829617Y-97736383D01*
X133829618Y-97736384D01*
X133829808Y-97736462D01*
X133830000Y-97736541D01*
X133830002Y-97736539D01*
X133854616Y-97736524D01*
X133854616Y-97736528D01*
X133854760Y-97736500D01*
X135305240Y-97736500D01*
X135305383Y-97736528D01*
X135305384Y-97736524D01*
X135329997Y-97736539D01*
X135330000Y-97736541D01*
X135330383Y-97736383D01*
X135330500Y-97736099D01*
X135330541Y-97736000D01*
X135330540Y-97735997D01*
X135330583Y-97711889D01*
X135330500Y-97711467D01*
X135330500Y-97060500D01*
X135350185Y-96993461D01*
X135402989Y-96947706D01*
X135454500Y-96936500D01*
X136305240Y-96936500D01*
X136305383Y-96936528D01*
X136305384Y-96936524D01*
X136329997Y-96936539D01*
X136330000Y-96936541D01*
X136330383Y-96936383D01*
X136330500Y-96936099D01*
X136330541Y-96936000D01*
X136330540Y-96935997D01*
X136330583Y-96911889D01*
X136330500Y-96911467D01*
X136330500Y-91186000D01*
X137651540Y-91186000D01*
X137671326Y-91374256D01*
X137671327Y-91374259D01*
X137729818Y-91554277D01*
X137729821Y-91554284D01*
X137824467Y-91718216D01*
X137923230Y-91827903D01*
X137951129Y-91858888D01*
X138104265Y-91970148D01*
X138104270Y-91970151D01*
X138277192Y-92047142D01*
X138277197Y-92047144D01*
X138462354Y-92086500D01*
X138462355Y-92086500D01*
X138651644Y-92086500D01*
X138651646Y-92086500D01*
X138836803Y-92047144D01*
X139009730Y-91970151D01*
X139162871Y-91858888D01*
X139289533Y-91718216D01*
X139384179Y-91554284D01*
X139441782Y-91377000D01*
X149589540Y-91377000D01*
X149609326Y-91565256D01*
X149609327Y-91565259D01*
X149667818Y-91745277D01*
X149667821Y-91745284D01*
X149762467Y-91909216D01*
X149855960Y-92013050D01*
X149889129Y-92049888D01*
X150042265Y-92161148D01*
X150042270Y-92161151D01*
X150215192Y-92238142D01*
X150215197Y-92238144D01*
X150400354Y-92277500D01*
X150400355Y-92277500D01*
X150589644Y-92277500D01*
X150589646Y-92277500D01*
X150774803Y-92238144D01*
X150947730Y-92161151D01*
X151100871Y-92049888D01*
X151227533Y-91909216D01*
X151322179Y-91745284D01*
X151342897Y-91681520D01*
X154288540Y-91681520D01*
X154308326Y-91869776D01*
X154308327Y-91869779D01*
X154366818Y-92049797D01*
X154366821Y-92049804D01*
X154461467Y-92213736D01*
X154584210Y-92350055D01*
X154588129Y-92354408D01*
X154741265Y-92465668D01*
X154741270Y-92465671D01*
X154914192Y-92542662D01*
X154914197Y-92542664D01*
X155099354Y-92582020D01*
X155099355Y-92582020D01*
X155288644Y-92582020D01*
X155288646Y-92582020D01*
X155473803Y-92542664D01*
X155646730Y-92465671D01*
X155799871Y-92354408D01*
X155800349Y-92353876D01*
X155800702Y-92353658D01*
X155804706Y-92350055D01*
X155805364Y-92350786D01*
X155859836Y-92317229D01*
X155929693Y-92318558D01*
X155979711Y-92350702D01*
X155980294Y-92350055D01*
X155984260Y-92353626D01*
X155984651Y-92353877D01*
X155985129Y-92354408D01*
X155985130Y-92354409D01*
X156138265Y-92465668D01*
X156138270Y-92465671D01*
X156311192Y-92542662D01*
X156311197Y-92542664D01*
X156496354Y-92582020D01*
X156496355Y-92582020D01*
X156685644Y-92582020D01*
X156685646Y-92582020D01*
X156870803Y-92542664D01*
X157043730Y-92465671D01*
X157196871Y-92354408D01*
X157323533Y-92213736D01*
X157418179Y-92049804D01*
X157430900Y-92010654D01*
X157432994Y-92004209D01*
X157472431Y-91946533D01*
X157536789Y-91919334D01*
X157605636Y-91931248D01*
X157623811Y-91942209D01*
X157662264Y-91970147D01*
X157662270Y-91970151D01*
X157835192Y-92047142D01*
X157835197Y-92047144D01*
X158020354Y-92086500D01*
X158020355Y-92086500D01*
X158209644Y-92086500D01*
X158209646Y-92086500D01*
X158394803Y-92047144D01*
X158567730Y-91970151D01*
X158720871Y-91858888D01*
X158847533Y-91718216D01*
X158942179Y-91554284D01*
X159000674Y-91374256D01*
X159020460Y-91186000D01*
X159000674Y-90997744D01*
X158942179Y-90817716D01*
X158847533Y-90653784D01*
X158720871Y-90513112D01*
X158652922Y-90463744D01*
X158567734Y-90401851D01*
X158567729Y-90401848D01*
X158394807Y-90324857D01*
X158394802Y-90324855D01*
X158249001Y-90293865D01*
X158209646Y-90285500D01*
X158020354Y-90285500D01*
X157987897Y-90292398D01*
X157835197Y-90324855D01*
X157835192Y-90324857D01*
X157662270Y-90401848D01*
X157662265Y-90401851D01*
X157509129Y-90513111D01*
X157382466Y-90653785D01*
X157287821Y-90817715D01*
X157287817Y-90817725D01*
X157273004Y-90863313D01*
X157233566Y-90920988D01*
X157169207Y-90948185D01*
X157100361Y-90936269D01*
X157082193Y-90925314D01*
X157043730Y-90897369D01*
X157043729Y-90897368D01*
X156870807Y-90820377D01*
X156870802Y-90820375D01*
X156711503Y-90786516D01*
X156685646Y-90781020D01*
X156496354Y-90781020D01*
X156470497Y-90786516D01*
X156311197Y-90820375D01*
X156311192Y-90820377D01*
X156138270Y-90897368D01*
X156138265Y-90897371D01*
X155985135Y-91008626D01*
X155985125Y-91008635D01*
X155984642Y-91009172D01*
X155984285Y-91009391D01*
X155980305Y-91012976D01*
X155979648Y-91012247D01*
X155925152Y-91045815D01*
X155855295Y-91044478D01*
X155805274Y-91012331D01*
X155804695Y-91012976D01*
X155800751Y-91009424D01*
X155800358Y-91009172D01*
X155799874Y-91008635D01*
X155799864Y-91008626D01*
X155646734Y-90897371D01*
X155646729Y-90897368D01*
X155473807Y-90820377D01*
X155473802Y-90820375D01*
X155314503Y-90786516D01*
X155288646Y-90781020D01*
X155099354Y-90781020D01*
X155073497Y-90786516D01*
X154914197Y-90820375D01*
X154914192Y-90820377D01*
X154741270Y-90897368D01*
X154741265Y-90897371D01*
X154588129Y-91008631D01*
X154461466Y-91149305D01*
X154366821Y-91313235D01*
X154366818Y-91313242D01*
X154326884Y-91436148D01*
X154308326Y-91493264D01*
X154288540Y-91681520D01*
X151342897Y-91681520D01*
X151380674Y-91565256D01*
X151400460Y-91377000D01*
X151398908Y-91362238D01*
X151411474Y-91293512D01*
X151459204Y-91242486D01*
X151526943Y-91225365D01*
X151593186Y-91247584D01*
X151614377Y-91266302D01*
X151667128Y-91324887D01*
X151667129Y-91324888D01*
X151820265Y-91436148D01*
X151820270Y-91436151D01*
X151993192Y-91513142D01*
X151993197Y-91513144D01*
X152178354Y-91552500D01*
X152178355Y-91552500D01*
X152367644Y-91552500D01*
X152367646Y-91552500D01*
X152552803Y-91513144D01*
X152725730Y-91436151D01*
X152878871Y-91324888D01*
X153005533Y-91184216D01*
X153100179Y-91020284D01*
X153158674Y-90840256D01*
X153178460Y-90652000D01*
X153158674Y-90463744D01*
X153100179Y-90283716D01*
X153005533Y-90119784D01*
X152878871Y-89979112D01*
X152878870Y-89979111D01*
X152725734Y-89867851D01*
X152725729Y-89867848D01*
X152552807Y-89790857D01*
X152552802Y-89790855D01*
X152407001Y-89759865D01*
X152367646Y-89751500D01*
X152178354Y-89751500D01*
X152145897Y-89758398D01*
X151993197Y-89790855D01*
X151993192Y-89790857D01*
X151820270Y-89867848D01*
X151820265Y-89867851D01*
X151667129Y-89979111D01*
X151540466Y-90119785D01*
X151445821Y-90283715D01*
X151445818Y-90283722D01*
X151407436Y-90401851D01*
X151387326Y-90463744D01*
X151381849Y-90515855D01*
X151367540Y-90651999D01*
X151369092Y-90666762D01*
X151356523Y-90735492D01*
X151308791Y-90786516D01*
X151241051Y-90803634D01*
X151174809Y-90781412D01*
X151153622Y-90762697D01*
X151100871Y-90704112D01*
X151100870Y-90704111D01*
X150947734Y-90592851D01*
X150947729Y-90592848D01*
X150774807Y-90515857D01*
X150774802Y-90515855D01*
X150629001Y-90484865D01*
X150589646Y-90476500D01*
X150400354Y-90476500D01*
X150367897Y-90483398D01*
X150215197Y-90515855D01*
X150215192Y-90515857D01*
X150042270Y-90592848D01*
X150042265Y-90592851D01*
X149889129Y-90704111D01*
X149762466Y-90844785D01*
X149667821Y-91008715D01*
X149667818Y-91008722D01*
X149609327Y-91188740D01*
X149609326Y-91188744D01*
X149589540Y-91377000D01*
X139441782Y-91377000D01*
X139442674Y-91374256D01*
X139462460Y-91186000D01*
X139442674Y-90997744D01*
X139384179Y-90817716D01*
X139289533Y-90653784D01*
X139162871Y-90513112D01*
X139094922Y-90463744D01*
X139009734Y-90401851D01*
X139009729Y-90401848D01*
X138836807Y-90324857D01*
X138836802Y-90324855D01*
X138691001Y-90293865D01*
X138651646Y-90285500D01*
X138462354Y-90285500D01*
X138429897Y-90292398D01*
X138277197Y-90324855D01*
X138277192Y-90324857D01*
X138104270Y-90401848D01*
X138104265Y-90401851D01*
X137951129Y-90513111D01*
X137824466Y-90653785D01*
X137729821Y-90817715D01*
X137729818Y-90817722D01*
X137671327Y-90997740D01*
X137671326Y-90997744D01*
X137651540Y-91186000D01*
X136330500Y-91186000D01*
X136330500Y-88437500D01*
X136350185Y-88370461D01*
X136402989Y-88324706D01*
X136454500Y-88313500D01*
X183263500Y-88313500D01*
X183330539Y-88333185D01*
G37*
%TD.AperFunction*%
%TD*%
%TA.AperFunction,NonConductor*%
G36*
X158143141Y-100727404D02*
G01*
X158182550Y-100753940D01*
X158674296Y-101245687D01*
X159138197Y-101709588D01*
X159148022Y-101721851D01*
X159148243Y-101721669D01*
X159153211Y-101727674D01*
X159202222Y-101773699D01*
X159205021Y-101776412D01*
X159224522Y-101795914D01*
X159224526Y-101795917D01*
X159224529Y-101795920D01*
X159227702Y-101798381D01*
X159236574Y-101805959D01*
X159268418Y-101835862D01*
X159285976Y-101845514D01*
X159302235Y-101856195D01*
X159318064Y-101868473D01*
X159358155Y-101885821D01*
X159368626Y-101890951D01*
X159391180Y-101903350D01*
X159406902Y-101911994D01*
X159406904Y-101911995D01*
X159406908Y-101911997D01*
X159426316Y-101916980D01*
X159444719Y-101923281D01*
X159463101Y-101931236D01*
X159463102Y-101931236D01*
X159463104Y-101931237D01*
X159506250Y-101938070D01*
X159517672Y-101940436D01*
X159559981Y-101951300D01*
X159580016Y-101951300D01*
X159599414Y-101952826D01*
X159619194Y-101955959D01*
X159619195Y-101955960D01*
X159619195Y-101955959D01*
X159619196Y-101955960D01*
X159652339Y-101952827D01*
X159662675Y-101951850D01*
X159674344Y-101951300D01*
X164429003Y-101951300D01*
X164496042Y-101970985D01*
X164541797Y-102023789D01*
X164551741Y-102092947D01*
X164548778Y-102107392D01*
X164537153Y-102150778D01*
X164537150Y-102150791D01*
X164518672Y-102361999D01*
X164518672Y-102362000D01*
X164537150Y-102573208D01*
X164537152Y-102573218D01*
X164592023Y-102778001D01*
X164592025Y-102778005D01*
X164592026Y-102778009D01*
X164618845Y-102835522D01*
X164681629Y-102970164D01*
X164681631Y-102970168D01*
X164803235Y-103143836D01*
X164803240Y-103143842D01*
X164953157Y-103293759D01*
X164953163Y-103293764D01*
X165126831Y-103415368D01*
X165126833Y-103415369D01*
X165126836Y-103415371D01*
X165318991Y-103504974D01*
X165333717Y-103508919D01*
X165346051Y-103512225D01*
X165405711Y-103548591D01*
X165436240Y-103611438D01*
X165427945Y-103680813D01*
X165383459Y-103734691D01*
X165346051Y-103751775D01*
X165318996Y-103759024D01*
X165318991Y-103759025D01*
X165318991Y-103759026D01*
X165294726Y-103770340D01*
X165126835Y-103848629D01*
X165126831Y-103848631D01*
X164953163Y-103970235D01*
X164953157Y-103970240D01*
X164803240Y-104120157D01*
X164803235Y-104120163D01*
X164681631Y-104293831D01*
X164681629Y-104293835D01*
X164592027Y-104485989D01*
X164592023Y-104485998D01*
X164537152Y-104690781D01*
X164537150Y-104690791D01*
X164518672Y-104901999D01*
X164518672Y-104902000D01*
X164537150Y-105113208D01*
X164537152Y-105113218D01*
X164592023Y-105318001D01*
X164592025Y-105318005D01*
X164592026Y-105318009D01*
X164665577Y-105475740D01*
X164681629Y-105510164D01*
X164681631Y-105510168D01*
X164803235Y-105683836D01*
X164803240Y-105683842D01*
X164953157Y-105833759D01*
X164953163Y-105833764D01*
X165126831Y-105955368D01*
X165126833Y-105955369D01*
X165126836Y-105955371D01*
X165318991Y-106044974D01*
X165333717Y-106048919D01*
X165346051Y-106052225D01*
X165405711Y-106088591D01*
X165436240Y-106151438D01*
X165427945Y-106220813D01*
X165383459Y-106274691D01*
X165346051Y-106291775D01*
X165318996Y-106299024D01*
X165318989Y-106299027D01*
X165126835Y-106388629D01*
X165126831Y-106388631D01*
X164953163Y-106510235D01*
X164953157Y-106510240D01*
X164803240Y-106660157D01*
X164803235Y-106660163D01*
X164681631Y-106833831D01*
X164681629Y-106833835D01*
X164592027Y-107025989D01*
X164592023Y-107025998D01*
X164537152Y-107230781D01*
X164537150Y-107230791D01*
X164518672Y-107441999D01*
X164518672Y-107442000D01*
X164537150Y-107653208D01*
X164537152Y-107653218D01*
X164592023Y-107858001D01*
X164592025Y-107858005D01*
X164592026Y-107858009D01*
X164647912Y-107977857D01*
X164681629Y-108050164D01*
X164681631Y-108050168D01*
X164803235Y-108223836D01*
X164803239Y-108223841D01*
X164953159Y-108373761D01*
X164953161Y-108373762D01*
X164953163Y-108373764D01*
X165126831Y-108495368D01*
X165126833Y-108495369D01*
X165126836Y-108495371D01*
X165318991Y-108584974D01*
X165523787Y-108639849D01*
X165692757Y-108654632D01*
X165734999Y-108658328D01*
X165735000Y-108658328D01*
X165735001Y-108658328D01*
X165770202Y-108655248D01*
X165946213Y-108639849D01*
X166151009Y-108584974D01*
X166343164Y-108495371D01*
X166516841Y-108373761D01*
X166666761Y-108223841D01*
X166788371Y-108050164D01*
X166877974Y-107858009D01*
X166885225Y-107830949D01*
X166921590Y-107771288D01*
X166984437Y-107740759D01*
X167053812Y-107749054D01*
X167107690Y-107793539D01*
X167124775Y-107830949D01*
X167132023Y-107858001D01*
X167132025Y-107858005D01*
X167132026Y-107858009D01*
X167187912Y-107977857D01*
X167221629Y-108050164D01*
X167221631Y-108050168D01*
X167343235Y-108223836D01*
X167343239Y-108223841D01*
X167493159Y-108373761D01*
X167493161Y-108373762D01*
X167493163Y-108373764D01*
X167666831Y-108495368D01*
X167666833Y-108495369D01*
X167666836Y-108495371D01*
X167858991Y-108584974D01*
X167873717Y-108588919D01*
X167886051Y-108592225D01*
X167945711Y-108628591D01*
X167976240Y-108691438D01*
X167967945Y-108760813D01*
X167923459Y-108814691D01*
X167886051Y-108831775D01*
X167858996Y-108839024D01*
X167858989Y-108839027D01*
X167666835Y-108928629D01*
X167666831Y-108928631D01*
X167493163Y-109050235D01*
X167493157Y-109050240D01*
X167343240Y-109200157D01*
X167343235Y-109200163D01*
X167221631Y-109373831D01*
X167221629Y-109373835D01*
X167132027Y-109565989D01*
X167132023Y-109565998D01*
X167077152Y-109770781D01*
X167077150Y-109770791D01*
X167058672Y-109981999D01*
X167058672Y-109982000D01*
X167077150Y-110193208D01*
X167077153Y-110193221D01*
X167088778Y-110236608D01*
X167087115Y-110306457D01*
X167047952Y-110364320D01*
X166983723Y-110391823D01*
X166969003Y-110392700D01*
X165970652Y-110392700D01*
X165903613Y-110373015D01*
X165882971Y-110356381D01*
X157568098Y-102041507D01*
X157534613Y-101980184D01*
X157539597Y-101910492D01*
X157581469Y-101854559D01*
X157582712Y-101853640D01*
X157704871Y-101764888D01*
X157831533Y-101624216D01*
X157926179Y-101460284D01*
X157984674Y-101280256D01*
X158004460Y-101092000D01*
X157984674Y-100903744D01*
X157976940Y-100879941D01*
X157974945Y-100810100D01*
X158011025Y-100750267D01*
X158073726Y-100719439D01*
X158143141Y-100727404D01*
G37*
%TD.AperFunction*%
M02*
