%TF.GenerationSoftware,KiCad,Pcbnew,7.0.9*%
%TF.CreationDate,2024-01-02T14:52:04+01:00*%
%TF.ProjectId,IO_LED_Stick,494f5f4c-4544-45f5-9374-69636b2e6b69,1*%
%TF.SameCoordinates,Original*%
%TF.FileFunction,Copper,L2,Bot*%
%TF.FilePolarity,Positive*%
%FSLAX46Y46*%
G04 Gerber Fmt 4.6, Leading zero omitted, Abs format (unit mm)*
G04 Created by KiCad (PCBNEW 7.0.9) date 2024-01-02 14:52:04*
%MOMM*%
%LPD*%
G01*
G04 APERTURE LIST*
%TA.AperFunction,ComponentPad*%
%ADD10R,1.700000X1.700000*%
%TD*%
%TA.AperFunction,ComponentPad*%
%ADD11O,1.700000X1.700000*%
%TD*%
%TA.AperFunction,SMDPad,CuDef*%
%ADD12R,0.458800X0.735600*%
%TD*%
%TA.AperFunction,SMDPad,CuDef*%
%ADD13R,0.888000X0.306400*%
%TD*%
%TA.AperFunction,ViaPad*%
%ADD14C,0.800000*%
%TD*%
%TA.AperFunction,Conductor*%
%ADD15C,0.250000*%
%TD*%
G04 APERTURE END LIST*
D10*
%TO.P,J1,1,Pin_1*%
%TO.N,Net-(D1-A)*%
X144585000Y-82492000D03*
D11*
%TO.P,J1,8,Pin_8*%
%TO.N,Net-(D8-A)*%
X147125000Y-82492000D03*
%TO.P,J1,2,Pin_2*%
%TO.N,Net-(D2-A)*%
X144585000Y-85032000D03*
%TO.P,J1,7,Pin_7*%
%TO.N,Net-(D7-A)*%
X147125000Y-85032000D03*
%TO.P,J1,3,Pin_3*%
%TO.N,Net-(D3-A)*%
X144585000Y-87572000D03*
%TO.P,J1,6,Pin_6*%
%TO.N,Net-(D6-A)*%
X147125000Y-87572000D03*
%TO.P,J1,4,Pin_4*%
%TO.N,Net-(D4-A)*%
X144585000Y-90112000D03*
%TO.P,J1,5,Pin_5*%
%TO.N,Net-(D5-A)*%
X147125000Y-90112000D03*
%TD*%
D12*
%TO.P,RN1,1,R1*%
%TO.N,GND*%
X151130000Y-84601401D03*
X151130000Y-88118599D03*
D13*
%TO.P,RN1,2,R1.2*%
%TO.N,Net-(D1-K)*%
X152012299Y-85407500D03*
%TO.P,RN1,3,R2.2*%
%TO.N,Net-(D2-K)*%
X152012299Y-86042500D03*
%TO.P,RN1,4,R3.2*%
%TO.N,Net-(D3-K)*%
X152012299Y-86677500D03*
%TO.P,RN1,5,R4.2*%
%TO.N,Net-(D4-K)*%
X152012299Y-87312500D03*
%TO.P,RN1,6,R5.2*%
%TO.N,Net-(D8-K)*%
X150247701Y-87312500D03*
%TO.P,RN1,7,R6.2*%
%TO.N,Net-(D7-K)*%
X150247701Y-86677500D03*
%TO.P,RN1,8,R7.2*%
%TO.N,Net-(D6-K)*%
X150247701Y-86042500D03*
%TO.P,RN1,9,R8.2*%
%TO.N,Net-(D5-K)*%
X150247701Y-85407500D03*
%TD*%
D10*
%TO.P,J2,1,Pin_1*%
%TO.N,GND*%
X140970000Y-86360000D03*
%TD*%
D14*
%TO.N,Net-(D8-K)*%
X155321000Y-93472000D03*
%TO.N,Net-(D7-K)*%
X149098000Y-86931500D03*
%TO.N,Net-(D8-A)*%
X143379514Y-83824734D03*
%TO.N,Net-(D6-K)*%
X149305501Y-83522019D03*
%TO.N,Net-(D5-K)*%
X155194000Y-87376000D03*
%TO.N,Net-(D4-K)*%
X155196998Y-85600998D03*
%TO.N,Net-(D3-K)*%
X155217049Y-84556348D03*
%TO.N,Net-(D2-K)*%
X155067000Y-81280000D03*
%TO.N,Net-(D1-K)*%
X155067000Y-79375000D03*
%TO.N,Net-(D7-A)*%
X149352000Y-91440000D03*
%TO.N,Net-(D6-A)*%
X149352000Y-89408000D03*
%TD*%
D15*
%TO.N,Net-(D8-K)*%
X155321000Y-93472000D02*
X150247701Y-88398701D01*
X150247701Y-88398701D02*
X150247701Y-87312500D01*
%TO.N,Net-(D7-K)*%
X149352000Y-86677500D02*
X150247701Y-86677500D01*
X149098000Y-86931500D02*
X149352000Y-86677500D01*
%TO.N,Net-(D8-A)*%
X143379514Y-83824734D02*
X145792266Y-83824734D01*
X145792266Y-83824734D02*
X147125000Y-82492000D01*
%TO.N,Net-(D6-K)*%
X149305501Y-85794300D02*
X149305501Y-83522019D01*
X149553701Y-86042500D02*
X149305501Y-85794300D01*
X150247701Y-86042500D02*
X149553701Y-86042500D01*
%TO.N,Net-(D5-K)*%
X155194000Y-87376000D02*
X155956000Y-86614000D01*
X155956000Y-86614000D02*
X155956000Y-79238695D01*
X155956000Y-79238695D02*
X155076305Y-78359000D01*
X155076305Y-78359000D02*
X154940000Y-78359000D01*
X154940000Y-78359000D02*
X150247701Y-83051299D01*
X150247701Y-83051299D02*
X150247701Y-85407500D01*
%TO.N,Net-(D4-K)*%
X155196998Y-85600998D02*
X153485496Y-87312500D01*
X153485496Y-87312500D02*
X152012299Y-87312500D01*
%TO.N,Net-(D3-K)*%
X155217049Y-84556348D02*
X153095897Y-86677500D01*
X153095897Y-86677500D02*
X152012299Y-86677500D01*
%TO.N,Net-(D2-K)*%
X155067000Y-81280000D02*
X155067000Y-83681799D01*
X155067000Y-83681799D02*
X152706299Y-86042500D01*
X152706299Y-86042500D02*
X152012299Y-86042500D01*
%TO.N,Net-(D1-K)*%
X155067000Y-79375000D02*
X152012299Y-82429701D01*
X152012299Y-82429701D02*
X152012299Y-85407500D01*
%TO.N,Net-(D7-A)*%
X149352000Y-91440000D02*
X149352000Y-90677299D01*
X149352000Y-90677299D02*
X147421701Y-88747000D01*
X147421701Y-88747000D02*
X146638299Y-88747000D01*
X146638299Y-88747000D02*
X145950000Y-88058701D01*
X145950000Y-88058701D02*
X145950000Y-86207000D01*
X145950000Y-86207000D02*
X147125000Y-85032000D01*
%TO.N,Net-(D6-A)*%
X149352000Y-89408000D02*
X148961000Y-89408000D01*
X148961000Y-89408000D02*
X147125000Y-87572000D01*
%TD*%
%TA.AperFunction,Conductor*%
%TO.N,GND*%
G36*
X154203587Y-77998185D02*
G01*
X154249342Y-78050989D01*
X154259286Y-78120147D01*
X154230261Y-78183703D01*
X154224229Y-78190181D01*
X149863909Y-82550498D01*
X149851652Y-82560319D01*
X149851835Y-82560540D01*
X149845824Y-82565512D01*
X149798473Y-82615935D01*
X149777578Y-82636830D01*
X149773323Y-82642315D01*
X149769541Y-82646742D01*
X149766196Y-82650305D01*
X149705958Y-82685705D01*
X149636144Y-82682918D01*
X149625361Y-82678709D01*
X149585303Y-82660874D01*
X149439502Y-82629884D01*
X149400147Y-82621519D01*
X149210855Y-82621519D01*
X149178398Y-82628417D01*
X149025698Y-82660874D01*
X149025693Y-82660876D01*
X148852771Y-82737867D01*
X148852766Y-82737870D01*
X148699630Y-82849130D01*
X148699629Y-82849131D01*
X148657736Y-82895658D01*
X148598249Y-82932306D01*
X148528392Y-82930975D01*
X148470344Y-82892088D01*
X148442535Y-82827991D01*
X148445811Y-82780595D01*
X148460063Y-82727408D01*
X148480659Y-82492000D01*
X148460063Y-82256592D01*
X148398903Y-82028337D01*
X148299035Y-81814171D01*
X148297667Y-81812216D01*
X148163494Y-81620597D01*
X147996402Y-81453506D01*
X147996395Y-81453501D01*
X147802834Y-81317967D01*
X147802830Y-81317965D01*
X147802828Y-81317964D01*
X147588663Y-81218097D01*
X147588659Y-81218096D01*
X147588655Y-81218094D01*
X147360413Y-81156938D01*
X147360403Y-81156936D01*
X147125001Y-81136341D01*
X147124999Y-81136341D01*
X146889596Y-81156936D01*
X146889586Y-81156938D01*
X146661344Y-81218094D01*
X146661335Y-81218098D01*
X146447171Y-81317964D01*
X146447169Y-81317965D01*
X146253600Y-81453503D01*
X146131673Y-81575430D01*
X146070350Y-81608914D01*
X146000658Y-81603930D01*
X145944725Y-81562058D01*
X145927810Y-81531081D01*
X145878797Y-81399671D01*
X145878793Y-81399664D01*
X145792547Y-81284455D01*
X145792544Y-81284452D01*
X145677335Y-81198206D01*
X145677328Y-81198202D01*
X145542482Y-81147908D01*
X145542483Y-81147908D01*
X145482883Y-81141501D01*
X145482881Y-81141500D01*
X145482873Y-81141500D01*
X145482864Y-81141500D01*
X143687129Y-81141500D01*
X143687123Y-81141501D01*
X143627516Y-81147908D01*
X143492671Y-81198202D01*
X143492664Y-81198206D01*
X143377455Y-81284452D01*
X143377452Y-81284455D01*
X143291206Y-81399664D01*
X143291202Y-81399671D01*
X143240908Y-81534517D01*
X143234501Y-81594116D01*
X143234500Y-81594135D01*
X143234500Y-82834526D01*
X143214815Y-82901565D01*
X143162011Y-82947320D01*
X143136283Y-82955816D01*
X143099708Y-82963590D01*
X143099706Y-82963591D01*
X142926784Y-83040582D01*
X142926779Y-83040585D01*
X142773643Y-83151845D01*
X142646980Y-83292519D01*
X142552335Y-83456449D01*
X142552332Y-83456456D01*
X142493841Y-83636474D01*
X142493840Y-83636478D01*
X142474054Y-83824734D01*
X142493840Y-84012990D01*
X142493841Y-84012993D01*
X142552332Y-84193011D01*
X142552335Y-84193018D01*
X142646981Y-84356950D01*
X142729862Y-84448998D01*
X142773643Y-84497622D01*
X142926779Y-84608882D01*
X142926784Y-84608885D01*
X143099711Y-84685878D01*
X143149397Y-84696439D01*
X143210876Y-84729629D01*
X143244653Y-84790792D01*
X143247142Y-84828535D01*
X143229341Y-85031998D01*
X143229341Y-85032000D01*
X143249936Y-85267403D01*
X143249938Y-85267413D01*
X143311094Y-85495655D01*
X143311096Y-85495659D01*
X143311097Y-85495663D01*
X143410965Y-85709830D01*
X143410967Y-85709834D01*
X143546501Y-85903395D01*
X143546506Y-85903402D01*
X143713597Y-86070493D01*
X143713603Y-86070498D01*
X143899158Y-86200425D01*
X143942783Y-86255002D01*
X143949977Y-86324500D01*
X143918454Y-86386855D01*
X143899158Y-86403575D01*
X143713597Y-86533505D01*
X143546505Y-86700597D01*
X143410965Y-86894169D01*
X143410964Y-86894171D01*
X143348340Y-87028470D01*
X143312766Y-87104759D01*
X143311098Y-87108335D01*
X143311094Y-87108344D01*
X143249938Y-87336586D01*
X143249936Y-87336596D01*
X143229341Y-87571999D01*
X143229341Y-87572000D01*
X143249936Y-87807403D01*
X143249938Y-87807413D01*
X143311094Y-88035655D01*
X143311096Y-88035659D01*
X143311097Y-88035663D01*
X143405049Y-88237144D01*
X143410965Y-88249830D01*
X143410967Y-88249834D01*
X143546501Y-88443395D01*
X143546506Y-88443402D01*
X143713597Y-88610493D01*
X143713603Y-88610498D01*
X143899158Y-88740425D01*
X143942783Y-88795002D01*
X143949977Y-88864500D01*
X143918454Y-88926855D01*
X143899158Y-88943575D01*
X143713597Y-89073505D01*
X143546505Y-89240597D01*
X143410965Y-89434169D01*
X143410964Y-89434171D01*
X143311098Y-89648335D01*
X143311094Y-89648344D01*
X143249938Y-89876586D01*
X143249936Y-89876596D01*
X143229341Y-90111999D01*
X143229341Y-90112000D01*
X143249936Y-90347403D01*
X143249938Y-90347413D01*
X143311094Y-90575655D01*
X143311096Y-90575659D01*
X143311097Y-90575663D01*
X143372022Y-90706316D01*
X143410965Y-90789830D01*
X143410967Y-90789834D01*
X143464660Y-90866515D01*
X143546505Y-90983401D01*
X143713599Y-91150495D01*
X143810384Y-91218265D01*
X143907165Y-91286032D01*
X143907167Y-91286033D01*
X143907170Y-91286035D01*
X144121337Y-91385903D01*
X144349592Y-91447063D01*
X144537918Y-91463539D01*
X144584999Y-91467659D01*
X144585000Y-91467659D01*
X144585001Y-91467659D01*
X144624234Y-91464226D01*
X144820408Y-91447063D01*
X145048663Y-91385903D01*
X145262830Y-91286035D01*
X145456401Y-91150495D01*
X145623495Y-90983401D01*
X145753425Y-90797842D01*
X145808002Y-90754217D01*
X145877500Y-90747023D01*
X145939855Y-90778546D01*
X145956575Y-90797842D01*
X146086500Y-90983395D01*
X146086505Y-90983401D01*
X146253599Y-91150495D01*
X146350384Y-91218265D01*
X146447165Y-91286032D01*
X146447167Y-91286033D01*
X146447170Y-91286035D01*
X146661337Y-91385903D01*
X146889592Y-91447063D01*
X147077918Y-91463539D01*
X147124999Y-91467659D01*
X147125000Y-91467659D01*
X147125001Y-91467659D01*
X147164234Y-91464226D01*
X147360408Y-91447063D01*
X147588663Y-91385903D01*
X147802830Y-91286035D01*
X147996401Y-91150495D01*
X148163495Y-90983401D01*
X148299035Y-90789830D01*
X148313526Y-90758753D01*
X148359696Y-90706316D01*
X148426889Y-90687163D01*
X148493770Y-90707378D01*
X148513585Y-90723474D01*
X148580895Y-90790784D01*
X148614378Y-90852104D01*
X148609394Y-90921796D01*
X148600600Y-90940462D01*
X148524820Y-91071718D01*
X148524818Y-91071722D01*
X148466327Y-91251740D01*
X148466326Y-91251744D01*
X148446540Y-91440000D01*
X148466326Y-91628256D01*
X148466327Y-91628259D01*
X148524818Y-91808277D01*
X148524821Y-91808284D01*
X148619467Y-91972216D01*
X148746129Y-92112888D01*
X148899265Y-92224148D01*
X148899270Y-92224151D01*
X149072192Y-92301142D01*
X149072197Y-92301144D01*
X149257354Y-92340500D01*
X149257355Y-92340500D01*
X149446644Y-92340500D01*
X149446646Y-92340500D01*
X149631803Y-92301144D01*
X149804730Y-92224151D01*
X149957871Y-92112888D01*
X150084533Y-91972216D01*
X150179179Y-91808284D01*
X150237674Y-91628256D01*
X150257460Y-91440000D01*
X150237674Y-91251744D01*
X150179179Y-91071716D01*
X150084533Y-90907784D01*
X150011416Y-90826579D01*
X149981186Y-90763587D01*
X149980540Y-90744410D01*
X149979918Y-90744430D01*
X149977500Y-90667484D01*
X149977500Y-90637953D01*
X149977500Y-90637949D01*
X149976631Y-90631071D01*
X149976172Y-90625242D01*
X149974709Y-90578671D01*
X149969122Y-90559443D01*
X149965174Y-90540383D01*
X149962663Y-90520503D01*
X149945512Y-90477186D01*
X149943619Y-90471657D01*
X149930618Y-90426908D01*
X149930616Y-90426905D01*
X149920423Y-90409670D01*
X149911861Y-90392193D01*
X149904487Y-90373569D01*
X149904486Y-90373567D01*
X149877079Y-90335844D01*
X149873898Y-90331002D01*
X149853107Y-90295846D01*
X149835927Y-90228124D01*
X149858087Y-90161861D01*
X149886950Y-90132414D01*
X149957871Y-90080888D01*
X150084533Y-89940216D01*
X150179179Y-89776284D01*
X150237674Y-89596256D01*
X150241218Y-89562527D01*
X150267802Y-89497915D01*
X150325100Y-89457930D01*
X150394919Y-89455270D01*
X150452219Y-89487809D01*
X152432068Y-91467659D01*
X154382038Y-93417629D01*
X154415523Y-93478952D01*
X154417678Y-93492348D01*
X154425968Y-93571227D01*
X154435326Y-93660256D01*
X154435327Y-93660259D01*
X154493818Y-93840277D01*
X154493821Y-93840284D01*
X154588467Y-94004216D01*
X154715129Y-94144888D01*
X154868265Y-94256148D01*
X154868270Y-94256151D01*
X155041192Y-94333142D01*
X155041197Y-94333144D01*
X155226354Y-94372500D01*
X155226355Y-94372500D01*
X155415644Y-94372500D01*
X155415646Y-94372500D01*
X155600803Y-94333144D01*
X155773730Y-94256151D01*
X155926871Y-94144888D01*
X156053533Y-94004216D01*
X156148179Y-93840284D01*
X156206674Y-93660256D01*
X156226460Y-93472000D01*
X156206674Y-93283744D01*
X156148179Y-93103716D01*
X156053533Y-92939784D01*
X155926871Y-92799112D01*
X155926870Y-92799111D01*
X155773734Y-92687851D01*
X155773729Y-92687848D01*
X155600807Y-92610857D01*
X155600802Y-92610855D01*
X155455001Y-92579865D01*
X155415646Y-92571500D01*
X155415645Y-92571500D01*
X155356453Y-92571500D01*
X155289414Y-92551815D01*
X155268772Y-92535181D01*
X150909520Y-88175929D01*
X150876035Y-88114606D01*
X150873201Y-88088248D01*
X150873201Y-88016285D01*
X150892886Y-87949246D01*
X150928138Y-87916424D01*
X150926931Y-87914812D01*
X150958583Y-87891117D01*
X151049247Y-87823246D01*
X151049249Y-87823243D01*
X151055688Y-87818423D01*
X151121152Y-87794005D01*
X151189425Y-87808856D01*
X151204312Y-87818423D01*
X151210750Y-87823243D01*
X151210753Y-87823246D01*
X151324258Y-87908216D01*
X151325967Y-87909495D01*
X151325970Y-87909497D01*
X151460816Y-87959791D01*
X151460815Y-87959791D01*
X151467743Y-87960535D01*
X151520426Y-87966200D01*
X152504171Y-87966199D01*
X152563782Y-87959791D01*
X152601246Y-87945818D01*
X152644579Y-87938000D01*
X153402753Y-87938000D01*
X153418373Y-87939724D01*
X153418400Y-87939439D01*
X153426156Y-87940171D01*
X153426163Y-87940173D01*
X153495310Y-87938000D01*
X153524846Y-87938000D01*
X153531724Y-87937130D01*
X153537537Y-87936672D01*
X153584123Y-87935209D01*
X153603365Y-87929617D01*
X153622408Y-87925674D01*
X153642288Y-87923164D01*
X153685618Y-87906007D01*
X153691142Y-87904117D01*
X153694892Y-87903027D01*
X153735886Y-87891118D01*
X153753125Y-87880922D01*
X153770599Y-87872362D01*
X153789223Y-87864988D01*
X153789223Y-87864987D01*
X153789228Y-87864986D01*
X153826945Y-87837582D01*
X153831801Y-87834392D01*
X153871916Y-87810670D01*
X153886085Y-87796499D01*
X153900875Y-87783868D01*
X153917083Y-87772094D01*
X153946795Y-87736176D01*
X153950708Y-87731876D01*
X154118651Y-87563933D01*
X154179972Y-87530450D01*
X154249664Y-87535434D01*
X154305597Y-87577306D01*
X154324261Y-87613298D01*
X154366818Y-87744278D01*
X154366821Y-87744284D01*
X154461467Y-87908216D01*
X154576214Y-88035655D01*
X154588129Y-88048888D01*
X154741265Y-88160148D01*
X154741270Y-88160151D01*
X154914192Y-88237142D01*
X154914197Y-88237144D01*
X155099354Y-88276500D01*
X155099355Y-88276500D01*
X155288644Y-88276500D01*
X155288646Y-88276500D01*
X155473803Y-88237144D01*
X155646730Y-88160151D01*
X155799871Y-88048888D01*
X155926533Y-87908216D01*
X156021179Y-87744284D01*
X156079674Y-87564256D01*
X156097321Y-87396345D01*
X156123905Y-87331732D01*
X156132952Y-87321636D01*
X156339786Y-87114802D01*
X156352048Y-87104980D01*
X156351865Y-87104759D01*
X156357870Y-87099789D01*
X156357877Y-87099786D01*
X156376107Y-87080373D01*
X156436348Y-87044978D01*
X156506162Y-87047770D01*
X156563383Y-87087863D01*
X156589845Y-87152528D01*
X156590500Y-87165256D01*
X156590500Y-94744500D01*
X156570815Y-94811539D01*
X156518011Y-94857294D01*
X156466500Y-94868500D01*
X139189500Y-94868500D01*
X139122461Y-94848815D01*
X139076706Y-94796011D01*
X139065500Y-94744500D01*
X139065500Y-78102500D01*
X139085185Y-78035461D01*
X139137989Y-77989706D01*
X139189500Y-77978500D01*
X154136548Y-77978500D01*
X154203587Y-77998185D01*
G37*
%TD.AperFunction*%
%TA.AperFunction,Conductor*%
G36*
X151306133Y-82979971D02*
G01*
X151362066Y-83021843D01*
X151386483Y-83087307D01*
X151386799Y-83096153D01*
X151386799Y-84703715D01*
X151367114Y-84770754D01*
X151331860Y-84803575D01*
X151333068Y-84805188D01*
X151204311Y-84901576D01*
X151138847Y-84925994D01*
X151070574Y-84911143D01*
X151055689Y-84901576D01*
X150926932Y-84805188D01*
X150928423Y-84803195D01*
X150888370Y-84763144D01*
X150873201Y-84703715D01*
X150873201Y-83361751D01*
X150892886Y-83294712D01*
X150909520Y-83274070D01*
X151175118Y-83008472D01*
X151236441Y-82974987D01*
X151306133Y-82979971D01*
G37*
%TD.AperFunction*%
%TD*%
M02*
