%TF.GenerationSoftware,KiCad,Pcbnew,7.0.10*%
%TF.CreationDate,2024-03-07T16:00:11+01:00*%
%TF.ProjectId,IO_LED_Stick,494f5f4c-4544-45f5-9374-69636b2e6b69,1*%
%TF.SameCoordinates,Original*%
%TF.FileFunction,Legend,Bot*%
%TF.FilePolarity,Positive*%
%FSLAX46Y46*%
G04 Gerber Fmt 4.6, Leading zero omitted, Abs format (unit mm)*
G04 Created by KiCad (PCBNEW 7.0.10) date 2024-03-07 16:00:11*
%MOMM*%
%LPD*%
G01*
G04 APERTURE LIST*
%ADD10C,0.150000*%
%ADD11C,0.152400*%
G04 APERTURE END LIST*
D10*
X151584819Y-85669523D02*
X151108628Y-85336190D01*
X151584819Y-85098095D02*
X150584819Y-85098095D01*
X150584819Y-85098095D02*
X150584819Y-85479047D01*
X150584819Y-85479047D02*
X150632438Y-85574285D01*
X150632438Y-85574285D02*
X150680057Y-85621904D01*
X150680057Y-85621904D02*
X150775295Y-85669523D01*
X150775295Y-85669523D02*
X150918152Y-85669523D01*
X150918152Y-85669523D02*
X151013390Y-85621904D01*
X151013390Y-85621904D02*
X151061009Y-85574285D01*
X151061009Y-85574285D02*
X151108628Y-85479047D01*
X151108628Y-85479047D02*
X151108628Y-85098095D01*
X151584819Y-86098095D02*
X150584819Y-86098095D01*
X150584819Y-86098095D02*
X151584819Y-86669523D01*
X151584819Y-86669523D02*
X150584819Y-86669523D01*
X151584819Y-87669523D02*
X151584819Y-87098095D01*
X151584819Y-87383809D02*
X150584819Y-87383809D01*
X150584819Y-87383809D02*
X150727676Y-87288571D01*
X150727676Y-87288571D02*
X150822914Y-87193333D01*
X150822914Y-87193333D02*
X150870533Y-87098095D01*
D11*
%TO.C,RN1*%
X151692140Y-84683600D02*
X152006300Y-84683600D01*
X150567860Y-84683600D02*
X150253700Y-84683600D01*
X151692140Y-88036400D02*
X152006300Y-88036400D01*
X150567860Y-88036400D02*
X150253700Y-88036400D01*
%TD*%
M02*
