%TF.GenerationSoftware,KiCad,Pcbnew,(6.0.10)*%
%TF.CreationDate,2023-01-13T13:11:36+01:00*%
%TF.ProjectId,z80-test-board,7a38302d-7465-4737-942d-626f6172642e,rev?*%
%TF.SameCoordinates,Original*%
%TF.FileFunction,Soldermask,Top*%
%TF.FilePolarity,Negative*%
%FSLAX46Y46*%
G04 Gerber Fmt 4.6, Leading zero omitted, Abs format (unit mm)*
G04 Created by KiCad (PCBNEW (6.0.10)) date 2023-01-13 13:11:36*
%MOMM*%
%LPD*%
G01*
G04 APERTURE LIST*
G04 Aperture macros list*
%AMRoundRect*
0 Rectangle with rounded corners*
0 $1 Rounding radius*
0 $2 $3 $4 $5 $6 $7 $8 $9 X,Y pos of 4 corners*
0 Add a 4 corners polygon primitive as box body*
4,1,4,$2,$3,$4,$5,$6,$7,$8,$9,$2,$3,0*
0 Add four circle primitives for the rounded corners*
1,1,$1+$1,$2,$3*
1,1,$1+$1,$4,$5*
1,1,$1+$1,$6,$7*
1,1,$1+$1,$8,$9*
0 Add four rect primitives between the rounded corners*
20,1,$1+$1,$2,$3,$4,$5,0*
20,1,$1+$1,$4,$5,$6,$7,0*
20,1,$1+$1,$6,$7,$8,$9,0*
20,1,$1+$1,$8,$9,$2,$3,0*%
G04 Aperture macros list end*
%ADD10RoundRect,0.237500X0.237500X-0.250000X0.237500X0.250000X-0.237500X0.250000X-0.237500X-0.250000X0*%
%ADD11RoundRect,0.250000X0.337500X0.475000X-0.337500X0.475000X-0.337500X-0.475000X0.337500X-0.475000X0*%
%ADD12RoundRect,0.237500X0.287500X0.237500X-0.287500X0.237500X-0.287500X-0.237500X0.287500X-0.237500X0*%
%ADD13RoundRect,0.237500X0.250000X0.237500X-0.250000X0.237500X-0.250000X-0.237500X0.250000X-0.237500X0*%
%ADD14RoundRect,0.237500X-0.250000X-0.237500X0.250000X-0.237500X0.250000X0.237500X-0.250000X0.237500X0*%
%ADD15RoundRect,0.237500X-0.237500X0.250000X-0.237500X-0.250000X0.237500X-0.250000X0.237500X0.250000X0*%
%ADD16R,1.600000X1.600000*%
%ADD17O,1.600000X1.600000*%
%ADD18RoundRect,0.250000X-0.337500X-0.475000X0.337500X-0.475000X0.337500X0.475000X-0.337500X0.475000X0*%
%ADD19RoundRect,0.200000X0.200000X0.275000X-0.200000X0.275000X-0.200000X-0.275000X0.200000X-0.275000X0*%
%ADD20RoundRect,0.237500X-0.287500X-0.237500X0.287500X-0.237500X0.287500X0.237500X-0.287500X0.237500X0*%
%ADD21R,1.700000X1.700000*%
%ADD22O,1.700000X1.700000*%
%ADD23RoundRect,0.150000X-0.725000X-0.150000X0.725000X-0.150000X0.725000X0.150000X-0.725000X0.150000X0*%
%ADD24C,1.600000*%
%ADD25RoundRect,0.250000X-0.475000X0.337500X-0.475000X-0.337500X0.475000X-0.337500X0.475000X0.337500X0*%
%ADD26RoundRect,0.150000X-0.825000X-0.150000X0.825000X-0.150000X0.825000X0.150000X-0.825000X0.150000X0*%
G04 APERTURE END LIST*
D10*
%TO.C,R7*%
X133985000Y-110767500D03*
X133985000Y-108942500D03*
%TD*%
D11*
%TO.C,C7*%
X152167500Y-107315000D03*
X150092500Y-107315000D03*
%TD*%
D12*
%TO.C,D15*%
X169785000Y-36195000D03*
X168035000Y-36195000D03*
%TD*%
%TO.C,D23*%
X166610000Y-99060000D03*
X164860000Y-99060000D03*
%TD*%
%TO.C,D21*%
X166610000Y-93980000D03*
X164860000Y-93980000D03*
%TD*%
%TO.C,D5*%
X152005000Y-71120000D03*
X150255000Y-71120000D03*
%TD*%
D13*
%TO.C,R32*%
X170457500Y-99060000D03*
X168632500Y-99060000D03*
%TD*%
%TO.C,R14*%
X155852500Y-71120000D03*
X154027500Y-71120000D03*
%TD*%
D14*
%TO.C,R9*%
X132437500Y-121920000D03*
X134262500Y-121920000D03*
%TD*%
D12*
%TO.C,D20*%
X166610000Y-91440000D03*
X164860000Y-91440000D03*
%TD*%
D15*
%TO.C,R5*%
X161290000Y-97512500D03*
X161290000Y-99337500D03*
%TD*%
D16*
%TO.C,CPU1*%
X132075000Y-52075000D03*
D17*
X132075000Y-54615000D03*
X132075000Y-57155000D03*
X132075000Y-59695000D03*
X132075000Y-62235000D03*
X132075000Y-64775000D03*
X132075000Y-67315000D03*
X132075000Y-69855000D03*
X132075000Y-72395000D03*
X132075000Y-74935000D03*
X132075000Y-77475000D03*
X132075000Y-80015000D03*
X132075000Y-82555000D03*
X132075000Y-85095000D03*
X132075000Y-87635000D03*
X132075000Y-90175000D03*
X132075000Y-92715000D03*
X132075000Y-95255000D03*
X132075000Y-97795000D03*
X132075000Y-100335000D03*
X147315000Y-100335000D03*
X147315000Y-97795000D03*
X147315000Y-95255000D03*
X147315000Y-92715000D03*
X147315000Y-90175000D03*
X147315000Y-87635000D03*
X147315000Y-85095000D03*
X147315000Y-82555000D03*
X147315000Y-80015000D03*
X147315000Y-77475000D03*
X147315000Y-74935000D03*
X147315000Y-72395000D03*
X147315000Y-69855000D03*
X147315000Y-67315000D03*
X147315000Y-64775000D03*
X147315000Y-62235000D03*
X147315000Y-59695000D03*
X147315000Y-57155000D03*
X147315000Y-54615000D03*
X147315000Y-52075000D03*
%TD*%
D13*
%TO.C,R23*%
X173632500Y-38735000D03*
X171807500Y-38735000D03*
%TD*%
D12*
%TO.C,D19*%
X166610000Y-88900000D03*
X164860000Y-88900000D03*
%TD*%
D13*
%TO.C,R19*%
X155852500Y-58420000D03*
X154027500Y-58420000D03*
%TD*%
D12*
%TO.C,D16*%
X169785000Y-33655000D03*
X168035000Y-33655000D03*
%TD*%
%TO.C,D6*%
X152005000Y-68580000D03*
X150255000Y-68580000D03*
%TD*%
%TO.C,D8*%
X152005000Y-63500000D03*
X150255000Y-63500000D03*
%TD*%
%TO.C,D22*%
X166610000Y-96520000D03*
X164860000Y-96520000D03*
%TD*%
D14*
%TO.C,R11*%
X151487500Y-88900000D03*
X153312500Y-88900000D03*
%TD*%
D11*
%TO.C,C5*%
X134387500Y-116840000D03*
X132312500Y-116840000D03*
%TD*%
D13*
%TO.C,R26*%
X173632500Y-31115000D03*
X171807500Y-31115000D03*
%TD*%
D16*
%TO.C,RAM1*%
X162555000Y-52055000D03*
D17*
X162555000Y-54595000D03*
X162555000Y-57135000D03*
X162555000Y-59675000D03*
X162555000Y-62215000D03*
X162555000Y-64755000D03*
X162555000Y-67295000D03*
X162555000Y-69835000D03*
X162555000Y-72375000D03*
X162555000Y-74915000D03*
X162555000Y-77455000D03*
X162555000Y-79995000D03*
X162555000Y-82535000D03*
X162555000Y-85075000D03*
X177795000Y-85075000D03*
X177795000Y-82535000D03*
X177795000Y-79995000D03*
X177795000Y-77455000D03*
X177795000Y-74915000D03*
X177795000Y-72375000D03*
X177795000Y-69835000D03*
X177795000Y-67295000D03*
X177795000Y-64755000D03*
X177795000Y-62215000D03*
X177795000Y-59675000D03*
X177795000Y-57135000D03*
X177795000Y-54595000D03*
X177795000Y-52055000D03*
%TD*%
D12*
%TO.C,D9*%
X152005000Y-60960000D03*
X150255000Y-60960000D03*
%TD*%
D13*
%TO.C,R33*%
X170457500Y-101600000D03*
X168632500Y-101600000D03*
%TD*%
%TO.C,R10*%
X134262500Y-124460000D03*
X132437500Y-124460000D03*
%TD*%
D12*
%TO.C,D18*%
X169785000Y-28575000D03*
X168035000Y-28575000D03*
%TD*%
D13*
%TO.C,R15*%
X155852500Y-68580000D03*
X154027500Y-68580000D03*
%TD*%
D16*
%TO.C,ROM1*%
X101595000Y-52055000D03*
D17*
X101595000Y-54595000D03*
X101595000Y-57135000D03*
X101595000Y-59675000D03*
X101595000Y-62215000D03*
X101595000Y-64755000D03*
X101595000Y-67295000D03*
X101595000Y-69835000D03*
X101595000Y-72375000D03*
X101595000Y-74915000D03*
X101595000Y-77455000D03*
X101595000Y-79995000D03*
X101595000Y-82535000D03*
X101595000Y-85075000D03*
X116835000Y-85075000D03*
X116835000Y-82535000D03*
X116835000Y-79995000D03*
X116835000Y-77455000D03*
X116835000Y-74915000D03*
X116835000Y-72375000D03*
X116835000Y-69835000D03*
X116835000Y-67295000D03*
X116835000Y-64755000D03*
X116835000Y-62215000D03*
X116835000Y-59675000D03*
X116835000Y-57135000D03*
X116835000Y-54595000D03*
X116835000Y-52055000D03*
%TD*%
D12*
%TO.C,D26*%
X166610000Y-106680000D03*
X164860000Y-106680000D03*
%TD*%
D13*
%TO.C,R31*%
X170457500Y-96520000D03*
X168632500Y-96520000D03*
%TD*%
D18*
%TO.C,C4*%
X132312500Y-119380000D03*
X134387500Y-119380000D03*
%TD*%
D19*
%TO.C,R6*%
X139890000Y-108585000D03*
X138240000Y-108585000D03*
%TD*%
D10*
%TO.C,R4*%
X151130000Y-101877500D03*
X151130000Y-100052500D03*
%TD*%
D20*
%TO.C,D1*%
X128665000Y-121920000D03*
X130415000Y-121920000D03*
%TD*%
D13*
%TO.C,R12*%
X155852500Y-76200000D03*
X154027500Y-76200000D03*
%TD*%
D21*
%TO.C,J2*%
X185420000Y-73660000D03*
D22*
X187960000Y-73660000D03*
X190500000Y-73660000D03*
X193040000Y-73660000D03*
X195580000Y-73660000D03*
X198120000Y-73660000D03*
X200660000Y-73660000D03*
X203200000Y-73660000D03*
X205740000Y-73660000D03*
X208280000Y-73660000D03*
X210820000Y-73660000D03*
X213360000Y-73660000D03*
X215900000Y-73660000D03*
X218440000Y-73660000D03*
X220980000Y-73660000D03*
X223520000Y-73660000D03*
%TD*%
D21*
%TO.C,J1*%
X185420000Y-66040000D03*
D22*
X187960000Y-66040000D03*
X190500000Y-66040000D03*
X193040000Y-66040000D03*
X195580000Y-66040000D03*
X198120000Y-66040000D03*
X200660000Y-66040000D03*
X203200000Y-66040000D03*
X205740000Y-66040000D03*
X208280000Y-66040000D03*
X210820000Y-66040000D03*
X213360000Y-66040000D03*
X215900000Y-66040000D03*
X218440000Y-66040000D03*
X220980000Y-66040000D03*
X223520000Y-66040000D03*
%TD*%
D13*
%TO.C,R18*%
X155852500Y-60960000D03*
X154027500Y-60960000D03*
%TD*%
%TO.C,R16*%
X155852500Y-66040000D03*
X154027500Y-66040000D03*
%TD*%
D12*
%TO.C,D11*%
X169785000Y-46355000D03*
X168035000Y-46355000D03*
%TD*%
D13*
%TO.C,R21*%
X173632500Y-43815000D03*
X171807500Y-43815000D03*
%TD*%
D15*
%TO.C,R1*%
X148590000Y-124817500D03*
X148590000Y-126642500D03*
%TD*%
D16*
%TO.C,CLK1*%
X137805000Y-111755000D03*
D17*
X137805000Y-114295000D03*
X137805000Y-116835000D03*
X137805000Y-119375000D03*
X137805000Y-121915000D03*
X137805000Y-124455000D03*
X137805000Y-126995000D03*
X145425000Y-126995000D03*
X145425000Y-124455000D03*
X145425000Y-121915000D03*
X145425000Y-119375000D03*
X145425000Y-116835000D03*
X145425000Y-114295000D03*
X145425000Y-111755000D03*
%TD*%
D13*
%TO.C,R28*%
X170457500Y-88900000D03*
X168632500Y-88900000D03*
%TD*%
%TO.C,R34*%
X170457500Y-104140000D03*
X168632500Y-104140000D03*
%TD*%
D12*
%TO.C,D10*%
X152005000Y-58420000D03*
X150255000Y-58420000D03*
%TD*%
D13*
%TO.C,R20*%
X173632500Y-46355000D03*
X171807500Y-46355000D03*
%TD*%
D12*
%TO.C,D25*%
X166610000Y-104140000D03*
X164860000Y-104140000D03*
%TD*%
D13*
%TO.C,R24*%
X173632500Y-36195000D03*
X171807500Y-36195000D03*
%TD*%
D12*
%TO.C,D14*%
X169785000Y-38735000D03*
X168035000Y-38735000D03*
%TD*%
%TO.C,D13*%
X169785000Y-41275000D03*
X168035000Y-41275000D03*
%TD*%
D20*
%TO.C,D2*%
X128665000Y-124460000D03*
X130415000Y-124460000D03*
%TD*%
D11*
%TO.C,C2*%
X172487500Y-120650000D03*
X170412500Y-120650000D03*
%TD*%
D13*
%TO.C,R13*%
X155852500Y-73660000D03*
X154027500Y-73660000D03*
%TD*%
D14*
%TO.C,R2*%
X154027500Y-104775000D03*
X155852500Y-104775000D03*
%TD*%
D23*
%TO.C,U2*%
X88865000Y-51435000D03*
X88865000Y-52705000D03*
X88865000Y-53975000D03*
X88865000Y-55245000D03*
X88865000Y-56515000D03*
X88865000Y-57785000D03*
X88865000Y-59055000D03*
X88865000Y-60325000D03*
X94015000Y-60325000D03*
X94015000Y-59055000D03*
X94015000Y-57785000D03*
X94015000Y-56515000D03*
X94015000Y-55245000D03*
X94015000Y-53975000D03*
X94015000Y-52705000D03*
X94015000Y-51435000D03*
%TD*%
D14*
%TO.C,R8*%
X147042500Y-105410000D03*
X148867500Y-105410000D03*
%TD*%
D16*
%TO.C,A1*%
X101595000Y-92705000D03*
D17*
X101595000Y-95245000D03*
X101595000Y-97785000D03*
X101595000Y-100325000D03*
X101595000Y-102865000D03*
X101595000Y-105405000D03*
X101595000Y-107945000D03*
X101595000Y-110485000D03*
X101595000Y-113025000D03*
X101595000Y-115565000D03*
X101595000Y-118105000D03*
X101595000Y-120645000D03*
X116835000Y-120645000D03*
X116835000Y-118105000D03*
X116835000Y-115565000D03*
X116835000Y-113025000D03*
X116835000Y-110485000D03*
X116835000Y-107945000D03*
X116835000Y-105405000D03*
X116835000Y-102865000D03*
X116835000Y-100325000D03*
X116835000Y-97785000D03*
X116835000Y-95245000D03*
X116835000Y-92705000D03*
%TD*%
D12*
%TO.C,D4*%
X152005000Y-73660000D03*
X150255000Y-73660000D03*
%TD*%
D13*
%TO.C,R22*%
X173632500Y-41275000D03*
X171807500Y-41275000D03*
%TD*%
%TO.C,R27*%
X173632500Y-28575000D03*
X171807500Y-28575000D03*
%TD*%
%TO.C,R17*%
X155852500Y-63500000D03*
X154027500Y-63500000D03*
%TD*%
%TO.C,R35*%
X170457500Y-106680000D03*
X168632500Y-106680000D03*
%TD*%
D11*
%TO.C,C3*%
X145817500Y-107315000D03*
X143742500Y-107315000D03*
%TD*%
D23*
%TO.C,U3*%
X88865000Y-66675000D03*
X88865000Y-67945000D03*
X88865000Y-69215000D03*
X88865000Y-70485000D03*
X88865000Y-71755000D03*
X88865000Y-73025000D03*
X88865000Y-74295000D03*
X88865000Y-75565000D03*
X94015000Y-75565000D03*
X94015000Y-74295000D03*
X94015000Y-73025000D03*
X94015000Y-71755000D03*
X94015000Y-70485000D03*
X94015000Y-69215000D03*
X94015000Y-67945000D03*
X94015000Y-66675000D03*
%TD*%
D13*
%TO.C,R29*%
X170457500Y-91440000D03*
X168632500Y-91440000D03*
%TD*%
D16*
%TO.C,X8.000Mhz1*%
X166370000Y-113030000D03*
D24*
X151130000Y-113030000D03*
X151130000Y-120650000D03*
X166370000Y-120650000D03*
%TD*%
D11*
%TO.C,C1*%
X134387500Y-114300000D03*
X132312500Y-114300000D03*
%TD*%
D12*
%TO.C,D17*%
X169785000Y-31115000D03*
X168035000Y-31115000D03*
%TD*%
%TO.C,D7*%
X152005000Y-66040000D03*
X150255000Y-66040000D03*
%TD*%
D25*
%TO.C,C6*%
X151765000Y-124692500D03*
X151765000Y-126767500D03*
%TD*%
D13*
%TO.C,R25*%
X173632500Y-33655000D03*
X171807500Y-33655000D03*
%TD*%
D12*
%TO.C,D12*%
X169785000Y-43815000D03*
X168035000Y-43815000D03*
%TD*%
D26*
%TO.C,U1*%
X153735000Y-93345000D03*
X153735000Y-94615000D03*
X153735000Y-95885000D03*
X153735000Y-97155000D03*
X153735000Y-98425000D03*
X153735000Y-99695000D03*
X153735000Y-100965000D03*
X158685000Y-100965000D03*
X158685000Y-99695000D03*
X158685000Y-98425000D03*
X158685000Y-97155000D03*
X158685000Y-95885000D03*
X158685000Y-94615000D03*
X158685000Y-93345000D03*
%TD*%
D13*
%TO.C,R30*%
X170457500Y-93980000D03*
X168632500Y-93980000D03*
%TD*%
D12*
%TO.C,D3*%
X152005000Y-76200000D03*
X150255000Y-76200000D03*
%TD*%
%TO.C,D24*%
X166610000Y-101600000D03*
X164860000Y-101600000D03*
%TD*%
D10*
%TO.C,R3*%
X151130000Y-96797500D03*
X151130000Y-94972500D03*
%TD*%
M02*
