%TF.GenerationSoftware,KiCad,Pcbnew,(6.0.10)*%
%TF.CreationDate,2023-01-13T13:11:36+01:00*%
%TF.ProjectId,z80-test-board,7a38302d-7465-4737-942d-626f6172642e,rev?*%
%TF.SameCoordinates,Original*%
%TF.FileFunction,Profile,NP*%
%FSLAX46Y46*%
G04 Gerber Fmt 4.6, Leading zero omitted, Abs format (unit mm)*
G04 Created by KiCad (PCBNEW (6.0.10)) date 2023-01-13 13:11:36*
%MOMM*%
%LPD*%
G01*
G04 APERTURE LIST*
%ADD10C,0.150000*%
%TA.AperFunction,Profile*%
%ADD11C,0.100000*%
%TD*%
G04 APERTURE END LIST*
D10*
X223329523Y-63952380D02*
X222758095Y-63952380D01*
X223043809Y-63952380D02*
X223043809Y-62952380D01*
X222948571Y-63095238D01*
X222853333Y-63190476D01*
X222758095Y-63238095D01*
X224186666Y-63285714D02*
X224186666Y-63952380D01*
X223948571Y-62904761D02*
X223710476Y-63619047D01*
X224329523Y-63619047D01*
X187912380Y-62952380D02*
X188007619Y-62952380D01*
X188102857Y-63000000D01*
X188150476Y-63047619D01*
X188198095Y-63142857D01*
X188245714Y-63333333D01*
X188245714Y-63571428D01*
X188198095Y-63761904D01*
X188150476Y-63857142D01*
X188102857Y-63904761D01*
X188007619Y-63952380D01*
X187912380Y-63952380D01*
X187817142Y-63904761D01*
X187769523Y-63857142D01*
X187721904Y-63761904D01*
X187674285Y-63571428D01*
X187674285Y-63333333D01*
X187721904Y-63142857D01*
X187769523Y-63047619D01*
X187817142Y-63000000D01*
X187912380Y-62952380D01*
X185086666Y-75652380D02*
X185753333Y-75652380D01*
X185324761Y-76652380D01*
X203152380Y-75652380D02*
X203247619Y-75652380D01*
X203342857Y-75700000D01*
X203390476Y-75747619D01*
X203438095Y-75842857D01*
X203485714Y-76033333D01*
X203485714Y-76271428D01*
X203438095Y-76461904D01*
X203390476Y-76557142D01*
X203342857Y-76604761D01*
X203247619Y-76652380D01*
X203152380Y-76652380D01*
X203057142Y-76604761D01*
X203009523Y-76557142D01*
X202961904Y-76461904D01*
X202914285Y-76271428D01*
X202914285Y-76033333D01*
X202961904Y-75842857D01*
X203009523Y-75747619D01*
X203057142Y-75700000D01*
X203152380Y-75652380D01*
D11*
X182880000Y-55880000D02*
X231140000Y-55880000D01*
X231140000Y-83820000D01*
X182880000Y-83820000D01*
X182880000Y-132080000D01*
X81280000Y-132080000D01*
X81280000Y-22860000D01*
X182880000Y-22860000D01*
X182880000Y-55880000D01*
M02*
