%TF.GenerationSoftware,KiCad,Pcbnew,(6.0.10)*%
%TF.CreationDate,2023-01-13T13:11:36+01:00*%
%TF.ProjectId,z80-test-board,7a38302d-7465-4737-942d-626f6172642e,rev?*%
%TF.SameCoordinates,Original*%
%TF.FileFunction,Soldermask,Bot*%
%TF.FilePolarity,Negative*%
%FSLAX46Y46*%
G04 Gerber Fmt 4.6, Leading zero omitted, Abs format (unit mm)*
G04 Created by KiCad (PCBNEW (6.0.10)) date 2023-01-13 13:11:36*
%MOMM*%
%LPD*%
G01*
G04 APERTURE LIST*
%ADD10R,1.600000X1.600000*%
%ADD11O,1.600000X1.600000*%
%ADD12R,1.700000X1.700000*%
%ADD13O,1.700000X1.700000*%
%ADD14C,1.600000*%
G04 APERTURE END LIST*
D10*
%TO.C,CPU1*%
X132075000Y-52075000D03*
D11*
X132075000Y-54615000D03*
X132075000Y-57155000D03*
X132075000Y-59695000D03*
X132075000Y-62235000D03*
X132075000Y-64775000D03*
X132075000Y-67315000D03*
X132075000Y-69855000D03*
X132075000Y-72395000D03*
X132075000Y-74935000D03*
X132075000Y-77475000D03*
X132075000Y-80015000D03*
X132075000Y-82555000D03*
X132075000Y-85095000D03*
X132075000Y-87635000D03*
X132075000Y-90175000D03*
X132075000Y-92715000D03*
X132075000Y-95255000D03*
X132075000Y-97795000D03*
X132075000Y-100335000D03*
X147315000Y-100335000D03*
X147315000Y-97795000D03*
X147315000Y-95255000D03*
X147315000Y-92715000D03*
X147315000Y-90175000D03*
X147315000Y-87635000D03*
X147315000Y-85095000D03*
X147315000Y-82555000D03*
X147315000Y-80015000D03*
X147315000Y-77475000D03*
X147315000Y-74935000D03*
X147315000Y-72395000D03*
X147315000Y-69855000D03*
X147315000Y-67315000D03*
X147315000Y-64775000D03*
X147315000Y-62235000D03*
X147315000Y-59695000D03*
X147315000Y-57155000D03*
X147315000Y-54615000D03*
X147315000Y-52075000D03*
%TD*%
D10*
%TO.C,RAM1*%
X162555000Y-52055000D03*
D11*
X162555000Y-54595000D03*
X162555000Y-57135000D03*
X162555000Y-59675000D03*
X162555000Y-62215000D03*
X162555000Y-64755000D03*
X162555000Y-67295000D03*
X162555000Y-69835000D03*
X162555000Y-72375000D03*
X162555000Y-74915000D03*
X162555000Y-77455000D03*
X162555000Y-79995000D03*
X162555000Y-82535000D03*
X162555000Y-85075000D03*
X177795000Y-85075000D03*
X177795000Y-82535000D03*
X177795000Y-79995000D03*
X177795000Y-77455000D03*
X177795000Y-74915000D03*
X177795000Y-72375000D03*
X177795000Y-69835000D03*
X177795000Y-67295000D03*
X177795000Y-64755000D03*
X177795000Y-62215000D03*
X177795000Y-59675000D03*
X177795000Y-57135000D03*
X177795000Y-54595000D03*
X177795000Y-52055000D03*
%TD*%
D10*
%TO.C,ROM1*%
X101595000Y-52055000D03*
D11*
X101595000Y-54595000D03*
X101595000Y-57135000D03*
X101595000Y-59675000D03*
X101595000Y-62215000D03*
X101595000Y-64755000D03*
X101595000Y-67295000D03*
X101595000Y-69835000D03*
X101595000Y-72375000D03*
X101595000Y-74915000D03*
X101595000Y-77455000D03*
X101595000Y-79995000D03*
X101595000Y-82535000D03*
X101595000Y-85075000D03*
X116835000Y-85075000D03*
X116835000Y-82535000D03*
X116835000Y-79995000D03*
X116835000Y-77455000D03*
X116835000Y-74915000D03*
X116835000Y-72375000D03*
X116835000Y-69835000D03*
X116835000Y-67295000D03*
X116835000Y-64755000D03*
X116835000Y-62215000D03*
X116835000Y-59675000D03*
X116835000Y-57135000D03*
X116835000Y-54595000D03*
X116835000Y-52055000D03*
%TD*%
D12*
%TO.C,J2*%
X185420000Y-73660000D03*
D13*
X187960000Y-73660000D03*
X190500000Y-73660000D03*
X193040000Y-73660000D03*
X195580000Y-73660000D03*
X198120000Y-73660000D03*
X200660000Y-73660000D03*
X203200000Y-73660000D03*
X205740000Y-73660000D03*
X208280000Y-73660000D03*
X210820000Y-73660000D03*
X213360000Y-73660000D03*
X215900000Y-73660000D03*
X218440000Y-73660000D03*
X220980000Y-73660000D03*
X223520000Y-73660000D03*
%TD*%
D12*
%TO.C,J1*%
X185420000Y-66040000D03*
D13*
X187960000Y-66040000D03*
X190500000Y-66040000D03*
X193040000Y-66040000D03*
X195580000Y-66040000D03*
X198120000Y-66040000D03*
X200660000Y-66040000D03*
X203200000Y-66040000D03*
X205740000Y-66040000D03*
X208280000Y-66040000D03*
X210820000Y-66040000D03*
X213360000Y-66040000D03*
X215900000Y-66040000D03*
X218440000Y-66040000D03*
X220980000Y-66040000D03*
X223520000Y-66040000D03*
%TD*%
D10*
%TO.C,CLK1*%
X137805000Y-111755000D03*
D11*
X137805000Y-114295000D03*
X137805000Y-116835000D03*
X137805000Y-119375000D03*
X137805000Y-121915000D03*
X137805000Y-124455000D03*
X137805000Y-126995000D03*
X145425000Y-126995000D03*
X145425000Y-124455000D03*
X145425000Y-121915000D03*
X145425000Y-119375000D03*
X145425000Y-116835000D03*
X145425000Y-114295000D03*
X145425000Y-111755000D03*
%TD*%
D10*
%TO.C,A1*%
X101595000Y-92705000D03*
D11*
X101595000Y-95245000D03*
X101595000Y-97785000D03*
X101595000Y-100325000D03*
X101595000Y-102865000D03*
X101595000Y-105405000D03*
X101595000Y-107945000D03*
X101595000Y-110485000D03*
X101595000Y-113025000D03*
X101595000Y-115565000D03*
X101595000Y-118105000D03*
X101595000Y-120645000D03*
X116835000Y-120645000D03*
X116835000Y-118105000D03*
X116835000Y-115565000D03*
X116835000Y-113025000D03*
X116835000Y-110485000D03*
X116835000Y-107945000D03*
X116835000Y-105405000D03*
X116835000Y-102865000D03*
X116835000Y-100325000D03*
X116835000Y-97785000D03*
X116835000Y-95245000D03*
X116835000Y-92705000D03*
%TD*%
D10*
%TO.C,X8.000Mhz1*%
X166370000Y-113030000D03*
D14*
X151130000Y-113030000D03*
X151130000Y-120650000D03*
X166370000Y-120650000D03*
%TD*%
M02*
