%TF.GenerationSoftware,KiCad,Pcbnew,7.0.9*%
%TF.CreationDate,2023-11-20T12:28:54+01:00*%
%TF.ProjectId,perfboardCard,70657266-626f-4617-9264-436172642e6b,rev?*%
%TF.SameCoordinates,Original*%
%TF.FileFunction,Soldermask,Top*%
%TF.FilePolarity,Negative*%
%FSLAX46Y46*%
G04 Gerber Fmt 4.6, Leading zero omitted, Abs format (unit mm)*
G04 Created by KiCad (PCBNEW 7.0.9) date 2023-11-20 12:28:54*
%MOMM*%
%LPD*%
G01*
G04 APERTURE LIST*
%ADD10O,1.700000X1.700000*%
%ADD11C,1.700000*%
%ADD12R,0.550000X2.800000*%
G04 APERTURE END LIST*
D10*
%TO.C,J2*%
X127796000Y-94996000D03*
X127796000Y-97536000D03*
X125256000Y-94996000D03*
X125256000Y-97536000D03*
X122716000Y-94996000D03*
X122716000Y-97536000D03*
X120176000Y-94996000D03*
X120176000Y-97536000D03*
X117636000Y-94996000D03*
X117636000Y-97536000D03*
X115096000Y-94996000D03*
X115096000Y-97536000D03*
X112556000Y-94996000D03*
X112556000Y-97536000D03*
X110016000Y-94996000D03*
X110016000Y-97536000D03*
X107476000Y-94996000D03*
X107476000Y-97536000D03*
X104936000Y-94996000D03*
X104936000Y-97536000D03*
X102396000Y-94996000D03*
X102396000Y-97536000D03*
X99856000Y-94996000D03*
X99856000Y-97536000D03*
X97316000Y-94996000D03*
X97316000Y-97536000D03*
X94776000Y-94996000D03*
X94776000Y-97536000D03*
X92236000Y-94996000D03*
X92236000Y-97536000D03*
X89696000Y-94996000D03*
X89696000Y-97536000D03*
X87156000Y-94996000D03*
X87156000Y-97536000D03*
X84616000Y-94996000D03*
X84616000Y-97536000D03*
X82076000Y-94996000D03*
D11*
X82076000Y-97536000D03*
%TD*%
D12*
%TO.C,J1*%
X97297000Y-105918000D03*
X98097000Y-105918000D03*
X98897000Y-105918000D03*
X99697000Y-105918000D03*
X100497000Y-105918000D03*
X101297000Y-105918000D03*
X102097000Y-105918000D03*
X102897000Y-105918000D03*
X103697000Y-105918000D03*
X104497000Y-105918000D03*
X105312000Y-105918000D03*
X106112000Y-105918000D03*
X106912000Y-105918000D03*
X107712000Y-105918000D03*
X108512000Y-105918000D03*
X109312000Y-105918000D03*
X110112000Y-105918000D03*
X110912000Y-105918000D03*
X111712000Y-105918000D03*
X112512000Y-105918000D03*
%TD*%
M02*
