%TF.GenerationSoftware,KiCad,Pcbnew,7.0.9*%
%TF.CreationDate,2023-11-20T12:28:54+01:00*%
%TF.ProjectId,perfboardCard,70657266-626f-4617-9264-436172642e6b,rev?*%
%TF.SameCoordinates,Original*%
%TF.FileFunction,Legend,Top*%
%TF.FilePolarity,Positive*%
%FSLAX46Y46*%
G04 Gerber Fmt 4.6, Leading zero omitted, Abs format (unit mm)*
G04 Created by KiCad (PCBNEW 7.0.9) date 2023-11-20 12:28:54*
%MOMM*%
%LPD*%
G01*
G04 APERTURE LIST*
%ADD10C,0.200000*%
%ADD11C,0.250000*%
G04 APERTURE END LIST*
D10*
X127295838Y-92754898D02*
X127248219Y-92831088D01*
X127248219Y-92831088D02*
X127248219Y-92945374D01*
X127248219Y-92945374D02*
X127295838Y-93059660D01*
X127295838Y-93059660D02*
X127391076Y-93135850D01*
X127391076Y-93135850D02*
X127486314Y-93173945D01*
X127486314Y-93173945D02*
X127676790Y-93212041D01*
X127676790Y-93212041D02*
X127819647Y-93212041D01*
X127819647Y-93212041D02*
X128010123Y-93173945D01*
X128010123Y-93173945D02*
X128105361Y-93135850D01*
X128105361Y-93135850D02*
X128200600Y-93059660D01*
X128200600Y-93059660D02*
X128248219Y-92945374D01*
X128248219Y-92945374D02*
X128248219Y-92869183D01*
X128248219Y-92869183D02*
X128200600Y-92754898D01*
X128200600Y-92754898D02*
X128152980Y-92716802D01*
X128152980Y-92716802D02*
X127819647Y-92716802D01*
X127819647Y-92716802D02*
X127819647Y-92869183D01*
X128248219Y-92373945D02*
X127248219Y-92373945D01*
X127248219Y-92373945D02*
X128248219Y-91916802D01*
X128248219Y-91916802D02*
X127248219Y-91916802D01*
X128248219Y-91535850D02*
X127248219Y-91535850D01*
X127248219Y-91535850D02*
X127248219Y-91345374D01*
X127248219Y-91345374D02*
X127295838Y-91231088D01*
X127295838Y-91231088D02*
X127391076Y-91154898D01*
X127391076Y-91154898D02*
X127486314Y-91116803D01*
X127486314Y-91116803D02*
X127676790Y-91078707D01*
X127676790Y-91078707D02*
X127819647Y-91078707D01*
X127819647Y-91078707D02*
X128010123Y-91116803D01*
X128010123Y-91116803D02*
X128105361Y-91154898D01*
X128105361Y-91154898D02*
X128200600Y-91231088D01*
X128200600Y-91231088D02*
X128248219Y-91345374D01*
X128248219Y-91345374D02*
X128248219Y-91535850D01*
X125612980Y-92716802D02*
X125660600Y-92754898D01*
X125660600Y-92754898D02*
X125708219Y-92869183D01*
X125708219Y-92869183D02*
X125708219Y-92945374D01*
X125708219Y-92945374D02*
X125660600Y-93059660D01*
X125660600Y-93059660D02*
X125565361Y-93135850D01*
X125565361Y-93135850D02*
X125470123Y-93173945D01*
X125470123Y-93173945D02*
X125279647Y-93212041D01*
X125279647Y-93212041D02*
X125136790Y-93212041D01*
X125136790Y-93212041D02*
X124946314Y-93173945D01*
X124946314Y-93173945D02*
X124851076Y-93135850D01*
X124851076Y-93135850D02*
X124755838Y-93059660D01*
X124755838Y-93059660D02*
X124708219Y-92945374D01*
X124708219Y-92945374D02*
X124708219Y-92869183D01*
X124708219Y-92869183D02*
X124755838Y-92754898D01*
X124755838Y-92754898D02*
X124803457Y-92716802D01*
X125660600Y-92412041D02*
X125708219Y-92297755D01*
X125708219Y-92297755D02*
X125708219Y-92107279D01*
X125708219Y-92107279D02*
X125660600Y-92031088D01*
X125660600Y-92031088D02*
X125612980Y-91992993D01*
X125612980Y-91992993D02*
X125517742Y-91954898D01*
X125517742Y-91954898D02*
X125422504Y-91954898D01*
X125422504Y-91954898D02*
X125327266Y-91992993D01*
X125327266Y-91992993D02*
X125279647Y-92031088D01*
X125279647Y-92031088D02*
X125232028Y-92107279D01*
X125232028Y-92107279D02*
X125184409Y-92259660D01*
X125184409Y-92259660D02*
X125136790Y-92335850D01*
X125136790Y-92335850D02*
X125089171Y-92373945D01*
X125089171Y-92373945D02*
X124993933Y-92412041D01*
X124993933Y-92412041D02*
X124898695Y-92412041D01*
X124898695Y-92412041D02*
X124803457Y-92373945D01*
X124803457Y-92373945D02*
X124755838Y-92335850D01*
X124755838Y-92335850D02*
X124708219Y-92259660D01*
X124708219Y-92259660D02*
X124708219Y-92069183D01*
X124708219Y-92069183D02*
X124755838Y-91954898D01*
X124708219Y-91688231D02*
X124708219Y-91192993D01*
X124708219Y-91192993D02*
X125089171Y-91459659D01*
X125089171Y-91459659D02*
X125089171Y-91345374D01*
X125089171Y-91345374D02*
X125136790Y-91269183D01*
X125136790Y-91269183D02*
X125184409Y-91231088D01*
X125184409Y-91231088D02*
X125279647Y-91192993D01*
X125279647Y-91192993D02*
X125517742Y-91192993D01*
X125517742Y-91192993D02*
X125612980Y-91231088D01*
X125612980Y-91231088D02*
X125660600Y-91269183D01*
X125660600Y-91269183D02*
X125708219Y-91345374D01*
X125708219Y-91345374D02*
X125708219Y-91573945D01*
X125708219Y-91573945D02*
X125660600Y-91650136D01*
X125660600Y-91650136D02*
X125612980Y-91688231D01*
D11*
X123070380Y-92522003D02*
X123118000Y-92569622D01*
X123118000Y-92569622D02*
X123165619Y-92712479D01*
X123165619Y-92712479D02*
X123165619Y-92807717D01*
X123165619Y-92807717D02*
X123118000Y-92950574D01*
X123118000Y-92950574D02*
X123022761Y-93045812D01*
X123022761Y-93045812D02*
X122927523Y-93093431D01*
X122927523Y-93093431D02*
X122737047Y-93141050D01*
X122737047Y-93141050D02*
X122594190Y-93141050D01*
X122594190Y-93141050D02*
X122403714Y-93093431D01*
X122403714Y-93093431D02*
X122308476Y-93045812D01*
X122308476Y-93045812D02*
X122213238Y-92950574D01*
X122213238Y-92950574D02*
X122165619Y-92807717D01*
X122165619Y-92807717D02*
X122165619Y-92712479D01*
X122165619Y-92712479D02*
X122213238Y-92569622D01*
X122213238Y-92569622D02*
X122260857Y-92522003D01*
X123118000Y-92141050D02*
X123165619Y-91998193D01*
X123165619Y-91998193D02*
X123165619Y-91760098D01*
X123165619Y-91760098D02*
X123118000Y-91664860D01*
X123118000Y-91664860D02*
X123070380Y-91617241D01*
X123070380Y-91617241D02*
X122975142Y-91569622D01*
X122975142Y-91569622D02*
X122879904Y-91569622D01*
X122879904Y-91569622D02*
X122784666Y-91617241D01*
X122784666Y-91617241D02*
X122737047Y-91664860D01*
X122737047Y-91664860D02*
X122689428Y-91760098D01*
X122689428Y-91760098D02*
X122641809Y-91950574D01*
X122641809Y-91950574D02*
X122594190Y-92045812D01*
X122594190Y-92045812D02*
X122546571Y-92093431D01*
X122546571Y-92093431D02*
X122451333Y-92141050D01*
X122451333Y-92141050D02*
X122356095Y-92141050D01*
X122356095Y-92141050D02*
X122260857Y-92093431D01*
X122260857Y-92093431D02*
X122213238Y-92045812D01*
X122213238Y-92045812D02*
X122165619Y-91950574D01*
X122165619Y-91950574D02*
X122165619Y-91712479D01*
X122165619Y-91712479D02*
X122213238Y-91569622D01*
X120339904Y-93141050D02*
X120339904Y-92664860D01*
X120625619Y-93236288D02*
X119625619Y-92902955D01*
X119625619Y-92902955D02*
X120625619Y-92569622D01*
X119625619Y-92045812D02*
X119625619Y-91950574D01*
X119625619Y-91950574D02*
X119673238Y-91855336D01*
X119673238Y-91855336D02*
X119720857Y-91807717D01*
X119720857Y-91807717D02*
X119816095Y-91760098D01*
X119816095Y-91760098D02*
X120006571Y-91712479D01*
X120006571Y-91712479D02*
X120244666Y-91712479D01*
X120244666Y-91712479D02*
X120435142Y-91760098D01*
X120435142Y-91760098D02*
X120530380Y-91807717D01*
X120530380Y-91807717D02*
X120578000Y-91855336D01*
X120578000Y-91855336D02*
X120625619Y-91950574D01*
X120625619Y-91950574D02*
X120625619Y-92045812D01*
X120625619Y-92045812D02*
X120578000Y-92141050D01*
X120578000Y-92141050D02*
X120530380Y-92188669D01*
X120530380Y-92188669D02*
X120435142Y-92236288D01*
X120435142Y-92236288D02*
X120244666Y-92283907D01*
X120244666Y-92283907D02*
X120006571Y-92283907D01*
X120006571Y-92283907D02*
X119816095Y-92236288D01*
X119816095Y-92236288D02*
X119720857Y-92188669D01*
X119720857Y-92188669D02*
X119673238Y-92141050D01*
X119673238Y-92141050D02*
X119625619Y-92045812D01*
X117799904Y-93141050D02*
X117799904Y-92664860D01*
X118085619Y-93236288D02*
X117085619Y-92902955D01*
X117085619Y-92902955D02*
X118085619Y-92569622D01*
X118085619Y-91712479D02*
X118085619Y-92283907D01*
X118085619Y-91998193D02*
X117085619Y-91998193D01*
X117085619Y-91998193D02*
X117228476Y-92093431D01*
X117228476Y-92093431D02*
X117323714Y-92188669D01*
X117323714Y-92188669D02*
X117371333Y-92283907D01*
X115259904Y-93141050D02*
X115259904Y-92664860D01*
X115545619Y-93236288D02*
X114545619Y-92902955D01*
X114545619Y-92902955D02*
X115545619Y-92569622D01*
X114640857Y-92283907D02*
X114593238Y-92236288D01*
X114593238Y-92236288D02*
X114545619Y-92141050D01*
X114545619Y-92141050D02*
X114545619Y-91902955D01*
X114545619Y-91902955D02*
X114593238Y-91807717D01*
X114593238Y-91807717D02*
X114640857Y-91760098D01*
X114640857Y-91760098D02*
X114736095Y-91712479D01*
X114736095Y-91712479D02*
X114831333Y-91712479D01*
X114831333Y-91712479D02*
X114974190Y-91760098D01*
X114974190Y-91760098D02*
X115545619Y-92331526D01*
X115545619Y-92331526D02*
X115545619Y-91712479D01*
X112719904Y-93141050D02*
X112719904Y-92664860D01*
X113005619Y-93236288D02*
X112005619Y-92902955D01*
X112005619Y-92902955D02*
X113005619Y-92569622D01*
X112005619Y-92331526D02*
X112005619Y-91712479D01*
X112005619Y-91712479D02*
X112386571Y-92045812D01*
X112386571Y-92045812D02*
X112386571Y-91902955D01*
X112386571Y-91902955D02*
X112434190Y-91807717D01*
X112434190Y-91807717D02*
X112481809Y-91760098D01*
X112481809Y-91760098D02*
X112577047Y-91712479D01*
X112577047Y-91712479D02*
X112815142Y-91712479D01*
X112815142Y-91712479D02*
X112910380Y-91760098D01*
X112910380Y-91760098D02*
X112958000Y-91807717D01*
X112958000Y-91807717D02*
X113005619Y-91902955D01*
X113005619Y-91902955D02*
X113005619Y-92188669D01*
X113005619Y-92188669D02*
X112958000Y-92283907D01*
X112958000Y-92283907D02*
X112910380Y-92331526D01*
X110179904Y-93141050D02*
X110179904Y-92664860D01*
X110465619Y-93236288D02*
X109465619Y-92902955D01*
X109465619Y-92902955D02*
X110465619Y-92569622D01*
X109798952Y-91807717D02*
X110465619Y-91807717D01*
X109418000Y-92045812D02*
X110132285Y-92283907D01*
X110132285Y-92283907D02*
X110132285Y-91664860D01*
X107639904Y-93141050D02*
X107639904Y-92664860D01*
X107925619Y-93236288D02*
X106925619Y-92902955D01*
X106925619Y-92902955D02*
X107925619Y-92569622D01*
X106925619Y-91760098D02*
X106925619Y-92236288D01*
X106925619Y-92236288D02*
X107401809Y-92283907D01*
X107401809Y-92283907D02*
X107354190Y-92236288D01*
X107354190Y-92236288D02*
X107306571Y-92141050D01*
X107306571Y-92141050D02*
X107306571Y-91902955D01*
X107306571Y-91902955D02*
X107354190Y-91807717D01*
X107354190Y-91807717D02*
X107401809Y-91760098D01*
X107401809Y-91760098D02*
X107497047Y-91712479D01*
X107497047Y-91712479D02*
X107735142Y-91712479D01*
X107735142Y-91712479D02*
X107830380Y-91760098D01*
X107830380Y-91760098D02*
X107878000Y-91807717D01*
X107878000Y-91807717D02*
X107925619Y-91902955D01*
X107925619Y-91902955D02*
X107925619Y-92141050D01*
X107925619Y-92141050D02*
X107878000Y-92236288D01*
X107878000Y-92236288D02*
X107830380Y-92283907D01*
X105099904Y-93141050D02*
X105099904Y-92664860D01*
X105385619Y-93236288D02*
X104385619Y-92902955D01*
X104385619Y-92902955D02*
X105385619Y-92569622D01*
X104385619Y-91807717D02*
X104385619Y-91998193D01*
X104385619Y-91998193D02*
X104433238Y-92093431D01*
X104433238Y-92093431D02*
X104480857Y-92141050D01*
X104480857Y-92141050D02*
X104623714Y-92236288D01*
X104623714Y-92236288D02*
X104814190Y-92283907D01*
X104814190Y-92283907D02*
X105195142Y-92283907D01*
X105195142Y-92283907D02*
X105290380Y-92236288D01*
X105290380Y-92236288D02*
X105338000Y-92188669D01*
X105338000Y-92188669D02*
X105385619Y-92093431D01*
X105385619Y-92093431D02*
X105385619Y-91902955D01*
X105385619Y-91902955D02*
X105338000Y-91807717D01*
X105338000Y-91807717D02*
X105290380Y-91760098D01*
X105290380Y-91760098D02*
X105195142Y-91712479D01*
X105195142Y-91712479D02*
X104957047Y-91712479D01*
X104957047Y-91712479D02*
X104861809Y-91760098D01*
X104861809Y-91760098D02*
X104814190Y-91807717D01*
X104814190Y-91807717D02*
X104766571Y-91902955D01*
X104766571Y-91902955D02*
X104766571Y-92093431D01*
X104766571Y-92093431D02*
X104814190Y-92188669D01*
X104814190Y-92188669D02*
X104861809Y-92236288D01*
X104861809Y-92236288D02*
X104957047Y-92283907D01*
X102559904Y-93141050D02*
X102559904Y-92664860D01*
X102845619Y-93236288D02*
X101845619Y-92902955D01*
X101845619Y-92902955D02*
X102845619Y-92569622D01*
X101845619Y-92331526D02*
X101845619Y-91664860D01*
X101845619Y-91664860D02*
X102845619Y-92093431D01*
X100019904Y-93141050D02*
X100019904Y-92664860D01*
X100305619Y-93236288D02*
X99305619Y-92902955D01*
X99305619Y-92902955D02*
X100305619Y-92569622D01*
X99734190Y-92093431D02*
X99686571Y-92188669D01*
X99686571Y-92188669D02*
X99638952Y-92236288D01*
X99638952Y-92236288D02*
X99543714Y-92283907D01*
X99543714Y-92283907D02*
X99496095Y-92283907D01*
X99496095Y-92283907D02*
X99400857Y-92236288D01*
X99400857Y-92236288D02*
X99353238Y-92188669D01*
X99353238Y-92188669D02*
X99305619Y-92093431D01*
X99305619Y-92093431D02*
X99305619Y-91902955D01*
X99305619Y-91902955D02*
X99353238Y-91807717D01*
X99353238Y-91807717D02*
X99400857Y-91760098D01*
X99400857Y-91760098D02*
X99496095Y-91712479D01*
X99496095Y-91712479D02*
X99543714Y-91712479D01*
X99543714Y-91712479D02*
X99638952Y-91760098D01*
X99638952Y-91760098D02*
X99686571Y-91807717D01*
X99686571Y-91807717D02*
X99734190Y-91902955D01*
X99734190Y-91902955D02*
X99734190Y-92093431D01*
X99734190Y-92093431D02*
X99781809Y-92188669D01*
X99781809Y-92188669D02*
X99829428Y-92236288D01*
X99829428Y-92236288D02*
X99924666Y-92283907D01*
X99924666Y-92283907D02*
X100115142Y-92283907D01*
X100115142Y-92283907D02*
X100210380Y-92236288D01*
X100210380Y-92236288D02*
X100258000Y-92188669D01*
X100258000Y-92188669D02*
X100305619Y-92093431D01*
X100305619Y-92093431D02*
X100305619Y-91902955D01*
X100305619Y-91902955D02*
X100258000Y-91807717D01*
X100258000Y-91807717D02*
X100210380Y-91760098D01*
X100210380Y-91760098D02*
X100115142Y-91712479D01*
X100115142Y-91712479D02*
X99924666Y-91712479D01*
X99924666Y-91712479D02*
X99829428Y-91760098D01*
X99829428Y-91760098D02*
X99781809Y-91807717D01*
X99781809Y-91807717D02*
X99734190Y-91902955D01*
X97479904Y-93141050D02*
X97479904Y-92664860D01*
X97765619Y-93236288D02*
X96765619Y-92902955D01*
X96765619Y-92902955D02*
X97765619Y-92569622D01*
X97765619Y-92188669D02*
X97765619Y-91998193D01*
X97765619Y-91998193D02*
X97718000Y-91902955D01*
X97718000Y-91902955D02*
X97670380Y-91855336D01*
X97670380Y-91855336D02*
X97527523Y-91760098D01*
X97527523Y-91760098D02*
X97337047Y-91712479D01*
X97337047Y-91712479D02*
X96956095Y-91712479D01*
X96956095Y-91712479D02*
X96860857Y-91760098D01*
X96860857Y-91760098D02*
X96813238Y-91807717D01*
X96813238Y-91807717D02*
X96765619Y-91902955D01*
X96765619Y-91902955D02*
X96765619Y-92093431D01*
X96765619Y-92093431D02*
X96813238Y-92188669D01*
X96813238Y-92188669D02*
X96860857Y-92236288D01*
X96860857Y-92236288D02*
X96956095Y-92283907D01*
X96956095Y-92283907D02*
X97194190Y-92283907D01*
X97194190Y-92283907D02*
X97289428Y-92236288D01*
X97289428Y-92236288D02*
X97337047Y-92188669D01*
X97337047Y-92188669D02*
X97384666Y-92093431D01*
X97384666Y-92093431D02*
X97384666Y-91902955D01*
X97384666Y-91902955D02*
X97337047Y-91807717D01*
X97337047Y-91807717D02*
X97289428Y-91760098D01*
X97289428Y-91760098D02*
X97194190Y-91712479D01*
D10*
X94942504Y-93212041D02*
X94942504Y-92831088D01*
X95228219Y-93288231D02*
X94228219Y-93021564D01*
X94228219Y-93021564D02*
X95228219Y-92754898D01*
X95228219Y-92069184D02*
X95228219Y-92526327D01*
X95228219Y-92297755D02*
X94228219Y-92297755D01*
X94228219Y-92297755D02*
X94371076Y-92373946D01*
X94371076Y-92373946D02*
X94466314Y-92450136D01*
X94466314Y-92450136D02*
X94513933Y-92526327D01*
X94228219Y-91573945D02*
X94228219Y-91497755D01*
X94228219Y-91497755D02*
X94275838Y-91421564D01*
X94275838Y-91421564D02*
X94323457Y-91383469D01*
X94323457Y-91383469D02*
X94418695Y-91345374D01*
X94418695Y-91345374D02*
X94609171Y-91307279D01*
X94609171Y-91307279D02*
X94847266Y-91307279D01*
X94847266Y-91307279D02*
X95037742Y-91345374D01*
X95037742Y-91345374D02*
X95132980Y-91383469D01*
X95132980Y-91383469D02*
X95180600Y-91421564D01*
X95180600Y-91421564D02*
X95228219Y-91497755D01*
X95228219Y-91497755D02*
X95228219Y-91573945D01*
X95228219Y-91573945D02*
X95180600Y-91650136D01*
X95180600Y-91650136D02*
X95132980Y-91688231D01*
X95132980Y-91688231D02*
X95037742Y-91726326D01*
X95037742Y-91726326D02*
X94847266Y-91764422D01*
X94847266Y-91764422D02*
X94609171Y-91764422D01*
X94609171Y-91764422D02*
X94418695Y-91726326D01*
X94418695Y-91726326D02*
X94323457Y-91688231D01*
X94323457Y-91688231D02*
X94275838Y-91650136D01*
X94275838Y-91650136D02*
X94228219Y-91573945D01*
X92402504Y-93212041D02*
X92402504Y-92831088D01*
X92688219Y-93288231D02*
X91688219Y-93021564D01*
X91688219Y-93021564D02*
X92688219Y-92754898D01*
X92688219Y-92069184D02*
X92688219Y-92526327D01*
X92688219Y-92297755D02*
X91688219Y-92297755D01*
X91688219Y-92297755D02*
X91831076Y-92373946D01*
X91831076Y-92373946D02*
X91926314Y-92450136D01*
X91926314Y-92450136D02*
X91973933Y-92526327D01*
X92688219Y-91307279D02*
X92688219Y-91764422D01*
X92688219Y-91535850D02*
X91688219Y-91535850D01*
X91688219Y-91535850D02*
X91831076Y-91612041D01*
X91831076Y-91612041D02*
X91926314Y-91688231D01*
X91926314Y-91688231D02*
X91973933Y-91764422D01*
X89862504Y-93212041D02*
X89862504Y-92831088D01*
X90148219Y-93288231D02*
X89148219Y-93021564D01*
X89148219Y-93021564D02*
X90148219Y-92754898D01*
X90148219Y-92069184D02*
X90148219Y-92526327D01*
X90148219Y-92297755D02*
X89148219Y-92297755D01*
X89148219Y-92297755D02*
X89291076Y-92373946D01*
X89291076Y-92373946D02*
X89386314Y-92450136D01*
X89386314Y-92450136D02*
X89433933Y-92526327D01*
X89243457Y-91764422D02*
X89195838Y-91726326D01*
X89195838Y-91726326D02*
X89148219Y-91650136D01*
X89148219Y-91650136D02*
X89148219Y-91459660D01*
X89148219Y-91459660D02*
X89195838Y-91383469D01*
X89195838Y-91383469D02*
X89243457Y-91345374D01*
X89243457Y-91345374D02*
X89338695Y-91307279D01*
X89338695Y-91307279D02*
X89433933Y-91307279D01*
X89433933Y-91307279D02*
X89576790Y-91345374D01*
X89576790Y-91345374D02*
X90148219Y-91802517D01*
X90148219Y-91802517D02*
X90148219Y-91307279D01*
X87322504Y-93212041D02*
X87322504Y-92831088D01*
X87608219Y-93288231D02*
X86608219Y-93021564D01*
X86608219Y-93021564D02*
X87608219Y-92754898D01*
X87608219Y-92069184D02*
X87608219Y-92526327D01*
X87608219Y-92297755D02*
X86608219Y-92297755D01*
X86608219Y-92297755D02*
X86751076Y-92373946D01*
X86751076Y-92373946D02*
X86846314Y-92450136D01*
X86846314Y-92450136D02*
X86893933Y-92526327D01*
X86608219Y-91802517D02*
X86608219Y-91307279D01*
X86608219Y-91307279D02*
X86989171Y-91573945D01*
X86989171Y-91573945D02*
X86989171Y-91459660D01*
X86989171Y-91459660D02*
X87036790Y-91383469D01*
X87036790Y-91383469D02*
X87084409Y-91345374D01*
X87084409Y-91345374D02*
X87179647Y-91307279D01*
X87179647Y-91307279D02*
X87417742Y-91307279D01*
X87417742Y-91307279D02*
X87512980Y-91345374D01*
X87512980Y-91345374D02*
X87560600Y-91383469D01*
X87560600Y-91383469D02*
X87608219Y-91459660D01*
X87608219Y-91459660D02*
X87608219Y-91688231D01*
X87608219Y-91688231D02*
X87560600Y-91764422D01*
X87560600Y-91764422D02*
X87512980Y-91802517D01*
X84782504Y-93212041D02*
X84782504Y-92831088D01*
X85068219Y-93288231D02*
X84068219Y-93021564D01*
X84068219Y-93021564D02*
X85068219Y-92754898D01*
X85068219Y-92069184D02*
X85068219Y-92526327D01*
X85068219Y-92297755D02*
X84068219Y-92297755D01*
X84068219Y-92297755D02*
X84211076Y-92373946D01*
X84211076Y-92373946D02*
X84306314Y-92450136D01*
X84306314Y-92450136D02*
X84353933Y-92526327D01*
X84401552Y-91383469D02*
X85068219Y-91383469D01*
X84020600Y-91573945D02*
X84734885Y-91764422D01*
X84734885Y-91764422D02*
X84734885Y-91269183D01*
X82242504Y-93212041D02*
X82242504Y-92831088D01*
X82528219Y-93288231D02*
X81528219Y-93021564D01*
X81528219Y-93021564D02*
X82528219Y-92754898D01*
X82528219Y-92069184D02*
X82528219Y-92526327D01*
X82528219Y-92297755D02*
X81528219Y-92297755D01*
X81528219Y-92297755D02*
X81671076Y-92373946D01*
X81671076Y-92373946D02*
X81766314Y-92450136D01*
X81766314Y-92450136D02*
X81813933Y-92526327D01*
X81528219Y-91345374D02*
X81528219Y-91726326D01*
X81528219Y-91726326D02*
X82004409Y-91764422D01*
X82004409Y-91764422D02*
X81956790Y-91726326D01*
X81956790Y-91726326D02*
X81909171Y-91650136D01*
X81909171Y-91650136D02*
X81909171Y-91459660D01*
X81909171Y-91459660D02*
X81956790Y-91383469D01*
X81956790Y-91383469D02*
X82004409Y-91345374D01*
X82004409Y-91345374D02*
X82099647Y-91307279D01*
X82099647Y-91307279D02*
X82337742Y-91307279D01*
X82337742Y-91307279D02*
X82432980Y-91345374D01*
X82432980Y-91345374D02*
X82480600Y-91383469D01*
X82480600Y-91383469D02*
X82528219Y-91459660D01*
X82528219Y-91459660D02*
X82528219Y-91650136D01*
X82528219Y-91650136D02*
X82480600Y-91726326D01*
X82480600Y-91726326D02*
X82432980Y-91764422D01*
D11*
X82525619Y-100914758D02*
X81525619Y-100914758D01*
X81525619Y-100914758D02*
X81525619Y-100676663D01*
X81525619Y-100676663D02*
X81573238Y-100533806D01*
X81573238Y-100533806D02*
X81668476Y-100438568D01*
X81668476Y-100438568D02*
X81763714Y-100390949D01*
X81763714Y-100390949D02*
X81954190Y-100343330D01*
X81954190Y-100343330D02*
X82097047Y-100343330D01*
X82097047Y-100343330D02*
X82287523Y-100390949D01*
X82287523Y-100390949D02*
X82382761Y-100438568D01*
X82382761Y-100438568D02*
X82478000Y-100533806D01*
X82478000Y-100533806D02*
X82525619Y-100676663D01*
X82525619Y-100676663D02*
X82525619Y-100914758D01*
X81525619Y-100009996D02*
X81525619Y-99343330D01*
X81525619Y-99343330D02*
X82525619Y-99771901D01*
X85065619Y-100914758D02*
X84065619Y-100914758D01*
X84065619Y-100914758D02*
X84065619Y-100676663D01*
X84065619Y-100676663D02*
X84113238Y-100533806D01*
X84113238Y-100533806D02*
X84208476Y-100438568D01*
X84208476Y-100438568D02*
X84303714Y-100390949D01*
X84303714Y-100390949D02*
X84494190Y-100343330D01*
X84494190Y-100343330D02*
X84637047Y-100343330D01*
X84637047Y-100343330D02*
X84827523Y-100390949D01*
X84827523Y-100390949D02*
X84922761Y-100438568D01*
X84922761Y-100438568D02*
X85018000Y-100533806D01*
X85018000Y-100533806D02*
X85065619Y-100676663D01*
X85065619Y-100676663D02*
X85065619Y-100914758D01*
X84065619Y-99486187D02*
X84065619Y-99676663D01*
X84065619Y-99676663D02*
X84113238Y-99771901D01*
X84113238Y-99771901D02*
X84160857Y-99819520D01*
X84160857Y-99819520D02*
X84303714Y-99914758D01*
X84303714Y-99914758D02*
X84494190Y-99962377D01*
X84494190Y-99962377D02*
X84875142Y-99962377D01*
X84875142Y-99962377D02*
X84970380Y-99914758D01*
X84970380Y-99914758D02*
X85018000Y-99867139D01*
X85018000Y-99867139D02*
X85065619Y-99771901D01*
X85065619Y-99771901D02*
X85065619Y-99581425D01*
X85065619Y-99581425D02*
X85018000Y-99486187D01*
X85018000Y-99486187D02*
X84970380Y-99438568D01*
X84970380Y-99438568D02*
X84875142Y-99390949D01*
X84875142Y-99390949D02*
X84637047Y-99390949D01*
X84637047Y-99390949D02*
X84541809Y-99438568D01*
X84541809Y-99438568D02*
X84494190Y-99486187D01*
X84494190Y-99486187D02*
X84446571Y-99581425D01*
X84446571Y-99581425D02*
X84446571Y-99771901D01*
X84446571Y-99771901D02*
X84494190Y-99867139D01*
X84494190Y-99867139D02*
X84541809Y-99914758D01*
X84541809Y-99914758D02*
X84637047Y-99962377D01*
X87605619Y-100914758D02*
X86605619Y-100914758D01*
X86605619Y-100914758D02*
X86605619Y-100676663D01*
X86605619Y-100676663D02*
X86653238Y-100533806D01*
X86653238Y-100533806D02*
X86748476Y-100438568D01*
X86748476Y-100438568D02*
X86843714Y-100390949D01*
X86843714Y-100390949D02*
X87034190Y-100343330D01*
X87034190Y-100343330D02*
X87177047Y-100343330D01*
X87177047Y-100343330D02*
X87367523Y-100390949D01*
X87367523Y-100390949D02*
X87462761Y-100438568D01*
X87462761Y-100438568D02*
X87558000Y-100533806D01*
X87558000Y-100533806D02*
X87605619Y-100676663D01*
X87605619Y-100676663D02*
X87605619Y-100914758D01*
X86605619Y-99438568D02*
X86605619Y-99914758D01*
X86605619Y-99914758D02*
X87081809Y-99962377D01*
X87081809Y-99962377D02*
X87034190Y-99914758D01*
X87034190Y-99914758D02*
X86986571Y-99819520D01*
X86986571Y-99819520D02*
X86986571Y-99581425D01*
X86986571Y-99581425D02*
X87034190Y-99486187D01*
X87034190Y-99486187D02*
X87081809Y-99438568D01*
X87081809Y-99438568D02*
X87177047Y-99390949D01*
X87177047Y-99390949D02*
X87415142Y-99390949D01*
X87415142Y-99390949D02*
X87510380Y-99438568D01*
X87510380Y-99438568D02*
X87558000Y-99486187D01*
X87558000Y-99486187D02*
X87605619Y-99581425D01*
X87605619Y-99581425D02*
X87605619Y-99819520D01*
X87605619Y-99819520D02*
X87558000Y-99914758D01*
X87558000Y-99914758D02*
X87510380Y-99962377D01*
X90145619Y-100914758D02*
X89145619Y-100914758D01*
X89145619Y-100914758D02*
X89145619Y-100676663D01*
X89145619Y-100676663D02*
X89193238Y-100533806D01*
X89193238Y-100533806D02*
X89288476Y-100438568D01*
X89288476Y-100438568D02*
X89383714Y-100390949D01*
X89383714Y-100390949D02*
X89574190Y-100343330D01*
X89574190Y-100343330D02*
X89717047Y-100343330D01*
X89717047Y-100343330D02*
X89907523Y-100390949D01*
X89907523Y-100390949D02*
X90002761Y-100438568D01*
X90002761Y-100438568D02*
X90098000Y-100533806D01*
X90098000Y-100533806D02*
X90145619Y-100676663D01*
X90145619Y-100676663D02*
X90145619Y-100914758D01*
X89478952Y-99486187D02*
X90145619Y-99486187D01*
X89098000Y-99724282D02*
X89812285Y-99962377D01*
X89812285Y-99962377D02*
X89812285Y-99343330D01*
X92685619Y-100914758D02*
X91685619Y-100914758D01*
X91685619Y-100914758D02*
X91685619Y-100676663D01*
X91685619Y-100676663D02*
X91733238Y-100533806D01*
X91733238Y-100533806D02*
X91828476Y-100438568D01*
X91828476Y-100438568D02*
X91923714Y-100390949D01*
X91923714Y-100390949D02*
X92114190Y-100343330D01*
X92114190Y-100343330D02*
X92257047Y-100343330D01*
X92257047Y-100343330D02*
X92447523Y-100390949D01*
X92447523Y-100390949D02*
X92542761Y-100438568D01*
X92542761Y-100438568D02*
X92638000Y-100533806D01*
X92638000Y-100533806D02*
X92685619Y-100676663D01*
X92685619Y-100676663D02*
X92685619Y-100914758D01*
X91685619Y-100009996D02*
X91685619Y-99390949D01*
X91685619Y-99390949D02*
X92066571Y-99724282D01*
X92066571Y-99724282D02*
X92066571Y-99581425D01*
X92066571Y-99581425D02*
X92114190Y-99486187D01*
X92114190Y-99486187D02*
X92161809Y-99438568D01*
X92161809Y-99438568D02*
X92257047Y-99390949D01*
X92257047Y-99390949D02*
X92495142Y-99390949D01*
X92495142Y-99390949D02*
X92590380Y-99438568D01*
X92590380Y-99438568D02*
X92638000Y-99486187D01*
X92638000Y-99486187D02*
X92685619Y-99581425D01*
X92685619Y-99581425D02*
X92685619Y-99867139D01*
X92685619Y-99867139D02*
X92638000Y-99962377D01*
X92638000Y-99962377D02*
X92590380Y-100009996D01*
X95225619Y-100914758D02*
X94225619Y-100914758D01*
X94225619Y-100914758D02*
X94225619Y-100676663D01*
X94225619Y-100676663D02*
X94273238Y-100533806D01*
X94273238Y-100533806D02*
X94368476Y-100438568D01*
X94368476Y-100438568D02*
X94463714Y-100390949D01*
X94463714Y-100390949D02*
X94654190Y-100343330D01*
X94654190Y-100343330D02*
X94797047Y-100343330D01*
X94797047Y-100343330D02*
X94987523Y-100390949D01*
X94987523Y-100390949D02*
X95082761Y-100438568D01*
X95082761Y-100438568D02*
X95178000Y-100533806D01*
X95178000Y-100533806D02*
X95225619Y-100676663D01*
X95225619Y-100676663D02*
X95225619Y-100914758D01*
X94320857Y-99962377D02*
X94273238Y-99914758D01*
X94273238Y-99914758D02*
X94225619Y-99819520D01*
X94225619Y-99819520D02*
X94225619Y-99581425D01*
X94225619Y-99581425D02*
X94273238Y-99486187D01*
X94273238Y-99486187D02*
X94320857Y-99438568D01*
X94320857Y-99438568D02*
X94416095Y-99390949D01*
X94416095Y-99390949D02*
X94511333Y-99390949D01*
X94511333Y-99390949D02*
X94654190Y-99438568D01*
X94654190Y-99438568D02*
X95225619Y-100009996D01*
X95225619Y-100009996D02*
X95225619Y-99390949D01*
X97765619Y-100914758D02*
X96765619Y-100914758D01*
X96765619Y-100914758D02*
X96765619Y-100676663D01*
X96765619Y-100676663D02*
X96813238Y-100533806D01*
X96813238Y-100533806D02*
X96908476Y-100438568D01*
X96908476Y-100438568D02*
X97003714Y-100390949D01*
X97003714Y-100390949D02*
X97194190Y-100343330D01*
X97194190Y-100343330D02*
X97337047Y-100343330D01*
X97337047Y-100343330D02*
X97527523Y-100390949D01*
X97527523Y-100390949D02*
X97622761Y-100438568D01*
X97622761Y-100438568D02*
X97718000Y-100533806D01*
X97718000Y-100533806D02*
X97765619Y-100676663D01*
X97765619Y-100676663D02*
X97765619Y-100914758D01*
X97765619Y-99390949D02*
X97765619Y-99962377D01*
X97765619Y-99676663D02*
X96765619Y-99676663D01*
X96765619Y-99676663D02*
X96908476Y-99771901D01*
X96908476Y-99771901D02*
X97003714Y-99867139D01*
X97003714Y-99867139D02*
X97051333Y-99962377D01*
X100305619Y-100914758D02*
X99305619Y-100914758D01*
X99305619Y-100914758D02*
X99305619Y-100676663D01*
X99305619Y-100676663D02*
X99353238Y-100533806D01*
X99353238Y-100533806D02*
X99448476Y-100438568D01*
X99448476Y-100438568D02*
X99543714Y-100390949D01*
X99543714Y-100390949D02*
X99734190Y-100343330D01*
X99734190Y-100343330D02*
X99877047Y-100343330D01*
X99877047Y-100343330D02*
X100067523Y-100390949D01*
X100067523Y-100390949D02*
X100162761Y-100438568D01*
X100162761Y-100438568D02*
X100258000Y-100533806D01*
X100258000Y-100533806D02*
X100305619Y-100676663D01*
X100305619Y-100676663D02*
X100305619Y-100914758D01*
X99305619Y-99724282D02*
X99305619Y-99629044D01*
X99305619Y-99629044D02*
X99353238Y-99533806D01*
X99353238Y-99533806D02*
X99400857Y-99486187D01*
X99400857Y-99486187D02*
X99496095Y-99438568D01*
X99496095Y-99438568D02*
X99686571Y-99390949D01*
X99686571Y-99390949D02*
X99924666Y-99390949D01*
X99924666Y-99390949D02*
X100115142Y-99438568D01*
X100115142Y-99438568D02*
X100210380Y-99486187D01*
X100210380Y-99486187D02*
X100258000Y-99533806D01*
X100258000Y-99533806D02*
X100305619Y-99629044D01*
X100305619Y-99629044D02*
X100305619Y-99724282D01*
X100305619Y-99724282D02*
X100258000Y-99819520D01*
X100258000Y-99819520D02*
X100210380Y-99867139D01*
X100210380Y-99867139D02*
X100115142Y-99914758D01*
X100115142Y-99914758D02*
X99924666Y-99962377D01*
X99924666Y-99962377D02*
X99686571Y-99962377D01*
X99686571Y-99962377D02*
X99496095Y-99914758D01*
X99496095Y-99914758D02*
X99400857Y-99867139D01*
X99400857Y-99867139D02*
X99353238Y-99819520D01*
X99353238Y-99819520D02*
X99305619Y-99724282D01*
X102845619Y-101105235D02*
X102369428Y-101438568D01*
X102845619Y-101676663D02*
X101845619Y-101676663D01*
X101845619Y-101676663D02*
X101845619Y-101295711D01*
X101845619Y-101295711D02*
X101893238Y-101200473D01*
X101893238Y-101200473D02*
X101940857Y-101152854D01*
X101940857Y-101152854D02*
X102036095Y-101105235D01*
X102036095Y-101105235D02*
X102178952Y-101105235D01*
X102178952Y-101105235D02*
X102274190Y-101152854D01*
X102274190Y-101152854D02*
X102321809Y-101200473D01*
X102321809Y-101200473D02*
X102369428Y-101295711D01*
X102369428Y-101295711D02*
X102369428Y-101676663D01*
X102798000Y-100724282D02*
X102845619Y-100581425D01*
X102845619Y-100581425D02*
X102845619Y-100343330D01*
X102845619Y-100343330D02*
X102798000Y-100248092D01*
X102798000Y-100248092D02*
X102750380Y-100200473D01*
X102750380Y-100200473D02*
X102655142Y-100152854D01*
X102655142Y-100152854D02*
X102559904Y-100152854D01*
X102559904Y-100152854D02*
X102464666Y-100200473D01*
X102464666Y-100200473D02*
X102417047Y-100248092D01*
X102417047Y-100248092D02*
X102369428Y-100343330D01*
X102369428Y-100343330D02*
X102321809Y-100533806D01*
X102321809Y-100533806D02*
X102274190Y-100629044D01*
X102274190Y-100629044D02*
X102226571Y-100676663D01*
X102226571Y-100676663D02*
X102131333Y-100724282D01*
X102131333Y-100724282D02*
X102036095Y-100724282D01*
X102036095Y-100724282D02*
X101940857Y-100676663D01*
X101940857Y-100676663D02*
X101893238Y-100629044D01*
X101893238Y-100629044D02*
X101845619Y-100533806D01*
X101845619Y-100533806D02*
X101845619Y-100295711D01*
X101845619Y-100295711D02*
X101893238Y-100152854D01*
X101845619Y-99867139D02*
X101845619Y-99295711D01*
X102845619Y-99581425D02*
X101845619Y-99581425D01*
X105385619Y-102533805D02*
X104385619Y-102533805D01*
X104385619Y-101867139D02*
X104385619Y-101676663D01*
X104385619Y-101676663D02*
X104433238Y-101581425D01*
X104433238Y-101581425D02*
X104528476Y-101486187D01*
X104528476Y-101486187D02*
X104718952Y-101438568D01*
X104718952Y-101438568D02*
X105052285Y-101438568D01*
X105052285Y-101438568D02*
X105242761Y-101486187D01*
X105242761Y-101486187D02*
X105338000Y-101581425D01*
X105338000Y-101581425D02*
X105385619Y-101676663D01*
X105385619Y-101676663D02*
X105385619Y-101867139D01*
X105385619Y-101867139D02*
X105338000Y-101962377D01*
X105338000Y-101962377D02*
X105242761Y-102057615D01*
X105242761Y-102057615D02*
X105052285Y-102105234D01*
X105052285Y-102105234D02*
X104718952Y-102105234D01*
X104718952Y-102105234D02*
X104528476Y-102057615D01*
X104528476Y-102057615D02*
X104433238Y-101962377D01*
X104433238Y-101962377D02*
X104385619Y-101867139D01*
X105385619Y-100438568D02*
X104909428Y-100771901D01*
X105385619Y-101009996D02*
X104385619Y-101009996D01*
X104385619Y-101009996D02*
X104385619Y-100629044D01*
X104385619Y-100629044D02*
X104433238Y-100533806D01*
X104433238Y-100533806D02*
X104480857Y-100486187D01*
X104480857Y-100486187D02*
X104576095Y-100438568D01*
X104576095Y-100438568D02*
X104718952Y-100438568D01*
X104718952Y-100438568D02*
X104814190Y-100486187D01*
X104814190Y-100486187D02*
X104861809Y-100533806D01*
X104861809Y-100533806D02*
X104909428Y-100629044D01*
X104909428Y-100629044D02*
X104909428Y-101009996D01*
X105480857Y-99343330D02*
X105433238Y-99438568D01*
X105433238Y-99438568D02*
X105338000Y-99533806D01*
X105338000Y-99533806D02*
X105195142Y-99676663D01*
X105195142Y-99676663D02*
X105147523Y-99771901D01*
X105147523Y-99771901D02*
X105147523Y-99867139D01*
X105385619Y-99819520D02*
X105338000Y-99914758D01*
X105338000Y-99914758D02*
X105242761Y-100009996D01*
X105242761Y-100009996D02*
X105052285Y-100057615D01*
X105052285Y-100057615D02*
X104718952Y-100057615D01*
X104718952Y-100057615D02*
X104528476Y-100009996D01*
X104528476Y-100009996D02*
X104433238Y-99914758D01*
X104433238Y-99914758D02*
X104385619Y-99819520D01*
X104385619Y-99819520D02*
X104385619Y-99629044D01*
X104385619Y-99629044D02*
X104433238Y-99533806D01*
X104433238Y-99533806D02*
X104528476Y-99438568D01*
X104528476Y-99438568D02*
X104718952Y-99390949D01*
X104718952Y-99390949D02*
X105052285Y-99390949D01*
X105052285Y-99390949D02*
X105242761Y-99438568D01*
X105242761Y-99438568D02*
X105338000Y-99533806D01*
X105338000Y-99533806D02*
X105385619Y-99629044D01*
X105385619Y-99629044D02*
X105385619Y-99819520D01*
X107925619Y-103057615D02*
X106925619Y-103057615D01*
X106925619Y-103057615D02*
X107639904Y-102724282D01*
X107639904Y-102724282D02*
X106925619Y-102390949D01*
X106925619Y-102390949D02*
X107925619Y-102390949D01*
X107925619Y-101343330D02*
X107449428Y-101676663D01*
X107925619Y-101914758D02*
X106925619Y-101914758D01*
X106925619Y-101914758D02*
X106925619Y-101533806D01*
X106925619Y-101533806D02*
X106973238Y-101438568D01*
X106973238Y-101438568D02*
X107020857Y-101390949D01*
X107020857Y-101390949D02*
X107116095Y-101343330D01*
X107116095Y-101343330D02*
X107258952Y-101343330D01*
X107258952Y-101343330D02*
X107354190Y-101390949D01*
X107354190Y-101390949D02*
X107401809Y-101438568D01*
X107401809Y-101438568D02*
X107449428Y-101533806D01*
X107449428Y-101533806D02*
X107449428Y-101914758D01*
X107401809Y-100914758D02*
X107401809Y-100581425D01*
X107925619Y-100438568D02*
X107925619Y-100914758D01*
X107925619Y-100914758D02*
X106925619Y-100914758D01*
X106925619Y-100914758D02*
X106925619Y-100438568D01*
X108020857Y-99343330D02*
X107973238Y-99438568D01*
X107973238Y-99438568D02*
X107878000Y-99533806D01*
X107878000Y-99533806D02*
X107735142Y-99676663D01*
X107735142Y-99676663D02*
X107687523Y-99771901D01*
X107687523Y-99771901D02*
X107687523Y-99867139D01*
X107925619Y-99819520D02*
X107878000Y-99914758D01*
X107878000Y-99914758D02*
X107782761Y-100009996D01*
X107782761Y-100009996D02*
X107592285Y-100057615D01*
X107592285Y-100057615D02*
X107258952Y-100057615D01*
X107258952Y-100057615D02*
X107068476Y-100009996D01*
X107068476Y-100009996D02*
X106973238Y-99914758D01*
X106973238Y-99914758D02*
X106925619Y-99819520D01*
X106925619Y-99819520D02*
X106925619Y-99629044D01*
X106925619Y-99629044D02*
X106973238Y-99533806D01*
X106973238Y-99533806D02*
X107068476Y-99438568D01*
X107068476Y-99438568D02*
X107258952Y-99390949D01*
X107258952Y-99390949D02*
X107592285Y-99390949D01*
X107592285Y-99390949D02*
X107782761Y-99438568D01*
X107782761Y-99438568D02*
X107878000Y-99533806D01*
X107878000Y-99533806D02*
X107925619Y-99629044D01*
X107925619Y-99629044D02*
X107925619Y-99819520D01*
X110465619Y-100390949D02*
X109989428Y-100724282D01*
X110465619Y-100962377D02*
X109465619Y-100962377D01*
X109465619Y-100962377D02*
X109465619Y-100581425D01*
X109465619Y-100581425D02*
X109513238Y-100486187D01*
X109513238Y-100486187D02*
X109560857Y-100438568D01*
X109560857Y-100438568D02*
X109656095Y-100390949D01*
X109656095Y-100390949D02*
X109798952Y-100390949D01*
X109798952Y-100390949D02*
X109894190Y-100438568D01*
X109894190Y-100438568D02*
X109941809Y-100486187D01*
X109941809Y-100486187D02*
X109989428Y-100581425D01*
X109989428Y-100581425D02*
X109989428Y-100962377D01*
X110465619Y-99962377D02*
X109465619Y-99962377D01*
X109465619Y-99962377D02*
X109465619Y-99724282D01*
X109465619Y-99724282D02*
X109513238Y-99581425D01*
X109513238Y-99581425D02*
X109608476Y-99486187D01*
X109608476Y-99486187D02*
X109703714Y-99438568D01*
X109703714Y-99438568D02*
X109894190Y-99390949D01*
X109894190Y-99390949D02*
X110037047Y-99390949D01*
X110037047Y-99390949D02*
X110227523Y-99438568D01*
X110227523Y-99438568D02*
X110322761Y-99486187D01*
X110322761Y-99486187D02*
X110418000Y-99581425D01*
X110418000Y-99581425D02*
X110465619Y-99724282D01*
X110465619Y-99724282D02*
X110465619Y-99962377D01*
X112005619Y-101200472D02*
X113005619Y-100962377D01*
X113005619Y-100962377D02*
X112291333Y-100771901D01*
X112291333Y-100771901D02*
X113005619Y-100581425D01*
X113005619Y-100581425D02*
X112005619Y-100343330D01*
X113005619Y-99390949D02*
X112529428Y-99724282D01*
X113005619Y-99962377D02*
X112005619Y-99962377D01*
X112005619Y-99962377D02*
X112005619Y-99581425D01*
X112005619Y-99581425D02*
X112053238Y-99486187D01*
X112053238Y-99486187D02*
X112100857Y-99438568D01*
X112100857Y-99438568D02*
X112196095Y-99390949D01*
X112196095Y-99390949D02*
X112338952Y-99390949D01*
X112338952Y-99390949D02*
X112434190Y-99438568D01*
X112434190Y-99438568D02*
X112481809Y-99486187D01*
X112481809Y-99486187D02*
X112529428Y-99581425D01*
X112529428Y-99581425D02*
X112529428Y-99962377D01*
X115545619Y-101248091D02*
X114545619Y-101248091D01*
X115545619Y-100771901D02*
X114545619Y-100771901D01*
X114545619Y-100771901D02*
X115545619Y-100200473D01*
X115545619Y-100200473D02*
X114545619Y-100200473D01*
X114545619Y-99867139D02*
X114545619Y-99295711D01*
X115545619Y-99581425D02*
X114545619Y-99581425D01*
X118085619Y-101629043D02*
X117085619Y-101629043D01*
X117085619Y-101629043D02*
X118085619Y-101057615D01*
X118085619Y-101057615D02*
X117085619Y-101057615D01*
X118085619Y-100581424D02*
X117085619Y-100581424D01*
X117085619Y-100581424D02*
X117799904Y-100248091D01*
X117799904Y-100248091D02*
X117085619Y-99914758D01*
X117085619Y-99914758D02*
X118085619Y-99914758D01*
X118085619Y-99438567D02*
X117085619Y-99438567D01*
D10*
X119628219Y-101643768D02*
X120628219Y-101453292D01*
X120628219Y-101453292D02*
X119913933Y-101300911D01*
X119913933Y-101300911D02*
X120628219Y-101148530D01*
X120628219Y-101148530D02*
X119628219Y-100958054D01*
X120342504Y-100691387D02*
X120342504Y-100310434D01*
X120628219Y-100767577D02*
X119628219Y-100500910D01*
X119628219Y-100500910D02*
X120628219Y-100234244D01*
X120628219Y-99967577D02*
X119628219Y-99967577D01*
X119628219Y-99700911D02*
X119628219Y-99243768D01*
X120628219Y-99472340D02*
X119628219Y-99472340D01*
X123072980Y-100843768D02*
X123120600Y-100881864D01*
X123120600Y-100881864D02*
X123168219Y-100996149D01*
X123168219Y-100996149D02*
X123168219Y-101072340D01*
X123168219Y-101072340D02*
X123120600Y-101186626D01*
X123120600Y-101186626D02*
X123025361Y-101262816D01*
X123025361Y-101262816D02*
X122930123Y-101300911D01*
X122930123Y-101300911D02*
X122739647Y-101339007D01*
X122739647Y-101339007D02*
X122596790Y-101339007D01*
X122596790Y-101339007D02*
X122406314Y-101300911D01*
X122406314Y-101300911D02*
X122311076Y-101262816D01*
X122311076Y-101262816D02*
X122215838Y-101186626D01*
X122215838Y-101186626D02*
X122168219Y-101072340D01*
X122168219Y-101072340D02*
X122168219Y-100996149D01*
X122168219Y-100996149D02*
X122215838Y-100881864D01*
X122215838Y-100881864D02*
X122263457Y-100843768D01*
X123120600Y-100539007D02*
X123168219Y-100424721D01*
X123168219Y-100424721D02*
X123168219Y-100234245D01*
X123168219Y-100234245D02*
X123120600Y-100158054D01*
X123120600Y-100158054D02*
X123072980Y-100119959D01*
X123072980Y-100119959D02*
X122977742Y-100081864D01*
X122977742Y-100081864D02*
X122882504Y-100081864D01*
X122882504Y-100081864D02*
X122787266Y-100119959D01*
X122787266Y-100119959D02*
X122739647Y-100158054D01*
X122739647Y-100158054D02*
X122692028Y-100234245D01*
X122692028Y-100234245D02*
X122644409Y-100386626D01*
X122644409Y-100386626D02*
X122596790Y-100462816D01*
X122596790Y-100462816D02*
X122549171Y-100500911D01*
X122549171Y-100500911D02*
X122453933Y-100539007D01*
X122453933Y-100539007D02*
X122358695Y-100539007D01*
X122358695Y-100539007D02*
X122263457Y-100500911D01*
X122263457Y-100500911D02*
X122215838Y-100462816D01*
X122215838Y-100462816D02*
X122168219Y-100386626D01*
X122168219Y-100386626D02*
X122168219Y-100196149D01*
X122168219Y-100196149D02*
X122215838Y-100081864D01*
X122263457Y-99777102D02*
X122215838Y-99739006D01*
X122215838Y-99739006D02*
X122168219Y-99662816D01*
X122168219Y-99662816D02*
X122168219Y-99472340D01*
X122168219Y-99472340D02*
X122215838Y-99396149D01*
X122215838Y-99396149D02*
X122263457Y-99358054D01*
X122263457Y-99358054D02*
X122358695Y-99319959D01*
X122358695Y-99319959D02*
X122453933Y-99319959D01*
X122453933Y-99319959D02*
X122596790Y-99358054D01*
X122596790Y-99358054D02*
X123168219Y-99815197D01*
X123168219Y-99815197D02*
X123168219Y-99319959D01*
X125612980Y-100843768D02*
X125660600Y-100881864D01*
X125660600Y-100881864D02*
X125708219Y-100996149D01*
X125708219Y-100996149D02*
X125708219Y-101072340D01*
X125708219Y-101072340D02*
X125660600Y-101186626D01*
X125660600Y-101186626D02*
X125565361Y-101262816D01*
X125565361Y-101262816D02*
X125470123Y-101300911D01*
X125470123Y-101300911D02*
X125279647Y-101339007D01*
X125279647Y-101339007D02*
X125136790Y-101339007D01*
X125136790Y-101339007D02*
X124946314Y-101300911D01*
X124946314Y-101300911D02*
X124851076Y-101262816D01*
X124851076Y-101262816D02*
X124755838Y-101186626D01*
X124755838Y-101186626D02*
X124708219Y-101072340D01*
X124708219Y-101072340D02*
X124708219Y-100996149D01*
X124708219Y-100996149D02*
X124755838Y-100881864D01*
X124755838Y-100881864D02*
X124803457Y-100843768D01*
X125660600Y-100539007D02*
X125708219Y-100424721D01*
X125708219Y-100424721D02*
X125708219Y-100234245D01*
X125708219Y-100234245D02*
X125660600Y-100158054D01*
X125660600Y-100158054D02*
X125612980Y-100119959D01*
X125612980Y-100119959D02*
X125517742Y-100081864D01*
X125517742Y-100081864D02*
X125422504Y-100081864D01*
X125422504Y-100081864D02*
X125327266Y-100119959D01*
X125327266Y-100119959D02*
X125279647Y-100158054D01*
X125279647Y-100158054D02*
X125232028Y-100234245D01*
X125232028Y-100234245D02*
X125184409Y-100386626D01*
X125184409Y-100386626D02*
X125136790Y-100462816D01*
X125136790Y-100462816D02*
X125089171Y-100500911D01*
X125089171Y-100500911D02*
X124993933Y-100539007D01*
X124993933Y-100539007D02*
X124898695Y-100539007D01*
X124898695Y-100539007D02*
X124803457Y-100500911D01*
X124803457Y-100500911D02*
X124755838Y-100462816D01*
X124755838Y-100462816D02*
X124708219Y-100386626D01*
X124708219Y-100386626D02*
X124708219Y-100196149D01*
X124708219Y-100196149D02*
X124755838Y-100081864D01*
X125708219Y-99319959D02*
X125708219Y-99777102D01*
X125708219Y-99548530D02*
X124708219Y-99548530D01*
X124708219Y-99548530D02*
X124851076Y-99624721D01*
X124851076Y-99624721D02*
X124946314Y-99700911D01*
X124946314Y-99700911D02*
X124993933Y-99777102D01*
D11*
X127245619Y-100295711D02*
X127245619Y-100771901D01*
X127245619Y-100771901D02*
X127721809Y-100819520D01*
X127721809Y-100819520D02*
X127674190Y-100771901D01*
X127674190Y-100771901D02*
X127626571Y-100676663D01*
X127626571Y-100676663D02*
X127626571Y-100438568D01*
X127626571Y-100438568D02*
X127674190Y-100343330D01*
X127674190Y-100343330D02*
X127721809Y-100295711D01*
X127721809Y-100295711D02*
X127817047Y-100248092D01*
X127817047Y-100248092D02*
X128055142Y-100248092D01*
X128055142Y-100248092D02*
X128150380Y-100295711D01*
X128150380Y-100295711D02*
X128198000Y-100343330D01*
X128198000Y-100343330D02*
X128245619Y-100438568D01*
X128245619Y-100438568D02*
X128245619Y-100676663D01*
X128245619Y-100676663D02*
X128198000Y-100771901D01*
X128198000Y-100771901D02*
X128150380Y-100819520D01*
X127245619Y-99962377D02*
X128245619Y-99629044D01*
X128245619Y-99629044D02*
X127245619Y-99295711D01*
M02*
