%TF.GenerationSoftware,KiCad,Pcbnew,(6.0.2)*%
%TF.CreationDate,2022-02-20T21:17:01+01:00*%
%TF.ProjectId,z80,7a38302e-6b69-4636-9164-5f7063625858,rev?*%
%TF.SameCoordinates,Original*%
%TF.FileFunction,Paste,Top*%
%TF.FilePolarity,Positive*%
%FSLAX46Y46*%
G04 Gerber Fmt 4.6, Leading zero omitted, Abs format (unit mm)*
G04 Created by KiCad (PCBNEW (6.0.2)) date 2022-02-20 21:17:01*
%MOMM*%
%LPD*%
G01*
G04 APERTURE LIST*
G04 Aperture macros list*
%AMRoundRect*
0 Rectangle with rounded corners*
0 $1 Rounding radius*
0 $2 $3 $4 $5 $6 $7 $8 $9 X,Y pos of 4 corners*
0 Add a 4 corners polygon primitive as box body*
4,1,4,$2,$3,$4,$5,$6,$7,$8,$9,$2,$3,0*
0 Add four circle primitives for the rounded corners*
1,1,$1+$1,$2,$3*
1,1,$1+$1,$4,$5*
1,1,$1+$1,$6,$7*
1,1,$1+$1,$8,$9*
0 Add four rect primitives between the rounded corners*
20,1,$1+$1,$2,$3,$4,$5,0*
20,1,$1+$1,$4,$5,$6,$7,0*
20,1,$1+$1,$6,$7,$8,$9,0*
20,1,$1+$1,$8,$9,$2,$3,0*%
G04 Aperture macros list end*
%ADD10RoundRect,0.150000X-0.837500X-0.150000X0.837500X-0.150000X0.837500X0.150000X-0.837500X0.150000X0*%
%ADD11RoundRect,0.150000X-0.725000X-0.150000X0.725000X-0.150000X0.725000X0.150000X-0.725000X0.150000X0*%
G04 APERTURE END LIST*
D10*
%TO.C,U22*%
X123537500Y-150495000D03*
X123537500Y-151765000D03*
X123537500Y-153035000D03*
X123537500Y-154305000D03*
X123537500Y-155575000D03*
X123537500Y-156845000D03*
X123537500Y-158115000D03*
X123537500Y-159385000D03*
X130462500Y-159385000D03*
X130462500Y-158115000D03*
X130462500Y-156845000D03*
X130462500Y-155575000D03*
X130462500Y-154305000D03*
X130462500Y-153035000D03*
X130462500Y-151765000D03*
X130462500Y-150495000D03*
%TD*%
%TO.C,U12*%
X126077500Y-135255000D03*
X126077500Y-136525000D03*
X126077500Y-137795000D03*
X126077500Y-139065000D03*
X126077500Y-140335000D03*
X126077500Y-141605000D03*
X126077500Y-142875000D03*
X126077500Y-144145000D03*
X133002500Y-144145000D03*
X133002500Y-142875000D03*
X133002500Y-141605000D03*
X133002500Y-140335000D03*
X133002500Y-139065000D03*
X133002500Y-137795000D03*
X133002500Y-136525000D03*
X133002500Y-135255000D03*
%TD*%
%TO.C,U13*%
X138777500Y-135255000D03*
X138777500Y-136525000D03*
X138777500Y-137795000D03*
X138777500Y-139065000D03*
X138777500Y-140335000D03*
X138777500Y-141605000D03*
X138777500Y-142875000D03*
X138777500Y-144145000D03*
X145702500Y-144145000D03*
X145702500Y-142875000D03*
X145702500Y-141605000D03*
X145702500Y-140335000D03*
X145702500Y-139065000D03*
X145702500Y-137795000D03*
X145702500Y-136525000D03*
X145702500Y-135255000D03*
%TD*%
%TO.C,U23*%
X138777500Y-153035000D03*
X138777500Y-154305000D03*
X138777500Y-155575000D03*
X138777500Y-156845000D03*
X138777500Y-158115000D03*
X138777500Y-159385000D03*
X138777500Y-160655000D03*
X138777500Y-161925000D03*
X145702500Y-161925000D03*
X145702500Y-160655000D03*
X145702500Y-159385000D03*
X145702500Y-158115000D03*
X145702500Y-156845000D03*
X145702500Y-155575000D03*
X145702500Y-154305000D03*
X145702500Y-153035000D03*
%TD*%
%TO.C,U18*%
X67657500Y-165735000D03*
X67657500Y-167005000D03*
X67657500Y-168275000D03*
X67657500Y-169545000D03*
X67657500Y-170815000D03*
X67657500Y-172085000D03*
X67657500Y-173355000D03*
X67657500Y-174625000D03*
X74582500Y-174625000D03*
X74582500Y-173355000D03*
X74582500Y-172085000D03*
X74582500Y-170815000D03*
X74582500Y-169545000D03*
X74582500Y-168275000D03*
X74582500Y-167005000D03*
X74582500Y-165735000D03*
%TD*%
D11*
%TO.C,U2*%
X111725000Y-36195000D03*
X111725000Y-37465000D03*
X111725000Y-38735000D03*
X111725000Y-40005000D03*
X111725000Y-41275000D03*
X111725000Y-42545000D03*
X111725000Y-43815000D03*
X111725000Y-45085000D03*
X116875000Y-45085000D03*
X116875000Y-43815000D03*
X116875000Y-42545000D03*
X116875000Y-41275000D03*
X116875000Y-40005000D03*
X116875000Y-38735000D03*
X116875000Y-37465000D03*
X116875000Y-36195000D03*
%TD*%
%TO.C,U1*%
X101565000Y-36195000D03*
X101565000Y-37465000D03*
X101565000Y-38735000D03*
X101565000Y-40005000D03*
X101565000Y-41275000D03*
X101565000Y-42545000D03*
X101565000Y-43815000D03*
X101565000Y-45085000D03*
X106715000Y-45085000D03*
X106715000Y-43815000D03*
X106715000Y-42545000D03*
X106715000Y-41275000D03*
X106715000Y-40005000D03*
X106715000Y-38735000D03*
X106715000Y-37465000D03*
X106715000Y-36195000D03*
%TD*%
M02*
